mtllib materials.mtl
v 0.009999961 0.0688237 -0.009999998
v 0.009999961 0.0688237 0.009999998
v 0.009999961 0.08882368 0.009999998
v 0.009999961 0.08882368 -0.009999998
v -0.01000002 0.0688237 -0.009999998
v -0.01000002 0.08882368 -0.009999998
v -0.01000002 0.08882368 0.009999998
v -0.01000002 0.0688237 0.009999998
v 0.009999961 0.0488236 -0.009999998
v 0.009999961 0.0488236 0.009999998
v 0.009999961 0.06882358 0.009999998
v 0.009999961 0.06882358 -0.009999998
v -0.01000002 0.0488236 -0.009999998
v -0.01000002 0.06882358 -0.009999998
v -0.01000002 0.06882358 0.009999998
v -0.01000002 0.0488236 0.009999998
v 0.02999994 0.02882361 -0.009999998
v 0.02999994 0.02882361 0.009999998
v 0.02999994 0.0488236 0.009999998
v 0.02999994 0.0488236 -0.009999998
v 0.009999961 0.02882361 -0.009999998
v 0.009999961 0.0488236 -0.009999998
v 0.009999961 0.0488236 0.009999998
v 0.009999961 0.02882361 0.009999998
v 0.02999994 0.008823633 -0.009999998
v 0.02999994 0.008823633 0.009999998
v 0.02999994 0.02882361 0.009999998
v 0.02999994 0.02882361 -0.009999998
v 0.009999961 0.008823633 -0.009999998
v 0.009999961 0.02882361 -0.009999998
v 0.009999961 0.02882361 0.009999998
v 0.009999961 0.008823633 0.009999998
v -0.01000002 0.02882361 -0.009999998
v -0.01000002 0.02882361 0.009999998
v -0.01000002 0.0488236 0.009999998
v -0.01000002 0.0488236 -0.009999998
v -0.03 0.02882361 -0.009999998
v -0.03 0.0488236 -0.009999998
v -0.03 0.0488236 0.009999998
v -0.03 0.02882361 0.009999998
v -0.01000002 0.008823633 -0.009999998
v -0.01000002 0.008823633 0.009999998
v -0.01000002 0.02882361 0.009999998
v -0.01000002 0.02882361 -0.009999998
v -0.03 0.008823633 -0.009999998
v -0.03 0.02882361 -0.009999998
v -0.03 0.02882361 0.009999998
v -0.03 0.008823633 0.009999998
v 0.04999995 -0.01117635 -0.009999998
v 0.04999995 -0.01117635 0.009999998
v 0.04999995 0.008823633 0.009999998
v 0.04999995 0.008823633 -0.009999998
v 0.02999997 -0.01117635 -0.009999998
v 0.02999997 0.008823633 -0.009999998
v 0.02999997 0.008823633 0.009999998
v 0.02999997 -0.01117635 0.009999998
v 0.02999994 -0.01117635 -0.009999998
v 0.02999994 -0.01117635 0.009999998
v 0.02999994 0.008823633 0.009999998
v 0.02999994 0.008823633 -0.009999998
v 0.009999961 -0.01117635 -0.009999998
v 0.009999961 0.008823633 -0.009999998
v 0.009999961 0.008823633 0.009999998
v 0.009999961 -0.01117635 0.009999998
v 0.009999961 -0.01117635 -0.009999998
v 0.009999961 -0.01117635 0.009999998
v 0.009999961 0.008823633 0.009999998
v 0.009999961 0.008823633 -0.009999998
v -0.01000002 -0.01117635 -0.009999998
v -0.01000002 0.008823633 -0.009999998
v -0.01000002 0.008823633 0.009999998
v -0.01000002 -0.01117635 0.009999998
v -0.01000005 -0.01117635 -0.009999998
v -0.01000005 -0.01117635 0.009999998
v -0.01000005 0.008823633 0.009999998
v -0.01000005 0.008823633 -0.009999998
v -0.03000003 -0.01117635 -0.009999998
v -0.03000003 0.008823633 -0.009999998
v -0.03000003 0.008823633 0.009999998
v -0.03000003 -0.01117635 0.009999998
v -0.03000006 -0.01117635 -0.009999998
v -0.03000006 -0.01117635 0.009999998
v -0.03000006 0.008823633 0.009999998
v -0.03000006 0.008823633 -0.009999998
v -0.05000004 -0.01117635 -0.009999998
v -0.05000004 0.008823633 -0.009999998
v -0.05000004 0.008823633 0.009999998
v -0.05000004 -0.01117635 0.009999998
v 0.04999995 -0.03117633 -0.009999998
v 0.04999995 -0.03117633 0.009999998
v 0.04999995 -0.01117635 0.009999998
v 0.04999995 -0.01117635 -0.009999998
v 0.02999997 -0.03117633 -0.009999998
v 0.02999997 -0.01117635 -0.009999998
v 0.02999997 -0.01117635 0.009999998
v 0.02999997 -0.03117633 0.009999998
v -0.03000006 -0.03117633 -0.009999998
v -0.03000006 -0.03117633 0.009999998
v -0.03000006 -0.01117635 0.009999998
v -0.03000006 -0.01117635 -0.009999998
v -0.05000004 -0.03117633 -0.009999998
v -0.05000004 -0.01117635 -0.009999998
v -0.05000004 -0.01117635 0.009999998
v -0.05000004 -0.03117633 0.009999998
v -0.05000004 -0.05117631 -0.009999998
v -0.05000004 -0.05117631 0.009999998
v -0.05000004 -0.03117633 0.009999998
v -0.05000004 -0.03117633 -0.009999998
v -0.07000002 -0.05117631 -0.009999998
v -0.07000002 -0.03117633 -0.009999998
v -0.07000002 -0.03117633 0.009999998
v -0.07000002 -0.05117631 0.009999998
v -0.05000004 -0.07117641 -0.009999998
v -0.05000004 -0.07117641 0.009999998
v -0.05000004 -0.05117643 0.009999998
v -0.05000004 -0.05117643 -0.009999998
v -0.07000002 -0.07117641 -0.009999998
v -0.07000002 -0.05117643 -0.009999998
v -0.07000002 -0.05117643 0.009999998
v -0.07000002 -0.07117641 0.009999998
v 0.06999998 -0.05117631 -0.009999998
v 0.06999998 -0.05117631 0.009999998
v 0.06999998 -0.03117633 0.009999998
v 0.06999998 -0.03117633 -0.009999998
v 0.04999998 -0.05117631 -0.009999998
v 0.04999998 -0.03117633 -0.009999998
v 0.04999998 -0.03117633 0.009999998
v 0.04999998 -0.05117631 0.009999998
v 0.06999998 -0.07117641 -0.009999998
v 0.06999998 -0.07117641 0.009999998
v 0.06999998 -0.05117643 0.009999998
v 0.06999998 -0.05117643 -0.009999998
v 0.04999998 -0.07117641 -0.009999998
v 0.04999998 -0.05117643 -0.009999998
v 0.04999998 -0.05117643 0.009999998
v 0.04999998 -0.07117641 0.009999998
vn 1 0 0
vn -1 0 0
vn 0 -1 0
vn 0 1 0
vn 0 0 -1
vn 0 0 1
vn 1 0 0
vn -1 0 0
vn 0 -1 0
vn 0 1 0
vn 0 0 -1
vn 0 0 1
vn 1 0 0
vn -1 0 0
vn 0 -1 0
vn 0 1 0
vn 0 0 -1
vn 0 0 1
vn 1 0 0
vn -1 0 0
vn 0 -1 0
vn 0 1 0
vn 0 0 -1
vn 0 0 1
vn 1 0 0
vn -1 0 0
vn 0 -1 0
vn 0 1 0
vn 0 0 -1
vn 0 0 1
vn 1 0 0
vn -1 0 0
vn 0 -1 0
vn 0 1 0
vn 0 0 -1
vn 0 0 1
vn 1 0 0
vn -1 0 0
vn 0 -1 0
vn 0 1 0
vn 0 0 -1
vn 0 0 1
vn 1 0 0
vn -1 0 0
vn 0 -1 0
vn 0 1 0
vn 0 0 -1
vn 0 0 1
vn 1 0 0
vn -1 0 0
vn 0 -1 0
vn 0 1 0
vn 0 0 -1
vn 0 0 1
vn 1 0 0
vn -1 0 0
vn 0 -1 0
vn 0 1 0
vn 0 0 -1
vn 0 0 1
vn 1 0 0
vn -1 0 0
vn 0 -1 0
vn 0 1 0
vn 0 0 -1
vn 0 0 1
vn 1 0 0
vn -1 0 0
vn 0 -1 0
vn 0 1 0
vn 0 0 -1
vn 0 0 1
vn 1 0 0
vn -1 0 0
vn 0 -1 0
vn 0 1 0
vn 0 0 -1
vn 0 0 1
vn 1 0 0
vn -1 0 0
vn 0 -1 0
vn 0 1 0
vn 0 0 -1
vn 0 0 1
vn 1 0 0
vn -1 0 0
vn 0 -1 0
vn 0 1 0
vn 0 0 -1
vn 0 0 1
vn 1 0 0
vn -1 0 0
vn 0 -1 0
vn 0 1 0
vn 0 0 -1
vn 0 0 1
vn 1 0 0
vn -1 0 0
vn 0 -1 0
vn 0 1 0
vn 0 0 -1
vn 0 0 1
vt 0.1056691 0.1358935
vt 0.1072966 0.134731
vt 0.1084591 0.1363585
vt 0.1068316 0.137521
vt -0.1056691 0.1358935
vt -0.1068316 0.137521
vt -0.1084591 0.1363585
vt -0.1072966 0.134731
vt -0.003834235 -0.03154835
vt -0.004506907 -0.03343184
vt -0.002623423 -0.03410451
vt -0.001950751 -0.03222103
vt 0.003834235 -0.03154835
vt 0.001950751 -0.03222103
vt 0.002623423 -0.03410451
vt 0.004506907 -0.03343184
vt -0.1677051 0.0491935
vt -0.169494 0.05008792
vt -0.1703884 0.04829907
vt -0.1685995 0.04740465
vt 0.1677051 0.0491935
vt 0.1685995 0.04740465
vt 0.1703884 0.04829907
vt 0.169494 0.05008792
vt 0.1045066 0.134266
vt 0.1061341 0.1331035
vt 0.1072966 0.134731
vt 0.1056691 0.1358935
vt -0.1045066 0.134266
vt -0.1056691 0.1358935
vt -0.1072966 0.134731
vt -0.1061341 0.1331035
vt -0.003834235 -0.03154835
vt -0.004506907 -0.03343184
vt -0.002623423 -0.03410451
vt -0.001950751 -0.03222103
vt 0.003834235 -0.03154835
vt 0.001950751 -0.03222103
vt 0.002623423 -0.03410451
vt 0.004506907 -0.03343184
vt -0.1659162 0.04829907
vt -0.1677051 0.04919349
vt -0.1685995 0.04740464
vt -0.1668107 0.04651021
vt 0.1659162 0.04829907
vt 0.1668107 0.04651021
vt 0.1685995 0.04740464
vt 0.1677051 0.04919349
vt 0.1033442 0.1326386
vt 0.1049716 0.1314761
vt 0.1061341 0.1331035
vt 0.1045066 0.134266
vt -0.1033442 0.1326386
vt -0.1045066 0.134266
vt -0.1061341 0.1331035
vt -0.1049716 0.1314761
vt -0.003161563 -0.02966487
vt -0.003834235 -0.03154835
vt -0.001950751 -0.03222103
vt -0.001278079 -0.03033755
vt 0.003161563 -0.02966487
vt 0.001278079 -0.03033755
vt 0.001950751 -0.03222103
vt 0.003834235 -0.03154835
vt -0.163233 0.04919349
vt -0.1650218 0.05008792
vt -0.1659162 0.04829907
vt -0.1641274 0.04740464
vt 0.163233 0.04919349
vt 0.1641274 0.04740464
vt 0.1659162 0.04829907
vt 0.1650218 0.05008792
vt 0.1021817 0.1310111
vt 0.1038092 0.1298486
vt 0.1049716 0.1314761
vt 0.1033442 0.1326386
vt -0.1021817 0.1310111
vt -0.1033442 0.1326386
vt -0.1049716 0.1314761
vt -0.1038092 0.1298486
vt -0.003161563 -0.02966487
vt -0.003834235 -0.03154835
vt -0.001950751 -0.03222103
vt -0.001278079 -0.03033755
vt 0.003161563 -0.02966487
vt 0.001278079 -0.03033755
vt 0.001950751 -0.03222103
vt 0.003834235 -0.03154835
vt -0.1614441 0.04829907
vt -0.163233 0.04919349
vt -0.1641274 0.04740464
vt -0.1623385 0.04651021
vt 0.1614441 0.04829907
vt 0.1623385 0.04651021
vt 0.1641274 0.04740464
vt 0.163233 0.04919349
vt 0.1033442 0.1326386
vt 0.1049716 0.1314761
vt 0.1061341 0.1331035
vt 0.1045066 0.134266
vt -0.1033442 0.1326386
vt -0.1045066 0.134266
vt -0.1061341 0.1331035
vt -0.1049716 0.1314761
vt -0.004506907 -0.03343184
vt -0.005179579 -0.03531532
vt -0.003296096 -0.03598799
vt -0.002623423 -0.03410451
vt 0.004506907 -0.03343184
vt 0.002623423 -0.03410451
vt 0.003296096 -0.03598799
vt 0.005179579 -0.03531532
vt -0.1650218 0.04561579
vt -0.1668107 0.04651021
vt -0.1677051 0.04472136
vt -0.1659162 0.04382693
vt 0.1650218 0.04561579
vt 0.1659162 0.04382693
vt 0.1677051 0.04472136
vt 0.1668107 0.04651021
vt 0.1021817 0.1310111
vt 0.1038092 0.1298486
vt 0.1049716 0.1314761
vt 0.1033442 0.1326386
vt -0.1021817 0.1310111
vt -0.1033442 0.1326386
vt -0.1049716 0.1314761
vt -0.1038092 0.1298486
vt -0.004506907 -0.03343184
vt -0.005179579 -0.03531532
vt -0.003296096 -0.03598799
vt -0.002623423 -0.03410451
vt 0.004506907 -0.03343184
vt 0.002623423 -0.03410451
vt 0.003296096 -0.03598799
vt 0.005179579 -0.03531532
vt -0.163233 0.04472136
vt -0.1650218 0.04561579
vt -0.1659162 0.04382693
vt -0.1641274 0.04293251
vt 0.163233 0.04472136
vt 0.1641274 0.04293251
vt 0.1659162 0.04382693
vt 0.1650218 0.04561579
vt 0.1010192 0.1293836
vt 0.1026467 0.1282212
vt 0.1038092 0.1298486
vt 0.1021817 0.1310111
vt -0.1010192 0.1293836
vt -0.1021817 0.1310111
vt -0.1038092 0.1298486
vt -0.1026467 0.1282212
vt -0.00248889 -0.02778139
vt -0.003161562 -0.02966487
vt -0.001278078 -0.03033754
vt -0.0006054061 -0.02845406
vt 0.00248889 -0.02778139
vt 0.0006054061 -0.02845406
vt 0.001278078 -0.03033754
vt 0.003161562 -0.02966487
vt -0.1587608 0.04919349
vt -0.1605497 0.05008792
vt -0.1614441 0.04829907
vt -0.1596553 0.04740464
vt 0.1587608 0.04919349
vt 0.1596553 0.04740464
vt 0.1614441 0.04829907
vt 0.1605497 0.05008792
vt 0.1010192 0.1293836
vt 0.1026467 0.1282212
vt 0.1038092 0.1298486
vt 0.1021817 0.1310111
vt -0.1010192 0.1293836
vt -0.1021817 0.1310111
vt -0.1038092 0.1298486
vt -0.1026467 0.1282212
vt -0.003161563 -0.02966487
vt -0.003834235 -0.03154835
vt -0.001950751 -0.03222103
vt -0.001278079 -0.03033755
vt 0.003161563 -0.02966487
vt 0.001278079 -0.03033755
vt 0.001950751 -0.03222103
vt 0.003834235 -0.03154835
vt -0.1596553 0.04740464
vt -0.1614441 0.04829907
vt -0.1623385 0.04651021
vt -0.1605497 0.04561579
vt 0.1596553 0.04740464
vt 0.1605497 0.04561579
vt 0.1623385 0.04651021
vt 0.1614441 0.04829907
vt 0.1010192 0.1293836
vt 0.1026467 0.1282212
vt 0.1038092 0.1298486
vt 0.1021817 0.1310111
vt -0.1010192 0.1293836
vt -0.1021817 0.1310111
vt -0.1038092 0.1298486
vt -0.1026467 0.1282212
vt -0.003834235 -0.03154835
vt -0.004506907 -0.03343184
vt -0.002623423 -0.03410451
vt -0.001950751 -0.03222103
vt 0.003834235 -0.03154835
vt 0.001950751 -0.03222103
vt 0.002623423 -0.03410451
vt 0.004506907 -0.03343184
vt -0.1605497 0.04561579
vt -0.1623385 0.04651021
vt -0.163233 0.04472136
vt -0.1614441 0.04382693
vt 0.1605497 0.04561579
vt 0.1614441 0.04382693
vt 0.163233 0.04472136
vt 0.1623385 0.04651021
vt 0.1010192 0.1293836
vt 0.1026467 0.1282212
vt 0.1038092 0.1298486
vt 0.1021817 0.1310111
vt -0.1010192 0.1293836
vt -0.1021817 0.1310111
vt -0.1038092 0.1298486
vt -0.1026467 0.1282212
vt -0.004506908 -0.03343184
vt -0.00517958 -0.03531532
vt -0.003296097 -0.035988
vt -0.002623425 -0.03410451
vt 0.004506908 -0.03343184
vt 0.002623425 -0.03410451
vt 0.003296097 -0.035988
vt 0.00517958 -0.03531532
vt -0.1614441 0.04382693
vt -0.163233 0.04472136
vt -0.1641274 0.04293251
vt -0.1623385 0.04203808
vt 0.1614441 0.04382693
vt 0.1623385 0.04203808
vt 0.1641274 0.04293251
vt 0.163233 0.04472136
vt 0.1010192 0.1293836
vt 0.1026467 0.1282212
vt 0.1038092 0.1298486
vt 0.1021817 0.1310111
vt -0.1010192 0.1293836
vt -0.1021817 0.1310111
vt -0.1038092 0.1298486
vt -0.1026467 0.1282212
vt -0.005179581 -0.03531533
vt -0.005852253 -0.0371988
vt -0.00396877 -0.03787148
vt -0.003296098 -0.035988
vt 0.005179581 -0.03531533
vt 0.003296098 -0.035988
vt 0.00396877 -0.03787148
vt 0.005852253 -0.0371988
vt -0.1623385 0.04203808
vt -0.1641274 0.0429325
vt -0.1650218 0.04114365
vt -0.163233 0.04024922
vt 0.1623385 0.04203808
vt 0.163233 0.04024922
vt 0.1650218 0.04114365
vt 0.1641274 0.0429325
vt 0.09985673 0.1277562
vt 0.1014842 0.1265937
vt 0.1026467 0.1282212
vt 0.1010192 0.1293836
vt -0.09985673 0.1277562
vt -0.1010192 0.1293836
vt -0.1026467 0.1282212
vt -0.1014842 0.1265937
vt -0.00248889 -0.02778139
vt -0.003161562 -0.02966487
vt -0.001278078 -0.03033754
vt -0.0006054061 -0.02845406
vt 0.00248889 -0.02778139
vt 0.0006054061 -0.02845406
vt 0.001278078 -0.03033754
vt 0.003161562 -0.02966487
vt -0.156972 0.04829907
vt -0.1587608 0.04919349
vt -0.1596553 0.04740464
vt -0.1578664 0.04651022
vt 0.156972 0.04829907
vt 0.1578664 0.04651022
vt 0.1596553 0.04740464
vt 0.1587608 0.04919349
vt 0.09985673 0.1277562
vt 0.1014842 0.1265937
vt 0.1026467 0.1282212
vt 0.1010192 0.1293836
vt -0.09985673 0.1277562
vt -0.1010192 0.1293836
vt -0.1026467 0.1282212
vt -0.1014842 0.1265937
vt -0.005179581 -0.03531533
vt -0.005852253 -0.0371988
vt -0.00396877 -0.03787148
vt -0.003296098 -0.035988
vt 0.005179581 -0.03531533
vt 0.003296098 -0.035988
vt 0.00396877 -0.03787148
vt 0.005852253 -0.0371988
vt -0.1605497 0.04114365
vt -0.1623385 0.04203808
vt -0.163233 0.04024922
vt -0.1614441 0.0393548
vt 0.1605497 0.04114365
vt 0.1614441 0.0393548
vt 0.163233 0.04024922
vt 0.1623385 0.04203808
vt 0.09869426 0.1261287
vt 0.1003217 0.1249662
vt 0.1014842 0.1265937
vt 0.09985673 0.1277562
vt -0.09869426 0.1261287
vt -0.09985673 0.1277562
vt -0.1014842 0.1265937
vt -0.1003217 0.1249662
vt -0.005852253 -0.0371988
vt -0.006524926 -0.03908229
vt -0.004641442 -0.03975496
vt -0.00396877 -0.03787148
vt 0.005852253 -0.0371988
vt 0.00396877 -0.03787148
vt 0.004641442 -0.03975496
vt 0.006524926 -0.03908229
vt -0.1596553 0.03846037
vt -0.1614441 0.0393548
vt -0.1623385 0.03756595
vt -0.1605497 0.03667152
vt 0.1596553 0.03846037
vt 0.1605497 0.03667152
vt 0.1623385 0.03756595
vt 0.1614441 0.0393548
vt 0.09753178 0.1245012
vt 0.09915924 0.1233387
vt 0.1003217 0.1249662
vt 0.09869425 0.1261287
vt -0.09753178 0.1245012
vt -0.09869425 0.1261287
vt -0.1003217 0.1249662
vt -0.09915924 0.1233387
vt -0.005852253 -0.0371988
vt -0.006524926 -0.03908229
vt -0.004641442 -0.03975496
vt -0.00396877 -0.03787148
vt 0.005852253 -0.0371988
vt 0.00396877 -0.03787148
vt 0.004641442 -0.03975496
vt 0.006524926 -0.03908229
vt -0.1578664 0.03756594
vt -0.1596552 0.03846037
vt -0.1605497 0.03667151
vt -0.1587608 0.03577708
vt 0.1578664 0.03756594
vt 0.1587608 0.03577708
vt 0.1605497 0.03667151
vt 0.1596552 0.03846037
vt 0.09869426 0.1261287
vt 0.1003217 0.1249662
vt 0.1014842 0.1265937
vt 0.09985673 0.1277562
vt -0.09869426 0.1261287
vt -0.09985673 0.1277562
vt -0.1014842 0.1265937
vt -0.1003217 0.1249662
vt -0.001816216 -0.0258979
vt -0.002488889 -0.02778139
vt -0.0006054051 -0.02845406
vt 6.726752E-05 -0.02657057
vt 0.001816216 -0.0258979
vt -6.726752E-05 -0.02657057
vt 0.0006054051 -0.02845406
vt 0.002488889 -0.02778139
vt -0.1542887 0.0491935
vt -0.1560775 0.05008793
vt -0.156972 0.04829907
vt -0.1551831 0.04740465
vt 0.1542887 0.0491935
vt 0.1551831 0.04740465
vt 0.156972 0.04829907
vt 0.1560775 0.05008793
vt 0.09753178 0.1245012
vt 0.09915924 0.1233387
vt 0.1003217 0.1249662
vt 0.09869425 0.1261287
vt -0.09753178 0.1245012
vt -0.09869425 0.1261287
vt -0.1003217 0.1249662
vt -0.09915924 0.1233387
vt -0.001816216 -0.0258979
vt -0.002488889 -0.02778139
vt -0.0006054051 -0.02845406
vt 6.726752E-05 -0.02657057
vt 0.001816216 -0.0258979
vt -6.726752E-05 -0.02657057
vt 0.0006054051 -0.02845406
vt 0.002488889 -0.02778139
vt -0.1524998 0.04829907
vt -0.1542887 0.04919349
vt -0.1551831 0.04740464
vt -0.1533943 0.04651021
vt 0.1524998 0.04829907
vt 0.1533943 0.04651021
vt 0.1551831 0.04740464
vt 0.1542887 0.04919349
o group1824798511
g mesh1824798511
usemtl mat21
f 4/4/1 3/3/1 2/2/1 1/1/1
f 8/8/2 7/7/2 6/6/2 5/5/2
f 2/12/3 8/11/3 5/10/3 1/9/3
f 6/16/4 7/15/4 3/14/4 4/13/4
f 5/20/5 6/19/5 4/18/5 1/17/5
f 3/24/6 7/23/6 8/22/6 2/21/6
o group1151650216
g mesh1151650216
usemtl mat21
f 12/28/7 11/27/7 10/26/7 9/25/7
f 16/32/8 15/31/8 14/30/8 13/29/8
f 10/36/9 16/35/9 13/34/9 9/33/9
f 14/40/10 15/39/10 11/38/10 12/37/10
f 13/44/11 14/43/11 12/42/11 9/41/11
f 11/48/12 15/47/12 16/46/12 10/45/12
o group1083352208
g mesh1083352208
usemtl mat21
f 20/52/13 19/51/13 18/50/13 17/49/13
f 24/56/14 23/55/14 22/54/14 21/53/14
f 18/60/15 24/59/15 21/58/15 17/57/15
f 22/64/16 23/63/16 19/62/16 20/61/16
f 21/68/17 22/67/17 20/66/17 17/65/17
f 19/72/18 23/71/18 24/70/18 18/69/18
o group856773441
g mesh856773441
usemtl mat21
f 28/76/19 27/75/19 26/74/19 25/73/19
f 32/80/20 31/79/20 30/78/20 29/77/20
f 26/84/21 32/83/21 29/82/21 25/81/21
f 30/88/22 31/87/22 27/86/22 28/85/22
f 29/92/23 30/91/23 28/90/23 25/89/23
f 27/96/24 31/95/24 32/94/24 26/93/24
o group143263745
g mesh143263745
usemtl mat21
f 36/100/25 35/99/25 34/98/25 33/97/25
f 40/104/26 39/103/26 38/102/26 37/101/26
f 34/108/27 40/107/27 37/106/27 33/105/27
f 38/112/28 39/111/28 35/110/28 36/109/28
f 37/116/29 38/115/29 36/114/29 33/113/29
f 35/120/30 39/119/30 40/118/30 34/117/30
o group455677700
g mesh455677700
usemtl mat21
f 44/124/31 43/123/31 42/122/31 41/121/31
f 48/128/32 47/127/32 46/126/32 45/125/32
f 42/132/33 48/131/33 45/130/33 41/129/33
f 46/136/34 47/135/34 43/134/34 44/133/34
f 45/140/35 46/139/35 44/138/35 41/137/35
f 43/144/36 47/143/36 48/142/36 42/141/36
o group36004818
g mesh36004818
usemtl mat21
f 52/148/37 51/147/37 50/146/37 49/145/37
f 56/152/38 55/151/38 54/150/38 53/149/38
f 50/156/39 56/155/39 53/154/39 49/153/39
f 54/160/40 55/159/40 51/158/40 52/157/40
f 53/164/41 54/163/41 52/162/41 49/161/41
f 51/168/42 55/167/42 56/166/42 50/165/42
o group597128385
g mesh597128385
usemtl mat21
f 60/172/43 59/171/43 58/170/43 57/169/43
f 64/176/44 63/175/44 62/174/44 61/173/44
f 58/180/45 64/179/45 61/178/45 57/177/45
f 62/184/46 63/183/46 59/182/46 60/181/46
f 61/188/47 62/187/47 60/186/47 57/185/47
f 59/192/48 63/191/48 64/190/48 58/189/48
o group46448274
g mesh46448274
usemtl mat21
f 68/196/49 67/195/49 66/194/49 65/193/49
f 72/200/50 71/199/50 70/198/50 69/197/50
f 66/204/51 72/203/51 69/202/51 65/201/51
f 70/208/52 71/207/52 67/206/52 68/205/52
f 69/212/53 70/211/53 68/210/53 65/209/53
f 67/216/54 71/215/54 72/214/54 66/213/54
o group1337453739
g mesh1337453739
usemtl mat21
f 76/220/55 75/219/55 74/218/55 73/217/55
f 80/224/56 79/223/56 78/222/56 77/221/56
f 74/228/57 80/227/57 77/226/57 73/225/57
f 78/232/58 79/231/58 75/230/58 76/229/58
f 77/236/59 78/235/59 76/234/59 73/233/59
f 75/240/60 79/239/60 80/238/60 74/237/60
o group1580912391
g mesh1580912391
usemtl mat21
f 84/244/61 83/243/61 82/242/61 81/241/61
f 88/248/62 87/247/62 86/246/62 85/245/62
f 82/252/63 88/251/63 85/250/63 81/249/63
f 86/256/64 87/255/64 83/254/64 84/253/64
f 85/260/65 86/259/65 84/258/65 81/257/65
f 83/264/66 87/263/66 88/262/66 82/261/66
o group1779096565
g mesh1779096565
usemtl mat21
f 92/268/67 91/267/67 90/266/67 89/265/67
f 96/272/68 95/271/68 94/270/68 93/269/68
f 90/276/69 96/275/69 93/274/69 89/273/69
f 94/280/70 95/279/70 91/278/70 92/277/70
f 93/284/71 94/283/71 92/282/71 89/281/71
f 91/288/72 95/287/72 96/286/72 90/285/72
o group876585129
g mesh876585129
usemtl mat21
f 100/292/73 99/291/73 98/290/73 97/289/73
f 104/296/74 103/295/74 102/294/74 101/293/74
f 98/300/75 104/299/75 101/298/75 97/297/75
f 102/304/76 103/303/76 99/302/76 100/301/76
f 101/308/77 102/307/77 100/306/77 97/305/77
f 99/312/78 103/311/78 104/310/78 98/309/78
o group452872404
g mesh452872404
usemtl mat21
f 108/316/79 107/315/79 106/314/79 105/313/79
f 112/320/80 111/319/80 110/318/80 109/317/80
f 106/324/81 112/323/81 109/322/81 105/321/81
f 110/328/82 111/327/82 107/326/82 108/325/82
f 109/332/83 110/331/83 108/330/83 105/329/83
f 107/336/84 111/335/84 112/334/84 106/333/84
o group329301113
g mesh329301113
usemtl mat21
f 116/340/85 115/339/85 114/338/85 113/337/85
f 120/344/86 119/343/86 118/342/86 117/341/86
f 114/348/87 120/347/87 117/346/87 113/345/87
f 118/352/88 119/351/88 115/350/88 116/349/88
f 117/356/89 118/355/89 116/354/89 113/353/89
f 115/360/90 119/359/90 120/358/90 114/357/90
o group1512730433
g mesh1512730433
usemtl mat21
f 124/364/91 123/363/91 122/362/91 121/361/91
f 128/368/92 127/367/92 126/366/92 125/365/92
f 122/372/93 128/371/93 125/370/93 121/369/93
f 126/376/94 127/375/94 123/374/94 124/373/94
f 125/380/95 126/379/95 124/378/95 121/377/95
f 123/384/96 127/383/96 128/382/96 122/381/96
o group274698030
g mesh274698030
usemtl mat21
f 132/388/97 131/387/97 130/386/97 129/385/97
f 136/392/98 135/391/98 134/390/98 133/389/98
f 130/396/99 136/395/99 133/394/99 129/393/99
f 134/400/100 135/399/100 131/398/100 132/397/100
f 133/404/101 134/403/101 132/402/101 129/401/101
f 131/408/102 135/407/102 136/406/102 130/405/102
