mtllib materials.mtl
v 0.05166698 0.03250003 -0.00999999
v 0.05166698 0.03250003 0.00999999
v 0.05166698 0.07249999 0.00999999
v 0.05166698 0.07249999 -0.00999999
v 0.03166699 0.03250003 -0.00999999
v 0.03166699 0.07249999 -0.00999999
v 0.03166699 0.07249999 0.00999999
v 0.03166699 0.03250003 0.00999999
v 0.05166698 -0.007499993 -0.00999999
v 0.05166698 -0.007499993 0.00999999
v 0.05166698 0.01249999 0.00999999
v 0.05166698 0.01249999 -0.00999999
v 0.03166699 -0.007499993 -0.00999999
v 0.03166699 0.01249999 -0.00999999
v 0.03166699 0.01249999 0.00999999
v 0.03166699 -0.007499993 0.00999999
v -0.02833295 -0.04750001 -0.00999999
v -0.02833295 -0.04750001 0.00999999
v -0.02833295 -0.02750003 0.00999999
v -0.02833295 -0.02750003 -0.00999999
v -0.04833293 -0.04750001 -0.00999999
v -0.04833293 -0.02750003 -0.00999999
v -0.04833293 -0.02750003 0.00999999
v -0.04833293 -0.04750001 0.00999999
v 0.07166696 -0.04750001 -0.00999999
v 0.07166696 -0.04750001 0.00999999
v 0.07166696 -0.007500052 0.00999999
v 0.07166696 -0.007500052 -0.00999999
v 0.05166698 -0.04750001 -0.00999999
v 0.05166698 -0.007500052 -0.00999999
v 0.05166698 -0.007500052 0.00999999
v 0.05166698 -0.04750001 0.00999999
v -0.008332968 -0.04750001 -0.00999999
v -0.008332968 -0.04750001 0.00999999
v -0.008332968 -0.007500052 0.00999999
v -0.008332968 -0.007500052 -0.00999999
v -0.02833295 -0.04750001 -0.00999999
v -0.02833295 -0.007500052 -0.00999999
v -0.02833295 -0.007500052 0.00999999
v -0.02833295 -0.04750001 0.00999999
v -0.008332968 0.03249997 -0.00999999
v -0.008332968 0.03249997 0.00999999
v -0.008332968 0.07249993 0.00999999
v -0.008332968 0.07249993 -0.00999999
v -0.02833295 0.03249997 -0.00999999
v -0.02833295 0.07249993 -0.00999999
v -0.02833295 0.07249993 0.00999999
v -0.02833295 0.03249997 0.00999999
v -0.04833293 -0.02750003 -0.00999999
v -0.04833293 -0.02750003 0.00999999
v -0.04833293 0.01249993 0.00999999
v -0.04833293 0.01249993 -0.00999999
v -0.06833291 -0.02750003 -0.00999999
v -0.06833291 0.01249993 -0.00999999
v -0.06833291 0.01249993 0.00999999
v -0.06833291 -0.02750003 0.00999999
v 0.01166701 -0.007500052 -0.00999999
v 0.01166701 -0.007500052 0.00999999
v 0.01166701 0.01249993 0.00999999
v 0.01166701 0.01249993 -0.00999999
v -0.008332968 -0.007500052 -0.00999999
v -0.008332968 0.01249993 -0.00999999
v -0.008332968 0.01249993 0.00999999
v -0.008332968 -0.007500052 0.00999999
v 0.05166698 -0.06750005 -0.00999999
v 0.05166698 -0.06750005 0.00999999
v 0.05166698 -0.04750007 0.00999999
v 0.05166698 -0.04750007 -0.00999999
v -0.008332968 -0.06750005 -0.00999999
v -0.008332968 -0.04750007 -0.00999999
v -0.008332968 -0.04750007 0.00999999
v -0.008332968 -0.06750005 0.00999999
v -0.04833293 -0.0675 -0.00999999
v -0.04833293 -0.0675 0.00999999
v -0.04833293 -0.04750001 0.00999999
v -0.04833293 -0.04750001 -0.00999999
v -0.06833291 -0.0675 -0.00999999
v -0.06833291 -0.04750001 -0.00999999
v -0.06833291 -0.04750001 0.00999999
v -0.06833291 -0.0675 0.00999999
v 0.03166699 0.07249999 -0.00999999
v 0.03166699 0.07249999 0.00999999
v 0.03166699 0.09249997 0.01000002
v 0.03166699 0.09249997 -0.00999999
v -0.008332968 0.07249999 -0.01000002
v -0.008332968 0.09249997 -0.00999999
v -0.008332968 0.09249997 0.00999999
v -0.008332968 0.07249999 0.00999999
v 0.03166699 0.01249999 -0.00999999
v 0.03166699 0.01249999 0.00999999
v 0.03166699 0.03249997 0.00999999
v 0.03166699 0.03249997 -0.00999999
v -0.008332968 0.01249999 -0.00999999
v -0.008332968 0.03249997 -0.00999999
v -0.008332968 0.03249997 0.00999999
v -0.008332968 0.01249999 0.00999999
vn 1 0 0
vn -1 0 0
vn 0 -1 0
vn 0 1 0
vn 0 0 -1
vn 0 0 1
vn 1 0 0
vn -1 0 0
vn 0 -1 0
vn 0 1 0
vn 0 0 -1
vn 0 0 1
vn 1 0 0
vn -1 0 0
vn 0 -1 0
vn 0 1 0
vn 0 0 -1
vn 0 0 1
vn 1 0 0
vn -1 0 0
vn 0 -1 0
vn 0 1 0
vn 0 0 -1
vn 0 0 1
vn 1 0 0
vn -1 0 0
vn 0 -1 0
vn 0 1 0
vn 0 0 -1
vn 0 0 1
vn 1 0 0
vn -1 0 0
vn 0 -1 0
vn 0 1 0
vn 0 0 -1
vn 0 0 1
vn 1 0 0
vn -1 0 0
vn 0 -1 0
vn 0 1 0
vn 0 0 -1
vn 0 0 1
vn 1 0 0
vn -1 0 0
vn 0 -1 0
vn 0 1 0
vn 0 0 -1
vn 0 0 1
vn 1 0 0
vn -1 0 0
vn 0 -1 0
vn 0 1 0
vn 0 0 -1
vn 0 0 1
vn 1 0 0
vn -1 0 0
vn 0 -1 0
vn 0 1 0
vn 0 0 -1
vn 0 0 1
vn 1 0 1.748456E-07
vn -1 0 -1.748456E-07
vn 3.057097E-14 -1 -1.748456E-07
vn -3.057097E-14 1 1.748456E-07
vn 1.748456E-07 1.748456E-07 -1
vn -1.748456E-07 -1.748456E-07 1
vn 1 0 0
vn -1 0 0
vn 0 -1 0
vn 0 1 0
vn 0 0 -1
vn 0 0 1
vt -0.0295269 -0.08951068
vt -0.02789943 -0.09067316
vt -0.02557448 -0.08741823
vt -0.02720195 -0.08625575
vt 0.0295269 -0.08951068
vt 0.02720195 -0.08625575
vt 0.02557448 -0.08741823
vt 0.02789943 -0.09067316
vt -0.09202164 -0.3409106
vt -0.09269431 -0.3427941
vt -0.09081083 -0.3434667
vt -0.09013815 -0.3415833
vt 0.09202164 -0.3409106
vt 0.09013815 -0.3415833
vt 0.09081083 -0.3434667
vt 0.09269431 -0.3427941
vt -0.07692075 -0.3550876
vt -0.08049846 -0.3532988
vt -0.08139288 -0.3550876
vt -0.07781518 -0.3568765
vt 0.07692075 -0.3550876
vt 0.07781518 -0.3568765
vt 0.08139288 -0.3550876
vt 0.08049846 -0.3532988
vt -0.03185185 -0.09276561
vt -0.03022439 -0.09392809
vt -0.02906191 -0.09230063
vt -0.03068938 -0.09113815
vt 0.03185185 -0.09276561
vt 0.03068938 -0.09113815
vt 0.02906191 -0.09230063
vt 0.03022439 -0.09392809
vt -0.09202164 -0.3409106
vt -0.09269431 -0.3427941
vt -0.09081083 -0.3434667
vt -0.09013815 -0.3415833
vt 0.09202164 -0.3409106
vt 0.09013815 -0.3415833
vt 0.09081083 -0.3434667
vt 0.09269431 -0.3427941
vt -0.07334304 -0.3568765
vt -0.07513189 -0.355982
vt -0.07602632 -0.3577709
vt -0.07423747 -0.3586653
vt 0.07334304 -0.3568765
vt 0.07423747 -0.3586653
vt 0.07602632 -0.3577709
vt 0.07513189 -0.355982
vt -0.03417681 -0.09602056
vt -0.03254934 -0.09718303
vt -0.03138687 -0.09555556
vt -0.03301433 -0.09439309
vt 0.03417681 -0.09602056
vt 0.03301433 -0.09439309
vt 0.03138687 -0.09555556
vt 0.03254934 -0.09718303
vt -0.09471233 -0.3484445
vt -0.095385 -0.350328
vt -0.09350152 -0.3510007
vt -0.09282885 -0.3491172
vt 0.09471233 -0.3484445
vt 0.09282885 -0.3491172
vt 0.09350152 -0.3510007
vt 0.095385 -0.350328
vt -0.07334303 -0.3658207
vt -0.07513189 -0.3649263
vt -0.07602631 -0.3667152
vt -0.07423746 -0.3676096
vt 0.07334303 -0.3658207
vt 0.07423746 -0.3676096
vt 0.07602631 -0.3667152
vt 0.07513189 -0.3649263
vt -0.03417681 -0.09602056
vt -0.03254934 -0.09718303
vt -0.03022439 -0.0939281
vt -0.03185186 -0.09276562
vt 0.03417681 -0.09602056
vt 0.03185186 -0.09276562
vt 0.03022439 -0.0939281
vt 0.03254934 -0.09718303
vt -0.09134896 -0.3390271
vt -0.09202164 -0.3409106
vt -0.09013815 -0.3415833
vt -0.08946548 -0.3396998
vt 0.09134896 -0.3390271
vt 0.08946548 -0.3396998
vt 0.09013815 -0.3415833
vt 0.09202164 -0.3409106
vt -0.0688709 -0.3568765
vt -0.0724486 -0.3550876
vt -0.07334303 -0.3568765
vt -0.06976533 -0.3586653
vt 0.0688709 -0.3568765
vt 0.06976533 -0.3586653
vt 0.07334303 -0.3568765
vt 0.0724486 -0.3550876
vt -0.03417681 -0.09602056
vt -0.03254934 -0.09718303
vt -0.03022439 -0.0939281
vt -0.03185186 -0.09276562
vt 0.03417681 -0.09602056
vt 0.03185186 -0.09276562
vt 0.03022439 -0.0939281
vt 0.03254934 -0.09718303
vt -0.09403966 -0.346561
vt -0.09471233 -0.3484445
vt -0.09282885 -0.3491172
vt -0.09215617 -0.3472337
vt 0.09403966 -0.346561
vt 0.09215617 -0.3472337
vt 0.09282885 -0.3491172
vt 0.09471233 -0.3484445
vt -0.0724486 -0.3640319
vt -0.07602631 -0.362243
vt -0.07692073 -0.3640319
vt -0.07334303 -0.3658207
vt 0.0724486 -0.3640319
vt 0.07334303 -0.3658207
vt 0.07692073 -0.3640319
vt 0.07602631 -0.362243
vt -0.0295269 -0.08951069
vt -0.02789944 -0.09067316
vt -0.02557449 -0.08741823
vt -0.02720195 -0.08625575
vt 0.0295269 -0.08951069
vt 0.02720195 -0.08625575
vt 0.02557449 -0.08741823
vt 0.02789944 -0.09067316
vt -0.09403966 -0.346561
vt -0.09471233 -0.3484445
vt -0.09282885 -0.3491172
vt -0.09215617 -0.3472337
vt 0.09403966 -0.346561
vt 0.09215617 -0.3472337
vt 0.09282885 -0.3491172
vt 0.09471233 -0.3484445
vt -0.07960402 -0.3604542
vt -0.08318172 -0.3586653
vt -0.08407615 -0.3604542
vt -0.08049845 -0.362243
vt 0.07960402 -0.3604542
vt 0.08049845 -0.362243
vt 0.08407615 -0.3604542
vt 0.08318172 -0.3586653
vt -0.03301433 -0.09439309
vt -0.03138687 -0.09555556
vt -0.02906192 -0.09230063
vt -0.03068938 -0.09113815
vt 0.03301433 -0.09439309
vt 0.03068938 -0.09113815
vt 0.02906192 -0.09230063
vt 0.03138687 -0.09555556
vt -0.095385 -0.350328
vt -0.09605767 -0.3522115
vt -0.09417419 -0.3528841
vt -0.09350152 -0.3510007
vt 0.095385 -0.350328
vt 0.09350152 -0.3510007
vt 0.09417419 -0.3528841
vt 0.09605767 -0.3522115
vt -0.07602631 -0.3667152
vt -0.07960401 -0.3649263
vt -0.08049844 -0.3667152
vt -0.07692073 -0.368504
vt 0.07602631 -0.3667152
vt 0.07692073 -0.368504
vt 0.08049844 -0.3667152
vt 0.07960401 -0.3649263
vt -0.03185186 -0.09276562
vt -0.03022439 -0.0939281
vt -0.02906192 -0.09230063
vt -0.03068938 -0.09113815
vt 0.03185186 -0.09276562
vt 0.03068938 -0.09113815
vt 0.02906192 -0.09230063
vt 0.03022439 -0.0939281
vt -0.09336698 -0.3446775
vt -0.09403966 -0.346561
vt -0.09215617 -0.3472337
vt -0.0914835 -0.3453502
vt 0.09336698 -0.3446775
vt 0.0914835 -0.3453502
vt 0.09215617 -0.3472337
vt 0.09403966 -0.346561
vt -0.07513189 -0.3604542
vt -0.07692073 -0.3595597
vt -0.07781516 -0.3613486
vt -0.07602631 -0.362243
vt 0.07513189 -0.3604542
vt 0.07602631 -0.362243
vt 0.07781516 -0.3613486
vt 0.07692073 -0.3595597
vt -0.03533929 -0.09764802
vt -0.03371182 -0.0988105
vt -0.03254935 -0.09718303
vt -0.03417681 -0.09602056
vt 0.03533929 -0.09764802
vt 0.03417681 -0.09602056
vt 0.03254935 -0.09718303
vt 0.03371182 -0.0988105
vt -0.09202164 -0.3409106
vt -0.09403966 -0.346561
vt -0.09215617 -0.3472337
vt -0.09013815 -0.3415833
vt 0.09202164 -0.3409106
vt 0.09013815 -0.3415833
vt 0.09215617 -0.3472337
vt 0.09403966 -0.346561
vt -0.06797647 -0.3595597
vt -0.06976532 -0.3586653
vt -0.0724486 -0.3640319
vt -0.07065975 -0.3649263
vt 0.06797647 -0.3595597
vt 0.07065975 -0.3649263
vt 0.0724486 -0.3640319
vt 0.06976532 -0.3586653
vt -0.03533928 -0.09764802
vt -0.03371182 -0.09881049
vt -0.03254934 -0.09718303
vt -0.03417681 -0.09602056
vt 0.03533928 -0.09764802
vt 0.03417681 -0.09602056
vt 0.03254934 -0.09718303
vt 0.03371182 -0.09881049
vt -0.095385 -0.350328
vt -0.09605767 -0.3522115
vt -0.09417419 -0.3528841
vt -0.09350152 -0.3510007
vt 0.095385 -0.350328
vt 0.09350152 -0.3510007
vt 0.09417419 -0.3528841
vt 0.09605767 -0.3522115
vt -0.0724486 -0.368504
vt -0.07423746 -0.3676096
vt -0.07513189 -0.3693984
vt -0.07334303 -0.3702928
vt 0.0724486 -0.368504
vt 0.07334303 -0.3702928
vt 0.07513189 -0.3693984
vt 0.07423746 -0.3676096
vt -0.02720192 -0.08625577
vt -0.02557445 -0.08741825
vt -0.02441197 -0.08579079
vt -0.02603944 -0.08462831
vt 0.02720192 -0.08625577
vt 0.02603944 -0.08462831
vt 0.02441197 -0.08579078
vt 0.02557445 -0.08741825
vt -0.09269432 -0.3427941
vt -0.09403966 -0.346561
vt -0.09215619 -0.3472337
vt -0.09081084 -0.3434667
vt 0.09269432 -0.3427941
vt 0.09081084 -0.3434667
vt 0.09215619 -0.3472337
vt 0.09403966 -0.346561
vt -0.08139287 -0.3550876
vt -0.08318172 -0.3541932
vt -0.08497058 -0.3577709
vt -0.08318172 -0.3586653
vt 0.08139287 -0.3550876
vt 0.08318172 -0.3586653
vt 0.08497058 -0.3577709
vt 0.08318172 -0.3541932
vt -0.03068938 -0.09113815
vt -0.02906191 -0.09230063
vt -0.02789944 -0.09067316
vt -0.0295269 -0.08951069
vt 0.03068938 -0.09113815
vt 0.0295269 -0.08951069
vt 0.02789944 -0.09067316
vt 0.02906191 -0.09230063
vt -0.09269431 -0.3427941
vt -0.09403966 -0.346561
vt -0.09215617 -0.3472337
vt -0.09081083 -0.3434667
vt 0.09269431 -0.3427941
vt 0.09081083 -0.3434667
vt 0.09215617 -0.3472337
vt 0.09403966 -0.346561
vt -0.07602632 -0.3577709
vt -0.07781517 -0.3568765
vt -0.07960402 -0.3604542
vt -0.07781517 -0.3613486
vt 0.07602632 -0.3577709
vt 0.07781517 -0.3613486
vt 0.07960402 -0.3604542
vt 0.07781517 -0.3568765
o group853452033
g mesh853452033
usemtl mat21
f 4/4/1 3/3/1 2/2/1 1/1/1
f 8/8/2 7/7/2 6/6/2 5/5/2
f 2/12/3 8/11/3 5/10/3 1/9/3
f 6/16/4 7/15/4 3/14/4 4/13/4
f 5/20/5 6/19/5 4/18/5 1/17/5
f 3/24/6 7/23/6 8/22/6 2/21/6
o group1762459722
g mesh1762459722
usemtl mat21
f 12/28/7 11/27/7 10/26/7 9/25/7
f 16/32/8 15/31/8 14/30/8 13/29/8
f 10/36/9 16/35/9 13/34/9 9/33/9
f 14/40/10 15/39/10 11/38/10 12/37/10
f 13/44/11 14/43/11 12/42/11 9/41/11
f 11/48/12 15/47/12 16/46/12 10/45/12
o group187455730
g mesh187455730
usemtl mat21
f 20/52/13 19/51/13 18/50/13 17/49/13
f 24/56/14 23/55/14 22/54/14 21/53/14
f 18/60/15 24/59/15 21/58/15 17/57/15
f 22/64/16 23/63/16 19/62/16 20/61/16
f 21/68/17 22/67/17 20/66/17 17/65/17
f 19/72/18 23/71/18 24/70/18 18/69/18
o group1090298542
g mesh1090298542
usemtl mat21
f 28/76/19 27/75/19 26/74/19 25/73/19
f 32/80/20 31/79/20 30/78/20 29/77/20
f 26/84/21 32/83/21 29/82/21 25/81/21
f 30/88/22 31/87/22 27/86/22 28/85/22
f 29/92/23 30/91/23 28/90/23 25/89/23
f 27/96/24 31/95/24 32/94/24 26/93/24
o group656727230
g mesh656727230
usemtl mat21
f 36/100/25 35/99/25 34/98/25 33/97/25
f 40/104/26 39/103/26 38/102/26 37/101/26
f 34/108/27 40/107/27 37/106/27 33/105/27
f 38/112/28 39/111/28 35/110/28 36/109/28
f 37/116/29 38/115/29 36/114/29 33/113/29
f 35/120/30 39/119/30 40/118/30 34/117/30
o group330988192
g mesh330988192
usemtl mat21
f 44/124/31 43/123/31 42/122/31 41/121/31
f 48/128/32 47/127/32 46/126/32 45/125/32
f 42/132/33 48/131/33 45/130/33 41/129/33
f 46/136/34 47/135/34 43/134/34 44/133/34
f 45/140/35 46/139/35 44/138/35 41/137/35
f 43/144/36 47/143/36 48/142/36 42/141/36
o group1266189208
g mesh1266189208
usemtl mat21
f 52/148/37 51/147/37 50/146/37 49/145/37
f 56/152/38 55/151/38 54/150/38 53/149/38
f 50/156/39 56/155/39 53/154/39 49/153/39
f 54/160/40 55/159/40 51/158/40 52/157/40
f 53/164/41 54/163/41 52/162/41 49/161/41
f 51/168/42 55/167/42 56/166/42 50/165/42
o group593331090
g mesh593331090
usemtl mat21
f 60/172/43 59/171/43 58/170/43 57/169/43
f 64/176/44 63/175/44 62/174/44 61/173/44
f 58/180/45 64/179/45 61/178/45 57/177/45
f 62/184/46 63/183/46 59/182/46 60/181/46
f 61/188/47 62/187/47 60/186/47 57/185/47
f 59/192/48 63/191/48 64/190/48 58/189/48
o group639845503
g mesh639845503
usemtl mat21
f 68/196/49 67/195/49 66/194/49 65/193/49
f 72/200/50 71/199/50 70/198/50 69/197/50
f 66/204/51 72/203/51 69/202/51 65/201/51
f 70/208/52 71/207/52 67/206/52 68/205/52
f 69/212/53 70/211/53 68/210/53 65/209/53
f 67/216/54 71/215/54 72/214/54 66/213/54
o group733279132
g mesh733279132
usemtl mat21
f 76/220/55 75/219/55 74/218/55 73/217/55
f 80/224/56 79/223/56 78/222/56 77/221/56
f 74/228/57 80/227/57 77/226/57 73/225/57
f 78/232/58 79/231/58 75/230/58 76/229/58
f 77/236/59 78/235/59 76/234/59 73/233/59
f 75/240/60 79/239/60 80/238/60 74/237/60
o group1197866385
g mesh1197866385
usemtl mat21
f 84/244/61 83/243/61 82/242/61 81/241/61
f 88/248/62 87/247/62 86/246/62 85/245/62
f 82/252/63 88/251/63 85/250/63 81/249/63
f 86/256/64 87/255/64 83/254/64 84/253/64
f 85/260/65 86/259/65 84/258/65 81/257/65
f 83/264/66 87/263/66 88/262/66 82/261/66
o group86527608
g mesh86527608
usemtl mat21
f 92/268/67 91/267/67 90/266/67 89/265/67
f 96/272/68 95/271/68 94/270/68 93/269/68
f 90/276/69 96/275/69 93/274/69 89/273/69
f 94/280/70 95/279/70 91/278/70 92/277/70
f 93/284/71 94/283/71 92/282/71 89/281/71
f 91/288/72 95/287/72 96/286/72 90/285/72
