mtllib materials.mtl
v 0.05833337 -0.08888888 -0.00999999
v 0.05833337 -0.08888888 0.01000001
v 0.05833337 0.0711112 0.01000001
v 0.05833337 0.0711112 -0.00999999
v 0.03833339 -0.08888888 -0.00999999
v 0.03833339 0.0711112 -0.00999999
v 0.03833339 0.0711112 0.01000001
v 0.03833339 -0.08888888 0.01000001
v 0.03833336 -0.008888841 -0.00999999
v 0.03833336 -0.008888841 0.01000001
v 0.03833336 0.01111114 0.01000001
v 0.03833336 0.01111114 -0.00999999
v 0.01833338 -0.008888841 -0.00999999
v 0.01833338 0.01111114 -0.00999999
v 0.01833338 0.01111114 0.01000001
v 0.01833338 -0.008888841 0.01000001
v 0.01833335 -0.008888841 -0.00999999
v 0.01833335 -0.008888841 0.01000001
v 0.01833335 0.01111114 0.01000001
v 0.01833335 0.01111114 -0.00999999
v -0.001666635 -0.008888841 -0.00999999
v -0.001666635 0.01111114 -0.00999999
v -0.001666635 0.01111114 0.01000001
v -0.001666635 -0.008888841 0.01000001
v -0.001666635 -0.008888841 -0.00999999
v -0.001666635 -0.008888841 0.01000001
v -0.001666635 0.01111114 0.01000001
v -0.001666635 0.01111114 -0.00999999
v -0.02166662 -0.008888841 -0.00999999
v -0.02166662 0.01111114 -0.00999999
v -0.02166662 0.01111114 0.01000001
v -0.02166662 -0.008888841 0.01000001
v -0.02166665 0.01111114 -0.00999999
v -0.02166665 0.01111114 0.01000001
v -0.02166665 0.03111112 0.01000001
v -0.02166665 0.03111112 -0.00999999
v -0.04166663 0.01111114 -0.00999999
v -0.04166663 0.03111112 -0.00999999
v -0.04166663 0.03111112 0.01000001
v -0.04166663 0.01111114 0.01000001
v -0.02166662 0.03111112 -0.00999999
v -0.02166662 0.03111112 0.01000001
v -0.02166662 0.0511111 0.01000001
v -0.02166662 0.0511111 -0.00999999
v -0.04166663 0.03111112 -0.00999999
v -0.04166663 0.0511111 -0.00999999
v -0.04166663 0.0511111 0.01000001
v -0.04166663 0.03111112 0.01000001
v 0.03833339 0.0511111 -0.00999999
v 0.03833339 0.0511111 0.01000001
v 0.03833339 0.07111108 0.01000001
v 0.03833339 0.07111108 -0.00999999
v -0.02166662 0.0511111 -0.00999999
v -0.02166662 0.07111108 -0.00999999
v -0.02166662 0.07111108 0.01000001
v -0.02166662 0.0511111 0.01000001
v -0.02166662 -0.06888878 -0.00999999
v -0.02166662 -0.06888878 0.01000001
v -0.02166662 -0.008888841 0.01000001
v -0.02166662 -0.008888841 -0.00999999
v -0.04166663 -0.06888878 -0.00999999
v -0.04166663 -0.008888841 -0.00999999
v -0.04166663 -0.008888841 0.01000001
v -0.04166663 -0.06888878 0.01000001
v 0.04833338 -0.08888888 -0.00999999
v 0.04833338 -0.08888888 0.01000001
v 0.04833338 -0.0688889 0.01000001
v 0.04833338 -0.0688889 -0.00999999
v -0.02166662 -0.08888888 -0.00999999
v -0.02166662 -0.0688889 -0.00999999
v -0.02166662 -0.0688889 0.01000001
v -0.02166662 -0.08888888 0.01000001
vn 1 0 0
vn -1 0 0
vn 0 -1 0
vn 0 1 0
vn 0 0 -1
vn 0 0 1
vn 1 0 0
vn -1 0 0
vn 0 -1 0
vn 0 1 0
vn 0 0 -1
vn 0 0 1
vn 1 0 0
vn -1 0 0
vn 0 -1 0
vn 0 1 0
vn 0 0 -1
vn 0 0 1
vn 1 0 0
vn -1 0 0
vn 0 -1 0
vn 0 1 0
vn 0 0 -1
vn 0 0 1
vn 1 0 0
vn -1 0 0
vn 0 -1 0
vn 0 1 0
vn 0 0 -1
vn 0 0 1
vn 1 0 0
vn -1 0 0
vn 0 -1 0
vn 0 1 0
vn 0 0 -1
vn 0 0 1
vn 1 0 0
vn -1 0 0
vn 0 -1 0
vn 0 1 0
vn 0 0 -1
vn 0 0 1
vn 1 0 0
vn -1 0 0
vn 0 -1 0
vn 0 1 0
vn 0 0 -1
vn 0 0 1
vn 1 0 0
vn -1 0 0
vn 0 -1 0
vn 0 1 0
vn 0 0 -1
vn 0 0 1
vt 0.09753178 0.1245012
vt 0.09915924 0.1233387
vt 0.1084591 0.1363585
vt 0.1068316 0.137521
vt -0.09753178 0.1245012
vt -0.1068316 0.137521
vt -0.1084591 0.1363585
vt -0.09915924 0.1233387
vt -0.007197599 -0.04096577
vt -0.007870271 -0.04284926
vt -0.005986787 -0.04352193
vt -0.005314115 -0.04163845
vt 0.007197599 -0.04096577
vt 0.005314115 -0.04163845
vt 0.005986787 -0.04352193
vt 0.007870271 -0.04284926
vt -0.1596553 0.03398823
vt -0.1739661 0.04114365
vt -0.1748605 0.0393548
vt -0.1605497 0.03219938
vt 0.1596553 0.03398823
vt 0.1605497 0.03219938
vt 0.1748605 0.0393548
vt 0.1739661 0.04114365
vt 0.1021817 0.1310111
vt 0.1038092 0.1298486
vt 0.1049716 0.1314761
vt 0.1033442 0.1326386
vt -0.1021817 0.1310111
vt -0.1033442 0.1326386
vt -0.1049716 0.1314761
vt -0.1038092 0.1298486
vt -0.007870272 -0.04284926
vt -0.008542945 -0.04473274
vt -0.006659461 -0.04540541
vt -0.005986788 -0.04352193
vt 0.007870272 -0.04284926
vt 0.005986788 -0.04352193
vt 0.006659461 -0.04540541
vt 0.008542945 -0.04473274
vt -0.1677051 0.03577708
vt -0.169494 0.03667151
vt -0.1703884 0.03488266
vt -0.1685995 0.03398823
vt 0.1677051 0.03577708
vt 0.1685995 0.03398823
vt 0.1703884 0.03488266
vt 0.169494 0.03667151
vt 0.1021817 0.1310111
vt 0.1038092 0.1298486
vt 0.1049716 0.1314761
vt 0.1033442 0.1326386
vt -0.1021817 0.1310111
vt -0.1033442 0.1326386
vt -0.1049716 0.1314761
vt -0.1038092 0.1298486
vt -0.008542946 -0.04473274
vt -0.009215618 -0.04661623
vt -0.007332134 -0.0472889
vt -0.006659462 -0.04540542
vt 0.008542946 -0.04473274
vt 0.006659462 -0.04540542
vt 0.007332134 -0.0472889
vt 0.009215618 -0.04661623
vt -0.1685995 0.03398823
vt -0.1703884 0.03488266
vt -0.1712828 0.03309381
vt -0.169494 0.03219938
vt 0.1685995 0.03398823
vt 0.169494 0.03219938
vt 0.1712828 0.03309381
vt 0.1703884 0.03488266
vt 0.1021817 0.1310111
vt 0.1038092 0.1298486
vt 0.1049716 0.1314761
vt 0.1033442 0.1326386
vt -0.1021817 0.1310111
vt -0.1033442 0.1326386
vt -0.1049716 0.1314761
vt -0.1038092 0.1298486
vt -0.009215618 -0.04661623
vt -0.009888289 -0.04849971
vt -0.008004806 -0.04917238
vt -0.007332134 -0.0472889
vt 0.009215618 -0.04661623
vt 0.007332134 -0.0472889
vt 0.008004806 -0.04917238
vt 0.009888289 -0.04849971
vt -0.169494 0.03219938
vt -0.1712828 0.03309381
vt -0.1721772 0.03130495
vt -0.1703884 0.03041052
vt 0.169494 0.03219938
vt 0.1703884 0.03041052
vt 0.1721772 0.03130495
vt 0.1712828 0.03309381
vt 0.1033442 0.1326386
vt 0.1049716 0.1314761
vt 0.1061341 0.1331035
vt 0.1045066 0.134266
vt -0.1033442 0.1326386
vt -0.1045066 0.134266
vt -0.1061341 0.1331035
vt -0.1049716 0.1314761
vt -0.00988829 -0.04849971
vt -0.01056096 -0.05038319
vt -0.008677479 -0.05105587
vt -0.008004807 -0.04917238
vt 0.00988829 -0.04849971
vt 0.008004807 -0.04917238
vt 0.008677479 -0.05105587
vt 0.01056096 -0.05038319
vt -0.1721772 0.03130495
vt -0.1739661 0.03219938
vt -0.1748605 0.03041052
vt -0.1730717 0.0295161
vt 0.1721772 0.03130495
vt 0.1730717 0.0295161
vt 0.1748605 0.03041052
vt 0.1739661 0.03219938
vt 0.1045066 0.134266
vt 0.1061341 0.1331035
vt 0.1072966 0.134731
vt 0.1056691 0.1358935
vt -0.1045066 0.134266
vt -0.1056691 0.1358935
vt -0.1072966 0.134731
vt -0.1061341 0.1331035
vt -0.009888289 -0.04849971
vt -0.01056096 -0.05038319
vt -0.008677479 -0.05105587
vt -0.008004806 -0.04917238
vt 0.009888289 -0.04849971
vt 0.008004806 -0.04917238
vt 0.008677479 -0.05105587
vt 0.01056096 -0.05038319
vt -0.1739661 0.03219938
vt -0.1757549 0.03309381
vt -0.1766494 0.03130495
vt -0.1748605 0.03041052
vt 0.1739661 0.03219938
vt 0.1748605 0.03041052
vt 0.1766494 0.03130495
vt 0.1757549 0.03309381
vt 0.1056691 0.1358935
vt 0.1072966 0.134731
vt 0.1084591 0.1363585
vt 0.1068316 0.137521
vt -0.1056691 0.1358935
vt -0.1068316 0.137521
vt -0.1084591 0.1363585
vt -0.1072966 0.134731
vt -0.007870271 -0.04284926
vt -0.009888289 -0.04849971
vt -0.008004806 -0.04917238
vt -0.005986787 -0.04352193
vt 0.007870271 -0.04284926
vt 0.005986787 -0.04352193
vt 0.008004806 -0.04917238
vt 0.009888289 -0.04849971
vt -0.1730717 0.03846037
vt -0.1748605 0.03935479
vt -0.1775438 0.03398823
vt -0.1757549 0.03309381
vt 0.1730717 0.03846037
vt 0.1757549 0.03309381
vt 0.1775438 0.03398823
vt 0.1748605 0.03935479
vt 0.09869426 0.1261287
vt 0.1003217 0.1249662
vt 0.1038092 0.1298486
vt 0.1021817 0.1310111
vt -0.09869426 0.1261287
vt -0.1021817 0.1310111
vt -0.1038092 0.1298486
vt -0.1003217 0.1249662
vt -0.009888289 -0.04849971
vt -0.01056096 -0.05038319
vt -0.008677479 -0.05105587
vt -0.008004806 -0.04917238
vt 0.009888289 -0.04849971
vt 0.008004806 -0.04917238
vt 0.008677479 -0.05105587
vt 0.01056096 -0.05038319
vt -0.1650218 0.02772725
vt -0.1703884 0.03041052
vt -0.1712828 0.02862167
vt -0.1659162 0.02593839
vt 0.1650218 0.02772725
vt 0.1659162 0.02593839
vt 0.1712828 0.02862167
vt 0.1703884 0.03041052
vt 0.09753178 0.1245012
vt 0.09915924 0.1233387
vt 0.1003217 0.1249662
vt 0.09869425 0.1261287
vt -0.09753178 0.1245012
vt -0.09869425 0.1261287
vt -0.1003217 0.1249662
vt -0.09915924 0.1233387
vt -0.007533935 -0.04190752
vt -0.009888289 -0.04849971
vt -0.008004806 -0.04917238
vt -0.005650451 -0.04258019
vt 0.007533935 -0.04190752
vt 0.005650451 -0.04258019
vt 0.008004806 -0.04917238
vt 0.009888289 -0.04849971
vt -0.1601025 0.03309381
vt -0.1618913 0.03398823
vt -0.1650218 0.02772724
vt -0.163233 0.02683282
vt 0.1601025 0.03309381
vt 0.163233 0.02683282
vt 0.1650218 0.02772724
vt 0.1618913 0.03398823
o group1499518745
g mesh1499518745
usemtl mat21
f 4/4/1 3/3/1 2/2/1 1/1/1
f 8/8/2 7/7/2 6/6/2 5/5/2
f 2/12/3 8/11/3 5/10/3 1/9/3
f 6/16/4 7/15/4 3/14/4 4/13/4
f 5/20/5 6/19/5 4/18/5 1/17/5
f 3/24/6 7/23/6 8/22/6 2/21/6
o group1817701263
g mesh1817701263
usemtl mat21
f 12/28/7 11/27/7 10/26/7 9/25/7
f 16/32/8 15/31/8 14/30/8 13/29/8
f 10/36/9 16/35/9 13/34/9 9/33/9
f 14/40/10 15/39/10 11/38/10 12/37/10
f 13/44/11 14/43/11 12/42/11 9/41/11
f 11/48/12 15/47/12 16/46/12 10/45/12
o group2027585024
g mesh2027585024
usemtl mat21
f 20/52/13 19/51/13 18/50/13 17/49/13
f 24/56/14 23/55/14 22/54/14 21/53/14
f 18/60/15 24/59/15 21/58/15 17/57/15
f 22/64/16 23/63/16 19/62/16 20/61/16
f 21/68/17 22/67/17 20/66/17 17/65/17
f 19/72/18 23/71/18 24/70/18 18/69/18
o group978388977
g mesh978388977
usemtl mat21
f 28/76/19 27/75/19 26/74/19 25/73/19
f 32/80/20 31/79/20 30/78/20 29/77/20
f 26/84/21 32/83/21 29/82/21 25/81/21
f 30/88/22 31/87/22 27/86/22 28/85/22
f 29/92/23 30/91/23 28/90/23 25/89/23
f 27/96/24 31/95/24 32/94/24 26/93/24
o group915179569
g mesh915179569
usemtl mat21
f 36/100/25 35/99/25 34/98/25 33/97/25
f 40/104/26 39/103/26 38/102/26 37/101/26
f 34/108/27 40/107/27 37/106/27 33/105/27
f 38/112/28 39/111/28 35/110/28 36/109/28
f 37/116/29 38/115/29 36/114/29 33/113/29
f 35/120/30 39/119/30 40/118/30 34/117/30
o group581177499
g mesh581177499
usemtl mat21
f 44/124/31 43/123/31 42/122/31 41/121/31
f 48/128/32 47/127/32 46/126/32 45/125/32
f 42/132/33 48/131/33 45/130/33 41/129/33
f 46/136/34 47/135/34 43/134/34 44/133/34
f 45/140/35 46/139/35 44/138/35 41/137/35
f 43/144/36 47/143/36 48/142/36 42/141/36
o group1084520519
g mesh1084520519
usemtl mat21
f 52/148/37 51/147/37 50/146/37 49/145/37
f 56/152/38 55/151/38 54/150/38 53/149/38
f 50/156/39 56/155/39 53/154/39 49/153/39
f 54/160/40 55/159/40 51/158/40 52/157/40
f 53/164/41 54/163/41 52/162/41 49/161/41
f 51/168/42 55/167/42 56/166/42 50/165/42
o group2866523
g mesh2866523
usemtl mat21
f 60/172/43 59/171/43 58/170/43 57/169/43
f 64/176/44 63/175/44 62/174/44 61/173/44
f 58/180/45 64/179/45 61/178/45 57/177/45
f 62/184/46 63/183/46 59/182/46 60/181/46
f 61/188/47 62/187/47 60/186/47 57/185/47
f 59/192/48 63/191/48 64/190/48 58/189/48
o group1050687283
g mesh1050687283
usemtl mat21
f 68/196/49 67/195/49 66/194/49 65/193/49
f 72/200/50 71/199/50 70/198/50 69/197/50
f 66/204/51 72/203/51 69/202/51 65/201/51
f 70/208/52 71/207/52 67/206/52 68/205/52
f 69/212/53 70/211/53 68/210/53 65/209/53
f 67/216/54 71/215/54 72/214/54 66/213/54
