mtllib materials.mtl
v 0.046 -0.03999996 -0.01000011
v 0.046 -0.03999996 0.009999871
v 0.046 0.04000002 0.009999871
v 0.046 0.04000002 -0.01000011
v 0.02600002 -0.03999996 -0.01000011
v 0.02600002 0.04000002 -0.01000011
v 0.02600002 0.04000002 0.009999871
v 0.02600002 -0.03999996 0.009999871
v 0.02600002 0.04000002 -0.01000011
v 0.02600002 0.04000002 0.009999871
v 0.02600002 0.06 0.009999871
v 0.02600002 0.06 -0.01000011
v -0.01399994 0.04000002 -0.01000011
v -0.01399994 0.06 -0.01000011
v -0.01399994 0.06 0.009999871
v -0.01399994 0.04000002 0.009999871
v -0.01400018 0.02000004 -0.01000011
v -0.01400018 0.02000004 0.009999871
v -0.01400018 0.04000002 0.009999871
v -0.01400018 0.04000002 -0.01000011
v -0.03400016 0.02000004 -0.01000011
v -0.03400016 0.04000002 -0.01000011
v -0.03400016 0.04000002 0.009999871
v -0.03400016 0.02000004 0.009999871
v 0.02600002 -0.05999994 -0.01000011
v 0.02600002 -0.05999994 0.009999871
v 0.02600002 -0.03999996 0.009999871
v 0.02600002 -0.03999996 -0.01000011
v -0.01399994 -0.05999994 -0.01000011
v -0.01399994 -0.03999996 -0.01000011
v -0.01399994 -0.03999996 0.009999871
v -0.01399994 -0.05999994 0.009999871
v -0.01400018 -0.03999996 -0.01000011
v -0.01400018 -0.03999996 0.009999871
v -0.01400018 -0.01999998 0.009999871
v -0.01400018 -0.01999998 -0.01000011
v -0.03400016 -0.03999996 -0.01000011
v -0.03400016 -0.01999998 -0.01000011
v -0.03400016 -0.01999998 0.009999871
v -0.03400016 -0.03999996 0.009999871
vn 1 0 0
vn -1 0 0
vn 0 -1 0
vn 0 1 0
vn 0 0 -1
vn 0 0 1
vn 1 0 0
vn -1 0 0
vn 0 -1 0
vn 0 1 0
vn 0 0 -1
vn 0 0 1
vn 1 0 0
vn -1 0 0
vn 0 -1 0
vn 0 1 0
vn 0 0 -1
vn 0 0 1
vn 1 0 0
vn -1 0 0
vn 0 -1 0
vn 0 1 0
vn 0 0 -1
vn 0 0 1
vn 1 0 0
vn -1 0 0
vn 0 -1 0
vn 0 1 0
vn 0 0 -1
vn 0 0 1
vt 0.07649095 -0.1836713
vt 0.07811841 -0.1848338
vt 0.08276831 -0.1783239
vt 0.08114085 -0.1771614
vt -0.07649095 -0.1836713
vt -0.08114085 -0.1771614
vt -0.08276831 -0.1783239
vt -0.07811841 -0.1848338
vt 0.259719 0.22474
vt 0.2590463 0.2228565
vt 0.2609298 0.2221839
vt 0.2616025 0.2240673
vt -0.259719 0.22474
vt -0.2616025 0.2240673
vt -0.2609298 0.2221839
vt -0.2590463 0.2228565
vt 0.2276317 0.2204763
vt 0.2204763 0.224054
vt 0.2195819 0.2222652
vt 0.2267373 0.2186875
vt -0.2276317 0.2204763
vt -0.2267373 0.2186875
vt -0.2195819 0.2222652
vt -0.2204763 0.224054
vt 0.08114085 -0.1771614
vt 0.08276831 -0.1783239
vt 0.08393079 -0.1766964
vt 0.08230333 -0.175534
vt -0.08114085 -0.1771614
vt -0.08230333 -0.175534
vt -0.08393079 -0.1766964
vt -0.08276831 -0.1783239
vt 0.2590463 0.2228565
vt 0.2577009 0.2190896
vt 0.2595844 0.2184169
vt 0.2609298 0.2221839
vt -0.2590463 0.2228565
vt -0.2609298 0.2221839
vt -0.2595844 0.2184169
vt -0.2577009 0.2190896
vt 0.2195819 0.2222652
vt 0.217793 0.2231596
vt 0.2160042 0.2195819
vt 0.217793 0.2186875
vt -0.2195819 0.2222652
vt -0.217793 0.2186875
vt -0.2160042 0.2195819
vt -0.217793 0.2231596
vt 0.07997838 -0.1787889
vt 0.08160584 -0.1799514
vt 0.08276831 -0.1783239
vt 0.08114085 -0.1771614
vt -0.07997838 -0.1787889
vt -0.08114085 -0.1771614
vt -0.08276831 -0.1783239
vt -0.08160584 -0.1799514
vt 0.2577009 0.2190895
vt 0.2570283 0.217206
vt 0.2589118 0.2165334
vt 0.2595844 0.2184169
vt -0.2577009 0.2190895
vt -0.2595844 0.2184169
vt -0.2589118 0.2165334
vt -0.2570283 0.217206
vt 0.2195819 0.217793
vt 0.217793 0.2186874
vt 0.2168986 0.2168986
vt 0.2186874 0.2160042
vt -0.2195819 0.217793
vt -0.2186874 0.2160042
vt -0.2168986 0.2168986
vt -0.217793 0.2186874
vt 0.07532847 -0.1852987
vt 0.07695593 -0.1864612
vt 0.07811841 -0.1848338
vt 0.07649095 -0.1836713
vt -0.07532847 -0.1852987
vt -0.07649095 -0.1836713
vt -0.07811841 -0.1848338
vt -0.07695593 -0.1864612
vt 0.2590463 0.2228565
vt 0.2577009 0.2190896
vt 0.2595844 0.2184169
vt 0.2609298 0.2221839
vt -0.2590463 0.2228565
vt -0.2609298 0.2221839
vt -0.2595844 0.2184169
vt -0.2577009 0.2190896
vt 0.2285262 0.217793
vt 0.2267373 0.2186875
vt 0.2249485 0.2151098
vt 0.2267373 0.2142153
vt -0.2285262 0.217793
vt -0.2267373 0.2142153
vt -0.2249485 0.2151098
vt -0.2267373 0.2186875
vt 0.07649095 -0.1836713
vt 0.07811841 -0.1848338
vt 0.07928088 -0.1832063
vt 0.07765342 -0.1820438
vt -0.07649095 -0.1836713
vt -0.07765342 -0.1820438
vt -0.07928088 -0.1832063
vt -0.07811841 -0.1848338
vt 0.2577009 0.2190895
vt 0.2570283 0.217206
vt 0.2589118 0.2165334
vt 0.2595844 0.2184169
vt -0.2577009 0.2190895
vt -0.2595844 0.2184169
vt -0.2589118 0.2165334
vt -0.2570283 0.217206
vt 0.2249484 0.2151097
vt 0.2231596 0.2160042
vt 0.2222652 0.2142153
vt 0.224054 0.2133209
vt -0.2249484 0.2151097
vt -0.224054 0.2133209
vt -0.2222652 0.2142153
vt -0.2231596 0.2160042
o group1980087016
g mesh1980087016
usemtl mat21
f 4/4/1 3/3/1 2/2/1 1/1/1
f 8/8/2 7/7/2 6/6/2 5/5/2
f 2/12/3 8/11/3 5/10/3 1/9/3
f 6/16/4 7/15/4 3/14/4 4/13/4
f 5/20/5 6/19/5 4/18/5 1/17/5
f 3/24/6 7/23/6 8/22/6 2/21/6
o group1468944386
g mesh1468944386
usemtl mat21
f 12/28/7 11/27/7 10/26/7 9/25/7
f 16/32/8 15/31/8 14/30/8 13/29/8
f 10/36/9 16/35/9 13/34/9 9/33/9
f 14/40/10 15/39/10 11/38/10 12/37/10
f 13/44/11 14/43/11 12/42/11 9/41/11
f 11/48/12 15/47/12 16/46/12 10/45/12
o group967210540
g mesh967210540
usemtl mat21
f 20/52/13 19/51/13 18/50/13 17/49/13
f 24/56/14 23/55/14 22/54/14 21/53/14
f 18/60/15 24/59/15 21/58/15 17/57/15
f 22/64/16 23/63/16 19/62/16 20/61/16
f 21/68/17 22/67/17 20/66/17 17/65/17
f 19/72/18 23/71/18 24/70/18 18/69/18
o group1425106460
g mesh1425106460
usemtl mat21
f 28/76/19 27/75/19 26/74/19 25/73/19
f 32/80/20 31/79/20 30/78/20 29/77/20
f 26/84/21 32/83/21 29/82/21 25/81/21
f 30/88/22 31/87/22 27/86/22 28/85/22
f 29/92/23 30/91/23 28/90/23 25/89/23
f 27/96/24 31/95/24 32/94/24 26/93/24
o group1276716826
g mesh1276716826
usemtl mat21
f 36/100/25 35/99/25 34/98/25 33/97/25
f 40/104/26 39/103/26 38/102/26 37/101/26
f 34/108/27 40/107/27 37/106/27 33/105/27
f 38/112/28 39/111/28 35/110/28 36/109/28
f 37/116/29 38/115/29 36/114/29 33/113/29
f 35/120/30 39/119/30 40/118/30 34/117/30
