mtllib materials.mtl
v 0.02333337 0.06000006 -0.01000001
v 0.02333337 0.06000006 0.00999999
v 0.02333337 0.08000004 0.00999999
v 0.02333337 0.08000004 -0.01000001
v -0.05666667 0.06000006 -0.01000002
v -0.05666667 0.08000004 -0.01000002
v -0.05666667 0.08000004 0.009999983
v -0.05666667 0.06000006 0.009999976
v 0.02333337 -0.07999992 -0.01000001
v 0.02333337 -0.07999992 0.00999999
v 0.02333337 -0.05999994 0.00999999
v 0.02333337 -0.05999994 -0.01000001
v -0.05666667 -0.07999992 -0.01000001
v -0.05666667 -0.05999994 -0.01000001
v -0.05666667 -0.05999994 0.00999999
v -0.05666667 -0.07999992 0.00999999
v 0.04333329 -0.05999994 0.01000001
v 0.04333329 0.06000018 0.009999998
v 0.04333329 0.06000018 -0.01000001
v 0.04333329 -0.05999994 -0.00999999
v 0.02333331 -0.05999994 0.01000001
v 0.02333331 -0.05999994 -0.009999998
v 0.02333331 0.06000018 -0.01000001
v 0.02333331 0.06000018 0.00999999
vn 1 0 1.748456E-07
vn -1 0 -1.748456E-07
vn 3.057097E-14 -1 -1.748456E-07
vn -3.057097E-14 1 1.748456E-07
vn 1.748456E-07 1.748456E-07 -1
vn -1.748456E-07 -1.748456E-07 1
vn 1 0 0
vn -1 0 0
vn 0 -1 0
vn 0 1 0
vn 0 0 -1
vn 0 0 1
vn 1 0 1.748456E-07
vn -1 0 -1.748456E-07
vn -1.748456E-07 1.192093E-07 1
vn 1.748456E-07 -1.192093E-07 -1
vn 0 -1 1.192093E-07
vn 0 1 -1.192093E-07
vt 0.1056691 0.1358934
vt 0.1072966 0.134731
vt 0.1084591 0.1363584
vt 0.1068316 0.1375209
vt -0.1056691 0.1358934
vt -0.1068316 0.1375209
vt -0.1084591 0.1363584
vt -0.1072966 0.134731
vt -0.01190634 -0.05415015
vt -0.01459703 -0.06168408
vt -0.01271355 -0.06235676
vt -0.01002286 -0.05482281
vt 0.01190634 -0.05415015
vt 0.01002286 -0.05482281
vt 0.01271355 -0.06235676
vt 0.01459703 -0.06168408
vt -0.1784382 0.02772724
vt -0.1802271 0.02862167
vt -0.1838048 0.02146625
vt -0.1820159 0.02057182
vt 0.1784382 0.02772724
vt 0.1820159 0.02057182
vt 0.1838048 0.02146625
vt 0.1802271 0.02862167
vt 0.09753178 0.1245012
vt 0.09915924 0.1233387
vt 0.1003217 0.1249662
vt 0.09869425 0.1261287
vt -0.09753178 0.1245012
vt -0.09869425 0.1261287
vt -0.1003217 0.1249662
vt -0.09915924 0.1233387
vt -0.01190631 -0.05415016
vt -0.014597 -0.06168409
vt -0.01271352 -0.06235677
vt -0.01002282 -0.05482283
vt 0.01190631 -0.05415016
vt 0.01002282 -0.05482283
vt 0.01271352 -0.06235677
vt 0.014597 -0.06168409
vt -0.1659162 0.02146626
vt -0.1677051 0.02236068
vt -0.1712828 0.01520526
vt -0.1694939 0.01431083
vt 0.1659162 0.02146626
vt 0.1694939 0.01431083
vt 0.1712828 0.01520526
vt 0.1677051 0.02236068
vt 0.1003217 0.1249662
vt 0.1072966 0.134731
vt 0.1056691 0.1358935
vt 0.09869428 0.1261286
vt -0.1003217 0.1249662
vt -0.09869428 0.1261286
vt -0.1056691 0.1358935
vt -0.1072966 0.134731
vt 0.1668107 0.02414954
vt 0.1677051 0.02236068
vt 0.1784382 0.02772726
vt 0.1775438 0.02951611
vt -0.1668107 0.02414954
vt -0.1775438 0.02951611
vt -0.1784382 0.02772726
vt -0.1677051 0.02236068
vt -0.00935013 -0.05293936
vt -0.01123361 -0.05226669
vt -0.01190629 -0.05415017
vt -0.0100228 -0.05482284
vt 0.00935013 -0.05293936
vt 0.0100228 -0.05482284
vt 0.01190629 -0.05415017
vt 0.01123361 -0.05226669
o group1773401275
g mesh1773401275
usemtl mat21
f 4/4/1 3/3/1 2/2/1 1/1/1
f 8/8/2 7/7/2 6/6/2 5/5/2
f 2/12/3 8/11/3 5/10/3 1/9/3
f 6/16/4 7/15/4 3/14/4 4/13/4
f 5/20/5 6/19/5 4/18/5 1/17/5
f 3/24/6 7/23/6 8/22/6 2/21/6
o group37035374
g mesh37035374
usemtl mat21
f 12/28/7 11/27/7 10/26/7 9/25/7
f 16/32/8 15/31/8 14/30/8 13/29/8
f 10/36/9 16/35/9 13/34/9 9/33/9
f 14/40/10 15/39/10 11/38/10 12/37/10
f 13/44/11 14/43/11 12/42/11 9/41/11
f 11/48/12 15/47/12 16/46/12 10/45/12
o group1270821551
g mesh1270821551
usemtl mat21
f 20/52/13 19/51/13 18/50/13 17/49/13
f 24/56/14 23/55/14 22/54/14 21/53/14
f 18/60/15 24/59/15 21/58/15 17/57/15
f 22/64/16 23/63/16 19/62/16 20/61/16
f 21/68/17 22/67/17 20/66/17 17/65/17
f 19/72/18 23/71/18 24/70/18 18/69/18
