mtllib materials.mtl
v 0.00999999 -0.009999931 -0.00999999
v 0.00999999 -0.009999931 0.00999999
v 0.02999997 -0.009999931 0.00999999
v 0.02999997 -0.009999931 -0.00999999
v 0.00999999 0.03000003 -0.00999999
v 0.02999997 0.03000003 -0.00999999
v 0.02999997 0.03000003 0.00999999
v 0.00999999 0.03000003 0.00999999
v -0.00999999 -0.009999931 -0.009999961
v -0.00999999 -0.009999931 0.01000002
v -0.00999999 0.03000003 0.01000005
v -0.00999999 0.03000003 -0.009999961
v -0.02999997 -0.009999931 -0.00999999
v -0.02999997 0.03000003 -0.009999961
v -0.02999997 0.03000003 0.01000002
v -0.02999997 -0.009999931 0.01000002
v -0.02999997 -0.04999995 -0.009999961
v -0.02999997 -0.04999995 0.01000002
v -0.02999997 -0.00999999 0.01000002
v -0.02999997 -0.00999999 -0.009999961
v -0.04999995 -0.04999995 -0.009999961
v -0.04999995 -0.00999999 -0.009999961
v -0.04999995 -0.00999999 0.01000002
v -0.04999995 -0.04999995 0.01000002
v -0.00999999 0.03000003 -0.009999961
v -0.00999999 0.03000003 0.01000002
v 0.00999999 0.03000003 0.01000002
v 0.00999999 0.03000003 -0.009999961
v -0.00999999 0.05000001 -0.009999961
v 0.00999999 0.05000001 -0.009999961
v 0.00999999 0.05000001 0.01000002
v -0.00999999 0.05000001 0.01000002
v 0.04999995 -0.04999995 -0.009999961
v 0.04999995 -0.04999995 0.01000002
v 0.04999995 -0.00999999 0.01000005
v 0.04999995 -0.00999999 -0.009999961
v 0.02999997 -0.04999995 -0.00999999
v 0.02999997 -0.00999999 -0.009999961
v 0.02999997 -0.00999999 0.01000002
v 0.02999997 -0.04999995 0.01000002
vn -1.192093E-07 -1 -1.748456E-07
vn 1.192093E-07 1 1.748456E-07
vn -1 1.192093E-07 -1.748456E-07
vn 1 -1.192093E-07 1.748456E-07
vn 1.748456E-07 1.748456E-07 -1
vn -1.748456E-07 -1.748456E-07 1
vn 1 0 1.748456E-07
vn -1 0 -1.748456E-07
vn 3.057097E-14 -1 -1.748456E-07
vn -3.057097E-14 1 1.748456E-07
vn 1.748456E-07 1.748456E-07 -1
vn -1.748456E-07 -1.748456E-07 1
vn 1 0 0
vn -1 0 0
vn 0 -1 0
vn 0 1 0
vn 0 0 -1
vn 0 0 1
vn -1.192093E-07 -1 -1.748456E-07
vn 1.192093E-07 1 1.748456E-07
vn -1 1.192093E-07 -1.748456E-07
vn 1 -1.192093E-07 1.748456E-07
vn 1.748456E-07 1.748456E-07 -1
vn -1.748456E-07 -1.748456E-07 1
vn 1 0 1.748456E-07
vn -1 0 -1.748456E-07
vn 3.057097E-14 -1 -1.748456E-07
vn -3.057097E-14 1 1.748456E-07
vn 1.748456E-07 1.748456E-07 -1
vn -1.748456E-07 -1.748456E-07 1
vt -0.08892736 -0.3292733
vt -0.08704387 -0.329946
vt -0.0863712 -0.3280625
vt -0.08825468 -0.3273898
vt 0.08892736 -0.3292733
vt 0.08825468 -0.3273898
vt 0.0863712 -0.3280625
vt 0.08704387 -0.329946
vt 0.03034062 -0.0889295
vt 0.02801567 -0.08567457
vt 0.0263882 -0.08683705
vt 0.02871316 -0.09009197
vt -0.03034062 -0.0889295
vt -0.02871316 -0.09009197
vt -0.0263882 -0.08683705
vt -0.02801567 -0.08567457
vt -0.07155417 -0.3443545
vt -0.07065974 -0.3425656
vt -0.07423745 -0.3407767
vt -0.07513188 -0.3425656
vt 0.07155417 -0.3443545
vt 0.07513188 -0.3425656
vt 0.07423745 -0.3407767
vt 0.07065974 -0.3425656
vt -0.0303406 -0.08892947
vt -0.02871313 -0.09009194
vt -0.02638818 -0.08683701
vt -0.02801565 -0.08567454
vt 0.0303406 -0.08892946
vt 0.02801565 -0.08567454
vt 0.02638818 -0.08683701
vt 0.02871313 -0.09009194
vt -0.08960002 -0.3311568
vt -0.09027269 -0.3330403
vt -0.0883892 -0.333713
vt -0.08771653 -0.3318295
vt 0.08960002 -0.3311568
vt 0.08771653 -0.3318295
vt 0.08838921 -0.333713
vt 0.09027269 -0.3330403
vt -0.0724486 -0.3461433
vt -0.07602631 -0.3443545
vt -0.07692073 -0.3461433
vt -0.07334302 -0.3479322
vt 0.0724486 -0.3461433
vt 0.07334302 -0.3479322
vt 0.07692073 -0.3461433
vt 0.07602631 -0.3443545
vt -0.03266559 -0.09218438
vt -0.03103812 -0.09334685
vt -0.02871317 -0.09009193
vt -0.03034064 -0.08892945
vt 0.03266559 -0.09218438
vt 0.03034064 -0.08892945
vt 0.02871317 -0.09009193
vt 0.03103812 -0.09334685
vt -0.09027268 -0.3330403
vt -0.09094536 -0.3349238
vt -0.08906187 -0.3355964
vt -0.0883892 -0.333713
vt 0.09027268 -0.3330403
vt 0.0883892 -0.333713
vt 0.08906187 -0.3355964
vt 0.09094536 -0.3349238
vt -0.06976532 -0.349721
vt -0.07334302 -0.3479322
vt -0.07423745 -0.349721
vt -0.07065975 -0.3515099
vt 0.06976532 -0.349721
vt 0.07065975 -0.3515099
vt 0.07423745 -0.349721
vt 0.07334302 -0.3479322
vt -0.08960003 -0.3311568
vt -0.08771654 -0.3318295
vt -0.08704387 -0.329946
vt -0.08892735 -0.3292733
vt 0.08960003 -0.3311568
vt 0.08892735 -0.3292733
vt 0.08704387 -0.329946
vt 0.08771654 -0.3318295
vt 0.02801567 -0.08567457
vt 0.02685319 -0.08404711
vt 0.02522573 -0.08520959
vt 0.0263882 -0.08683705
vt -0.02801567 -0.08567457
vt -0.0263882 -0.08683705
vt -0.02522573 -0.08520959
vt -0.02685319 -0.08404711
vt -0.07602631 -0.3443545
vt -0.07513188 -0.3425656
vt -0.07692073 -0.3416712
vt -0.07781516 -0.34346
vt 0.07602631 -0.3443545
vt 0.07781516 -0.34346
vt 0.07692073 -0.3416712
vt 0.07513188 -0.3425656
vt -0.03266556 -0.0921844
vt -0.03103809 -0.09334688
vt -0.02871314 -0.09009195
vt -0.03034061 -0.08892947
vt 0.03266556 -0.0921844
vt 0.03034061 -0.08892947
vt 0.02871314 -0.09009194
vt 0.03103809 -0.09334688
vt -0.087582 -0.3255064
vt -0.08825468 -0.3273898
vt -0.08637119 -0.3280625
vt -0.08569852 -0.326179
vt 0.08758201 -0.3255064
vt 0.08569852 -0.326179
vt 0.08637119 -0.3280625
vt 0.08825468 -0.3273898
vt -0.06618761 -0.3425656
vt -0.06976531 -0.3407767
vt -0.07065974 -0.3425656
vt -0.06708203 -0.3443545
vt 0.06618761 -0.3425656
vt 0.06708203 -0.3443545
vt 0.07065974 -0.3425656
vt 0.06976531 -0.3407767
o group1227617035
g mesh1227617035
usemtl mat21
f 4/4/1 3/3/1 2/2/1 1/1/1
f 8/8/2 7/7/2 6/6/2 5/5/2
f 2/12/3 8/11/3 5/10/3 1/9/3
f 6/16/4 7/15/4 3/14/4 4/13/4
f 5/20/5 6/19/5 4/18/5 1/17/5
f 3/24/6 7/23/6 8/22/6 2/21/6
o group2097844771
g mesh2097844771
usemtl mat21
f 12/28/7 11/27/7 10/26/7 9/25/7
f 16/32/8 15/31/8 14/30/8 13/29/8
f 10/36/9 16/35/9 13/34/9 9/33/9
f 14/40/10 15/39/10 11/38/10 12/37/10
f 13/44/11 14/43/11 12/42/11 9/41/11
f 11/48/12 15/47/12 16/46/12 10/45/12
o group1810086018
g mesh1810086018
usemtl mat21
f 20/52/13 19/51/13 18/50/13 17/49/13
f 24/56/14 23/55/14 22/54/14 21/53/14
f 18/60/15 24/59/15 21/58/15 17/57/15
f 22/64/16 23/63/16 19/62/16 20/61/16
f 21/68/17 22/67/17 20/66/17 17/65/17
f 19/72/18 23/71/18 24/70/18 18/69/18
o group1815516047
g mesh1815516047
usemtl mat21
f 28/76/19 27/75/19 26/74/19 25/73/19
f 32/80/20 31/79/20 30/78/20 29/77/20
f 26/84/21 32/83/21 29/82/21 25/81/21
f 30/88/22 31/87/22 27/86/22 28/85/22
f 29/92/23 30/91/23 28/90/23 25/89/23
f 27/96/24 31/95/24 32/94/24 26/93/24
o group495759
g mesh495759
usemtl mat21
f 36/100/25 35/99/25 34/98/25 33/97/25
f 40/104/26 39/103/26 38/102/26 37/101/26
f 34/108/27 40/107/27 37/106/27 33/105/27
f 38/112/28 39/111/28 35/110/28 36/109/28
f 37/116/29 38/115/29 36/114/29 33/113/29
f 35/120/30 39/119/30 40/118/30 34/117/30
