mtllib materials.mtl
v -0.02666664 -0.06333327 -0.01000011
v -0.02666664 -0.06333327 0.009999871
v -0.02666664 0.09666669 0.009999871
v -0.02666664 0.09666669 -0.01000011
v -0.04666662 -0.06333327 -0.01000011
v -0.04666662 0.09666669 -0.01000011
v -0.04666662 0.09666669 0.009999871
v -0.04666662 -0.06333327 0.009999871
v -0.00666666 -0.04333329 -0.01000011
v -0.00666666 -0.04333329 0.009999871
v -0.00666666 -0.02333331 0.009999871
v -0.00666666 -0.02333331 -0.01000011
v -0.02666664 -0.04333329 -0.01000011
v -0.02666664 -0.02333331 -0.01000011
v -0.02666664 -0.02333331 0.009999871
v -0.02666664 -0.04333329 0.009999871
v 0.0333333 -0.06333327 -0.01000011
v 0.0333333 -0.06333327 0.009999871
v 0.0333333 -0.04333329 0.009999871
v 0.0333333 -0.04333329 -0.01000011
v -0.00666666 -0.06333327 -0.01000011
v -0.00666666 -0.04333329 -0.01000011
v -0.00666666 -0.04333329 0.009999871
v -0.00666666 -0.06333327 0.009999871
v 0.05333334 -0.04333335 -0.01000011
v 0.05333334 -0.04333335 0.009999871
v 0.05333334 0.03666669 0.009999871
v 0.05333334 0.03666669 -0.01000011
v 0.03333336 -0.04333335 -0.01000011
v 0.03333336 0.03666669 -0.01000011
v 0.03333336 0.03666669 0.009999871
v 0.03333336 -0.04333335 0.009999871
v 0.03333336 0.03666669 -0.01000011
v 0.03333336 0.03666669 0.009999871
v 0.03333336 0.05666667 0.009999871
v 0.03333336 0.05666667 -0.01000011
v -0.006666601 0.03666669 -0.01000011
v -0.006666601 0.05666667 -0.01000011
v -0.006666601 0.05666667 0.009999871
v -0.006666601 0.03666669 0.009999871
v -0.00666666 0.01666671 -0.01000011
v -0.00666666 0.01666671 0.009999871
v -0.00666666 0.03666669 0.009999871
v -0.00666666 0.03666669 -0.01000011
v -0.02666664 0.01666671 -0.01000011
v -0.02666664 0.03666669 -0.01000011
v -0.02666664 0.03666669 0.009999871
v -0.02666664 0.01666671 0.009999871
vn 1 0 0
vn -1 0 0
vn 0 -1 0
vn 0 1 0
vn 0 0 -1
vn 0 0 1
vn 1 0 0
vn -1 0 0
vn 0 -1 0
vn 0 1 0
vn 0 0 -1
vn 0 0 1
vn 1 0 0
vn -1 0 0
vn 0 -1 0
vn 0 1 0
vn 0 0 -1
vn 0 0 1
vn 1 0 0
vn -1 0 0
vn 0 -1 0
vn 0 1 0
vn 0 0 -1
vn 0 0 1
vn 1 0 0
vn -1 0 0
vn 0 -1 0
vn 0 1 0
vn 0 0 -1
vn 0 0 1
vn 1 0 0
vn -1 0 0
vn 0 -1 0
vn 0 1 0
vn 0 0 -1
vn 0 0 1
vt 0.1104353 -0.01743715
vt 0.1120627 -0.01859963
vt 0.1213625 -0.005579893
vt 0.1197351 -0.004417418
vt -0.1104353 -0.01743715
vt -0.1197351 -0.004417418
vt -0.1213625 -0.005579893
vt -0.1120627 -0.01859963
vt 0.1224265 0.04547268
vt 0.1217538 0.0435892
vt 0.1236373 0.04291653
vt 0.1243099 0.04480001
vt -0.1224265 0.04547268
vt -0.1243099 0.04480001
vt -0.1236373 0.04291653
vt -0.1217538 0.0435892
vt -0.007155419 0.09749257
vt -0.02146625 0.104648
vt -0.02236068 0.1028591
vt -0.008049846 0.09570371
vt 0.007155419 0.09749257
vt 0.008049846 0.09570371
vt 0.02236068 0.1028591
vt 0.02146625 0.104648
vt 0.1115977 -0.01580968
vt 0.1132252 -0.01697216
vt 0.1143877 -0.0153447
vt 0.1127602 -0.01418222
vt -0.1115977 -0.01580968
vt -0.1127602 -0.01418222
vt -0.1143877 -0.0153447
vt -0.1132252 -0.01697216
vt 0.1230991 0.04735616
vt 0.1224265 0.04547268
vt 0.1243099 0.04480001
vt 0.1249826 0.04668349
vt -0.1230991 0.04735616
vt -0.1249826 0.04668349
vt -0.1243099 0.04480001
vt -0.1224265 0.04547268
vt -0.008049846 0.1001758
vt -0.009838698 0.1010703
vt -0.01073312 0.09928142
vt -0.008944271 0.09838699
vt 0.008049846 0.1001758
vt 0.008944271 0.09838699
vt 0.01073312 0.09928142
vt 0.009838698 0.1010703
vt 0.1104353 -0.01743715
vt 0.1120627 -0.01859963
vt 0.1132252 -0.01697216
vt 0.1115977 -0.01580968
vt -0.1104353 -0.01743715
vt -0.1115977 -0.01580968
vt -0.1132252 -0.01697216
vt -0.1120627 -0.01859963
vt 0.1244445 0.05112312
vt 0.1230991 0.04735616
vt 0.1249826 0.04668349
vt 0.126328 0.05045046
vt -0.1244445 0.05112312
vt -0.126328 0.05045046
vt -0.1249826 0.04668349
vt -0.1230991 0.04735616
vt -0.00447214 0.1028591
vt -0.006260992 0.1037536
vt -0.008049846 0.1001758
vt -0.006260992 0.09928142
vt 0.00447214 0.1028591
vt 0.006260992 0.09928142
vt 0.008049846 0.1001758
vt 0.006260992 0.1037536
vt 0.1115977 -0.01580969
vt 0.1132252 -0.01697217
vt 0.1178751 -0.01046229
vt 0.1162476 -0.009299819
vt -0.1115977 -0.01580969
vt -0.1162476 -0.009299819
vt -0.1178751 -0.01046229
vt -0.1132252 -0.01697217
vt 0.1251172 0.05300661
vt 0.1244445 0.05112313
vt 0.126328 0.05045046
vt 0.1270006 0.05233394
vt -0.1251172 0.05300661
vt -0.1270006 0.05233394
vt -0.126328 0.05045046
vt -0.1244445 0.05112313
vt -0.005366558 0.1055424
vt -0.01252198 0.1091201
vt -0.01341641 0.1073313
vt -0.006260985 0.1037536
vt 0.005366558 0.1055424
vt 0.006260985 0.1037536
vt 0.01341641 0.1073313
vt 0.01252198 0.1091201
vt 0.1162476 -0.009299819
vt 0.1178751 -0.01046229
vt 0.1190376 -0.008834829
vt 0.1174101 -0.007672353
vt -0.1162476 -0.009299819
vt -0.1174101 -0.007672353
vt -0.1190376 -0.008834829
vt -0.1178751 -0.01046229
vt 0.1244445 0.05112313
vt 0.1230991 0.04735617
vt 0.1249826 0.0466835
vt 0.126328 0.05045046
vt -0.1244445 0.05112313
vt -0.126328 0.05045046
vt -0.1249826 0.0466835
vt -0.1230991 0.04735617
vt -0.01341641 0.1073313
vt -0.01520526 0.1082257
vt -0.01699411 0.104648
vt -0.01520526 0.1037536
vt 0.01341641 0.1073313
vt 0.01520526 0.1037536
vt 0.01699411 0.104648
vt 0.01520526 0.1082257
vt 0.1150852 -0.01092728
vt 0.1167126 -0.01208976
vt 0.1178751 -0.01046229
vt 0.1162476 -0.009299819
vt -0.1150852 -0.01092728
vt -0.1162476 -0.009299819
vt -0.1178751 -0.01046229
vt -0.1167126 -0.01208976
vt 0.1230991 0.04735616
vt 0.1224265 0.04547268
vt 0.1243099 0.04480001
vt 0.1249826 0.04668349
vt -0.1230991 0.04735616
vt -0.1249826 0.04668349
vt -0.1243099 0.04480001
vt -0.1224265 0.04547268
vt -0.01341641 0.1028591
vt -0.01520526 0.1037536
vt -0.01609969 0.1019647
vt -0.01431083 0.1010703
vt 0.01341641 0.1028591
vt 0.01431083 0.1010703
vt 0.01609969 0.1019647
vt 0.01520526 0.1037536
o group1680489271
g mesh1680489271
usemtl mat21
f 4/4/1 3/3/1 2/2/1 1/1/1
f 8/8/2 7/7/2 6/6/2 5/5/2
f 2/12/3 8/11/3 5/10/3 1/9/3
f 6/16/4 7/15/4 3/14/4 4/13/4
f 5/20/5 6/19/5 4/18/5 1/17/5
f 3/24/6 7/23/6 8/22/6 2/21/6
o group1660473286
g mesh1660473286
usemtl mat21
f 12/28/7 11/27/7 10/26/7 9/25/7
f 16/32/8 15/31/8 14/30/8 13/29/8
f 10/36/9 16/35/9 13/34/9 9/33/9
f 14/40/10 15/39/10 11/38/10 12/37/10
f 13/44/11 14/43/11 12/42/11 9/41/11
f 11/48/12 15/47/12 16/46/12 10/45/12
o group467946285
g mesh467946285
usemtl mat21
f 20/52/13 19/51/13 18/50/13 17/49/13
f 24/56/14 23/55/14 22/54/14 21/53/14
f 18/60/15 24/59/15 21/58/15 17/57/15
f 22/64/16 23/63/16 19/62/16 20/61/16
f 21/68/17 22/67/17 20/66/17 17/65/17
f 19/72/18 23/71/18 24/70/18 18/69/18
o group841632221
g mesh841632221
usemtl mat21
f 28/76/19 27/75/19 26/74/19 25/73/19
f 32/80/20 31/79/20 30/78/20 29/77/20
f 26/84/21 32/83/21 29/82/21 25/81/21
f 30/88/22 31/87/22 27/86/22 28/85/22
f 29/92/23 30/91/23 28/90/23 25/89/23
f 27/96/24 31/95/24 32/94/24 26/93/24
o group219730014
g mesh219730014
usemtl mat21
f 36/100/25 35/99/25 34/98/25 33/97/25
f 40/104/26 39/103/26 38/102/26 37/101/26
f 34/108/27 40/107/27 37/106/27 33/105/27
f 38/112/28 39/111/28 35/110/28 36/109/28
f 37/116/29 38/115/29 36/114/29 33/113/29
f 35/120/30 39/119/30 40/118/30 34/117/30
o group1320437847
g mesh1320437847
usemtl mat21
f 44/124/31 43/123/31 42/122/31 41/121/31
f 48/128/32 47/127/32 46/126/32 45/125/32
f 42/132/33 48/131/33 45/130/33 41/129/33
f 46/136/34 47/135/34 43/134/34 44/133/34
f 45/140/35 46/139/35 44/138/35 41/137/35
f 43/144/36 47/143/36 48/142/36 42/141/36
