mtllib materials.mtl
v 0.06 -0.07999992 0.01000002
v 0.06 0.08000016 0.009999998
v 0.06 0.08000016 -0.01
v 0.06 -0.07999992 -0.009999983
v 0.04000002 -0.07999992 0.01000001
v 0.04000002 -0.07999992 -0.009999987
v 0.04000002 0.08000016 -0.01000001
v 0.04000002 0.08000016 0.009999998
v 0.04000002 0.06000018 -0.009999998
v 0.04000002 0.06000018 0.009999998
v 0.04000002 0.08000016 0.009999998
v 0.04000002 0.08000016 -0.009999998
v -0.04000002 0.06000018 -0.009999998
v -0.04000002 0.08000016 -0.009999998
v -0.04000002 0.08000016 0.009999998
v -0.04000002 0.06000018 0.009999998
v 0.04000002 -0.07999992 -0.009999998
v 0.04000002 -0.07999992 0.009999998
v 0.04000002 -0.05999994 0.009999998
v 0.04000002 -0.05999994 -0.009999998
v -0.04000002 -0.07999992 -0.009999998
v -0.04000002 -0.05999994 -0.009999998
v -0.04000002 -0.05999994 0.009999998
v -0.04000002 -0.07999992 0.009999998
v -0.04000002 -0.05999982 -0.009999998
v -0.04000002 -0.05999982 0.009999998
v -0.04000002 0.06000006 0.009999998
v -0.04000002 0.06000006 -0.009999998
v -0.06 -0.05999982 -0.009999998
v -0.06 0.06000006 -0.009999998
v -0.06 0.06000006 0.009999998
v -0.06 -0.05999982 0.009999998
vn 1 0 1.748456E-07
vn -1 0 -1.748456E-07
vn -1.748456E-07 1.192093E-07 1
vn 1.748456E-07 -1.192093E-07 -1
vn 0 -1 1.192093E-07
vn 0 1 -1.192093E-07
vn 1 0 0
vn -1 0 0
vn 0 -1 0
vn 0 1 0
vn 0 0 -1
vn 0 0 1
vn 1 0 0
vn -1 0 0
vn 0 -1 0
vn 0 1 0
vn 0 0 -1
vn 0 0 1
vn 1 0 0
vn -1 0 0
vn 0 -1 0
vn 0 1 0
vn 0 0 -1
vn 0 0 1
vt 0.09834553 0.1239199
vt 0.1076454 0.1369397
vt 0.1060179 0.1381022
vt 0.09671807 0.1250824
vt -0.09834553 0.1239199
vt -0.09671807 0.1250824
vt -0.1060179 0.1381022
vt -0.1076454 0.1369397
vt 0.1703884 0.01252199
vt 0.1712828 0.01073314
vt 0.1855936 0.01788856
vt 0.1846992 0.01967741
vt -0.1703884 0.01252199
vt -0.1846992 0.01967741
vt -0.1855936 0.01788856
vt -0.1712828 0.01073314
vt -0.01432791 -0.06390392
vt -0.01621139 -0.06323124
vt -0.01688406 -0.06511473
vt -0.01500058 -0.0657874
vt 0.01432791 -0.06390392
vt 0.01500058 -0.0657874
vt 0.01688406 -0.06511473
vt 0.01621139 -0.06323124
vt 0.1048554 0.1364747
vt 0.1064828 0.1353123
vt 0.1076453 0.1369397
vt 0.1060179 0.1381022
vt -0.1048554 0.1364747
vt -0.1060179 0.1381022
vt -0.1076453 0.1369397
vt -0.1064828 0.1353123
vt -0.01688408 -0.06511472
vt -0.01957478 -0.07264866
vt -0.0176913 -0.07332134
vt -0.0150006 -0.0657874
vt 0.01688408 -0.06511472
vt 0.0150006 -0.0657874
vt 0.0176913 -0.07332134
vt 0.01957478 -0.07264866
vt -0.1838048 0.01699412
vt -0.1855936 0.01788855
vt -0.1891714 0.01073313
vt -0.1873825 0.009838701
vt 0.1838048 0.01699412
vt 0.1873825 0.009838701
vt 0.1891714 0.01073313
vt 0.1855936 0.01788855
vt 0.09671804 0.1250825
vt 0.09834551 0.12392
vt 0.09950799 0.1255474
vt 0.09788052 0.1267099
vt -0.09671804 0.1250825
vt -0.09788052 0.1267099
vt -0.09950799 0.1255474
vt -0.09834551 0.12392
vt -0.01688408 -0.06511472
vt -0.01957478 -0.07264866
vt -0.0176913 -0.07332134
vt -0.0150006 -0.0657874
vt 0.01688408 -0.06511472
vt 0.0150006 -0.0657874
vt 0.0176913 -0.07332134
vt 0.01957478 -0.07264866
vt -0.1712828 0.01073313
vt -0.1730717 0.01162755
vt -0.1766494 0.004472132
vt -0.1748605 0.003577705
vt 0.1712828 0.01073313
vt 0.1748605 0.003577705
vt 0.1766494 0.004472132
vt 0.1730717 0.01162755
vt 0.09788053 0.1267099
vt 0.09950799 0.1255475
vt 0.1064828 0.1353122
vt 0.1048554 0.1364747
vt -0.09788053 0.1267099
vt -0.1048554 0.1364747
vt -0.1064828 0.1353122
vt -0.09950799 0.1255475
vt -0.01957478 -0.07264866
vt -0.02024745 -0.07453214
vt -0.01836397 -0.07520482
vt -0.0176913 -0.07332134
vt 0.01957478 -0.07264866
vt 0.0176913 -0.07332134
vt 0.01836397 -0.07520482
vt 0.02024745 -0.07453214
vt -0.1766494 0.004472137
vt -0.1873825 0.009838696
vt -0.1882769 0.008049843
vt -0.1775438 0.002683284
vt 0.1766494 0.004472137
vt 0.1775438 0.002683284
vt 0.1882769 0.008049843
vt 0.1873825 0.009838696
o group2010792351
g mesh2010792351
usemtl mat21
f 4/4/1 3/3/1 2/2/1 1/1/1
f 8/8/2 7/7/2 6/6/2 5/5/2
f 2/12/3 8/11/3 5/10/3 1/9/3
f 6/16/4 7/15/4 3/14/4 4/13/4
f 5/20/5 6/19/5 4/18/5 1/17/5
f 3/24/6 7/23/6 8/22/6 2/21/6
o group658566782
g mesh658566782
usemtl mat21
f 12/28/7 11/27/7 10/26/7 9/25/7
f 16/32/8 15/31/8 14/30/8 13/29/8
f 10/36/9 16/35/9 13/34/9 9/33/9
f 14/40/10 15/39/10 11/38/10 12/37/10
f 13/44/11 14/43/11 12/42/11 9/41/11
f 11/48/12 15/47/12 16/46/12 10/45/12
o group1647496338
g mesh1647496338
usemtl mat21
f 20/52/13 19/51/13 18/50/13 17/49/13
f 24/56/14 23/55/14 22/54/14 21/53/14
f 18/60/15 24/59/15 21/58/15 17/57/15
f 22/64/16 23/63/16 19/62/16 20/61/16
f 21/68/17 22/67/17 20/66/17 17/65/17
f 19/72/18 23/71/18 24/70/18 18/69/18
o group181315672
g mesh181315672
usemtl mat21
f 28/76/19 27/75/19 26/74/19 25/73/19
f 32/80/20 31/79/20 30/78/20 29/77/20
f 26/84/21 32/83/21 29/82/21 25/81/21
f 30/88/22 31/87/22 27/86/22 28/85/22
f 29/92/23 30/91/23 28/90/23 25/89/23
f 27/96/24 31/95/24 32/94/24 26/93/24
