mtllib materials.mtl
v -0.02333355 -2.384186E-07 -0.00999999
v -0.02333355 -2.384186E-07 0.00999999
v -0.02333355 0.03999972 0.00999999
v -0.02333355 0.03999972 -0.00999999
v -0.04333401 -2.384186E-07 -0.00999999
v -0.04333401 0.03999972 -0.00999999
v -0.04333401 0.03999972 0.00999999
v -0.04333401 -2.384186E-07 0.00999999
v 0.03666639 0.03999972 -0.00999999
v 0.03666639 0.03999972 0.00999999
v 0.03666639 0.0599997 0.00999999
v 0.03666639 0.0599997 -0.00999999
v -0.02333403 0.03999972 -0.00999999
v -0.02333403 0.0599997 -0.00999999
v -0.02333403 0.0599997 0.00999999
v -0.02333403 0.03999972 0.00999999
v 0.03666687 -0.06000018 -0.00999999
v 0.03666687 -0.06000018 0.00999999
v 0.03666687 -0.0400002 0.00999999
v 0.03666687 -0.0400002 -0.00999999
v -0.02333355 -0.06000018 -0.00999999
v -0.02333355 -0.0400002 -0.00999999
v -0.02333355 -0.0400002 0.00999999
v -0.02333355 -0.06000018 0.00999999
v 0.05666685 -0.0400002 -0.00999999
v 0.05666685 -0.0400002 0.00999999
v 0.05666685 0.03999972 0.00999999
v 0.05666685 0.03999972 -0.00999999
v 0.03666639 -0.0400002 -0.00999999
v 0.03666639 0.03999972 -0.00999999
v 0.03666639 0.03999972 0.00999999
v 0.03666639 -0.0400002 0.00999999
v -0.02333355 -0.0400002 -0.00999999
v -0.02333355 -0.0400002 0.00999999
v -0.02333355 -0.02000022 0.00999999
v -0.02333355 -0.02000022 -0.00999999
v -0.04333401 -0.0400002 -0.00999999
v -0.04333401 -0.02000022 -0.00999999
v -0.04333401 -0.02000022 0.00999999
v -0.04333401 -0.0400002 0.00999999
v 0.03666639 -2.384186E-07 -0.00999999
v 0.03666639 -2.384186E-07 0.00999999
v 0.03666639 0.01999974 0.00999999
v 0.03666639 0.01999974 -0.00999999
v -0.02333403 -2.384186E-07 -0.00999999
v -0.02333403 0.01999974 -0.00999999
v -0.02333403 0.01999974 0.00999999
v -0.02333403 -2.384186E-07 0.00999999
vn 1 0 0
vn -1 0 0
vn 0 -1 0
vn 0 1 0
vn 0 0 -1
vn 0 0 1
vn 1 0 0
vn -1 0 0
vn 0 -1 0
vn 0 1 0
vn 0 0 -1
vn 0 0 1
vn 1 0 0
vn -1 0 0
vn 0 -1 0
vn 0 1 0
vn 0 0 -1
vn 0 0 1
vn 1 -1.748456E-07 1.748455E-07
vn -1 1.748456E-07 -1.748455E-07
vn -1.748455E-07 -1 -1.748456E-07
vn 1.748455E-07 1 1.748456E-07
vn 1.748456E-07 1.748456E-07 -1
vn -1.748456E-07 -1.748456E-07 1
vn 1 0 0
vn -1 0 0
vn 0 -1 0
vn 0 1 0
vn 0 0 -1
vn 0 0 1
vn 1 0 0
vn -1 0 0
vn 0 -1 0
vn 0 1 0
vn 0 0 -1
vn 0 0 1
vt -0.09718305 -0.3373507
vt -0.09555558 -0.3385131
vt -0.09323063 -0.3352582
vt -0.0948581 -0.3340957
vt 0.09718305 -0.3373507
vt 0.0948581 -0.3340957
vt 0.09323063 -0.3352582
vt 0.09555558 -0.3385131
vt 0.2712889 0.411743
vt 0.2706162 0.4098595
vt 0.2724997 0.4091868
vt 0.2731724 0.4110703
vt -0.2712889 0.411743
vt -0.2731724 0.4110703
vt -0.2724997 0.4091868
vt -0.2706162 0.4098595
vt 0.5102707 0.280403
vt 0.506693 0.2821918
vt 0.5057986 0.2804029
vt 0.5093763 0.278614
vt -0.5102707 0.280403
vt -0.5093763 0.278614
vt -0.5057986 0.2804029
vt -0.506693 0.2821918
vt -0.0948581 -0.3340957
vt -0.09323063 -0.3352582
vt -0.09206815 -0.3336307
vt -0.09369562 -0.3324683
vt 0.0948581 -0.3340957
vt 0.09369562 -0.3324683
vt 0.09206815 -0.3336307
vt 0.09323063 -0.3352582
vt 0.273307 0.4173935
vt 0.2712889 0.411743
vt 0.2731724 0.4110703
vt 0.2751904 0.4167208
vt -0.273307 0.4173935
vt -0.2751904 0.4167208
vt -0.2731724 0.4110703
vt -0.2712889 0.411743
vt 0.5093763 0.2875583
vt 0.5075874 0.2884528
vt 0.5049042 0.2830862
vt 0.506693 0.2821918
vt -0.5093763 0.2875583
vt -0.506693 0.2821918
vt -0.5049042 0.2830862
vt -0.5075874 0.2884528
vt -0.1006705 -0.3422331
vt -0.099043 -0.3433955
vt -0.09788053 -0.3417681
vt -0.099508 -0.3406056
vt 0.1006705 -0.3422331
vt 0.099508 -0.3406056
vt 0.09788053 -0.3417681
vt 0.099043 -0.3433955
vt 0.273307 0.4173935
vt 0.2712889 0.411743
vt 0.2731724 0.4110703
vt 0.2751904 0.4167209
vt -0.273307 0.4173935
vt -0.2751904 0.4167209
vt -0.2731724 0.4110703
vt -0.2712889 0.411743
vt 0.5183206 0.2830862
vt 0.5165318 0.2839807
vt 0.5138484 0.2786141
vt 0.5156373 0.2777197
vt -0.5183206 0.2830862
vt -0.5156373 0.2777197
vt -0.5138484 0.2786141
vt -0.5165318 0.2839807
vt -0.09950803 -0.3406054
vt -0.09788056 -0.3417679
vt -0.09323066 -0.3352581
vt -0.09485812 -0.3340956
vt 0.09950803 -0.3406054
vt 0.09485812 -0.3340956
vt 0.09323066 -0.3352581
vt 0.09788056 -0.3417679
vt 0.2739798 0.419277
vt 0.2733071 0.4173935
vt 0.2751905 0.4167208
vt 0.2758632 0.4186043
vt -0.2739798 0.419277
vt -0.2758632 0.4186043
vt -0.2751905 0.4167208
vt -0.2733071 0.4173935
vt 0.5174261 0.2857696
vt 0.5102707 0.2893473
vt 0.5093763 0.2875584
vt 0.5165317 0.2839807
vt -0.5174261 0.2857696
vt -0.5165317 0.2839807
vt -0.5093763 0.2875584
vt -0.5102707 0.2893473
vt -0.099508 -0.3406056
vt -0.09788053 -0.3417681
vt -0.09671806 -0.3401406
vt -0.09834553 -0.3389781
vt 0.099508 -0.3406056
vt 0.09834553 -0.3389781
vt 0.09671806 -0.3401406
vt 0.09788053 -0.3417681
vt 0.2712889 0.411743
vt 0.2706162 0.4098595
vt 0.2724997 0.4091868
vt 0.2731724 0.4110703
vt -0.2712889 0.411743
vt -0.2731724 0.4110703
vt -0.2724997 0.4091868
vt -0.2706162 0.4098595
vt 0.5138484 0.2786141
vt 0.5120596 0.2795085
vt 0.5111651 0.2777196
vt 0.512954 0.2768252
vt -0.5138484 0.2786141
vt -0.512954 0.2768252
vt -0.5111651 0.2777196
vt -0.5120596 0.2795085
vt -0.09718305 -0.3373507
vt -0.09555558 -0.3385131
vt -0.0943931 -0.3368857
vt -0.09602057 -0.3357232
vt 0.09718305 -0.3373507
vt 0.09602057 -0.3357232
vt 0.0943931 -0.3368857
vt 0.09555558 -0.3385131
vt 0.273307 0.4173935
vt 0.2712889 0.411743
vt 0.2731724 0.4110703
vt 0.2751904 0.4167208
vt -0.273307 0.4173935
vt -0.2751904 0.4167208
vt -0.2731724 0.4110703
vt -0.2712889 0.411743
vt 0.512954 0.2857695
vt 0.5111651 0.2866639
vt 0.5084819 0.2812973
vt 0.5102707 0.2804029
vt -0.512954 0.2857695
vt -0.5102707 0.2804029
vt -0.5084819 0.2812973
vt -0.5111651 0.2866639
o group1815556441
g mesh1815556441
usemtl mat21
f 4/4/1 3/3/1 2/2/1 1/1/1
f 8/8/2 7/7/2 6/6/2 5/5/2
f 2/12/3 8/11/3 5/10/3 1/9/3
f 6/16/4 7/15/4 3/14/4 4/13/4
f 5/20/5 6/19/5 4/18/5 1/17/5
f 3/24/6 7/23/6 8/22/6 2/21/6
o group1397267201
g mesh1397267201
usemtl mat21
f 12/28/7 11/27/7 10/26/7 9/25/7
f 16/32/8 15/31/8 14/30/8 13/29/8
f 10/36/9 16/35/9 13/34/9 9/33/9
f 14/40/10 15/39/10 11/38/10 12/37/10
f 13/44/11 14/43/11 12/42/11 9/41/11
f 11/48/12 15/47/12 16/46/12 10/45/12
o group241519496
g mesh241519496
usemtl mat21
f 20/52/13 19/51/13 18/50/13 17/49/13
f 24/56/14 23/55/14 22/54/14 21/53/14
f 18/60/15 24/59/15 21/58/15 17/57/15
f 22/64/16 23/63/16 19/62/16 20/61/16
f 21/68/17 22/67/17 20/66/17 17/65/17
f 19/72/18 23/71/18 24/70/18 18/69/18
o group2136160360
g mesh2136160360
usemtl mat21
f 28/76/19 27/75/19 26/74/19 25/73/19
f 32/80/20 31/79/20 30/78/20 29/77/20
f 26/84/21 32/83/21 29/82/21 25/81/21
f 30/88/22 31/87/22 27/86/22 28/85/22
f 29/92/23 30/91/23 28/90/23 25/89/23
f 27/96/24 31/95/24 32/94/24 26/93/24
o group952418013
g mesh952418013
usemtl mat21
f 36/100/25 35/99/25 34/98/25 33/97/25
f 40/104/26 39/103/26 38/102/26 37/101/26
f 34/108/27 40/107/27 37/106/27 33/105/27
f 38/112/28 39/111/28 35/110/28 36/109/28
f 37/116/29 38/115/29 36/114/29 33/113/29
f 35/120/30 39/119/30 40/118/30 34/117/30
o group2102901714
g mesh2102901714
usemtl mat21
f 44/124/31 43/123/31 42/122/31 41/121/31
f 48/128/32 47/127/32 46/126/32 45/125/32
f 42/132/33 48/131/33 45/130/33 41/129/33
f 46/136/34 47/135/34 43/134/34 44/133/34
f 45/140/35 46/139/35 44/138/35 41/137/35
f 43/144/36 47/143/36 48/142/36 42/141/36
