mtllib materials.mtl
v 0.03999996 -0.02999997 -0.00999999
v 0.03999996 -0.02999997 0.00999999
v 0.03999996 -0.00999999 0.00999999
v 0.03999996 -0.00999999 -0.00999999
v -0.03999996 -0.02999997 -0.00999999
v -0.03999996 -0.00999999 -0.00999999
v -0.03999996 -0.00999999 0.00999999
v -0.03999996 -0.02999997 0.00999999
v 0.03999996 0.01000005 -0.00999999
v 0.03999996 0.01000005 0.00999999
v 0.03999996 0.03000003 0.00999999
v 0.03999996 0.03000003 -0.00999999
v -0.03999996 0.01000005 -0.00999999
v -0.03999996 0.03000003 -0.00999999
v -0.03999996 0.03000003 0.00999999
v -0.03999996 0.01000005 0.00999999
vn 1 0 0
vn -1 0 0
vn 0 -1 0
vn 0 1 0
vn 0 0 -1
vn 0 0 1
vn 1 0 0
vn -1 0 0
vn 0 -1 0
vn 0 1 0
vn 0 0 -1
vn 0 0 1
vt 0.1067153 -0.2015734
vt 0.1083428 -0.2027359
vt 0.1095053 -0.2011084
vt 0.1078778 -0.199946
vt -0.1067153 -0.2015734
vt -0.1078778 -0.199946
vt -0.1095053 -0.2011084
vt -0.1083428 -0.2027359
vt 0.1322475 -0.2362427
vt 0.1295568 -0.2437766
vt 0.1314403 -0.2444493
vt 0.134131 -0.2369153
vt -0.1322475 -0.2362427
vt -0.134131 -0.2369153
vt -0.1314403 -0.2444493
vt -0.1295568 -0.2437766
vt 0.01162755 -0.2048238
vt 0.009838701 -0.2039294
vt 0.006260996 -0.2110848
vt 0.008049848 -0.2119792
vt -0.01162755 -0.2048238
vt -0.008049848 -0.2119792
vt -0.006260996 -0.2110848
vt -0.009838701 -0.2039294
vt 0.1090403 -0.1983185
vt 0.1106678 -0.199481
vt 0.1118302 -0.1978535
vt 0.1102028 -0.196691
vt -0.1090403 -0.1983185
vt -0.1102028 -0.196691
vt -0.1118302 -0.1978535
vt -0.1106678 -0.199481
vt 0.1322475 -0.2362427
vt 0.1295568 -0.2437766
vt 0.1314403 -0.2444493
vt 0.134131 -0.2369153
vt -0.1322475 -0.2362427
vt -0.134131 -0.2369153
vt -0.1314403 -0.2444493
vt -0.1295568 -0.2437766
vt 0.008049843 -0.203035
vt 0.00626099 -0.2021405
vt 0.002683284 -0.209296
vt 0.004472137 -0.2101904
vt -0.008049843 -0.203035
vt -0.004472137 -0.2101904
vt -0.002683284 -0.209296
vt -0.00626099 -0.2021405
o group1750318877
g mesh1750318877
usemtl mat21
f 4/4/1 3/3/1 2/2/1 1/1/1
f 8/8/2 7/7/2 6/6/2 5/5/2
f 2/12/3 8/11/3 5/10/3 1/9/3
f 6/16/4 7/15/4 3/14/4 4/13/4
f 5/20/5 6/19/5 4/18/5 1/17/5
f 3/24/6 7/23/6 8/22/6 2/21/6
o group2025894312
g mesh2025894312
usemtl mat21
f 12/28/7 11/27/7 10/26/7 9/25/7
f 16/32/8 15/31/8 14/30/8 13/29/8
f 10/36/9 16/35/9 13/34/9 9/33/9
f 14/40/10 15/39/10 11/38/10 12/37/10
f 13/44/11 14/43/11 12/42/11 9/41/11
f 11/48/12 15/47/12 16/46/12 10/45/12
