mtllib materials.mtl
v 0.003333092 0.02999997 0.00999999
v 0.003333092 0.04999995 0.00999999
v 0.003333092 0.04999995 -0.00999999
v 0.003333092 0.02999997 -0.00999999
v -0.03666687 0.02999997 0.00999999
v -0.03666687 0.02999997 -0.00999999
v -0.03666687 0.04999995 -0.00999999
v -0.03666687 0.04999995 0.00999999
v 0.04333305 -0.00999999 -0.00999999
v 0.04333305 -0.00999999 0.00999999
v 0.04333305 0.00999999 0.00999999
v 0.04333305 0.00999999 -0.00999999
v -0.03666687 -0.00999999 -0.00999999
v -0.03666687 0.00999999 -0.00999999
v -0.03666687 0.00999999 0.00999999
v -0.03666687 -0.00999999 0.00999999
v 0.02333307 -0.1099999 -0.00999999
v 0.02333307 -0.1099999 0.00999999
v 0.02333355 0.02999997 0.00999999
v 0.02333355 0.02999997 -0.00999999
v 0.003333092 -0.1099999 -0.00999999
v 0.003333569 0.02999997 -0.00999999
v 0.003333569 0.02999997 0.00999999
v 0.003333092 -0.1099999 0.00999999
vn 1 0 1.748456E-07
vn -1 0 -1.748456E-07
vn -1.748456E-07 1.192093E-07 1
vn 1.748456E-07 -1.192093E-07 -1
vn 0 -1 1.192093E-07
vn 0 1 -1.192093E-07
vn 1 0 0
vn -1 0 0
vn 0 -1 0
vn 0 1 0
vn 0 0 -1
vn 0 0 1
vn 1 -3.496911E-07 3.49691E-07
vn -1 3.496911E-07 -3.49691E-07
vn -3.49691E-07 -1 -3.496912E-07
vn 3.49691E-07 1 3.496912E-07
vn 3.496911E-07 3.496911E-07 -1
vn -3.496911E-07 -3.496911E-07 1
vt -0.09171954 -0.3314219
vt -0.09055706 -0.3297945
vt -0.09218453 -0.328632
vt -0.093347 -0.3302595
vt 0.09171954 -0.3314219
vt 0.093347 -0.3302595
vt 0.09218453 -0.328632
vt 0.09055706 -0.3297945
vt -0.498196 0.2741419
vt -0.4964071 0.2705642
vt -0.4946183 0.2714586
vt -0.4964071 0.2750363
vt 0.498196 0.2741419
vt 0.4964071 0.2750363
vt 0.4946183 0.2714586
vt 0.4964071 0.2705642
vt 0.2685309 0.4010475
vt 0.2666474 0.4017202
vt 0.2653021 0.3979532
vt 0.2671856 0.3972806
vt -0.2685309 0.4010475
vt -0.2671856 0.3972806
vt -0.2653021 0.3979532
vt -0.2666474 0.4017202
vt -0.09567183 -0.3335145
vt -0.09404436 -0.334677
vt -0.09288189 -0.3330495
vt -0.09450935 -0.331887
vt 0.09567183 -0.3335145
vt 0.09450935 -0.331887
vt 0.09288189 -0.3330495
vt 0.09404436 -0.334677
vt 0.2679928 0.4054871
vt 0.2653022 0.3979532
vt 0.2671856 0.3972805
vt 0.2698763 0.4048145
vt -0.2679928 0.4054871
vt -0.2698763 0.4048145
vt -0.2671856 0.3972805
vt -0.2653022 0.3979532
vt 0.5035626 0.2759308
vt 0.5017737 0.2768252
vt 0.498196 0.2696698
vt 0.4999848 0.2687754
vt -0.5035626 0.2759308
vt -0.4999848 0.2687754
vt -0.498196 0.2696698
vt -0.5017737 0.2768252
vt -0.1014843 -0.3416516
vt -0.09985681 -0.342814
vt -0.09171949 -0.3314218
vt -0.09334695 -0.3302593
vt 0.1014843 -0.3416516
vt 0.09334695 -0.3302593
vt 0.09171949 -0.3314218
vt 0.09985681 -0.342814
vt 0.2673204 0.4036036
vt 0.2666477 0.4017202
vt 0.2685312 0.4010475
vt 0.2692039 0.402931
vt -0.2673204 0.4036037
vt -0.2692039 0.402931
vt -0.2685312 0.4010476
vt -0.2666478 0.4017202
vt 0.5116123 0.2696699
vt 0.4990903 0.2759309
vt 0.4981959 0.2741421
vt 0.5107179 0.267881
vt -0.5116123 0.2696699
vt -0.5107179 0.267881
vt -0.4981959 0.2741421
vt -0.4990903 0.2759309
o group1991058923
g mesh1991058923
usemtl mat21
f 4/4/1 3/3/1 2/2/1 1/1/1
f 8/8/2 7/7/2 6/6/2 5/5/2
f 2/12/3 8/11/3 5/10/3 1/9/3
f 6/16/4 7/15/4 3/14/4 4/13/4
f 5/20/5 6/19/5 4/18/5 1/17/5
f 3/24/6 7/23/6 8/22/6 2/21/6
o group1433609407
g mesh1433609407
usemtl mat21
f 12/28/7 11/27/7 10/26/7 9/25/7
f 16/32/8 15/31/8 14/30/8 13/29/8
f 10/36/9 16/35/9 13/34/9 9/33/9
f 14/40/10 15/39/10 11/38/10 12/37/10
f 13/44/11 14/43/11 12/42/11 9/41/11
f 11/48/12 15/47/12 16/46/12 10/45/12
o group1957878134
g mesh1957878134
usemtl mat21
f 20/52/13 19/51/13 18/50/13 17/49/13
f 24/56/14 23/55/14 22/54/14 21/53/14
f 18/60/15 24/59/15 21/58/15 17/57/15
f 22/64/16 23/63/16 19/62/16 20/61/16
f 21/68/17 22/67/17 20/66/17 17/65/17
f 19/72/18 23/71/18 24/70/18 18/69/18
