mtllib materials.mtl
v 0.02333337 -0.02666664 -0.009999998
v 0.02333337 -0.02666664 0.009999998
v 0.02333337 -0.00666666 0.009999998
v 0.02333337 -0.00666666 -0.009999998
v -0.05666667 -0.02666664 -0.009999998
v -0.05666667 -0.00666666 -0.009999998
v -0.05666667 -0.00666666 0.009999998
v -0.05666667 -0.02666664 0.009999998
v 0.02333337 0.03333342 -0.009999998
v 0.02333337 0.03333342 0.009999998
v 0.02333337 0.0533334 0.009999998
v 0.02333337 0.0533334 -0.009999998
v -0.05666667 0.03333342 -0.009999998
v -0.05666667 0.0533334 -0.009999998
v -0.05666667 0.0533334 0.009999998
v -0.05666667 0.03333342 0.009999998
v 0.04333335 -0.1066667 -0.009999998
v 0.04333335 -0.1066667 0.009999998
v 0.04333335 0.0533334 0.009999998
v 0.04333335 0.0533334 -0.009999998
v 0.02333337 -0.1066667 -0.009999998
v 0.02333337 0.0533334 -0.009999998
v 0.02333337 0.0533334 0.009999998
v 0.02333337 -0.1066667 0.009999998
vn 1 0 0
vn -1 0 0
vn 0 -1 0
vn 0 1 0
vn 0 0 -1
vn 0 0 1
vn 1 0 0
vn -1 0 0
vn 0 -1 0
vn 0 1 0
vn 0 0 -1
vn 0 0 1
vn 1 0 0
vn -1 0 0
vn 0 -1 0
vn 0 1 0
vn 0 0 -1
vn 0 0 1
vt 0.101368 0.1315923
vt 0.1029954 0.1304298
vt 0.1041579 0.1320573
vt 0.1025304 0.1332198
vt -0.101368 0.1315923
vt -0.1025304 0.1332198
vt -0.1041579 0.1320573
vt -0.1029954 0.1304298
vt -0.0252925 -0.08865827
vt -0.02798319 -0.09619221
vt -0.02609971 -0.09686489
vt -0.02340901 -0.08933095
vt 0.0252925 -0.08865827
vt 0.02340901 -0.08933095
vt 0.02609971 -0.09686489
vt 0.02798319 -0.09619221
vt -0.1896186 -0.008049843
vt -0.1914074 -0.007155416
vt -0.1949851 -0.01431084
vt -0.1931963 -0.01520526
vt 0.1896186 -0.008049843
vt 0.1931963 -0.01520526
vt 0.1949851 -0.01431084
vt 0.1914074 -0.007155416
vt 0.1048554 0.1364747
vt 0.1064828 0.1353123
vt 0.1076453 0.1369397
vt 0.1060179 0.1381022
vt -0.1048554 0.1364747
vt -0.1060179 0.1381022
vt -0.1076453 0.1369397
vt -0.1064828 0.1353123
vt -0.0252925 -0.08865827
vt -0.02798319 -0.09619221
vt -0.02609971 -0.09686489
vt -0.02340901 -0.08933095
vt 0.0252925 -0.08865827
vt 0.02340901 -0.08933095
vt 0.02609971 -0.09686489
vt 0.02798319 -0.09619221
vt -0.1949851 -0.005366558
vt -0.196774 -0.004472132
vt -0.2003517 -0.01162755
vt -0.1985628 -0.01252198
vt 0.1949851 -0.005366558
vt 0.1985628 -0.01252198
vt 0.2003517 -0.01162755
vt 0.196774 -0.004472132
vt 0.09671804 0.1250825
vt 0.09834551 0.12392
vt 0.1076453 0.1369397
vt 0.1060179 0.1381022
vt -0.09671804 0.1250825
vt -0.1060179 0.1381022
vt -0.1076453 0.1369397
vt -0.09834551 0.12392
vt -0.02461982 -0.08677479
vt -0.0252925 -0.08865827
vt -0.02340901 -0.08933095
vt -0.02273634 -0.08744746
vt 0.02461982 -0.08677479
vt 0.02273634 -0.08744746
vt 0.02340901 -0.08933095
vt 0.0252925 -0.08865827
vt -0.1815687 -0.009838701
vt -0.1958796 -0.002683279
vt -0.196774 -0.004472132
vt -0.1824631 -0.01162755
vt 0.1815687 -0.009838701
vt 0.1824631 -0.01162755
vt 0.196774 -0.004472132
vt 0.1958796 -0.002683279
o group119266950
g mesh119266950
usemtl mat21
f 4/4/1 3/3/1 2/2/1 1/1/1
f 8/8/2 7/7/2 6/6/2 5/5/2
f 2/12/3 8/11/3 5/10/3 1/9/3
f 6/16/4 7/15/4 3/14/4 4/13/4
f 5/20/5 6/19/5 4/18/5 1/17/5
f 3/24/6 7/23/6 8/22/6 2/21/6
o group1029749768
g mesh1029749768
usemtl mat21
f 12/28/7 11/27/7 10/26/7 9/25/7
f 16/32/8 15/31/8 14/30/8 13/29/8
f 10/36/9 16/35/9 13/34/9 9/33/9
f 14/40/10 15/39/10 11/38/10 12/37/10
f 13/44/11 14/43/11 12/42/11 9/41/11
f 11/48/12 15/47/12 16/46/12 10/45/12
o group1897095940
g mesh1897095940
usemtl mat21
f 20/52/13 19/51/13 18/50/13 17/49/13
f 24/56/14 23/55/14 22/54/14 21/53/14
f 18/60/15 24/59/15 21/58/15 17/57/15
f 22/64/16 23/63/16 19/62/16 20/61/16
f 21/68/17 22/67/17 20/66/17 17/65/17
f 19/72/18 23/71/18 24/70/18 18/69/18
