mtllib materials.mtl
v 0.0333333 -0.04666668 -0.00999999
v 0.0333333 -0.04666668 0.00999999
v 0.0333333 -0.0266667 0.00999999
v 0.0333333 -0.0266667 -0.00999999
v -0.0666666 -0.04666668 -0.00999999
v -0.0666666 -0.0266667 -0.00999999
v -0.0666666 -0.0266667 0.00999999
v -0.0666666 -0.04666668 0.00999999
v 0.0333333 -0.00666666 -0.009999961
v 0.0333333 -0.00666666 0.01000002
v 0.0333333 0.01333332 0.01000002
v 0.0333333 0.01333332 -0.009999961
v 0.01333332 -0.00666666 -0.009999961
v 0.01333332 0.01333332 -0.009999961
v 0.01333332 0.01333332 0.01000002
v 0.01333332 -0.00666666 0.01000002
v -0.02666664 0.0333333 -0.009999961
v -0.02666664 0.0333333 0.01000002
v -0.00666666 0.0333333 0.01000002
v -0.00666666 0.0333333 -0.009999961
v -0.02666664 0.05333328 -0.009999961
v -0.00666666 0.05333328 -0.009999961
v -0.00666666 0.05333328 0.01000002
v -0.02666664 0.05333328 0.01000002
v 0.01333332 0.01333332 -0.009999961
v 0.01333332 0.01333332 0.01000002
v 0.01333332 0.0333333 0.01000002
v 0.01333332 0.0333333 -0.009999961
v -0.00666666 0.01333332 -0.009999961
v -0.00666666 0.0333333 -0.009999961
v -0.00666666 0.0333333 0.01000002
v -0.00666666 0.01333332 0.01000002
v 0.05333328 -0.04666668 -0.00999999
v 0.05333328 -0.04666668 0.00999999
v 0.05333328 -0.00666672 0.00999999
v 0.05333328 -0.00666672 -0.00999999
v 0.0333333 -0.04666668 -0.00999999
v 0.0333333 -0.00666672 -0.00999999
v 0.0333333 -0.00666672 0.00999999
v 0.0333333 -0.04666668 0.00999999
v -0.02666664 -0.08666664 -0.00999999
v -0.02666664 -0.08666664 0.00999999
v -0.02666664 0.07333332 0.00999999
v -0.02666664 0.07333332 -0.00999999
v -0.04666662 -0.08666664 -0.00999999
v -0.04666662 0.07333332 -0.00999999
v -0.04666662 0.07333332 0.00999999
v -0.04666662 -0.08666664 0.00999999
vn 1 0 0
vn -1 0 0
vn 0 -1 0
vn 0 1 0
vn 0 0 -1
vn 0 0 1
vn 1 0 1.748456E-07
vn -1 0 -1.748456E-07
vn 3.057097E-14 -1 -1.748456E-07
vn -3.057097E-14 1 1.748456E-07
vn 1.748456E-07 1.748456E-07 -1
vn -1.748456E-07 -1.748456E-07 1
vn -1.192093E-07 -1 -1.748456E-07
vn 1.192093E-07 1 1.748456E-07
vn -1 1.192093E-07 -1.748456E-07
vn 1 -1.192093E-07 1.748456E-07
vn 1.748456E-07 1.748456E-07 -1
vn -1.748456E-07 -1.748456E-07 1
vn 1 0 1.748456E-07
vn -1 0 -1.748456E-07
vn 3.057097E-14 -1 -1.748456E-07
vn -3.057097E-14 1 1.748456E-07
vn 1.748456E-07 1.748456E-07 -1
vn -1.748456E-07 -1.748456E-07 1
vn 1 0 0
vn -1 0 0
vn 0 -1 0
vn 0 1 0
vn 0 0 -1
vn 0 0 1
vn 1 0 0
vn -1 0 0
vn 0 -1 0
vn 0 1 0
vn 0 0 -1
vn 0 0 1
vt -0.01360098 -0.06893485
vt -0.01197351 -0.07009733
vt -0.01081104 -0.06846987
vt -0.0124385 -0.06730739
vt 0.01360098 -0.06893485
vt 0.0124385 -0.06730739
vt 0.01081104 -0.06846987
vt 0.01197351 -0.07009733
vt -0.09242524 -0.3450139
vt -0.09578861 -0.3544313
vt -0.09390512 -0.355104
vt -0.09054177 -0.3456866
vt 0.09242524 -0.3450139
vt 0.09054177 -0.3456866
vt 0.09390512 -0.355104
vt 0.09578861 -0.3544313
vt -0.1019647 -0.3470378
vt -0.1037536 -0.3461433
vt -0.1082257 -0.3550876
vt -0.1064368 -0.355982
vt 0.1019647 -0.3470378
vt 0.1064368 -0.355982
vt 0.1082257 -0.3550876
vt 0.1037536 -0.3461433
vt -0.01127598 -0.06567995
vt -0.009648517 -0.06684242
vt -0.008486042 -0.06521495
vt -0.01011351 -0.06405248
vt 0.01127598 -0.06567995
vt 0.01011351 -0.06405248
vt 0.008486041 -0.06521496
vt 0.009648517 -0.06684242
vt -0.09242525 -0.3450139
vt -0.09309793 -0.3468973
vt -0.09121444 -0.34757
vt -0.09054177 -0.3456865
vt 0.09242525 -0.3450139
vt 0.09054177 -0.3456865
vt 0.09121444 -0.34757
vt 0.09309793 -0.3468973
vt -0.1055424 -0.3452489
vt -0.1073313 -0.3443545
vt -0.1082257 -0.3461433
vt -0.1064368 -0.3470377
vt 0.1055424 -0.3452489
vt 0.1064368 -0.3470377
vt 0.1082257 -0.3461433
vt 0.1073313 -0.3443545
vt -0.09444328 -0.3506643
vt -0.0925598 -0.351337
vt -0.09188712 -0.3494535
vt -0.09377061 -0.3487808
vt 0.09444328 -0.3506643
vt 0.09377061 -0.3487808
vt 0.09188712 -0.3494535
vt 0.0925598 -0.351337
vt 0.00895105 -0.06242505
vt 0.007788574 -0.06079759
vt 0.006161109 -0.06196006
vt 0.007323585 -0.06358753
vt -0.00895105 -0.06242505
vt -0.007323585 -0.06358753
vt -0.00616111 -0.06196006
vt -0.007788575 -0.06079759
vt -0.1118034 -0.3488266
vt -0.110909 -0.3470377
vt -0.1126978 -0.3461433
vt -0.1135922 -0.3479322
vt 0.1118034 -0.3488266
vt 0.1135922 -0.3479322
vt 0.1126978 -0.3461433
vt 0.110909 -0.3470377
vt -0.01011351 -0.06405248
vt -0.008486041 -0.06521496
vt -0.007323565 -0.06358749
vt -0.008951031 -0.06242502
vt 0.01011351 -0.06405248
vt 0.00895103 -0.06242502
vt 0.007323565 -0.06358749
vt 0.008486041 -0.06521496
vt -0.09309793 -0.3468973
vt -0.0937706 -0.3487808
vt -0.09188712 -0.3494535
vt -0.09121444 -0.34757
vt 0.09309793 -0.3468973
vt 0.09121444 -0.34757
vt 0.09188712 -0.3494535
vt 0.0937706 -0.3487808
vt -0.1082257 -0.3461433
vt -0.1100145 -0.3452489
vt -0.110909 -0.3470377
vt -0.1091201 -0.3479322
vt 0.1082257 -0.3461433
vt 0.1091201 -0.3479322
vt 0.110909 -0.3470377
vt 0.1100145 -0.3452489
vt -0.01360098 -0.06893485
vt -0.01197351 -0.07009733
vt -0.009648561 -0.06684239
vt -0.01127603 -0.06567992
vt 0.01360098 -0.06893485
vt 0.01127603 -0.06567992
vt 0.009648561 -0.06684239
vt 0.01197351 -0.07009733
vt -0.09175257 -0.3431304
vt -0.09242524 -0.3450139
vt -0.09054177 -0.3456866
vt -0.08986909 -0.3438031
vt 0.09175257 -0.3431304
vt 0.08986909 -0.3438031
vt 0.09054177 -0.3456866
vt 0.09242524 -0.3450139
vt -0.1010703 -0.3452489
vt -0.104648 -0.3434601
vt -0.1055424 -0.3452489
vt -0.1019647 -0.3470378
vt 0.1010703 -0.3452489
vt 0.1019647 -0.3470378
vt 0.1055424 -0.3452489
vt 0.104648 -0.3434601
vt -0.01592593 -0.07218979
vt -0.01429846 -0.07335226
vt -0.004998652 -0.06033253
vt -0.006626117 -0.05917005
vt 0.01592593 -0.07218979
vt 0.006626117 -0.05917005
vt 0.004998652 -0.06033253
vt 0.01429846 -0.07335226
vt -0.09444326 -0.3506643
vt -0.09511593 -0.3525478
vt -0.09323245 -0.3532205
vt -0.09255978 -0.351337
vt 0.09444326 -0.3506643
vt 0.09255978 -0.351337
vt 0.09323245 -0.3532205
vt 0.09511593 -0.3525478
vt -0.1010703 -0.3541932
vt -0.1153811 -0.3470378
vt -0.1162755 -0.3488266
vt -0.1019647 -0.355982
vt 0.1010703 -0.3541932
vt 0.1019647 -0.355982
vt 0.1162755 -0.3488266
vt 0.1153811 -0.3470378
o group1324160145
g mesh1324160145
usemtl mat21
f 4/4/1 3/3/1 2/2/1 1/1/1
f 8/8/2 7/7/2 6/6/2 5/5/2
f 2/12/3 8/11/3 5/10/3 1/9/3
f 6/16/4 7/15/4 3/14/4 4/13/4
f 5/20/5 6/19/5 4/18/5 1/17/5
f 3/24/6 7/23/6 8/22/6 2/21/6
o group1367542087
g mesh1367542087
usemtl mat21
f 12/28/7 11/27/7 10/26/7 9/25/7
f 16/32/8 15/31/8 14/30/8 13/29/8
f 10/36/9 16/35/9 13/34/9 9/33/9
f 14/40/10 15/39/10 11/38/10 12/37/10
f 13/44/11 14/43/11 12/42/11 9/41/11
f 11/48/12 15/47/12 16/46/12 10/45/12
o group1425015088
g mesh1425015088
usemtl mat21
f 20/52/13 19/51/13 18/50/13 17/49/13
f 24/56/14 23/55/14 22/54/14 21/53/14
f 18/60/15 24/59/15 21/58/15 17/57/15
f 22/64/16 23/63/16 19/62/16 20/61/16
f 21/68/17 22/67/17 20/66/17 17/65/17
f 19/72/18 23/71/18 24/70/18 18/69/18
o group1326119014
g mesh1326119014
usemtl mat21
f 28/76/19 27/75/19 26/74/19 25/73/19
f 32/80/20 31/79/20 30/78/20 29/77/20
f 26/84/21 32/83/21 29/82/21 25/81/21
f 30/88/22 31/87/22 27/86/22 28/85/22
f 29/92/23 30/91/23 28/90/23 25/89/23
f 27/96/24 31/95/24 32/94/24 26/93/24
o group1660501656
g mesh1660501656
usemtl mat21
f 36/100/25 35/99/25 34/98/25 33/97/25
f 40/104/26 39/103/26 38/102/26 37/101/26
f 34/108/27 40/107/27 37/106/27 33/105/27
f 38/112/28 39/111/28 35/110/28 36/109/28
f 37/116/29 38/115/29 36/114/29 33/113/29
f 35/120/30 39/119/30 40/118/30 34/117/30
o group873756599
g mesh873756599
usemtl mat21
f 44/124/31 43/123/31 42/122/31 41/121/31
f 48/128/32 47/127/32 46/126/32 45/125/32
f 42/132/33 48/131/33 45/130/33 41/129/33
f 46/136/34 47/135/34 43/134/34 44/133/34
f 45/140/35 46/139/35 44/138/35 41/137/35
f 43/144/36 47/143/36 48/142/36 42/141/36
