mtllib materials.mtl
v -0.03666639 -0.05444431 -0.00999999
v -0.03666639 -0.05444431 0.00999999
v -0.03666639 -0.03444433 0.00999999
v -0.03666639 -0.03444433 -0.00999999
v -0.05666685 -0.05444431 -0.00999999
v -0.05666685 -0.03444433 -0.00999999
v -0.05666685 -0.03444433 0.00999999
v -0.05666685 -0.05444431 0.00999999
v 0.02333403 -0.03444433 -0.00999999
v 0.02333403 -0.03444433 0.00999999
v 0.02333403 -0.01444435 0.00999999
v 0.02333403 -0.01444435 -0.00999999
v -0.03666639 -0.03444433 -0.00999999
v -0.03666639 -0.01444435 -0.00999999
v -0.03666639 -0.01444435 0.00999999
v -0.03666639 -0.03444433 0.00999999
v 0.04333353 -0.01444435 -0.00999999
v 0.04333353 -0.01444435 0.00999999
v 0.04333353 0.00555563 0.00999999
v 0.04333353 0.00555563 -0.00999999
v 0.02333307 -0.01444435 -0.00999999
v 0.02333307 0.00555563 -0.00999999
v 0.02333307 0.00555563 0.00999999
v 0.02333307 -0.01444435 0.00999999
v 0.02333355 0.00555563 -0.00999999
v 0.02333355 0.00555563 0.00999999
v 0.02333355 0.02555561 0.00999999
v 0.02333355 0.02555561 -0.00999999
v -0.01666641 0.00555563 -0.00999999
v -0.01666641 0.02555561 -0.00999999
v -0.01666641 0.02555561 0.00999999
v -0.01666641 0.00555563 0.00999999
v 0.02333307 0.06555557 -0.00999999
v 0.02333307 0.06555557 0.00999999
v 0.02333307 0.08555555 0.00999999
v 0.02333307 0.08555555 -0.00999999
v -0.05666685 0.06555557 -0.00999999
v -0.05666685 0.08555555 -0.00999999
v -0.05666685 0.08555555 0.00999999
v -0.05666685 0.06555557 0.00999999
v 0.04333353 0.02555561 -0.00999999
v 0.04333353 0.02555561 0.00999999
v 0.04333353 0.06555557 0.00999999
v 0.04333353 0.06555557 -0.00999999
v 0.02333307 0.02555561 -0.00999999
v 0.02333307 0.06555557 -0.00999999
v 0.02333307 0.06555557 0.00999999
v 0.02333307 0.02555561 0.00999999
v -0.01666641 0.02555561 -0.00999999
v -0.01666641 0.02555561 0.00999999
v -0.01666641 0.06555557 0.00999999
v -0.01666641 0.06555557 -0.00999999
v -0.03666687 0.02555561 -0.00999999
v -0.03666687 0.06555557 -0.00999999
v -0.03666687 0.06555557 0.00999999
v -0.03666687 0.02555561 0.00999999
v 0.02333355 -0.07444429 -0.00999999
v 0.02333355 -0.07444429 0.00999999
v 0.02333355 -0.05444431 0.00999999
v 0.02333355 -0.05444431 -0.00999999
v -0.03666687 -0.07444429 -0.00999999
v -0.03666687 -0.05444431 -0.00999999
v -0.03666687 -0.05444431 0.00999999
v -0.03666687 -0.07444429 0.00999999
v 0.04333353 -0.05444431 -0.00999999
v 0.04333353 -0.05444431 0.00999999
v 0.04333353 -0.03444433 0.00999999
v 0.04333353 -0.03444433 -0.00999999
v 0.02333307 -0.05444431 -0.00999999
v 0.02333307 -0.03444433 -0.00999999
v 0.02333307 -0.03444433 0.00999999
v 0.02333307 -0.05444431 0.00999999
vn 1 0 0
vn -1 0 0
vn 0 -1 0
vn 0 1 0
vn 0 0 -1
vn 0 0 1
vn 1 0 0
vn -1 0 0
vn 0 -1 0
vn 0 1 0
vn 0 0 -1
vn 0 0 1
vn 1 0 0
vn -1 0 0
vn 0 -1 0
vn 0 1 0
vn 0 0 -1
vn 0 0 1
vn 1 0 0
vn -1 0 0
vn 0 -1 0
vn 0 1 0
vn 0 0 -1
vn 0 0 1
vn 1 0 0
vn -1 0 0
vn 0 -1 0
vn 0 1 0
vn 0 0 -1
vn 0 0 1
vn 1 0 0
vn -1 0 0
vn 0 -1 0
vn 0 1 0
vn 0 0 -1
vn 0 0 1
vn 1 0 0
vn -1 0 0
vn 0 -1 0
vn 0 1 0
vn 0 0 -1
vn 0 0 1
vn 1 0 0
vn -1 0 0
vn 0 -1 0
vn 0 1 0
vn 0 0 -1
vn 0 0 1
vn 1 0 0
vn -1 0 0
vn 0 -1 0
vn 0 1 0
vn 0 0 -1
vn 0 0 1
vt -0.1026467 -0.3432793
vt -0.1010192 -0.3444418
vt -0.09985674 -0.3428143
vt -0.1014842 -0.3416518
vt 0.1026467 -0.3432793
vt 0.1014842 -0.3416518
vt 0.09985674 -0.3428143
vt 0.1010192 -0.3444418
vt 0.2609298 0.3857106
vt 0.2602571 0.383827
vt 0.2621406 0.3831544
vt 0.2628133 0.3850379
vt -0.2609298 0.3857106
vt -0.2628133 0.3850379
vt -0.2621406 0.3831544
vt -0.2602571 0.383827
vt 0.5049042 0.2517813
vt 0.5031153 0.2526757
vt 0.5022209 0.2508868
vt 0.5040097 0.2499923
vt -0.5049042 0.2517813
vt -0.5040097 0.2499923
vt -0.5022209 0.2508868
vt -0.5031153 0.2526757
vt -0.1014842 -0.3416518
vt -0.09985674 -0.3428143
vt -0.09869426 -0.3411868
vt -0.1003217 -0.3400244
vt 0.1014842 -0.3416518
vt 0.1003217 -0.3400244
vt 0.09869426 -0.3411868
vt 0.09985674 -0.3428143
vt 0.2629478 0.3913611
vt 0.2609298 0.3857106
vt 0.2628133 0.3850379
vt 0.2648313 0.3906884
vt -0.2629478 0.3913611
vt -0.2648313 0.3906884
vt -0.2628133 0.3850379
vt -0.2609298 0.3857106
vt 0.5057986 0.2580423
vt 0.5040098 0.2589367
vt 0.5013264 0.2535701
vt 0.5031153 0.2526757
vt -0.5057986 0.2580423
vt -0.5031153 0.2526757
vt -0.5013264 0.2535701
vt -0.5040098 0.2589367
vt -0.1003217 -0.3400244
vt -0.09869426 -0.3411868
vt -0.09753179 -0.3395594
vt -0.09915926 -0.3383969
vt 0.1003217 -0.3400244
vt 0.09915926 -0.3383969
vt 0.09753179 -0.3395594
vt 0.09869426 -0.3411868
vt 0.2636205 0.3932445
vt 0.2629478 0.391361
vt 0.2648312 0.3906883
vt 0.2655039 0.3925718
vt -0.2636205 0.3932445
vt -0.2655039 0.3925718
vt -0.2648312 0.3906883
vt -0.2629478 0.391361
vt 0.5049042 0.2607255
vt 0.5031153 0.26162
vt 0.5022209 0.259831
vt 0.5040097 0.2589366
vt -0.5049042 0.2607255
vt -0.5040097 0.2589366
vt -0.5022209 0.259831
vt -0.5031153 0.26162
vt -0.09915926 -0.3383969
vt -0.09753179 -0.3395594
vt -0.09636931 -0.3379319
vt -0.09799678 -0.3367694
vt 0.09915926 -0.3383969
vt 0.09799678 -0.3367694
vt 0.09636931 -0.3379319
vt 0.09753179 -0.3395594
vt 0.2629478 0.391361
vt 0.2616025 0.387594
vt 0.2634859 0.3869214
vt 0.2648313 0.3906884
vt -0.2629478 0.391361
vt -0.2648313 0.3906884
vt -0.2634859 0.3869214
vt -0.2616025 0.387594
vt 0.5022209 0.2598311
vt 0.500432 0.2607255
vt 0.4986432 0.2571478
vt 0.500432 0.2562534
vt -0.5022209 0.2598311
vt -0.500432 0.2562534
vt -0.4986432 0.2571478
vt -0.500432 0.2607255
vt -0.09567183 -0.3335145
vt -0.09404436 -0.334677
vt -0.09288189 -0.3330495
vt -0.09450935 -0.331887
vt 0.09567183 -0.3335145
vt 0.09450935 -0.331887
vt 0.09288189 -0.3330495
vt 0.09404436 -0.334677
vt 0.2629478 0.391361
vt 0.2602571 0.383827
vt 0.2621406 0.3831544
vt 0.2648312 0.3906883
vt -0.2629478 0.391361
vt -0.2648312 0.3906883
vt -0.2621406 0.3831544
vt -0.2602571 0.383827
vt 0.4968543 0.2625143
vt 0.4950655 0.2634088
vt 0.4914877 0.2562533
vt 0.4932766 0.2553589
vt -0.4968543 0.2625143
vt -0.4932766 0.2553589
vt -0.4914877 0.2562533
vt -0.4950655 0.2634088
vt -0.09799678 -0.3367694
vt -0.09636931 -0.3379319
vt -0.09404436 -0.334677
vt -0.09567183 -0.3335145
vt 0.09799678 -0.3367694
vt 0.09567183 -0.3335145
vt 0.09404436 -0.334677
vt 0.09636931 -0.3379319
vt 0.2636205 0.3932445
vt 0.2629478 0.391361
vt 0.2648312 0.3906883
vt 0.2655039 0.3925718
vt -0.2636205 0.3932445
vt -0.2655039 0.3925718
vt -0.2648312 0.3906883
vt -0.2629478 0.391361
vt 0.5013264 0.2625144
vt 0.4977488 0.2643032
vt 0.4968543 0.2625143
vt 0.500432 0.2607255
vt -0.5013264 0.2625144
vt -0.500432 0.2607255
vt -0.4968543 0.2625143
vt -0.4977488 0.2643032
vt -0.09799678 -0.3367694
vt -0.09636931 -0.3379319
vt -0.09404436 -0.334677
vt -0.09567183 -0.3335145
vt 0.09799678 -0.3367694
vt 0.09567183 -0.3335145
vt 0.09404436 -0.334677
vt 0.09636931 -0.3379319
vt 0.2616025 0.387594
vt 0.2609298 0.3857105
vt 0.2628132 0.3850378
vt 0.2634859 0.3869214
vt -0.2616025 0.387594
vt -0.2634859 0.3869214
vt -0.2628132 0.3850378
vt -0.2609298 0.3857105
vt 0.4986432 0.2571478
vt 0.4950655 0.2589367
vt 0.494171 0.2571478
vt 0.4977487 0.2553589
vt -0.4986432 0.2571478
vt -0.4977487 0.2553589
vt -0.494171 0.2571478
vt -0.4950655 0.2589367
vt -0.1038092 -0.3449067
vt -0.1021817 -0.3460692
vt -0.1010192 -0.3444418
vt -0.1026467 -0.3432793
vt 0.1038092 -0.3449067
vt 0.1026467 -0.3432793
vt 0.1010192 -0.3444418
vt 0.1021817 -0.3460692
vt 0.2629478 0.391361
vt 0.2609298 0.3857105
vt 0.2628132 0.3850378
vt 0.2648313 0.3906884
vt -0.2629478 0.391361
vt -0.2648313 0.3906884
vt -0.2628132 0.3850378
vt -0.2609298 0.3857105
vt 0.5093763 0.2562534
vt 0.5075874 0.2571478
vt 0.5049042 0.2517812
vt 0.506693 0.2508868
vt -0.5093763 0.2562534
vt -0.506693 0.2508868
vt -0.5049042 0.2517812
vt -0.5075874 0.2571478
vt -0.1026467 -0.3432793
vt -0.1010192 -0.3444418
vt -0.09985674 -0.3428143
vt -0.1014842 -0.3416518
vt 0.1026467 -0.3432793
vt 0.1014842 -0.3416518
vt 0.09985674 -0.3428143
vt 0.1010192 -0.3444418
vt 0.2636205 0.3932445
vt 0.2629478 0.391361
vt 0.2648312 0.3906883
vt 0.2655039 0.3925718
vt -0.2636205 0.3932445
vt -0.2655039 0.3925718
vt -0.2648312 0.3906883
vt -0.2629478 0.391361
vt 0.5084819 0.2589367
vt 0.506693 0.2598311
vt 0.5057986 0.2580422
vt 0.5075874 0.2571478
vt -0.5084819 0.2589367
vt -0.5075874 0.2571478
vt -0.5057986 0.2580422
vt -0.506693 0.2598311
o group1063408223
g mesh1063408223
usemtl mat21
f 4/4/1 3/3/1 2/2/1 1/1/1
f 8/8/2 7/7/2 6/6/2 5/5/2
f 2/12/3 8/11/3 5/10/3 1/9/3
f 6/16/4 7/15/4 3/14/4 4/13/4
f 5/20/5 6/19/5 4/18/5 1/17/5
f 3/24/6 7/23/6 8/22/6 2/21/6
o group1828451471
g mesh1828451471
usemtl mat21
f 12/28/7 11/27/7 10/26/7 9/25/7
f 16/32/8 15/31/8 14/30/8 13/29/8
f 10/36/9 16/35/9 13/34/9 9/33/9
f 14/40/10 15/39/10 11/38/10 12/37/10
f 13/44/11 14/43/11 12/42/11 9/41/11
f 11/48/12 15/47/12 16/46/12 10/45/12
o group820363404
g mesh820363404
usemtl mat21
f 20/52/13 19/51/13 18/50/13 17/49/13
f 24/56/14 23/55/14 22/54/14 21/53/14
f 18/60/15 24/59/15 21/58/15 17/57/15
f 22/64/16 23/63/16 19/62/16 20/61/16
f 21/68/17 22/67/17 20/66/17 17/65/17
f 19/72/18 23/71/18 24/70/18 18/69/18
o group1995316033
g mesh1995316033
usemtl mat21
f 28/76/19 27/75/19 26/74/19 25/73/19
f 32/80/20 31/79/20 30/78/20 29/77/20
f 26/84/21 32/83/21 29/82/21 25/81/21
f 30/88/22 31/87/22 27/86/22 28/85/22
f 29/92/23 30/91/23 28/90/23 25/89/23
f 27/96/24 31/95/24 32/94/24 26/93/24
o group1275315192
g mesh1275315192
usemtl mat21
f 36/100/25 35/99/25 34/98/25 33/97/25
f 40/104/26 39/103/26 38/102/26 37/101/26
f 34/108/27 40/107/27 37/106/27 33/105/27
f 38/112/28 39/111/28 35/110/28 36/109/28
f 37/116/29 38/115/29 36/114/29 33/113/29
f 35/120/30 39/119/30 40/118/30 34/117/30
o group888327768
g mesh888327768
usemtl mat21
f 44/124/31 43/123/31 42/122/31 41/121/31
f 48/128/32 47/127/32 46/126/32 45/125/32
f 42/132/33 48/131/33 45/130/33 41/129/33
f 46/136/34 47/135/34 43/134/34 44/133/34
f 45/140/35 46/139/35 44/138/35 41/137/35
f 43/144/36 47/143/36 48/142/36 42/141/36
o group1526168109
g mesh1526168109
usemtl mat21
f 52/148/37 51/147/37 50/146/37 49/145/37
f 56/152/38 55/151/38 54/150/38 53/149/38
f 50/156/39 56/155/39 53/154/39 49/153/39
f 54/160/40 55/159/40 51/158/40 52/157/40
f 53/164/41 54/163/41 52/162/41 49/161/41
f 51/168/42 55/167/42 56/166/42 50/165/42
o group2099737244
g mesh2099737244
usemtl mat21
f 60/172/43 59/171/43 58/170/43 57/169/43
f 64/176/44 63/175/44 62/174/44 61/173/44
f 58/180/45 64/179/45 61/178/45 57/177/45
f 62/184/46 63/183/46 59/182/46 60/181/46
f 61/188/47 62/187/47 60/186/47 57/185/47
f 59/192/48 63/191/48 64/190/48 58/189/48
o group1913117252
g mesh1913117252
usemtl mat21
f 68/196/49 67/195/49 66/194/49 65/193/49
f 72/200/50 71/199/50 70/198/50 69/197/50
f 66/204/51 72/203/51 69/202/51 65/201/51
f 70/208/52 71/207/52 67/206/52 68/205/52
f 69/212/53 70/211/53 68/210/53 65/209/53
f 67/216/54 71/215/54 72/214/54 66/213/54
