mtllib materials.mtl
v 0.003749967 -0.02125013 -0.009999998
v 0.003749967 -0.02125013 0.009999998
v 0.003749967 -0.001250148 0.009999998
v 0.003749967 -0.001250148 -0.009999998
v -0.03625 -0.02125013 -0.009999998
v -0.03625 -0.001250148 -0.009999998
v -0.03625 -0.001250148 0.009999998
v -0.03625 -0.02125013 0.009999998
v -0.03625 -0.06125009 -0.009999998
v -0.03625 -0.06125009 0.009999998
v -0.03625 -0.001250148 0.009999998
v -0.03625 -0.001250148 -0.009999998
v -0.05624998 -0.06125009 -0.009999998
v -0.05624998 -0.001250148 -0.009999998
v -0.05624998 -0.001250148 0.009999998
v -0.05624998 -0.06125009 0.009999998
v 0.04375005 0.03874981 -0.009999998
v 0.04375005 0.03874981 0.009999998
v 0.04375005 0.05874979 0.01000001
v 0.04375005 0.05874979 -0.009999998
v 0.02375007 0.03874981 -0.01000001
v 0.02375007 0.05874979 -0.009999998
v 0.02375007 0.05874979 0.009999998
v 0.02375007 0.03874981 0.009999998
v 0.04375005 -0.06125009 -0.009999998
v 0.04375005 -0.06125009 0.009999998
v 0.04375005 -0.04125011 0.009999998
v 0.04375005 -0.04125011 -0.009999998
v 0.02375007 -0.06125009 -0.009999998
v 0.02375007 -0.04125011 -0.009999998
v 0.02375007 -0.04125011 0.009999998
v 0.02375007 -0.06125009 0.009999998
v 0.06375003 -0.04125011 0.01000001
v 0.06375003 0.03874981 0.009999998
v 0.06375003 0.03874981 -0.01000001
v 0.06375003 -0.04125011 -0.009999994
v 0.04375005 -0.04125011 0.01000001
v 0.04375005 -0.04125011 -0.009999998
v 0.04375005 0.03874981 -0.01000001
v 0.04375005 0.03874981 0.009999998
v -0.03625 0.03874981 0.01000001
v -0.03625 0.05874979 0.009999998
v -0.03625 0.05874979 -0.01
v -0.03625 0.03874981 -0.009999998
v -0.05624998 0.03874981 0.009999998
v -0.05624998 0.03874981 -0.01
v -0.05624998 0.05874979 -0.01000001
v -0.05624998 0.05874979 0.009999998
v 0.02375007 -0.08125019 -0.009999998
v 0.02375007 -0.08125019 0.009999998
v 0.02375007 -0.06125021 0.009999998
v 0.02375007 -0.06125021 -0.009999998
v -0.03624988 -0.08125019 -0.009999998
v -0.03624988 -0.06125021 -0.009999998
v -0.03624988 -0.06125021 0.009999998
v -0.03624988 -0.08125019 0.009999998
v 0.02375007 0.05874991 -0.009999998
v 0.02375007 0.05874991 0.01000001
v 0.02375007 0.0787499 0.01000001
v 0.02375007 0.0787499 -0.00999999
v -0.03624988 0.05874991 -0.01000001
v -0.03624988 0.0787499 -0.01000001
v -0.03624988 0.0787499 0.009999998
v -0.03624988 0.05874991 0.00999999
vn 1 0 0
vn -1 0 0
vn 0 -1 0
vn 0 1 0
vn 0 0 -1
vn 0 0 1
vn 1 0 0
vn -1 0 0
vn 0 -1 0
vn 0 1 0
vn 0 0 -1
vn 0 0 1
vn 1 0 1.748456E-07
vn -1 0 -1.748456E-07
vn 3.057097E-14 -1 -1.748456E-07
vn -3.057097E-14 1 1.748456E-07
vn 1.748456E-07 1.748456E-07 -1
vn -1.748456E-07 -1.748456E-07 1
vn 1 0 0
vn -1 0 0
vn 0 -1 0
vn 0 1 0
vn 0 0 -1
vn 0 0 1
vn 1 0 1.748456E-07
vn -1 0 -1.748456E-07
vn -1.748456E-07 1.192093E-07 1
vn 1.748456E-07 -1.192093E-07 -1
vn 0 -1 1.192093E-07
vn 0 1 -1.192093E-07
vn 1 0 1.748456E-07
vn -1 0 -1.748456E-07
vn -1.748456E-07 1.192093E-07 1
vn 1.748456E-07 -1.192093E-07 -1
vn 0 -1 1.192093E-07
vn 0 1 -1.192093E-07
vn 1 0 0
vn -1 0 0
vn 0 -1 0
vn 0 1 0
vn 0 0 -1
vn 0 0 1
vn 1 0 1.748456E-07
vn -1 0 -1.748456E-07
vn 3.057097E-14 -1 -1.748456E-07
vn -3.057097E-14 1 1.748456E-07
vn 1.748456E-07 1.748456E-07 -1
vn -1.748456E-07 -1.748456E-07 1
vt 0.1002055 0.1299649
vt 0.1018329 0.1288024
vt 0.1029954 0.1304298
vt 0.101368 0.1315923
vt -0.1002055 0.1299649
vt -0.101368 0.1315923
vt -0.1029954 0.1304298
vt -0.1018329 0.1288024
vt -0.03067388 -0.1037261
vt -0.03201922 -0.1074931
vt -0.03013574 -0.1081658
vt -0.0287904 -0.1043988
vt 0.03067388 -0.1037261
vt 0.0287904 -0.1043988
vt 0.03013574 -0.1081658
vt 0.03201922 -0.1074931
vt -0.1949851 -0.02325511
vt -0.196774 -0.02236069
vt -0.1985628 -0.02593839
vt -0.196774 -0.02683282
vt 0.1949851 -0.02325511
vt 0.196774 -0.02683282
vt 0.1985628 -0.02593839
vt 0.196774 -0.02236069
vt 0.09788053 0.1267099
vt 0.09950799 0.1255475
vt 0.1029954 0.1304298
vt 0.101368 0.1315923
vt -0.09788053 0.1267099
vt -0.101368 0.1315923
vt -0.1029954 0.1304298
vt -0.09950799 0.1255475
vt -0.03201922 -0.1074931
vt -0.0326919 -0.1093766
vt -0.03080841 -0.1100493
vt -0.03013574 -0.1081658
vt 0.03201922 -0.1074931
vt 0.03013574 -0.1081658
vt 0.03080841 -0.1100493
vt 0.0326919 -0.1093766
vt -0.1931963 -0.02862167
vt -0.1985628 -0.02593839
vt -0.1994573 -0.02772724
vt -0.1940907 -0.03041052
vt 0.1931963 -0.02862167
vt 0.1940907 -0.03041052
vt 0.1994573 -0.02772724
vt 0.1985628 -0.02593839
vt 0.1036929 0.1348472
vt 0.1053204 0.1336847
vt 0.1064829 0.1353122
vt 0.1048554 0.1364747
vt -0.1036929 0.1348472
vt -0.1048554 0.1364747
vt -0.1064829 0.1353122
vt -0.1053204 0.1336847
vt -0.02932857 -0.09995916
vt -0.03000124 -0.1018426
vt -0.02811776 -0.1025153
vt -0.02744508 -0.1006318
vt 0.02932857 -0.09995916
vt 0.02744508 -0.1006318
vt 0.02811776 -0.1025153
vt 0.03000124 -0.1018426
vt -0.1985628 -0.01699412
vt -0.2003517 -0.0160997
vt -0.2012461 -0.01788855
vt -0.1994573 -0.01878297
vt 0.1985628 -0.01699412
vt 0.1994573 -0.01878297
vt 0.2012461 -0.01788855
vt 0.2003517 -0.0160997
vt 0.09788053 0.1267099
vt 0.09950799 0.1255475
vt 0.1006705 0.1271749
vt 0.099043 0.1283374
vt -0.09788053 0.1267099
vt -0.099043 0.1283374
vt -0.1006705 0.1271749
vt -0.09950799 0.1255475
vt -0.02932853 -0.09995918
vt -0.0300012 -0.1018427
vt -0.02811772 -0.1025153
vt -0.02744505 -0.1006318
vt 0.02932853 -0.09995918
vt 0.02744505 -0.1006318
vt 0.02811772 -0.1025153
vt 0.0300012 -0.1018427
vt -0.1896186 -0.02146625
vt -0.1914074 -0.02057182
vt -0.1923019 -0.02236068
vt -0.190513 -0.0232551
vt 0.1896186 -0.02146625
vt 0.190513 -0.0232551
vt 0.1923019 -0.02236068
vt 0.1914074 -0.02057182
vt 0.1006705 0.1271749
vt 0.1053204 0.1336847
vt 0.1036929 0.1348472
vt 0.09904303 0.1283374
vt -0.1006705 0.1271749
vt -0.09904303 0.1283374
vt -0.1036929 0.1348472
vt -0.1053204 0.1336847
vt 0.190513 -0.01878296
vt 0.1914074 -0.02057181
vt 0.1985628 -0.01699411
vt 0.1976684 -0.01520525
vt -0.190513 -0.01878296
vt -0.1976684 -0.01520525
vt -0.1985628 -0.01699411
vt -0.1914074 -0.02057181
vt -0.02677235 -0.09874837
vt -0.02865584 -0.0980757
vt -0.02932851 -0.09995918
vt -0.02744502 -0.1006319
vt 0.02677235 -0.09874837
vt 0.02744502 -0.1006319
vt 0.02932851 -0.09995918
vt 0.02865584 -0.0980757
vt 0.1053204 0.1336847
vt 0.1064829 0.1353122
vt 0.1048554 0.1364747
vt 0.1036929 0.1348472
vt -0.1053204 0.1336847
vt -0.1036929 0.1348472
vt -0.1048554 0.1364747
vt -0.1064829 0.1353122
vt 0.2021405 -0.02414953
vt 0.203035 -0.02593838
vt 0.2048238 -0.02504395
vt 0.2039294 -0.0232551
vt -0.2021405 -0.02414953
vt -0.2039294 -0.0232551
vt -0.2048238 -0.02504395
vt -0.203035 -0.02593838
vt -0.03013572 -0.1081658
vt -0.0320192 -0.1074931
vt -0.03269187 -0.1093766
vt -0.03080839 -0.1100493
vt 0.03013572 -0.1081658
vt 0.03080839 -0.1100493
vt 0.03269187 -0.1093766
vt 0.0320192 -0.1074931
vt 0.09671804 0.1250825
vt 0.09834551 0.12392
vt 0.09950799 0.1255474
vt 0.09788052 0.1267099
vt -0.09671804 0.1250825
vt -0.09788052 0.1267099
vt -0.09950799 0.1255474
vt -0.09834551 0.12392
vt -0.0300012 -0.1018427
vt -0.03201922 -0.1074931
vt -0.03013574 -0.1081658
vt -0.02811772 -0.1025153
vt 0.0300012 -0.1018427
vt 0.02811772 -0.1025153
vt 0.03013574 -0.1081658
vt 0.03201922 -0.1074931
vt -0.1887241 -0.02414953
vt -0.190513 -0.02325511
vt -0.1931963 -0.02862166
vt -0.1914074 -0.02951609
vt 0.1887241 -0.02414953
vt 0.1914074 -0.02951609
vt 0.1931963 -0.02862166
vt 0.190513 -0.02325511
vt 0.1048554 0.1364747
vt 0.1064829 0.1353122
vt 0.1076454 0.1369397
vt 0.1060179 0.1381022
vt -0.1048554 0.1364747
vt -0.1060179 0.1381022
vt -0.1076454 0.1369397
vt -0.1064829 0.1353122
vt -0.03000124 -0.1018426
vt -0.03201926 -0.1074931
vt -0.03013577 -0.1081658
vt -0.02811776 -0.1025153
vt 0.03000124 -0.1018426
vt 0.02811776 -0.1025153
vt 0.03013577 -0.1081658
vt 0.03201926 -0.1074931
vt -0.2012461 -0.01788854
vt -0.203035 -0.01699411
vt -0.2057182 -0.02236067
vt -0.2039294 -0.0232551
vt 0.2012461 -0.01788854
vt 0.2039294 -0.0232551
vt 0.2057182 -0.02236067
vt 0.203035 -0.01699411
o group1966756774
g mesh1966756774
usemtl mat21
f 4/4/1 3/3/1 2/2/1 1/1/1
f 8/8/2 7/7/2 6/6/2 5/5/2
f 2/12/3 8/11/3 5/10/3 1/9/3
f 6/16/4 7/15/4 3/14/4 4/13/4
f 5/20/5 6/19/5 4/18/5 1/17/5
f 3/24/6 7/23/6 8/22/6 2/21/6
o group920919526
g mesh920919526
usemtl mat21
f 12/28/7 11/27/7 10/26/7 9/25/7
f 16/32/8 15/31/8 14/30/8 13/29/8
f 10/36/9 16/35/9 13/34/9 9/33/9
f 14/40/10 15/39/10 11/38/10 12/37/10
f 13/44/11 14/43/11 12/42/11 9/41/11
f 11/48/12 15/47/12 16/46/12 10/45/12
o group158772614
g mesh158772614
usemtl mat21
f 20/52/13 19/51/13 18/50/13 17/49/13
f 24/56/14 23/55/14 22/54/14 21/53/14
f 18/60/15 24/59/15 21/58/15 17/57/15
f 22/64/16 23/63/16 19/62/16 20/61/16
f 21/68/17 22/67/17 20/66/17 17/65/17
f 19/72/18 23/71/18 24/70/18 18/69/18
o group1971642292
g mesh1971642292
usemtl mat21
f 28/76/19 27/75/19 26/74/19 25/73/19
f 32/80/20 31/79/20 30/78/20 29/77/20
f 26/84/21 32/83/21 29/82/21 25/81/21
f 30/88/22 31/87/22 27/86/22 28/85/22
f 29/92/23 30/91/23 28/90/23 25/89/23
f 27/96/24 31/95/24 32/94/24 26/93/24
o group788698595
g mesh788698595
usemtl mat21
f 36/100/25 35/99/25 34/98/25 33/97/25
f 40/104/26 39/103/26 38/102/26 37/101/26
f 34/108/27 40/107/27 37/106/27 33/105/27
f 38/112/28 39/111/28 35/110/28 36/109/28
f 37/116/29 38/115/29 36/114/29 33/113/29
f 35/120/30 39/119/30 40/118/30 34/117/30
o group166996187
g mesh166996187
usemtl mat21
f 44/124/31 43/123/31 42/122/31 41/121/31
f 48/128/32 47/127/32 46/126/32 45/125/32
f 42/132/33 48/131/33 45/130/33 41/129/33
f 46/136/34 47/135/34 43/134/34 44/133/34
f 45/140/35 46/139/35 44/138/35 41/137/35
f 43/144/36 47/143/36 48/142/36 42/141/36
o group2124467
g mesh2124467
usemtl mat21
f 52/148/37 51/147/37 50/146/37 49/145/37
f 56/152/38 55/151/38 54/150/38 53/149/38
f 50/156/39 56/155/39 53/154/39 49/153/39
f 54/160/40 55/159/40 51/158/40 52/157/40
f 53/164/41 54/163/41 52/162/41 49/161/41
f 51/168/42 55/167/42 56/166/42 50/165/42
o group1431939213
g mesh1431939213
usemtl mat21
f 60/172/43 59/171/43 58/170/43 57/169/43
f 64/176/44 63/175/44 62/174/44 61/173/44
f 58/180/45 64/179/45 61/178/45 57/177/45
f 62/184/46 63/183/46 59/182/46 60/181/46
f 61/188/47 62/187/47 60/186/47 57/185/47
f 59/192/48 63/191/48 64/190/48 58/189/48
