mtllib materials.mtl
v 0.05999994 -0.00999999 -0.00999999
v 0.05999994 -0.00999999 0.00999999
v 0.05999994 0.00999999 0.00999999
v 0.05999994 0.00999999 -0.00999999
v -0.05999994 -0.00999999 -0.00999999
v -0.05999994 0.00999999 -0.00999999
v -0.05999994 0.00999999 0.00999999
v -0.05999994 -0.00999999 0.00999999
vn 1 0 1.748456E-07
vn -1 0 -1.748456E-07
vn 3.057097E-14 -1 -1.748456E-07
vn -3.057097E-14 1 1.748456E-07
vn 1.748456E-07 1.748456E-07 -1
vn -1.748456E-07 -1.748456E-07 1
vt 0.1046229 -0.197621
vt 0.1062503 -0.1987835
vt 0.1074128 -0.197156
vt 0.1057853 -0.1959936
vt -0.1046229 -0.197621
vt -0.1057853 -0.1959936
vt -0.1074128 -0.197156
vt -0.1062503 -0.1987835
vt 0.1331892 -0.221713
vt 0.1291532 -0.2330139
vt 0.1310367 -0.2336865
vt 0.1350727 -0.2223856
vt -0.1331892 -0.221713
vt -0.1350727 -0.2223856
vt -0.1310367 -0.2336865
vt -0.1291532 -0.2330139
vt 0.01609967 -0.1914074
vt 0.01431082 -0.1905129
vt 0.008944264 -0.2012461
vt 0.01073312 -0.2021405
vt -0.01609967 -0.1914074
vt -0.01073312 -0.2021405
vt -0.008944264 -0.2012461
vt -0.01431082 -0.1905129
o group1444649188
g mesh1444649188
usemtl mat21
f 4/4/1 3/3/1 2/2/1 1/1/1
f 8/8/2 7/7/2 6/6/2 5/5/2
f 2/12/3 8/11/3 5/10/3 1/9/3
f 6/16/4 7/15/4 3/14/4 4/13/4
f 5/20/5 6/19/5 4/18/5 1/17/5
f 3/24/6 7/23/6 8/22/6 2/21/6
