mtllib materials.mtl
v 0.00999999 0.03500001 0.00999999
v 0.00999999 0.05499999 0.00999999
v 0.00999999 0.05499999 -0.00999999
v 0.00999999 0.03500001 -0.00999999
v -0.00999999 0.03500001 0.00999999
v -0.00999999 0.03500001 -0.00999999
v -0.00999999 0.05499999 -0.00999999
v -0.00999999 0.05499999 0.00999999
v 0.00999999 -0.105 -0.00999999
v 0.00999999 -0.105 0.00999999
v 0.00999999 0.015 0.00999999
v 0.00999999 0.015 -0.00999999
v -0.00999999 -0.105 -0.00999999
v -0.00999999 0.015 -0.00999999
v -0.00999999 0.015 0.00999999
v -0.00999999 -0.105 0.00999999
vn 1 0 1.748456E-07
vn -1 0 -1.748456E-07
vn -1.748456E-07 1.192093E-07 1
vn 1.748456E-07 -1.192093E-07 -1
vn 0 -1 1.192093E-07
vn 0 1 -1.192093E-07
vn 1 0 0
vn -1 0 0
vn 0 -1 0
vn 0 1 0
vn 0 0 -1
vn 0 0 1
vt 0.1109002 -0.04603408
vt 0.1120627 -0.04440662
vt 0.1104352 -0.04324414
vt 0.1092728 -0.0448716
vt -0.1109002 -0.04603408
vt -0.1092728 -0.0448716
vt -0.1104352 -0.04324414
vt -0.1120627 -0.04440662
vt -0.02012464 0.1006231
vt -0.01923021 0.09883422
vt -0.01744136 0.09972864
vt -0.01833578 0.1015175
vt 0.02012463 0.1006231
vt 0.01833578 0.1015175
vt 0.01744136 0.09972864
vt 0.01923021 0.09883422
vt 0.1434811 0.0538811
vt 0.1415976 0.05455377
vt 0.140925 0.05267029
vt 0.1428084 0.05199761
vt -0.1434811 0.0538811
vt -0.1428084 0.05199761
vt -0.140925 0.05267029
vt -0.1415976 0.05455377
vt 0.1011354 -0.05626386
vt 0.1027629 -0.05742634
vt 0.1097378 -0.04766154
vt 0.1081103 -0.04649906
vt -0.1011354 -0.05626386
vt -0.1081103 -0.04649906
vt -0.1097378 -0.04766154
vt -0.1027629 -0.05742634
vt 0.1415976 0.05455376
vt 0.140925 0.05267028
vt 0.1428084 0.05199761
vt 0.1434811 0.05388109
vt -0.1415976 0.05455376
vt -0.1434811 0.05388109
vt -0.1428084 0.05199761
vt -0.140925 0.05267028
vt 0.03264659 0.09436207
vt 0.02191347 0.09972863
vt 0.02101904 0.09793977
vt 0.03175217 0.09257321
vt -0.03264659 0.09436207
vt -0.03175217 0.09257321
vt -0.02101904 0.09793977
vt -0.02191347 0.09972863
o group2019929357
g mesh2019929357
usemtl mat21
f 4/4/1 3/3/1 2/2/1 1/1/1
f 8/8/2 7/7/2 6/6/2 5/5/2
f 2/12/3 8/11/3 5/10/3 1/9/3
f 6/16/4 7/15/4 3/14/4 4/13/4
f 5/20/5 6/19/5 4/18/5 1/17/5
f 3/24/6 7/23/6 8/22/6 2/21/6
o group297101757
g mesh297101757
usemtl mat21
f 12/28/7 11/27/7 10/26/7 9/25/7
f 16/32/8 15/31/8 14/30/8 13/29/8
f 10/36/9 16/35/9 13/34/9 9/33/9
f 14/40/10 15/39/10 11/38/10 12/37/10
f 13/44/11 14/43/11 12/42/11 9/41/11
f 11/48/12 15/47/12 16/46/12 10/45/12
