mtllib materials.mtl
v 0.0528571 -0.06285715 0.00999999
v 0.0528571 0.09714286 0.00999999
v 0.0528571 0.09714286 -0.00999999
v 0.0528571 -0.06285715 -0.00999999
v 0.03285712 -0.06285715 0.00999999
v 0.03285712 -0.06285715 -0.00999999
v 0.03285712 0.09714286 -0.00999999
v 0.03285712 0.09714286 0.00999999
v 0.03285712 -0.002857137 -0.00999999
v 0.03285712 -0.002857137 0.00999999
v 0.03285712 0.01714286 0.00999999
v 0.03285712 0.01714286 -0.00999999
v 0.01285714 -0.002857137 -0.00999999
v 0.01285714 0.01714286 -0.00999999
v 0.01285714 0.01714286 0.00999999
v 0.01285714 -0.002857137 0.00999999
v 0.01285714 0.01714286 -0.00999999
v 0.01285714 0.01714286 0.00999999
v 0.01285714 0.03714285 0.00999999
v 0.01285714 0.03714285 -0.00999999
v -0.007142842 0.01714286 -0.00999999
v -0.007142842 0.03714285 -0.00999999
v -0.007142842 0.03714285 0.00999999
v -0.007142842 0.01714286 0.00999999
v -0.007142901 0.03714285 -0.00999999
v -0.007142901 0.03714285 0.00999999
v -0.007142901 0.05714285 0.00999999
v -0.007142901 0.05714285 -0.00999999
v -0.02714288 0.03714285 -0.00999999
v -0.02714288 0.05714285 -0.00999999
v -0.02714288 0.05714285 0.00999999
v -0.02714288 0.03714285 0.00999999
v 0.01285714 -0.02285714 -0.00999999
v 0.01285714 -0.02285714 0.00999999
v 0.01285714 -0.002857145 0.00999999
v 0.01285714 -0.002857145 -0.00999999
v -0.007142842 -0.02285714 -0.00999999
v -0.007142842 -0.002857145 -0.00999999
v -0.007142842 -0.002857145 0.00999999
v -0.007142842 -0.02285714 0.00999999
v -0.007142901 -0.04285714 -0.00999999
v -0.007142901 -0.04285714 0.00999999
v -0.007142901 -0.02285714 0.00999999
v -0.007142901 -0.02285714 -0.00999999
v -0.02714288 -0.04285714 -0.00999999
v -0.02714288 -0.02285714 -0.00999999
v -0.02714288 -0.02285714 0.00999999
v -0.02714288 -0.04285714 0.00999999
v -0.02714288 -0.06285714 -0.00999999
v -0.02714288 -0.06285714 0.00999999
v -0.02714288 -0.04285714 0.00999999
v -0.02714288 -0.04285714 -0.00999999
v -0.04714286 -0.06285714 -0.00999999
v -0.04714286 -0.04285714 -0.00999999
v -0.04714286 -0.04285714 0.00999999
v -0.04714286 -0.06285714 0.00999999
vn 1 -6.394885E-14 1.748456E-07
vn -1 6.394885E-14 -1.748456E-07
vn -1.748456E-07 -1.788139E-07 1
vn 1.748456E-07 1.788139E-07 -1
vn -7.105427E-15 -1 -1.788139E-07
vn 7.105427E-15 1 1.788139E-07
vn 1 0 0
vn -1 0 0
vn 0 -1 0
vn 0 1 0
vn 0 0 -1
vn 0 0 1
vn 1 0 0
vn -1 0 0
vn 0 -1 0
vn 0 1 0
vn 0 0 -1
vn 0 0 1
vn 1 0 0
vn -1 0 0
vn 0 -1 0
vn 0 1 0
vn 0 0 -1
vn 0 0 1
vn 1 0 0
vn -1 0 0
vn 0 -1 0
vn 0 1 0
vn 0 0 -1
vn 0 0 1
vn 1 0 0
vn -1 0 0
vn 0 -1 0
vn 0 1 0
vn 0 0 -1
vn 0 0 1
vn 1 0 0
vn -1 0 0
vn 0 -1 0
vn 0 1 0
vn 0 0 -1
vn 0 0 1
vt 0.09299807 -0.06765614
vt 0.1022979 -0.0546364
vt 0.1006704 -0.05347393
vt 0.09137061 -0.06649366
vt -0.09299807 -0.06765614
vt -0.09137061 -0.06649366
vt -0.1006704 -0.05347393
vt -0.1022979 -0.0546364
vt -0.04785184 0.09346767
vt -0.04695742 0.09167881
vt -0.03264658 0.09883423
vt -0.03354101 0.1006231
vt 0.04785184 0.09346767
vt 0.03354101 0.1006231
vt 0.03264658 0.09883423
vt 0.04695742 0.09167881
vt 0.1436156 0.0602042
vt 0.1417322 0.06087687
vt 0.1410595 0.05899339
vt 0.142943 0.05832071
vt -0.1436156 0.0602042
vt -0.142943 0.05832072
vt -0.1410595 0.05899339
vt -0.1417322 0.06087687
vt 0.09485808 -0.06161126
vt 0.09648554 -0.06277373
vt 0.09764802 -0.06114627
vt 0.09602056 -0.05998379
vt -0.09485808 -0.06161126
vt -0.09602056 -0.05998379
vt -0.09764802 -0.06114627
vt -0.09648554 -0.06277373
vt 0.1410595 0.05899341
vt 0.1403868 0.05710992
vt 0.1422703 0.05643725
vt 0.142943 0.05832073
vt -0.1410595 0.05899341
vt -0.142943 0.05832073
vt -0.1422703 0.05643725
vt -0.1403868 0.05710992
vt 0.04159087 0.09436207
vt 0.03980201 0.0952565
vt 0.03890758 0.09346765
vt 0.04069644 0.09257322
vt -0.04159087 0.09436207
vt -0.04069644 0.09257322
vt -0.03890758 0.09346765
vt -0.03980201 0.0952565
vt 0.09602056 -0.05998379
vt 0.09764802 -0.06114627
vt 0.09881049 -0.0595188
vt 0.09718303 -0.05835632
vt -0.09602056 -0.05998379
vt -0.09718303 -0.05835632
vt -0.09881049 -0.0595188
vt -0.09764802 -0.06114627
vt 0.1403868 0.05710992
vt 0.1397142 0.05522644
vt 0.1415976 0.05455377
vt 0.1422703 0.05643725
vt -0.1403868 0.05710992
vt -0.1422703 0.05643725
vt -0.1415976 0.05455377
vt -0.1397142 0.05522644
vt 0.03890758 0.09346765
vt 0.03711873 0.09436207
vt 0.0362243 0.09257322
vt 0.03801316 0.09167879
vt -0.03890758 0.09346765
vt -0.03801316 0.09167879
vt -0.0362243 0.09257322
vt -0.03711873 0.09436207
vt 0.09718303 -0.05835632
vt 0.09881049 -0.0595188
vt 0.09997298 -0.05789133
vt 0.0983455 -0.05672886
vt -0.09718303 -0.05835632
vt -0.0983455 -0.05672886
vt -0.09997298 -0.05789133
vt -0.09881049 -0.0595188
vt 0.1397142 0.05522643
vt 0.1390415 0.05334295
vt 0.140925 0.05267028
vt 0.1415976 0.05455376
vt -0.1397142 0.05522643
vt -0.1415976 0.05455376
vt -0.140925 0.05267028
vt -0.1390415 0.05334295
vt 0.0362243 0.09257321
vt 0.03443545 0.09346764
vt 0.03354102 0.09167878
vt 0.03532987 0.09078436
vt -0.0362243 0.09257321
vt -0.03532987 0.09078436
vt -0.03354102 0.09167878
vt -0.03443545 0.09346764
vt 0.0936956 -0.06323873
vt 0.09532307 -0.06440119
vt 0.09648554 -0.06277373
vt 0.09485808 -0.06161126
vt -0.0936956 -0.06323873
vt -0.09485808 -0.06161126
vt -0.09648554 -0.06277373
vt -0.09532307 -0.06440119
vt 0.1403868 0.05710992
vt 0.1397142 0.05522644
vt 0.1415976 0.05455377
vt 0.1422703 0.05643725
vt -0.1403868 0.05710992
vt -0.1422703 0.05643725
vt -0.1415976 0.05455377
vt -0.1397142 0.05522644
vt 0.04248529 0.09167879
vt 0.04069644 0.09257322
vt 0.03980201 0.09078436
vt 0.04159087 0.08988994
vt -0.04248529 0.09167879
vt -0.04159087 0.08988994
vt -0.03980201 0.09078436
vt -0.04069644 0.09257322
vt 0.09253313 -0.06486619
vt 0.09416059 -0.06602867
vt 0.09532307 -0.06440119
vt 0.0936956 -0.06323873
vt -0.09253313 -0.06486619
vt -0.0936956 -0.06323873
vt -0.09532307 -0.06440119
vt -0.09416059 -0.06602867
vt 0.1397142 0.05522643
vt 0.1390415 0.05334295
vt 0.140925 0.05267028
vt 0.1415976 0.05455376
vt -0.1397142 0.05522643
vt -0.1415976 0.05455376
vt -0.140925 0.05267028
vt -0.1390415 0.05334295
vt 0.04337972 0.0889955
vt 0.04159086 0.08988993
vt 0.04069644 0.08810108
vt 0.04248529 0.08720665
vt -0.04337972 0.0889955
vt -0.04248529 0.08720665
vt -0.04069644 0.08810108
vt -0.04159086 0.08988993
vt 0.09137065 -0.06649366
vt 0.09299812 -0.06765614
vt 0.09416059 -0.06602867
vt 0.09253313 -0.06486619
vt -0.09137065 -0.06649366
vt -0.09253313 -0.06486619
vt -0.09416059 -0.06602867
vt -0.09299812 -0.06765614
vt 0.1390415 0.05334295
vt 0.1383688 0.05145947
vt 0.1402523 0.0507868
vt 0.140925 0.05267028
vt -0.1390415 0.05334295
vt -0.140925 0.05267028
vt -0.1402523 0.0507868
vt -0.1383688 0.05145947
vt 0.04427415 0.08631223
vt 0.04248529 0.08720665
vt 0.04159087 0.0854178
vt 0.04337972 0.08452337
vt -0.04427415 0.08631223
vt -0.04337972 0.08452337
vt -0.04159087 0.0854178
vt -0.04248529 0.08720665
o group1968367274
g mesh1968367274
usemtl mat21
f 4/4/1 3/3/1 2/2/1 1/1/1
f 8/8/2 7/7/2 6/6/2 5/5/2
f 2/12/3 8/11/3 5/10/3 1/9/3
f 6/16/4 7/15/4 3/14/4 4/13/4
f 5/20/5 6/19/5 4/18/5 1/17/5
f 3/24/6 7/23/6 8/22/6 2/21/6
o group1778455812
g mesh1778455812
usemtl mat21
f 12/28/7 11/27/7 10/26/7 9/25/7
f 16/32/8 15/31/8 14/30/8 13/29/8
f 10/36/9 16/35/9 13/34/9 9/33/9
f 14/40/10 15/39/10 11/38/10 12/37/10
f 13/44/11 14/43/11 12/42/11 9/41/11
f 11/48/12 15/47/12 16/46/12 10/45/12
o group523142367
g mesh523142367
usemtl mat21
f 20/52/13 19/51/13 18/50/13 17/49/13
f 24/56/14 23/55/14 22/54/14 21/53/14
f 18/60/15 24/59/15 21/58/15 17/57/15
f 22/64/16 23/63/16 19/62/16 20/61/16
f 21/68/17 22/67/17 20/66/17 17/65/17
f 19/72/18 23/71/18 24/70/18 18/69/18
o group364255986
g mesh364255986
usemtl mat21
f 28/76/19 27/75/19 26/74/19 25/73/19
f 32/80/20 31/79/20 30/78/20 29/77/20
f 26/84/21 32/83/21 29/82/21 25/81/21
f 30/88/22 31/87/22 27/86/22 28/85/22
f 29/92/23 30/91/23 28/90/23 25/89/23
f 27/96/24 31/95/24 32/94/24 26/93/24
o group1045360014
g mesh1045360014
usemtl mat21
f 36/100/25 35/99/25 34/98/25 33/97/25
f 40/104/26 39/103/26 38/102/26 37/101/26
f 34/108/27 40/107/27 37/106/27 33/105/27
f 38/112/28 39/111/28 35/110/28 36/109/28
f 37/116/29 38/115/29 36/114/29 33/113/29
f 35/120/30 39/119/30 40/118/30 34/117/30
o group1972233218
g mesh1972233218
usemtl mat21
f 44/124/31 43/123/31 42/122/31 41/121/31
f 48/128/32 47/127/32 46/126/32 45/125/32
f 42/132/33 48/131/33 45/130/33 41/129/33
f 46/136/34 47/135/34 43/134/34 44/133/34
f 45/140/35 46/139/35 44/138/35 41/137/35
f 43/144/36 47/143/36 48/142/36 42/141/36
o group1300779400
g mesh1300779400
usemtl mat21
f 52/148/37 51/147/37 50/146/37 49/145/37
f 56/152/38 55/151/38 54/150/38 53/149/38
f 50/156/39 56/155/39 53/154/39 49/153/39
f 54/160/40 55/159/40 51/158/40 52/157/40
f 53/164/41 54/163/41 52/162/41 49/161/41
f 51/168/42 55/167/42 56/166/42 50/165/42
