mtllib materials.mtl
v 0.02333331 0.01999998 -0.00999999
v 0.02333331 0.01999998 0.01000001
v 0.02333331 0.03999996 0.01000001
v 0.02333331 0.03999996 -0.00999999
v 0.00333333 0.01999998 -0.00999999
v 0.00333333 0.03999996 -0.00999999
v 0.00333333 0.03999996 0.01000001
v 0.00333333 0.01999998 0.01000001
v 0.06333327 -0.08000016 -0.00999999
v 0.06333327 -0.08000016 0.01000001
v 0.06333327 0.07999992 0.01000001
v 0.06333327 0.07999992 -0.00999999
v 0.04333329 -0.08000016 -0.00999999
v 0.04333329 0.07999992 -0.00999999
v 0.04333329 0.07999992 0.01000001
v 0.04333329 -0.08000016 0.01000001
v 0.02333331 -0.01999998 -0.00999999
v 0.02333331 -0.01999998 0.01000001
v 0.02333331 0 0.01000001
v 0.02333331 0 -0.00999999
v 0.00333333 -0.01999998 -0.00999999
v 0.00333333 0 -0.00999999
v 0.00333333 0 0.01000001
v 0.00333333 -0.01999998 0.01000001
v -0.03666675 -0.08000004 -0.00999999
v -0.03666675 -0.08000004 0.01000001
v -0.03666675 -0.06000006 0.01000001
v -0.03666675 -0.06000006 -0.00999999
v -0.05666673 -0.08000004 -0.00999999
v -0.05666673 -0.06000006 -0.00999999
v -0.05666673 -0.06000006 0.01000001
v -0.05666673 -0.08000004 0.01000001
v 0.00333333 0.03999996 -0.00999999
v 0.00333333 0.03999996 0.01000001
v 0.00333333 0.05999994 0.01000001
v 0.00333333 0.05999994 -0.00999999
v -0.01666665 0.03999996 -0.00999999
v -0.01666665 0.05999994 -0.00999999
v -0.01666665 0.05999994 0.01000001
v -0.01666665 0.03999996 0.01000001
v -0.01666665 0.06000006 -0.00999999
v -0.01666665 0.06000006 0.01000001
v -0.01666665 0.08000004 0.01000001
v -0.01666665 0.08000004 -0.00999999
v -0.03666663 0.06000006 -0.00999999
v -0.03666663 0.08000004 -0.00999999
v -0.03666663 0.08000004 0.01000001
v -0.03666663 0.06000006 0.01000001
v -0.01666665 -0.06000006 -0.00999999
v -0.01666665 -0.06000006 0.01000001
v -0.01666665 -0.04000008 0.01000001
v -0.01666665 -0.04000008 -0.00999999
v -0.03666663 -0.06000006 -0.00999999
v -0.03666663 -0.04000008 -0.00999999
v -0.03666663 -0.04000008 0.01000001
v -0.03666663 -0.06000006 0.01000001
v 0.04333329 0 -0.00999999
v 0.04333329 0 0.01000001
v 0.04333329 0.01999998 0.01000001
v 0.04333329 0.01999998 -0.00999999
v 0.02333331 0 -0.00999999
v 0.02333331 0.01999998 -0.00999999
v 0.02333331 0.01999998 0.01000001
v 0.02333331 0 0.01000001
v 0.00333333 -0.03999996 -0.00999999
v 0.00333333 -0.03999996 0.01000001
v 0.00333333 -0.01999998 0.01000001
v 0.00333333 -0.01999998 -0.00999999
v -0.01666665 -0.03999996 -0.00999999
v -0.01666665 -0.01999998 -0.00999999
v -0.01666665 -0.01999998 0.01000001
v -0.01666665 -0.03999996 0.01000001
vn 1 0 0
vn -1 0 0
vn 0 -1 0
vn 0 1 0
vn 0 0 -1
vn 0 0 1
vn 1 0 0
vn -1 0 0
vn 0 -1 0
vn 0 1 0
vn 0 0 -1
vn 0 0 1
vn 1 0 0
vn -1 0 0
vn 0 -1 0
vn 0 1 0
vn 0 0 -1
vn 0 0 1
vn 1 0 0
vn -1 0 0
vn 0 -1 0
vn 0 1 0
vn 0 0 -1
vn 0 0 1
vn 1 0 0
vn -1 0 0
vn 0 -1 0
vn 0 1 0
vn 0 0 -1
vn 0 0 1
vn 1 0 0
vn -1 0 0
vn 0 -1 0
vn 0 1 0
vn 0 0 -1
vn 0 0 1
vn 1 0 0
vn -1 0 0
vn 0 -1 0
vn 0 1 0
vn 0 0 -1
vn 0 0 1
vn 1 0 0
vn -1 0 0
vn 0 -1 0
vn 0 1 0
vn 0 0 -1
vn 0 0 1
vn 1 0 0
vn -1 0 0
vn 0 -1 0
vn 0 1 0
vn 0 0 -1
vn 0 0 1
vt 0.1060179 0.1294999
vt 0.1076453 0.1283374
vt 0.1088078 0.1299649
vt 0.1071803 0.1311273
vt -0.1060179 0.1294999
vt -0.1071803 0.1311273
vt -0.1088078 0.1299649
vt -0.1076453 0.1283374
vt -0.04143664 -0.148728
vt -0.04210932 -0.1506114
vt -0.04022583 -0.1512841
vt -0.03955316 -0.1494006
vt 0.04143664 -0.148728
vt 0.03955316 -0.1494006
vt 0.04022583 -0.1512841
vt 0.04210932 -0.1506114
vt -0.2182402 -0.06305712
vt -0.2200291 -0.06216269
vt -0.2209235 -0.06395154
vt -0.2191347 -0.06484597
vt 0.2182402 -0.06305712
vt 0.2191347 -0.06484597
vt 0.2209235 -0.06395154
vt 0.2200291 -0.06216269
vt 0.1002055 0.1213625
vt 0.1018329 0.1202001
vt 0.1111328 0.1332198
vt 0.1095053 0.1343823
vt -0.1002055 0.1213625
vt -0.1095053 0.1343823
vt -0.1111328 0.1332198
vt -0.1018329 0.1202001
vt -0.0400913 -0.144961
vt -0.04076397 -0.1468445
vt -0.03888049 -0.1475171
vt -0.03820782 -0.1456337
vt 0.0400913 -0.144961
vt 0.03820782 -0.1456337
vt 0.03888049 -0.1475171
vt 0.04076397 -0.1468445
vt -0.2075071 -0.06395156
vt -0.2218179 -0.05679613
vt -0.2227124 -0.05858499
vt -0.2084015 -0.06574041
vt 0.2075071 -0.06395156
vt 0.2084015 -0.06574041
vt 0.2227124 -0.05858499
vt 0.2218179 -0.05679613
vt 0.1036929 0.1262449
vt 0.1053204 0.1250825
vt 0.1064828 0.1267099
vt 0.1048554 0.1278724
vt -0.1036929 0.1262449
vt -0.1048554 0.1278724
vt -0.1064828 0.1267099
vt -0.1053204 0.1250825
vt -0.04143664 -0.148728
vt -0.04210932 -0.1506114
vt -0.04022583 -0.1512841
vt -0.03955316 -0.1494006
vt 0.04143664 -0.148728
vt 0.03955316 -0.1494006
vt 0.04022583 -0.1512841
vt 0.04210932 -0.1506114
vt -0.2146625 -0.06484597
vt -0.2164514 -0.06395154
vt -0.2173458 -0.0657404
vt -0.2155569 -0.06663482
vt 0.2146625 -0.06484597
vt 0.2155569 -0.06663482
vt 0.2173458 -0.0657404
vt 0.2164514 -0.06395154
vt 0.1002055 0.1213625
vt 0.1018329 0.1202001
vt 0.1029954 0.1218275
vt 0.101368 0.12299
vt -0.1002055 0.1213625
vt -0.101368 0.12299
vt -0.1029954 0.1218275
vt -0.1018329 0.1202001
vt -0.04345467 -0.1543784
vt -0.04412734 -0.1562619
vt -0.04224385 -0.1569346
vt -0.04157118 -0.1550511
vt 0.04345467 -0.1543784
vt 0.04157118 -0.1550511
vt 0.04224385 -0.1569346
vt 0.04412734 -0.1562619
vt -0.2119792 -0.07289582
vt -0.2137681 -0.0720014
vt -0.2146625 -0.07379025
vt -0.2128737 -0.07468468
vt 0.2119792 -0.07289582
vt 0.2128737 -0.07468468
vt 0.2146625 -0.07379025
vt 0.2137681 -0.0720014
vt 0.1071803 0.1311273
vt 0.1088078 0.1299649
vt 0.1099703 0.1315923
vt 0.1083428 0.1327548
vt -0.1071803 0.1311273
vt -0.1083428 0.1327548
vt -0.1099703 0.1315923
vt -0.1088078 0.1299649
vt -0.04210932 -0.1506114
vt -0.04278199 -0.1524949
vt -0.04089851 -0.1531676
vt -0.04022583 -0.1512841
vt 0.04210932 -0.1506114
vt 0.04022583 -0.1512841
vt 0.04089851 -0.1531676
vt 0.04278199 -0.1524949
vt -0.2209235 -0.06395154
vt -0.2227124 -0.06305712
vt -0.2236068 -0.06484597
vt -0.2218179 -0.0657404
vt 0.2209235 -0.06395154
vt 0.2218179 -0.0657404
vt 0.2236068 -0.06484597
vt 0.2227124 -0.06305712
vt 0.1083428 0.1327548
vt 0.1099703 0.1315923
vt 0.1111328 0.1332198
vt 0.1095053 0.1343823
vt -0.1083428 0.1327548
vt -0.1095053 0.1343823
vt -0.1111328 0.1332198
vt -0.1099703 0.1315923
vt -0.04278199 -0.1524949
vt -0.04345466 -0.1543784
vt -0.04157118 -0.1550511
vt -0.04089851 -0.1531676
vt 0.04278199 -0.1524949
vt 0.04089851 -0.1531676
vt 0.04157118 -0.1550511
vt 0.04345466 -0.1543784
vt -0.2236068 -0.06484596
vt -0.2253956 -0.06395154
vt -0.2262901 -0.06574039
vt -0.2245012 -0.06663482
vt 0.2236068 -0.06484596
vt 0.2245012 -0.06663482
vt 0.2262901 -0.06574039
vt 0.2253956 -0.06395154
vt 0.101368 0.12299
vt 0.1029954 0.1218275
vt 0.1041579 0.123455
vt 0.1025304 0.1246175
vt -0.101368 0.12299
vt -0.1025304 0.1246175
vt -0.1041579 0.123455
vt -0.1029954 0.1218275
vt -0.04278199 -0.1524949
vt -0.04345466 -0.1543784
vt -0.04157118 -0.1550511
vt -0.04089851 -0.1531676
vt 0.04278199 -0.1524949
vt 0.04089851 -0.1531676
vt 0.04157118 -0.1550511
vt 0.04345466 -0.1543784
vt -0.2128737 -0.07021254
vt -0.2146625 -0.06931811
vt -0.2155569 -0.07110696
vt -0.2137681 -0.07200138
vt 0.2128737 -0.07021254
vt 0.2137681 -0.07200138
vt 0.2155569 -0.07110696
vt 0.2146625 -0.06931811
vt 0.1048554 0.1278724
vt 0.1064828 0.1267099
vt 0.1076453 0.1283374
vt 0.1060179 0.1294999
vt -0.1048554 0.1278724
vt -0.1060179 0.1294999
vt -0.1076453 0.1283374
vt -0.1064828 0.1267099
vt -0.04076397 -0.1468445
vt -0.04143664 -0.148728
vt -0.03955316 -0.1494006
vt -0.03888049 -0.1475171
vt 0.04076397 -0.1468445
vt 0.03888049 -0.1475171
vt 0.03955316 -0.1494006
vt 0.04143664 -0.148728
vt -0.2155569 -0.06216269
vt -0.2173458 -0.06126826
vt -0.2182402 -0.06305712
vt -0.2164514 -0.06395154
vt 0.2155569 -0.06216269
vt 0.2164514 -0.06395154
vt 0.2182402 -0.06305712
vt 0.2173458 -0.06126826
vt 0.1025304 0.1246175
vt 0.1041579 0.123455
vt 0.1053204 0.1250825
vt 0.1036929 0.1262449
vt -0.1025304 0.1246175
vt -0.1036929 0.1262449
vt -0.1053204 0.1250825
vt -0.1041579 0.123455
vt -0.04210932 -0.1506114
vt -0.04278199 -0.1524949
vt -0.04089851 -0.1531676
vt -0.04022583 -0.1512841
vt 0.04210932 -0.1506114
vt 0.04022583 -0.1512841
vt 0.04089851 -0.1531676
vt 0.04278199 -0.1524949
vt -0.2137681 -0.06752925
vt -0.2155569 -0.06663482
vt -0.2164514 -0.06842367
vt -0.2146625 -0.0693181
vt 0.2137681 -0.06752925
vt 0.2146625 -0.0693181
vt 0.2164514 -0.06842367
vt 0.2155569 -0.06663482
o group1176970359
g mesh1176970359
usemtl mat21
f 4/4/1 3/3/1 2/2/1 1/1/1
f 8/8/2 7/7/2 6/6/2 5/5/2
f 2/12/3 8/11/3 5/10/3 1/9/3
f 6/16/4 7/15/4 3/14/4 4/13/4
f 5/20/5 6/19/5 4/18/5 1/17/5
f 3/24/6 7/23/6 8/22/6 2/21/6
o group1530179989
g mesh1530179989
usemtl mat21
f 12/28/7 11/27/7 10/26/7 9/25/7
f 16/32/8 15/31/8 14/30/8 13/29/8
f 10/36/9 16/35/9 13/34/9 9/33/9
f 14/40/10 15/39/10 11/38/10 12/37/10
f 13/44/11 14/43/11 12/42/11 9/41/11
f 11/48/12 15/47/12 16/46/12 10/45/12
o group550263182
g mesh550263182
usemtl mat21
f 20/52/13 19/51/13 18/50/13 17/49/13
f 24/56/14 23/55/14 22/54/14 21/53/14
f 18/60/15 24/59/15 21/58/15 17/57/15
f 22/64/16 23/63/16 19/62/16 20/61/16
f 21/68/17 22/67/17 20/66/17 17/65/17
f 19/72/18 23/71/18 24/70/18 18/69/18
o group2014499624
g mesh2014499624
usemtl mat21
f 28/76/19 27/75/19 26/74/19 25/73/19
f 32/80/20 31/79/20 30/78/20 29/77/20
f 26/84/21 32/83/21 29/82/21 25/81/21
f 30/88/22 31/87/22 27/86/22 28/85/22
f 29/92/23 30/91/23 28/90/23 25/89/23
f 27/96/24 31/95/24 32/94/24 26/93/24
o group1003239570
g mesh1003239570
usemtl mat21
f 36/100/25 35/99/25 34/98/25 33/97/25
f 40/104/26 39/103/26 38/102/26 37/101/26
f 34/108/27 40/107/27 37/106/27 33/105/27
f 38/112/28 39/111/28 35/110/28 36/109/28
f 37/116/29 38/115/29 36/114/29 33/113/29
f 35/120/30 39/119/30 40/118/30 34/117/30
o group245267373
g mesh245267373
usemtl mat21
f 44/124/31 43/123/31 42/122/31 41/121/31
f 48/128/32 47/127/32 46/126/32 45/125/32
f 42/132/33 48/131/33 45/130/33 41/129/33
f 46/136/34 47/135/34 43/134/34 44/133/34
f 45/140/35 46/139/35 44/138/35 41/137/35
f 43/144/36 47/143/36 48/142/36 42/141/36
o group989457603
g mesh989457603
usemtl mat21
f 52/148/37 51/147/37 50/146/37 49/145/37
f 56/152/38 55/151/38 54/150/38 53/149/38
f 50/156/39 56/155/39 53/154/39 49/153/39
f 54/160/40 55/159/40 51/158/40 52/157/40
f 53/164/41 54/163/41 52/162/41 49/161/41
f 51/168/42 55/167/42 56/166/42 50/165/42
o group235629458
g mesh235629458
usemtl mat21
f 60/172/43 59/171/43 58/170/43 57/169/43
f 64/176/44 63/175/44 62/174/44 61/173/44
f 58/180/45 64/179/45 61/178/45 57/177/45
f 62/184/46 63/183/46 59/182/46 60/181/46
f 61/188/47 62/187/47 60/186/47 57/185/47
f 59/192/48 63/191/48 64/190/48 58/189/48
o group172763215
g mesh172763215
usemtl mat21
f 68/196/49 67/195/49 66/194/49 65/193/49
f 72/200/50 71/199/50 70/198/50 69/197/50
f 66/204/51 72/203/51 69/202/51 65/201/51
f 70/208/52 71/207/52 67/206/52 68/205/52
f 69/212/53 70/211/53 68/210/53 65/209/53
f 67/216/54 71/215/54 72/214/54 66/213/54
