mtllib materials.mtl
v 0.00999999 -0.08000001 0.00999999
v 0.00999999 0.08 0.00999999
v 0.00999999 0.08 -0.00999999
v 0.00999999 -0.08000001 -0.00999999
v -0.00999999 -0.08000001 0.00999999
v -0.00999999 -0.08000001 -0.00999999
v -0.00999999 0.08 -0.00999999
v -0.00999999 0.08 0.00999999
vn 1 0 1.748456E-07
vn -1 0 -1.748456E-07
vn -1.748456E-07 1.192093E-07 1
vn 1.748456E-07 -1.192093E-07 -1
vn 0 -1 1.192093E-07
vn 0 1 -1.192093E-07
vt 0.09439305 -0.06742365
vt 0.1036929 -0.05440391
vt 0.1020654 -0.05324144
vt 0.09276558 -0.06626117
vt -0.09439305 -0.06742365
vt -0.09276558 -0.06626117
vt -0.1020654 -0.05324144
vt -0.1036929 -0.05440391
vt -0.04024925 0.08049845
vt -0.03935483 0.0787096
vt -0.02504399 0.08586502
vt -0.02593842 0.08765387
vt 0.04024925 0.08049845
vt 0.02593842 0.08765387
vt 0.02504399 0.08586502
vt 0.03935483 0.0787096
vt 0.1395123 0.04574176
vt 0.1376289 0.04641443
vt 0.1369562 0.04453095
vt 0.1388397 0.04385827
vt -0.1395123 0.04574176
vt -0.1388397 0.04385827
vt -0.1369562 0.04453095
vt -0.1376289 0.04641443
o group1968367274
g mesh1968367274
usemtl mat21
f 4/4/1 3/3/1 2/2/1 1/1/1
f 8/8/2 7/7/2 6/6/2 5/5/2
f 2/12/3 8/11/3 5/10/3 1/9/3
f 6/16/4 7/15/4 3/14/4 4/13/4
f 5/20/5 6/19/5 4/18/5 1/17/5
f 3/24/6 7/23/6 8/22/6 2/21/6
