mtllib materials.mtl
v 0.02499998 -0.04750001 -0.009999998
v 0.02499998 -0.04750001 0.009999998
v 0.02499998 -0.02750003 0.009999998
v 0.02499998 -0.02750003 -0.009999998
v -0.05499995 -0.04750001 -0.009999998
v -0.05499995 -0.02750003 -0.009999998
v -0.05499995 -0.02750003 0.009999998
v -0.05499995 -0.04750001 0.009999998
v 0.02499998 -0.03750002 0.01000001
v 0.02499998 0.1125001 0.00999999
v 0.02499998 0.1125001 -0.01000001
v 0.02499998 -0.03750002 -0.00999999
v 0.004999995 -0.03750002 0.01000001
v 0.004999995 -0.03750002 -0.00999999
v 0.004999995 0.1125001 -0.01000001
v 0.004999995 0.1125001 0.00999999
vn 1 0 0
vn -1 0 0
vn 0 -1 0
vn 0 1 0
vn 0 0 -1
vn 0 0 1
vn 1 0 1.748456E-07
vn -1 0 -1.748456E-07
vn -1.748456E-07 1.192093E-07 1
vn 1.748456E-07 -1.192093E-07 -1
vn 0 -1 1.192093E-07
vn 0 1 -1.192093E-07
vt 0.09939174 0.1219438
vt 0.1010192 0.1207813
vt 0.1021817 0.1224088
vt 0.1005542 0.1235712
vt -0.09939174 0.1219438
vt -0.1005542 0.1235712
vt -0.1021817 0.1224088
vt -0.1010192 0.1207813
vt -0.04641442 -0.1596925
vt -0.04910511 -0.1672265
vt -0.04722163 -0.1678991
vt -0.04453094 -0.1603652
vt 0.04641442 -0.1596925
vt 0.04453094 -0.1603652
vt 0.04722163 -0.1678991
vt 0.04910511 -0.1672265
vt -0.2146625 -0.07826238
vt -0.2164514 -0.07736795
vt -0.2200291 -0.08452336
vt -0.2182402 -0.08541779
vt 0.2146625 -0.07826238
vt 0.2182402 -0.08541779
vt 0.2200291 -0.08452336
vt 0.2164514 -0.07736795
vt 0.1016005 0.121595
vt 0.1103191 0.133801
vt 0.1086916 0.1349635
vt 0.09997302 0.1227575
vt -0.1016005 0.121595
vt -0.09997302 0.1227575
vt -0.1086916 0.1349635
vt -0.1103191 0.133801
vt 0.2155569 -0.07781516
vt 0.2164514 -0.07960401
vt 0.2298678 -0.0728958
vt 0.2289734 -0.07110695
vt -0.2155569 -0.07781516
vt -0.2289734 -0.07110695
vt -0.2298678 -0.0728958
vt -0.2164514 -0.07960401
vt -0.04453091 -0.1603652
vt -0.04641439 -0.1596925
vt -0.04708707 -0.161576
vt -0.04520358 -0.1622487
vt 0.04453091 -0.1603652
vt 0.04520358 -0.1622487
vt 0.04708707 -0.161576
vt 0.04641439 -0.1596925
o group672325425
g mesh672325425
usemtl mat21
f 4/4/1 3/3/1 2/2/1 1/1/1
f 8/8/2 7/7/2 6/6/2 5/5/2
f 2/12/3 8/11/3 5/10/3 1/9/3
f 6/16/4 7/15/4 3/14/4 4/13/4
f 5/20/5 6/19/5 4/18/5 1/17/5
f 3/24/6 7/23/6 8/22/6 2/21/6
o group1488887082
g mesh1488887082
usemtl mat21
f 12/28/7 11/27/7 10/26/7 9/25/7
f 16/32/8 15/31/8 14/30/8 13/29/8
f 10/36/9 16/35/9 13/34/9 9/33/9
f 14/40/10 15/39/10 11/38/10 12/37/10
f 13/44/11 14/43/11 12/42/11 9/41/11
f 11/48/12 15/47/12 16/46/12 10/45/12
