mtllib materials.mtl
v 0.07000005 -0.07999995 0.00999999
v 0.07000005 0.04000006 0.00999999
v 0.07000005 0.04000006 -0.00999999
v 0.07000005 -0.07999995 -0.00999999
v 0.05000007 -0.07999995 0.00999999
v 0.05000007 -0.07999995 -0.00999999
v 0.05000007 0.04000006 -0.00999999
v 0.05000007 0.04000006 0.00999999
v 0.05000007 0 -0.00999999
v 0.05000007 0 0.00999999
v 0.05000007 0.02 0.00999999
v 0.05000007 0.02 -0.00999999
v 0.03000009 0 -0.00999999
v 0.03000009 0.02 -0.00999999
v 0.03000009 0.02 0.00999999
v 0.03000009 0 0.00999999
v 0.03000003 0.02 -0.00999999
v 0.03000003 0.02 0.00999999
v 0.03000003 0.03999999 0.00999999
v 0.03000003 0.03999999 -0.00999999
v 0.01000005 0.02 -0.00999999
v 0.01000005 0.03999999 -0.00999999
v 0.01000005 0.03999999 0.00999999
v 0.01000005 0.02 0.00999999
v 0.01000005 -0.08 -0.00999999
v 0.01000005 -0.08 0.00999999
v 0.01000005 0.02 0.00999999
v 0.01000005 0.02 -0.00999999
v -0.009999931 -0.08 -0.00999999
v -0.009999931 0.02 -0.00999999
v -0.009999931 0.02 0.00999999
v -0.009999931 -0.08 0.00999999
v -0.009999931 0 -0.00999999
v -0.009999931 0 0.00999999
v -0.009999931 0.02 0.00999999
v -0.009999931 0.02 -0.00999999
v -0.02999991 0 -0.00999999
v -0.02999991 0.02 -0.00999999
v -0.02999991 0.02 0.00999999
v -0.02999991 0 0.00999999
v -0.02999997 0.02 -0.00999999
v -0.02999997 0.02 0.00999999
v -0.02999997 0.03999999 0.00999999
v -0.02999997 0.03999999 -0.00999999
v -0.04999995 0.02 -0.00999999
v -0.04999995 0.03999999 -0.00999999
v -0.04999995 0.03999999 0.00999999
v -0.04999995 0.02 0.00999999
v -0.04999995 -0.08 -0.00999999
v -0.04999995 -0.08 0.00999999
v -0.04999995 0.02 0.00999999
v -0.04999995 0.02 -0.00999999
v -0.06999993 -0.08 -0.00999999
v -0.06999993 0.02 -0.00999999
v -0.06999993 0.02 0.00999999
v -0.06999993 -0.08 0.00999999
vn 1 0 1.748456E-07
vn -1 0 -1.748456E-07
vn -1.748456E-07 1.192093E-07 1
vn 1.748456E-07 -1.192093E-07 -1
vn 0 -1 1.192093E-07
vn 0 1 -1.192093E-07
vn 1 0 0
vn -1 0 0
vn 0 -1 0
vn 0 1 0
vn 0 0 -1
vn 0 0 1
vn 1 0 0
vn -1 0 0
vn 0 -1 0
vn 0 1 0
vn 0 0 -1
vn 0 0 1
vn 1 0 0
vn -1 0 0
vn 0 -1 0
vn 0 1 0
vn 0 0 -1
vn 0 0 1
vn 1 0 0
vn -1 0 0
vn 0 -1 0
vn 0 1 0
vn 0 0 -1
vn 0 0 1
vn 1 0 0
vn -1 0 0
vn 0 -1 0
vn 0 1 0
vn 0 0 -1
vn 0 0 1
vn 1 0 0
vn -1 0 0
vn 0 -1 0
vn 0 1 0
vn 0 0 -1
vn 0 0 1
vt 0.09381182 -0.06823737
vt 0.1007867 -0.05847257
vt 0.09915921 -0.0573101
vt 0.09218435 -0.06707489
vt -0.09381182 -0.06823737
vt -0.09218435 -0.06707489
vt -0.09915921 -0.0573101
vt -0.1007867 -0.05847257
vt -0.03801318 0.07379025
vt -0.03711875 0.07200141
vt -0.02638562 0.07736797
vt -0.02728005 0.07915682
vt 0.03801318 0.07379025
vt 0.02728005 0.07915682
vt 0.02638562 0.07736797
vt 0.03711875 0.07200141
vt 0.137158 0.03914956
vt 0.1352745 0.03982224
vt 0.1346018 0.03793876
vt 0.1364853 0.03726608
vt -0.137158 0.03914956
vt -0.1364853 0.03726608
vt -0.1346018 0.03793876
vt -0.1352745 0.03982224
vt 0.09683429 -0.06056502
vt 0.09846175 -0.0617275
vt 0.09962423 -0.06010004
vt 0.09799676 -0.05893756
vt -0.09683429 -0.06056502
vt -0.09799676 -0.05893756
vt -0.09962423 -0.06010004
vt -0.09846175 -0.0617275
vt 0.1346018 0.03793875
vt 0.1339292 0.03605527
vt 0.1358126 0.03538259
vt 0.1364853 0.03726608
vt -0.1346018 0.03793875
vt -0.1364853 0.03726608
vt -0.1358126 0.03538259
vt -0.1339292 0.03605527
vt 0.02996331 0.0755791
vt 0.02817446 0.07647353
vt 0.02728003 0.07468467
vt 0.02906889 0.07379024
vt -0.02996331 0.0755791
vt -0.02906889 0.07379024
vt -0.02728003 0.07468467
vt -0.02817446 0.07647353
vt 0.09799676 -0.05893756
vt 0.09962423 -0.06010004
vt 0.1007867 -0.05847257
vt 0.09915924 -0.05731009
vt -0.09799676 -0.05893756
vt -0.09915924 -0.05731009
vt -0.1007867 -0.05847257
vt -0.09962423 -0.06010004
vt 0.1339292 0.03605526
vt 0.1332565 0.03417178
vt 0.13514 0.03349911
vt 0.1358126 0.03538259
vt -0.1339292 0.03605526
vt -0.1358126 0.03538259
vt -0.13514 0.03349911
vt -0.1332565 0.03417178
vt 0.02728003 0.07468467
vt 0.02549117 0.0755791
vt 0.02459675 0.07379024
vt 0.0263856 0.07289582
vt -0.02728003 0.07468467
vt -0.0263856 0.07289582
vt -0.02459675 0.07379024
vt -0.02549117 0.0755791
vt 0.09218438 -0.06707489
vt 0.09381185 -0.06823737
vt 0.09962423 -0.06010004
vt 0.09799676 -0.05893756
vt -0.09218438 -0.06707489
vt -0.09799676 -0.05893756
vt -0.09962423 -0.06010004
vt -0.09381185 -0.06823737
vt 0.1332565 0.03417178
vt 0.1325838 0.03228829
vt 0.1344673 0.03161562
vt 0.13514 0.03349911
vt -0.1332565 0.03417178
vt -0.13514 0.03349911
vt -0.1344673 0.03161562
vt -0.1325838 0.03228829
vt 0.03532987 0.06842368
vt 0.0263856 0.07289582
vt 0.02549118 0.07110696
vt 0.03443545 0.06663483
vt -0.03532987 0.06842368
vt -0.03443545 0.06663483
vt -0.02549118 0.07110696
vt -0.0263856 0.07289582
vt 0.09683429 -0.06056502
vt 0.09846175 -0.0617275
vt 0.09962423 -0.06010004
vt 0.09799676 -0.05893756
vt -0.09683429 -0.06056502
vt -0.09799676 -0.05893756
vt -0.09962423 -0.06010004
vt -0.09846175 -0.0617275
vt 0.1325838 0.03228829
vt 0.1319111 0.03040482
vt 0.1337946 0.02973214
vt 0.1344673 0.03161562
vt -0.1325838 0.03228829
vt -0.1344673 0.03161562
vt -0.1337946 0.02973214
vt -0.1319111 0.03040482
vt 0.02728003 0.07021254
vt 0.02549118 0.07110696
vt 0.02459675 0.06931811
vt 0.02638561 0.06842369
vt -0.02728003 0.07021254
vt -0.02638561 0.06842369
vt -0.02459675 0.06931811
vt -0.02549118 0.07110696
vt 0.09799676 -0.05893756
vt 0.09962423 -0.06010004
vt 0.1007867 -0.05847257
vt 0.09915924 -0.05731009
vt -0.09799676 -0.05893756
vt -0.09915924 -0.05731009
vt -0.1007867 -0.05847257
vt -0.09962423 -0.06010004
vt 0.1319111 0.03040481
vt 0.1312385 0.02852133
vt 0.1331219 0.02784866
vt 0.1337946 0.02973213
vt -0.1319111 0.03040481
vt -0.1337946 0.02973213
vt -0.1331219 0.02784866
vt -0.1312385 0.02852133
vt 0.02459675 0.06931811
vt 0.02280789 0.07021254
vt 0.02191347 0.06842368
vt 0.02370232 0.06752925
vt -0.02459675 0.06931811
vt -0.02370232 0.06752925
vt -0.02191347 0.06842368
vt -0.02280789 0.07021254
vt 0.09218438 -0.06707489
vt 0.09381185 -0.06823737
vt 0.09962423 -0.06010004
vt 0.09799676 -0.05893756
vt -0.09218438 -0.06707489
vt -0.09799676 -0.05893756
vt -0.09962423 -0.06010004
vt -0.09381185 -0.06823737
vt 0.1312385 0.02852133
vt 0.1305658 0.02663784
vt 0.1324493 0.02596517
vt 0.1331219 0.02784866
vt -0.1312385 0.02852133
vt -0.1331219 0.02784866
vt -0.1324493 0.02596517
vt -0.1305658 0.02663784
vt 0.03264659 0.06305712
vt 0.02370232 0.06752925
vt 0.02280789 0.0657404
vt 0.03175217 0.06126826
vt -0.03264659 0.06305712
vt -0.03175217 0.06126826
vt -0.02280789 0.0657404
vt -0.02370232 0.06752925
o group1441482150
g mesh1441482150
usemtl mat21
f 4/4/1 3/3/1 2/2/1 1/1/1
f 8/8/2 7/7/2 6/6/2 5/5/2
f 2/12/3 8/11/3 5/10/3 1/9/3
f 6/16/4 7/15/4 3/14/4 4/13/4
f 5/20/5 6/19/5 4/18/5 1/17/5
f 3/24/6 7/23/6 8/22/6 2/21/6
o group1838328918
g mesh1838328918
usemtl mat21
f 12/28/7 11/27/7 10/26/7 9/25/7
f 16/32/8 15/31/8 14/30/8 13/29/8
f 10/36/9 16/35/9 13/34/9 9/33/9
f 14/40/10 15/39/10 11/38/10 12/37/10
f 13/44/11 14/43/11 12/42/11 9/41/11
f 11/48/12 15/47/12 16/46/12 10/45/12
o group314557247
g mesh314557247
usemtl mat21
f 20/52/13 19/51/13 18/50/13 17/49/13
f 24/56/14 23/55/14 22/54/14 21/53/14
f 18/60/15 24/59/15 21/58/15 17/57/15
f 22/64/16 23/63/16 19/62/16 20/61/16
f 21/68/17 22/67/17 20/66/17 17/65/17
f 19/72/18 23/71/18 24/70/18 18/69/18
o group2046547114
g mesh2046547114
usemtl mat21
f 28/76/19 27/75/19 26/74/19 25/73/19
f 32/80/20 31/79/20 30/78/20 29/77/20
f 26/84/21 32/83/21 29/82/21 25/81/21
f 30/88/22 31/87/22 27/86/22 28/85/22
f 29/92/23 30/91/23 28/90/23 25/89/23
f 27/96/24 31/95/24 32/94/24 26/93/24
o group1023282413
g mesh1023282413
usemtl mat21
f 36/100/25 35/99/25 34/98/25 33/97/25
f 40/104/26 39/103/26 38/102/26 37/101/26
f 34/108/27 40/107/27 37/106/27 33/105/27
f 38/112/28 39/111/28 35/110/28 36/109/28
f 37/116/29 38/115/29 36/114/29 33/113/29
f 35/120/30 39/119/30 40/118/30 34/117/30
o group484610641
g mesh484610641
usemtl mat21
f 44/124/31 43/123/31 42/122/31 41/121/31
f 48/128/32 47/127/32 46/126/32 45/125/32
f 42/132/33 48/131/33 45/130/33 41/129/33
f 46/136/34 47/135/34 43/134/34 44/133/34
f 45/140/35 46/139/35 44/138/35 41/137/35
f 43/144/36 47/143/36 48/142/36 42/141/36
o group280421632
g mesh280421632
usemtl mat21
f 52/148/37 51/147/37 50/146/37 49/145/37
f 56/152/38 55/151/38 54/150/38 53/149/38
f 50/156/39 56/155/39 53/154/39 49/153/39
f 54/160/40 55/159/40 51/158/40 52/157/40
f 53/164/41 54/163/41 52/162/41 49/161/41
f 51/168/42 55/167/42 56/166/42 50/165/42
