mtllib materials.mtl
v 0.04749995 -0.0775 -0.00999999
v 0.04749995 -0.0775 0.00999999
v 0.04749995 0.0425 0.00999999
v 0.04749995 0.0425 -0.00999999
v 0.02749997 -0.0775 -0.00999999
v 0.02749997 0.0425 -0.00999999
v 0.02749997 0.0425 0.00999999
v 0.02749997 -0.0775 0.00999999
v 0.02749997 0.002500005 -0.00999999
v 0.02749997 0.002500005 0.00999999
v 0.02749997 0.0225 0.00999999
v 0.02749997 0.0225 -0.00999999
v 0.007499993 0.002500005 -0.00999999
v 0.007499993 0.0225 -0.00999999
v 0.007499993 0.0225 0.00999999
v 0.007499993 0.002500005 0.00999999
v 0.007499933 0.0225 -0.00999999
v 0.007499933 0.0225 0.00999999
v 0.007499933 0.0425 0.00999999
v 0.007499933 0.0425 -0.00999999
v -0.03250003 0.0225 -0.00999999
v -0.03250003 0.0425 -0.00999999
v -0.03250003 0.0425 0.00999999
v -0.03250003 0.0225 0.00999999
v -0.03250003 -0.07749999 -0.00999999
v -0.03250003 -0.07749999 0.00999999
v -0.03250003 0.0225 0.00999999
v -0.03250003 0.0225 -0.00999999
v -0.05250001 -0.07749999 -0.00999999
v -0.05250001 0.0225 -0.00999999
v -0.05250001 0.0225 0.00999999
v -0.05250001 -0.07749999 0.00999999
vn 1 0 0
vn -1 0 0
vn 0 -1 0
vn 0 1 0
vn 0 0 -1
vn 0 0 1
vn 1 0 0
vn -1 0 0
vn 0 -1 0
vn 0 1 0
vn 0 0 -1
vn 0 0 1
vn 1 0 0
vn -1 0 0
vn 0 -1 0
vn 0 1 0
vn 0 0 -1
vn 0 0 1
vn 1 0 0
vn -1 0 0
vn 0 -1 0
vn 0 1 0
vn 0 0 -1
vn 0 0 1
vt 0.08939444 -0.06753989
vt 0.09102191 -0.06870236
vt 0.09799676 -0.05893756
vt 0.0963693 -0.05777509
vt -0.08939444 -0.06753989
vt -0.0963693 -0.05777509
vt -0.09799676 -0.05893756
vt -0.09102191 -0.06870236
vt 0.1256553 0.01883483
vt 0.1249826 0.01695135
vt 0.1268661 0.01627868
vt 0.1275388 0.01816216
vt -0.1256553 0.01883483
vt -0.1275388 0.01816216
vt -0.1268661 0.01627868
vt -0.1249826 0.01695135
vt 0.0295161 0.05232399
vt 0.01878297 0.05769055
vt 0.01788854 0.0559017
vt 0.02862167 0.05053513
vt -0.0295161 0.05232399
vt -0.02862167 0.05053513
vt -0.01788854 0.0559017
vt -0.01878297 0.05769055
vt 0.09404434 -0.06103002
vt 0.09567181 -0.06219249
vt 0.09683429 -0.06056502
vt 0.09520682 -0.05940255
vt -0.09404434 -0.06103002
vt -0.09520682 -0.05940255
vt -0.09683429 -0.06056502
vt -0.09567181 -0.06219249
vt 0.1249826 0.01695135
vt 0.1243099 0.01506787
vt 0.1261934 0.0143952
vt 0.1268661 0.01627868
vt -0.1249826 0.01695135
vt -0.1268661 0.01627868
vt -0.1261934 0.0143952
vt -0.1243099 0.01506787
vt 0.02146625 0.05411284
vt 0.0196774 0.05500727
vt 0.01878297 0.05321842
vt 0.02057183 0.05232399
vt -0.02146625 0.05411284
vt -0.02057183 0.05232399
vt -0.01878297 0.05321842
vt -0.0196774 0.05500727
vt 0.09520682 -0.05940255
vt 0.09683429 -0.06056502
vt 0.09799676 -0.05893756
vt 0.0963693 -0.05777509
vt -0.09520682 -0.05940255
vt -0.0963693 -0.05777509
vt -0.09799676 -0.05893756
vt -0.09683429 -0.06056502
vt 0.1243099 0.01506787
vt 0.1229646 0.0113009
vt 0.1248481 0.01062823
vt 0.1261934 0.01439519
vt -0.1243099 0.01506787
vt -0.1261934 0.01439519
vt -0.1248481 0.01062823
vt -0.1229646 0.0113009
vt 0.01878297 0.05321842
vt 0.01699411 0.05411284
vt 0.01520526 0.05053513
vt 0.01699412 0.04964071
vt -0.01878297 0.05321842
vt -0.01699412 0.04964071
vt -0.01520526 0.05053513
vt -0.01699411 0.05411284
vt 0.08939444 -0.06753989
vt 0.09102191 -0.06870236
vt 0.09683429 -0.06056502
vt 0.09520682 -0.05940255
vt -0.08939444 -0.06753989
vt -0.09520682 -0.05940255
vt -0.09683429 -0.06056502
vt -0.09102191 -0.06870236
vt 0.1229646 0.0113009
vt 0.1222919 0.00941742
vt 0.1241754 0.008744748
vt 0.1248481 0.01062823
vt -0.1229646 0.0113009
vt -0.1248481 0.01062823
vt -0.1241754 0.008744748
vt -0.1222919 0.00941742
vt 0.02593839 0.04516857
vt 0.01699412 0.04964071
vt 0.01609969 0.04785186
vt 0.02504396 0.04337972
vt -0.02593839 0.04516857
vt -0.02504396 0.04337972
vt -0.01609969 0.04785186
vt -0.01699412 0.04964071
o group1310480675
g mesh1310480675
usemtl mat21
f 4/4/1 3/3/1 2/2/1 1/1/1
f 8/8/2 7/7/2 6/6/2 5/5/2
f 2/12/3 8/11/3 5/10/3 1/9/3
f 6/16/4 7/15/4 3/14/4 4/13/4
f 5/20/5 6/19/5 4/18/5 1/17/5
f 3/24/6 7/23/6 8/22/6 2/21/6
o group53194303
g mesh53194303
usemtl mat21
f 12/28/7 11/27/7 10/26/7 9/25/7
f 16/32/8 15/31/8 14/30/8 13/29/8
f 10/36/9 16/35/9 13/34/9 9/33/9
f 14/40/10 15/39/10 11/38/10 12/37/10
f 13/44/11 14/43/11 12/42/11 9/41/11
f 11/48/12 15/47/12 16/46/12 10/45/12
o group118713090
g mesh118713090
usemtl mat21
f 20/52/13 19/51/13 18/50/13 17/49/13
f 24/56/14 23/55/14 22/54/14 21/53/14
f 18/60/15 24/59/15 21/58/15 17/57/15
f 22/64/16 23/63/16 19/62/16 20/61/16
f 21/68/17 22/67/17 20/66/17 17/65/17
f 19/72/18 23/71/18 24/70/18 18/69/18
o group750385294
g mesh750385294
usemtl mat21
f 28/76/19 27/75/19 26/74/19 25/73/19
f 32/80/20 31/79/20 30/78/20 29/77/20
f 26/84/21 32/83/21 29/82/21 25/81/21
f 30/88/22 31/87/22 27/86/22 28/85/22
f 29/92/23 30/91/23 28/90/23 25/89/23
f 27/96/24 31/95/24 32/94/24 26/93/24
