mtllib materials.mtl
v 0.01333356 0.01333332 -0.00999999
v 0.01333356 0.01333332 0.00999999
v 0.01333356 0.0333333 0.00999999
v 0.01333356 0.0333333 -0.00999999
v -0.0266664 0.01333332 -0.00999999
v -0.0266664 0.0333333 -0.00999999
v -0.0266664 0.0333333 0.00999999
v -0.0266664 0.01333332 0.00999999
v 0.03333354 -0.00666672 -0.00999999
v 0.03333354 -0.00666672 0.00999999
v 0.03333354 0.01333326 0.00999999
v 0.03333354 0.01333326 -0.00999999
v 0.01333356 -0.00666672 -0.00999999
v 0.01333356 0.01333326 -0.00999999
v 0.01333356 0.01333326 0.00999999
v 0.01333356 -0.00666672 0.00999999
v -0.00666666 -0.1066667 -0.00999999
v -0.00666666 -0.1066667 0.00999999
v -0.00666666 0.05333328 0.00999999
v -0.00666666 0.05333328 -0.00999999
v -0.02666664 -0.1066667 -0.00999999
v -0.02666664 0.05333328 -0.00999999
v -0.02666664 0.05333328 0.00999999
v -0.02666664 -0.1066667 0.00999999
vn 1 0 0
vn -1 0 0
vn 0 -1 0
vn 0 1 0
vn 0 0 -1
vn 0 0 1
vn 1 0 0
vn -1 0 0
vn 0 -1 0
vn 0 1 0
vn 0 0 -1
vn 0 0 1
vn 1 0 0
vn -1 0 0
vn 0 -1 0
vn 0 1 0
vn 0 0 -1
vn 0 0 1
vt -0.008951066 -0.06242498
vt -0.0073236 -0.06358746
vt -0.006161125 -0.06195999
vt -0.00778859 -0.06079752
vt 0.008951066 -0.06242498
vt 0.00778859 -0.06079752
vt 0.006161125 -0.06195999
vt 0.0073236 -0.06358746
vt -0.07964446 -0.3092277
vt -0.08098979 -0.3129947
vt -0.07910632 -0.3136673
vt -0.07776097 -0.3099003
vt 0.07964446 -0.3092277
vt 0.07776097 -0.3099003
vt 0.07910632 -0.3136673
vt 0.08098979 -0.3129947
vt -0.092126 -0.3094718
vt -0.09391485 -0.3085774
vt -0.09570371 -0.3121551
vt -0.09391485 -0.3130495
vt 0.092126 -0.3094718
vt 0.09391485 -0.3130495
vt 0.09570371 -0.3121551
vt 0.09391485 -0.3085774
vt -0.01011354 -0.06405246
vt -0.008486079 -0.06521493
vt -0.007323604 -0.06358746
vt -0.00895107 -0.06242499
vt 0.01011354 -0.06405246
vt 0.00895107 -0.06242499
vt 0.007323604 -0.06358746
vt 0.008486079 -0.06521493
vt -0.07897178 -0.3073442
vt -0.07964446 -0.3092277
vt -0.07776097 -0.3099003
vt -0.0770883 -0.3080169
vt 0.07897178 -0.3073442
vt 0.0770883 -0.3080169
vt 0.07776097 -0.3099003
vt 0.07964446 -0.3092277
vt -0.08944272 -0.3085774
vt -0.09123157 -0.307683
vt -0.092126 -0.3094718
vt -0.09033714 -0.3103662
vt 0.08944272 -0.3085774
vt 0.09033714 -0.3103662
vt 0.092126 -0.3094718
vt 0.09123157 -0.307683
vt -0.01592593 -0.07218979
vt -0.01429846 -0.07335226
vt -0.004998649 -0.06033253
vt -0.006626115 -0.05917006
vt 0.01592593 -0.07218979
vt 0.006626115 -0.05917006
vt 0.004998649 -0.06033253
vt 0.01429846 -0.07335226
vt -0.08031713 -0.3111112
vt -0.0809898 -0.3129947
vt -0.07910632 -0.3136674
vt -0.07843365 -0.3117839
vt 0.08031713 -0.3111112
vt 0.07843365 -0.3117839
vt 0.07910632 -0.3136674
vt 0.0809898 -0.3129947
vt -0.08228731 -0.3166272
vt -0.09659815 -0.3094718
vt -0.09749257 -0.3112607
vt -0.08318174 -0.3184161
vt 0.08228731 -0.3166272
vt 0.08318174 -0.3184161
vt 0.09749257 -0.3112607
vt 0.09659815 -0.3094718
o group443699005
g mesh443699005
usemtl mat21
f 4/4/1 3/3/1 2/2/1 1/1/1
f 8/8/2 7/7/2 6/6/2 5/5/2
f 2/12/3 8/11/3 5/10/3 1/9/3
f 6/16/4 7/15/4 3/14/4 4/13/4
f 5/20/5 6/19/5 4/18/5 1/17/5
f 3/24/6 7/23/6 8/22/6 2/21/6
o group1444532775
g mesh1444532775
usemtl mat21
f 12/28/7 11/27/7 10/26/7 9/25/7
f 16/32/8 15/31/8 14/30/8 13/29/8
f 10/36/9 16/35/9 13/34/9 9/33/9
f 14/40/10 15/39/10 11/38/10 12/37/10
f 13/44/11 14/43/11 12/42/11 9/41/11
f 11/48/12 15/47/12 16/46/12 10/45/12
o group1691245964
g mesh1691245964
usemtl mat21
f 20/52/13 19/51/13 18/50/13 17/49/13
f 24/56/14 23/55/14 22/54/14 21/53/14
f 18/60/15 24/59/15 21/58/15 17/57/15
f 22/64/16 23/63/16 19/62/16 20/61/16
f 21/68/17 22/67/17 20/66/17 17/65/17
f 19/72/18 23/71/18 24/70/18 18/69/18
