mtllib materials.mtl
v 0.00666666 -0.05666666 -0.01000011
v 0.00666666 -0.05666666 0.009999871
v 0.00666666 -0.03666665 0.009999871
v 0.00666666 -0.03666665 -0.01000011
v -0.0333333 -0.05666666 -0.01000011
v -0.0333333 -0.03666665 -0.01000011
v -0.0333333 -0.03666665 0.009999871
v -0.0333333 -0.05666666 0.009999871
v 0.00666666 0.04333334 -0.01000011
v 0.00666666 0.04333334 0.009999871
v 0.00666666 0.06333333 0.009999871
v 0.00666666 0.06333333 -0.01000011
v -0.0333333 0.04333334 -0.01000011
v -0.0333333 0.06333333 -0.01000011
v -0.0333333 0.06333333 0.009999871
v -0.0333333 0.04333334 0.009999871
v 0.0266667 -0.03666668 -0.01000011
v 0.0266667 -0.03666668 0.009999871
v 0.0266667 -0.01666667 0.009999871
v 0.0266667 -0.01666667 -0.01000011
v 0.00666672 -0.03666668 -0.01000011
v 0.00666672 -0.01666667 -0.01000011
v 0.00666672 -0.01666667 0.009999871
v 0.00666672 -0.03666668 0.009999871
v -0.03333336 -0.03666666 -0.01000011
v -0.03333336 -0.03666666 0.009999871
v -0.03333336 0.04333333 0.009999871
v -0.03333336 0.04333333 -0.01000011
v -0.05333334 -0.03666666 -0.01000011
v -0.05333334 0.04333333 -0.01000011
v -0.05333334 0.04333333 0.009999871
v -0.05333334 -0.03666666 0.009999871
v 0.04666668 -0.09666666 -0.01000011
v 0.04666668 -0.09666666 0.009999871
v 0.04666668 0.06333333 0.009999871
v 0.04666668 0.06333333 -0.01000011
v 0.0266667 -0.09666666 -0.01000011
v 0.0266667 0.06333333 -0.01000011
v 0.0266667 0.06333333 0.009999871
v 0.0266667 -0.09666666 0.009999871
v 0.0266667 0.02333334 -0.01000011
v 0.0266667 0.02333334 0.009999871
v 0.0266667 0.04333334 0.009999871
v 0.0266667 0.04333334 -0.01000011
v 0.00666672 0.02333334 -0.01000011
v 0.00666672 0.04333334 -0.01000011
v 0.00666672 0.04333334 0.009999871
v 0.00666672 0.02333334 0.009999871
vn 1 0 0
vn -1 0 0
vn 0 -1 0
vn 0 1 0
vn 0 0 -1
vn 0 0 1
vn 1 0 0
vn -1 0 0
vn 0 -1 0
vn 0 1 0
vn 0 0 -1
vn 0 0 1
vn 1 0 0
vn -1 0 0
vn 0 -1 0
vn 0 1 0
vn 0 0 -1
vn 0 0 1
vn 1 0 0
vn -1 0 0
vn 0 -1 0
vn 0 1 0
vn 0 0 -1
vn 0 0 1
vn 1 0 1.748456E-07
vn -1 0 -1.748456E-07
vn 3.057097E-14 -1 -1.748456E-07
vn -3.057097E-14 1 1.748456E-07
vn 1.748456E-07 1.748456E-07 -1
vn -1.748456E-07 -1.748456E-07 1
vn 1 0 1.748456E-07
vn -1 0 -1.748456E-07
vn 3.057097E-14 -1 -1.748456E-07
vn -3.057097E-14 1 1.748456E-07
vn 1.748456E-07 1.748456E-07 -1
vn -1.748456E-07 -1.748456E-07 1
vt 0.1163639 -0.108924
vt 0.1179914 -0.1100865
vt 0.1191538 -0.1084591
vt 0.1175264 -0.1072966
vt -0.1163639 -0.108924
vt -0.1175264 -0.1072966
vt -0.1191538 -0.1084591
vt -0.1179914 -0.1100865
vt 0.1686391 0.002421623
vt 0.1672937 -0.001345341
vt 0.1691772 -0.002018014
vt 0.1705225 0.001748951
vt -0.1686391 0.002421623
vt -0.1705225 0.001748951
vt -0.1691772 -0.002018014
vt -0.1672937 -0.001345341
vt 0.04516857 0.04337972
vt 0.04337972 0.04427414
vt 0.04159087 0.04069644
vt 0.04337972 0.03980201
vt -0.04516857 0.04337972
vt -0.04337972 0.03980201
vt -0.04159087 0.04069644
vt -0.04337972 0.04427414
vt 0.1221763 -0.1007867
vt 0.1238037 -0.1019492
vt 0.1249662 -0.1003217
vt 0.1233387 -0.09915925
vt -0.1221763 -0.1007867
vt -0.1233387 -0.09915925
vt -0.1249662 -0.1003217
vt -0.1238037 -0.1019492
vt 0.1686391 0.002421623
vt 0.1672937 -0.001345341
vt 0.1691772 -0.002018014
vt 0.1705225 0.001748951
vt -0.1686391 0.002421623
vt -0.1705225 0.001748951
vt -0.1691772 -0.002018014
vt -0.1672937 -0.001345341
vt 0.0362243 0.04785185
vt 0.03443545 0.04874628
vt 0.0326466 0.04516857
vt 0.03443545 0.04427415
vt -0.0362243 0.04785185
vt -0.03443545 0.04427415
vt -0.0326466 0.04516857
vt -0.03443545 0.04874628
vt 0.1175264 -0.1072966
vt 0.1191538 -0.1084591
vt 0.1203163 -0.1068316
vt 0.1186888 -0.1056691
vt -0.1175264 -0.1072966
vt -0.1186888 -0.1056691
vt -0.1203163 -0.1068316
vt -0.1191538 -0.1084591
vt 0.1693117 0.00430511
vt 0.1686391 0.002421628
vt 0.1705225 0.001748956
vt 0.1711952 0.003632439
vt -0.1693117 0.00430511
vt -0.1711952 0.003632439
vt -0.1705225 0.001748956
vt -0.1686391 0.002421628
vt 0.04427415 0.046063
vt 0.04248529 0.04695743
vt 0.04159087 0.04516858
vt 0.04337972 0.04427415
vt -0.04427415 0.046063
vt -0.04337972 0.04427415
vt -0.04159087 0.04516858
vt -0.04248529 0.04695743
vt 0.1175264 -0.1072966
vt 0.1191538 -0.1084591
vt 0.1238037 -0.1019492
vt 0.1221763 -0.1007867
vt -0.1175264 -0.1072966
vt -0.1221763 -0.1007867
vt -0.1238037 -0.1019492
vt -0.1191538 -0.1084591
vt 0.1672937 -0.001345347
vt 0.1666211 -0.003228829
vt 0.1685045 -0.003901501
vt 0.1691772 -0.002018019
vt -0.1672937 -0.001345347
vt -0.1691772 -0.002018019
vt -0.1685045 -0.003901501
vt -0.1666211 -0.003228829
vt 0.04159086 0.04069643
vt 0.03443545 0.04427414
vt 0.03354102 0.04248529
vt 0.04069644 0.03890758
vt -0.04159086 0.04069643
vt -0.04069644 0.03890758
vt -0.03354102 0.04248529
vt -0.03443545 0.04427414
vt 0.1140389 -0.112179
vt 0.1156664 -0.1133415
vt 0.1249662 -0.1003217
vt 0.1233387 -0.09915926
vt -0.1140389 -0.112179
vt -0.1233387 -0.09915926
vt -0.1249662 -0.1003217
vt -0.1156664 -0.1133415
vt 0.1699844 0.006188578
vt 0.1693117 0.004305096
vt 0.1711952 0.003632424
vt 0.1718679 0.005515906
vt -0.1699844 0.006188579
vt -0.1718679 0.005515906
vt -0.1711952 0.003632425
vt -0.1693117 0.004305097
vt 0.05053512 0.04516862
vt 0.03622429 0.05232403
vt 0.03532986 0.05053518
vt 0.0496407 0.04337976
vt -0.05053512 0.04516862
vt -0.0496407 0.04337976
vt -0.03532986 0.05053518
vt -0.03622429 0.05232403
vt 0.1210137 -0.1024142
vt 0.1226412 -0.1035767
vt 0.1238037 -0.1019492
vt 0.1221762 -0.1007867
vt -0.1210137 -0.1024142
vt -0.1221762 -0.1007867
vt -0.1238037 -0.1019492
vt -0.1226412 -0.1035767
vt 0.1693117 0.004305097
vt 0.1686391 0.002421615
vt 0.1705225 0.001748943
vt 0.1711952 0.003632424
vt -0.1693117 0.004305097
vt -0.1711952 0.003632425
vt -0.1705225 0.001748943
vt -0.1686391 0.002421615
vt 0.03890757 0.04874633
vt 0.03711872 0.04964075
vt 0.03622429 0.0478519
vt 0.03801315 0.04695747
vt -0.03890757 0.04874633
vt -0.03801315 0.04695747
vt -0.03622429 0.0478519
vt -0.03711872 0.04964075
o group1361011292
g mesh1361011292
usemtl mat21
f 4/4/1 3/3/1 2/2/1 1/1/1
f 8/8/2 7/7/2 6/6/2 5/5/2
f 2/12/3 8/11/3 5/10/3 1/9/3
f 6/16/4 7/15/4 3/14/4 4/13/4
f 5/20/5 6/19/5 4/18/5 1/17/5
f 3/24/6 7/23/6 8/22/6 2/21/6
o group2076330452
g mesh2076330452
usemtl mat21
f 12/28/7 11/27/7 10/26/7 9/25/7
f 16/32/8 15/31/8 14/30/8 13/29/8
f 10/36/9 16/35/9 13/34/9 9/33/9
f 14/40/10 15/39/10 11/38/10 12/37/10
f 13/44/11 14/43/11 12/42/11 9/41/11
f 11/48/12 15/47/12 16/46/12 10/45/12
o group1623587706
g mesh1623587706
usemtl mat21
f 20/52/13 19/51/13 18/50/13 17/49/13
f 24/56/14 23/55/14 22/54/14 21/53/14
f 18/60/15 24/59/15 21/58/15 17/57/15
f 22/64/16 23/63/16 19/62/16 20/61/16
f 21/68/17 22/67/17 20/66/17 17/65/17
f 19/72/18 23/71/18 24/70/18 18/69/18
o group2086025685
g mesh2086025685
usemtl mat21
f 28/76/19 27/75/19 26/74/19 25/73/19
f 32/80/20 31/79/20 30/78/20 29/77/20
f 26/84/21 32/83/21 29/82/21 25/81/21
f 30/88/22 31/87/22 27/86/22 28/85/22
f 29/92/23 30/91/23 28/90/23 25/89/23
f 27/96/24 31/95/24 32/94/24 26/93/24
o group43449942
g mesh43449942
usemtl mat21
f 36/100/25 35/99/25 34/98/25 33/97/25
f 40/104/26 39/103/26 38/102/26 37/101/26
f 34/108/27 40/107/27 37/106/27 33/105/27
f 38/112/28 39/111/28 35/110/28 36/109/28
f 37/116/29 38/115/29 36/114/29 33/113/29
f 35/120/30 39/119/30 40/118/30 34/117/30
o group1367192161
g mesh1367192161
usemtl mat21
f 44/124/31 43/123/31 42/122/31 41/121/31
f 48/128/32 47/127/32 46/126/32 45/125/32
f 42/132/33 48/131/33 45/130/33 41/129/33
f 46/136/34 47/135/34 43/134/34 44/133/34
f 45/140/35 46/139/35 44/138/35 41/137/35
f 43/144/36 47/143/36 48/142/36 42/141/36
