mtllib materials.mtl
v -0.02999997 -0.02249992 -0.00999999
v -0.02999997 -0.02249992 0.01000002
v -0.02999997 0.03750002 0.01000002
v -0.02999997 0.03750002 -0.00999999
v -0.04999995 -0.02249992 -0.00999999
v -0.04999995 0.03750002 -0.00999999
v -0.04999995 0.03750002 0.01000002
v -0.04999995 -0.02249992 0.01000002
v 0.04999995 -0.1025 -0.01000001
v 0.04999995 -0.1025 0.01000001
v 0.04999995 0.0575 0.01000001
v 0.04999995 0.0575 -0.01000001
v 0.02999997 -0.1025 -0.01000001
v 0.02999997 0.0575 -0.01000001
v 0.02999997 0.0575 0.01000001
v 0.02999997 -0.1025 0.01000001
v 0.02999997 -0.04249996 -0.01000001
v 0.02999997 -0.04249996 0.01000001
v 0.02999997 -0.02249998 0.01000001
v 0.02999997 -0.02249998 -0.01000001
v -0.02999997 -0.04249996 -0.01000001
v -0.02999997 -0.02249998 -0.01000001
v -0.02999997 -0.02249998 0.01000001
v -0.02999997 -0.04249996 0.01000001
v 0.02999997 0.03750002 -0.00999999
v 0.02999997 0.03750002 0.01000001
v 0.02999997 0.0575 0.01000001
v 0.02999997 0.0575 -0.00999999
v -0.02999997 0.03750002 -0.01000001
v -0.02999997 0.0575 -0.01000001
v -0.02999997 0.0575 0.00999999
v -0.02999997 0.03750002 0.00999999
vn 1 0 0
vn -1 0 0
vn 0 -1 0
vn 0 1 0
vn 0 0 -1
vn 0 0 1
vn 1 0 0
vn -1 0 0
vn 0 -1 0
vn 0 1 0
vn 0 0 -1
vn 0 0 1
vn 1 0 0
vn -1 0 0
vn 0 -1 0
vn 0 1 0
vn 0 0 -1
vn 0 0 1
vn 1 0 1.748456E-07
vn -1 0 -1.748456E-07
vn 3.057097E-14 -1 -1.748456E-07
vn -3.057097E-14 1 1.748456E-07
vn 1.748456E-07 1.748456E-07 -1
vn -1.748456E-07 -1.748456E-07 1
vt 0.04370912 0.03882672
vt 0.04533659 0.03766424
vt 0.04882402 0.04254664
vt 0.04719654 0.04370911
vt -0.04370912 0.03882672
vt -0.04719654 0.04370911
vt -0.04882402 0.04254664
vt -0.04533659 0.03766424
vt -0.03686247 -0.1418667
vt -0.03753514 -0.1437502
vt -0.03565165 -0.1444228
vt -0.03497898 -0.1425394
vt 0.03686247 -0.1418667
vt 0.03497898 -0.1425394
vt 0.03565165 -0.1444228
vt 0.03753514 -0.1437502
vt -0.1162755 -0.1050952
vt -0.1216421 -0.1024119
vt -0.1225365 -0.1042008
vt -0.11717 -0.106884
vt 0.1162755 -0.1050952
vt 0.11717 -0.106884
vt 0.1225365 -0.1042008
vt 0.1216421 -0.1024119
vt 0.03905921 0.03231684
vt 0.04068668 0.03115437
vt 0.04998649 0.0441741
vt 0.04835902 0.04533658
vt -0.03905921 0.03231684
vt -0.04835902 0.04533658
vt -0.04998649 0.0441741
vt -0.04068668 0.03115437
vt -0.03417178 -0.1343328
vt -0.03484445 -0.1362163
vt -0.03296097 -0.1368889
vt -0.03228829 -0.1350054
vt 0.03417178 -0.1343328
vt 0.03228829 -0.1350054
vt 0.03296097 -0.1368889
vt 0.03484445 -0.1362163
vt -0.1055424 -0.1015175
vt -0.1198532 -0.09436207
vt -0.1207477 -0.09615093
vt -0.1064368 -0.1033063
vt 0.1055424 -0.1015175
vt 0.1064368 -0.1033063
vt 0.1207477 -0.09615093
vt 0.1198532 -0.09436207
vt 0.04254664 0.03719925
vt 0.04417411 0.03603677
vt 0.04533658 0.03766424
vt 0.04370911 0.03882671
vt -0.04254664 0.03719925
vt -0.04370911 0.03882671
vt -0.04533658 0.03766424
vt -0.04417411 0.03603677
vt -0.03484445 -0.1362163
vt -0.03686247 -0.1418667
vt -0.03497898 -0.1425394
vt -0.03296097 -0.1368889
vt 0.03484445 -0.1362163
vt 0.03296097 -0.1368889
vt 0.03497898 -0.1425394
vt 0.03686247 -0.1418667
vt -0.1118034 -0.1006231
vt -0.1135923 -0.09972864
vt -0.1162755 -0.1050952
vt -0.1144867 -0.1059896
vt 0.1118034 -0.1006231
vt 0.1144867 -0.1059896
vt 0.1162755 -0.1050952
vt 0.1135923 -0.09972864
vt 0.04719657 0.04370909
vt 0.04882403 0.04254661
vt 0.04998652 0.04417408
vt 0.04835904 0.04533655
vt -0.04719657 0.04370909
vt -0.04835904 0.04533655
vt -0.04998651 0.04417408
vt -0.04882403 0.04254661
vt -0.03484447 -0.1362162
vt -0.03686249 -0.1418667
vt -0.03497901 -0.1425394
vt -0.03296099 -0.1368889
vt 0.03484447 -0.1362162
vt 0.03296099 -0.1368889
vt 0.03497901 -0.1425394
vt 0.03686249 -0.1418667
vt -0.1189588 -0.09704535
vt -0.1207477 -0.09615093
vt -0.123431 -0.1015175
vt -0.1216421 -0.1024119
vt 0.1189588 -0.09704535
vt 0.1216421 -0.1024119
vt 0.123431 -0.1015175
vt 0.1207477 -0.09615092
o group2066643639
g mesh2066643639
usemtl mat21
f 4/4/1 3/3/1 2/2/1 1/1/1
f 8/8/2 7/7/2 6/6/2 5/5/2
f 2/12/3 8/11/3 5/10/3 1/9/3
f 6/16/4 7/15/4 3/14/4 4/13/4
f 5/20/5 6/19/5 4/18/5 1/17/5
f 3/24/6 7/23/6 8/22/6 2/21/6
o group172434276
g mesh172434276
usemtl mat21
f 12/28/7 11/27/7 10/26/7 9/25/7
f 16/32/8 15/31/8 14/30/8 13/29/8
f 10/36/9 16/35/9 13/34/9 9/33/9
f 14/40/10 15/39/10 11/38/10 12/37/10
f 13/44/11 14/43/11 12/42/11 9/41/11
f 11/48/12 15/47/12 16/46/12 10/45/12
o group474917646
g mesh474917646
usemtl mat21
f 20/52/13 19/51/13 18/50/13 17/49/13
f 24/56/14 23/55/14 22/54/14 21/53/14
f 18/60/15 24/59/15 21/58/15 17/57/15
f 22/64/16 23/63/16 19/62/16 20/61/16
f 21/68/17 22/67/17 20/66/17 17/65/17
f 19/72/18 23/71/18 24/70/18 18/69/18
o group1439287856
g mesh1439287856
usemtl mat21
f 28/76/19 27/75/19 26/74/19 25/73/19
f 32/80/20 31/79/20 30/78/20 29/77/20
f 26/84/21 32/83/21 29/82/21 25/81/21
f 30/88/22 31/87/22 27/86/22 28/85/22
f 29/92/23 30/91/23 28/90/23 25/89/23
f 27/96/24 31/95/24 32/94/24 26/93/24
