mtllib materials.mtl
v 0.00999999 -0.00999999 -0.01000001
v 0.00999999 -0.00999999 0.01000001
v 0.00999999 0.00999999 0.01000001
v 0.00999999 0.00999999 -0.00999999
v -0.00999999 -0.00999999 -0.01000001
v -0.00999999 0.00999999 -0.01000001
v -0.00999999 0.00999999 0.01000001
v -0.00999999 -0.00999999 0.00999999
vn 1 0 1.748456E-07
vn -1 0 -1.748456E-07
vn 3.057097E-14 -1 -1.748456E-07
vn -3.057097E-14 1 1.748456E-07
vn 1.748456E-07 1.748456E-07 -1
vn -1.748456E-07 -1.748456E-07 1
vt 0.1182239 0.1293836
vt 0.1198514 0.1282211
vt 0.1210138 0.1298486
vt 0.1193864 0.1310111
vt -0.1182239 0.1293836
vt -0.1193864 0.1310111
vt -0.1210138 0.1298486
vt -0.1198514 0.1282211
vt -0.01217542 -0.09652853
vt -0.01284809 -0.09841201
vt -0.01096461 -0.09908469
vt -0.01029193 -0.09720121
vt 0.01217542 -0.09652853
vt 0.01029193 -0.09720121
vt 0.01096461 -0.09908469
vt 0.01284809 -0.09841201
vt -0.1981156 -0.007155417
vt -0.1999045 -0.00626099
vt -0.2007989 -0.008049844
vt -0.1990101 -0.008944269
vt 0.1981156 -0.007155416
vt 0.1990101 -0.008944269
vt 0.2007989 -0.008049843
vt 0.1999045 -0.00626099
o group1957999191
g mesh1957999191
usemtl mat21
f 4/4/1 3/3/1 2/2/1 1/1/1
f 8/8/2 7/7/2 6/6/2 5/5/2
f 2/12/3 8/11/3 5/10/3 1/9/3
f 6/16/4 7/15/4 3/14/4 4/13/4
f 5/20/5 6/19/5 4/18/5 1/17/5
f 3/24/6 7/23/6 8/22/6 2/21/6
