mtllib materials.mtl
v 0.03999996 -0.00999999 -0.00999999
v 0.03999996 -0.00999999 0.00999999
v 0.03999996 0.00999999 0.00999999
v 0.03999996 0.00999999 -0.00999999
v -0.03999996 -0.00999999 -0.00999999
v -0.03999996 0.00999999 -0.00999999
v -0.03999996 0.00999999 0.00999999
v -0.03999996 -0.00999999 0.00999999
v 0.00999999 -0.04000002 -0.00999999
v 0.00999999 -0.04000002 0.00999999
v 0.00999999 0.04000002 0.00999999
v 0.00999999 0.04000002 -0.00999999
v -0.00999999 -0.04000002 -0.00999999
v -0.00999999 0.04000002 -0.00999999
v -0.00999999 0.04000002 0.00999999
v -0.00999999 -0.04000002 0.00999999
vn 1 0 0
vn -1 0 0
vn 0 -1 0
vn 0 1 0
vn 0 0 -1
vn 0 0 1
vn 1 0 0
vn -1 0 0
vn 0 -1 0
vn 0 1 0
vn 0 0 -1
vn 0 0 1
vt 0.1078778 -0.199946
vt 0.1095053 -0.2011084
vt 0.1106678 -0.199481
vt 0.1090403 -0.1983185
vt -0.1078778 -0.199946
vt -0.1090403 -0.1983185
vt -0.1106678 -0.199481
vt -0.1095053 -0.2011084
vt 0.1376289 -0.2211748
vt 0.1349382 -0.2287087
vt 0.1368217 -0.2293814
vt 0.1395123 -0.2218475
vt -0.1376289 -0.2211748
vt -0.1395123 -0.2218475
vt -0.1368217 -0.2293814
vt -0.1349382 -0.2287087
vt 0.01699411 -0.1896186
vt 0.01520526 -0.1887241
vt 0.01162755 -0.1958795
vt 0.01341641 -0.196774
vt -0.01699411 -0.1896186
vt -0.01341641 -0.196774
vt -0.01162755 -0.1958795
vt -0.01520526 -0.1887241
vt 0.1061341 -0.2023872
vt 0.1077616 -0.2035496
vt 0.1124115 -0.1970398
vt 0.110784 -0.1958773
vt -0.1061341 -0.2023872
vt -0.110784 -0.1958773
vt -0.1124115 -0.1970398
vt -0.1077616 -0.2035496
vt 0.1366198 -0.2240001
vt 0.1359472 -0.2258835
vt 0.1378307 -0.2265562
vt 0.1385033 -0.2246727
vt -0.1366198 -0.2240001
vt -0.1385033 -0.2246727
vt -0.1378307 -0.2265562
vt -0.1359472 -0.2258835
vt 0.01833576 -0.1936435
vt 0.01118034 -0.1900658
vt 0.01028591 -0.1918546
vt 0.01744133 -0.1954323
vt -0.01833576 -0.1936435
vt -0.01744133 -0.1954323
vt -0.01028591 -0.1918546
vt -0.01118034 -0.1900658
o group1764945730
g mesh1764945730
usemtl mat21
f 4/4/1 3/3/1 2/2/1 1/1/1
f 8/8/2 7/7/2 6/6/2 5/5/2
f 2/12/3 8/11/3 5/10/3 1/9/3
f 6/16/4 7/15/4 3/14/4 4/13/4
f 5/20/5 6/19/5 4/18/5 1/17/5
f 3/24/6 7/23/6 8/22/6 2/21/6
o group598190926
g mesh598190926
usemtl mat21
f 12/28/7 11/27/7 10/26/7 9/25/7
f 16/32/8 15/31/8 14/30/8 13/29/8
f 10/36/9 16/35/9 13/34/9 9/33/9
f 14/40/10 15/39/10 11/38/10 12/37/10
f 13/44/11 14/43/11 12/42/11 9/41/11
f 11/48/12 15/47/12 16/46/12 10/45/12
