mtllib materials.mtl
v -0.02666664 -0.115 0.00999999
v -0.02666664 0.06499999 0.00999999
v -0.02666664 0.06499998 -0.00999999
v -0.02666664 -0.115 -0.00999999
v -0.04666662 -0.115 0.00999999
v -0.04666662 -0.115 -0.00999999
v -0.04666662 0.06499998 -0.00999999
v -0.04666662 0.06499999 0.00999999
v 0.03333336 0.04500002 0.00999999
v 0.03333336 0.06500003 0.00999999
v 0.03333336 0.06500002 -0.00999999
v 0.03333336 0.04500002 -0.00999999
v -0.00666666 0.04500002 0.00999999
v -0.00666666 0.04500002 -0.00999999
v -0.00666666 0.06500002 -0.00999999
v -0.00666666 0.06500003 0.00999999
v -0.00666666 0.02500002 -0.00999999
v -0.00666666 0.02500002 0.00999999
v -0.00666666 0.04500002 0.00999999
v -0.00666666 0.04500002 -0.00999999
v -0.02666664 0.02500002 -0.00999999
v -0.02666664 0.04500002 -0.00999999
v -0.02666664 0.04500002 0.00999999
v -0.02666664 0.02500002 0.00999999
v -0.00666666 -0.035 -0.00999999
v -0.00666666 -0.035 0.00999999
v -0.00666666 -0.01499999 0.00999999
v -0.00666666 -0.01499999 -0.00999999
v -0.02666664 -0.035 -0.00999999
v -0.02666664 -0.01499999 -0.00999999
v -0.02666664 -0.01499999 0.00999999
v -0.02666664 -0.035 0.00999999
v 0.03333339 -0.05499999 -0.00999999
v 0.03333339 -0.05499999 0.00999999
v 0.03333339 -0.03499998 0.00999999
v 0.03333339 -0.03499998 -0.00999999
v -0.006666631 -0.05499999 -0.00999999
v -0.006666631 -0.03499998 -0.00999999
v -0.006666631 -0.03499998 0.00999999
v -0.006666631 -0.05499999 0.00999999
v 0.05333337 -0.03499998 -0.00999999
v 0.05333337 -0.03499998 0.00999999
v 0.05333337 0.04500001 0.00999999
v 0.05333337 0.04500001 -0.00999999
v 0.03333336 -0.03499998 -0.00999999
v 0.03333336 0.04500001 -0.00999999
v 0.03333336 0.04500001 0.00999999
v 0.03333336 -0.03499998 0.00999999
vn 1 0 1.748456E-07
vn -1 0 -1.748456E-07
vn -1.748456E-07 1.192093E-07 1
vn 1.748456E-07 -1.192093E-07 -1
vn 0 -1 1.192093E-07
vn 0 1 -1.192093E-07
vn 1 0 1.748456E-07
vn -1 0 -1.748456E-07
vn -1.748456E-07 1.192093E-07 1
vn 1.748456E-07 -1.192093E-07 -1
vn 0 -1 1.192093E-07
vn 0 1 -1.192093E-07
vn 1 0 1.748456E-07
vn -1 0 -1.748456E-07
vn 3.057097E-14 -1 -1.748456E-07
vn -3.057097E-14 1 1.748456E-07
vn 1.748456E-07 1.748456E-07 -1
vn -1.748456E-07 -1.748456E-07 1
vn 1 0 0
vn -1 0 0
vn 0 -1 0
vn 0 1 0
vn 0 0 -1
vn 0 0 1
vn 1 0 0
vn -1 0 0
vn 0 -1 0
vn 0 1 0
vn 0 0 -1
vn 0 0 1
vn 1 0 0
vn -1 0 0
vn 0 -1 0
vn 0 1 0
vn 0 0 -1
vn 0 0 1
vt 0.1136902 -0.1143877
vt 0.1241524 -0.0997405
vt 0.122525 -0.09857802
vt 0.1120627 -0.1132252
vt -0.1136902 -0.1143877
vt -0.1120627 -0.1132252
vt -0.122525 -0.09857802
vt -0.1241524 -0.0997405
vt -0.04337975 0.02638561
vt -0.04248533 0.02459676
vt -0.02638564 0.0326466
vt -0.02728006 0.03443546
vt 0.04337975 0.02638561
vt 0.02728006 0.03443546
vt 0.02638564 0.0326466
vt 0.04248533 0.02459676
vt 0.1641994 -0.01298257
vt 0.1623159 -0.0123099
vt 0.1616433 -0.01419338
vt 0.1635267 -0.01486606
vt -0.1641994 -0.01298257
vt -0.1635267 -0.01486606
vt -0.1616433 -0.01419338
vt -0.1623159 -0.0123099
vt 0.12299 -0.101368
vt 0.1241524 -0.09974049
vt 0.122525 -0.09857802
vt 0.1213625 -0.1002055
vt -0.12299 -0.101368
vt -0.1213625 -0.1002055
vt -0.122525 -0.09857802
vt -0.1241524 -0.09974049
vt -0.0317522 0.03890759
vt -0.02996334 0.03532989
vt -0.02817449 0.03622431
vt -0.02996334 0.03980202
vt 0.0317522 0.03890759
vt 0.02996334 0.03980202
vt 0.02817449 0.03622431
vt 0.02996334 0.03532989
vt 0.1662174 -0.007332122
vt 0.164334 -0.00665945
vt 0.1629886 -0.01042642
vt 0.1648721 -0.01109909
vt -0.1662174 -0.007332122
vt -0.1648721 -0.01109909
vt -0.1629886 -0.01042642
vt -0.164334 -0.00665945
vt 0.1202 -0.1018329
vt 0.1218275 -0.1029954
vt 0.12299 -0.101368
vt 0.1213625 -0.1002055
vt -0.1202 -0.1018329
vt -0.1213625 -0.1002055
vt -0.12299 -0.101368
vt -0.1218275 -0.1029954
vt 0.1629886 -0.01042644
vt 0.1623159 -0.01230992
vt 0.1641994 -0.0129826
vt 0.1648721 -0.01109912
vt -0.1629886 -0.01042644
vt -0.1648721 -0.01109912
vt -0.1641994 -0.0129826
vt -0.1623159 -0.01230992
vt 0.03175215 0.03443548
vt 0.0299633 0.03532991
vt 0.02906887 0.03354106
vt 0.03085772 0.03264663
vt -0.03175215 0.03443548
vt -0.03085772 0.03264663
vt -0.02906887 0.03354106
vt -0.0299633 0.03532991
vt 0.1167126 -0.1067153
vt 0.1183401 -0.1078778
vt 0.1195026 -0.1062503
vt 0.1178751 -0.1050879
vt -0.1167126 -0.1067153
vt -0.1178751 -0.1050879
vt -0.1195026 -0.1062503
vt -0.1183401 -0.1078778
vt 0.1629886 -0.01042643
vt 0.1623159 -0.01230991
vt 0.1641994 -0.01298258
vt 0.1648721 -0.0110991
vt -0.1629886 -0.01042643
vt -0.1648721 -0.0110991
vt -0.1641994 -0.01298258
vt -0.1623159 -0.01230991
vt 0.03711873 0.03175216
vt 0.03532987 0.03264659
vt 0.03443545 0.03085774
vt 0.0362243 0.02996331
vt -0.03711873 0.03175216
vt -0.0362243 0.02996331
vt -0.03443545 0.03085774
vt -0.03532987 0.03264659
vt 0.1155501 -0.1083428
vt 0.1171776 -0.1095053
vt 0.1183401 -0.1078778
vt 0.1167126 -0.1067153
vt -0.1155501 -0.1083428
vt -0.1167126 -0.1067153
vt -0.1183401 -0.1078778
vt -0.1171776 -0.1095053
vt 0.164334 -0.006659457
vt 0.1629886 -0.01042643
vt 0.1648721 -0.0110991
vt 0.1662174 -0.007332129
vt -0.164334 -0.006659457
vt -0.1662174 -0.007332129
vt -0.1648721 -0.0110991
vt -0.1629886 -0.01042643
vt 0.04069644 0.03443545
vt 0.03890758 0.03532988
vt 0.03711873 0.03175217
vt 0.03890758 0.03085774
vt -0.04069644 0.03443545
vt -0.03890758 0.03085774
vt -0.03711873 0.03175217
vt -0.03890758 0.03532988
vt 0.1167126 -0.1067153
vt 0.1183401 -0.1078778
vt 0.12299 -0.101368
vt 0.1213625 -0.1002055
vt -0.1167126 -0.1067153
vt -0.1213625 -0.1002055
vt -0.12299 -0.101368
vt -0.1183401 -0.1078778
vt 0.1650066 -0.004775975
vt 0.164334 -0.00665946
vt 0.1662174 -0.007332132
vt 0.1668901 -0.005448647
vt -0.1650066 -0.004775975
vt -0.1668901 -0.005448647
vt -0.1662174 -0.007332132
vt -0.164334 -0.00665946
vt 0.03980201 0.03711873
vt 0.03264659 0.04069644
vt 0.03175217 0.03890758
vt 0.03890758 0.03532987
vt -0.03980201 0.03711873
vt -0.03890758 0.03532987
vt -0.03175217 0.03890758
vt -0.03264659 0.04069644
o group1393137624
g mesh1393137624
usemtl mat21
f 4/4/1 3/3/1 2/2/1 1/1/1
f 8/8/2 7/7/2 6/6/2 5/5/2
f 2/12/3 8/11/3 5/10/3 1/9/3
f 6/16/4 7/15/4 3/14/4 4/13/4
f 5/20/5 6/19/5 4/18/5 1/17/5
f 3/24/6 7/23/6 8/22/6 2/21/6
o group1484898581
g mesh1484898581
usemtl mat21
f 12/28/7 11/27/7 10/26/7 9/25/7
f 16/32/8 15/31/8 14/30/8 13/29/8
f 10/36/9 16/35/9 13/34/9 9/33/9
f 14/40/10 15/39/10 11/38/10 12/37/10
f 13/44/11 14/43/11 12/42/11 9/41/11
f 11/48/12 15/47/12 16/46/12 10/45/12
o group354653812
g mesh354653812
usemtl mat21
f 20/52/13 19/51/13 18/50/13 17/49/13
f 24/56/14 23/55/14 22/54/14 21/53/14
f 18/60/15 24/59/15 21/58/15 17/57/15
f 22/64/16 23/63/16 19/62/16 20/61/16
f 21/68/17 22/67/17 20/66/17 17/65/17
f 19/72/18 23/71/18 24/70/18 18/69/18
o group1919800100
g mesh1919800100
usemtl mat21
f 28/76/19 27/75/19 26/74/19 25/73/19
f 32/80/20 31/79/20 30/78/20 29/77/20
f 26/84/21 32/83/21 29/82/21 25/81/21
f 30/88/22 31/87/22 27/86/22 28/85/22
f 29/92/23 30/91/23 28/90/23 25/89/23
f 27/96/24 31/95/24 32/94/24 26/93/24
o group1321978253
g mesh1321978253
usemtl mat21
f 36/100/25 35/99/25 34/98/25 33/97/25
f 40/104/26 39/103/26 38/102/26 37/101/26
f 34/108/27 40/107/27 37/106/27 33/105/27
f 38/112/28 39/111/28 35/110/28 36/109/28
f 37/116/29 38/115/29 36/114/29 33/113/29
f 35/120/30 39/119/30 40/118/30 34/117/30
o group1012600456
g mesh1012600456
usemtl mat21
f 44/124/31 43/123/31 42/122/31 41/121/31
f 48/128/32 47/127/32 46/126/32 45/125/32
f 42/132/33 48/131/33 45/130/33 41/129/33
f 46/136/34 47/135/34 43/134/34 44/133/34
f 45/140/35 46/139/35 44/138/35 41/137/35
f 43/144/36 47/143/36 48/142/36 42/141/36
