mtllib materials.mtl
v 0.07600009 -0.0200001 -0.01000001
v 0.07600009 -0.0200001 0.01000001
v 0.07600009 0.05999994 0.01000001
v 0.07600009 0.05999994 -0.01000001
v 0.05600011 -0.0200001 -0.01000001
v 0.05600011 0.05999994 -0.01000001
v 0.05600011 0.05999994 0.01000001
v 0.05600011 -0.0200001 0.01000001
v 0.03600001 -0.06000003 -0.01000001
v 0.03600001 -0.06000003 0.01000001
v 0.03600001 -0.04000005 0.01000001
v 0.03600001 -0.04000005 -0.01000001
v -0.02399993 -0.06000003 -0.01000001
v -0.02399993 -0.04000005 -0.01000001
v -0.02399993 -0.04000005 0.01000001
v -0.02399993 -0.06000003 0.01000001
v -0.04399991 -0.02000004 -0.01000001
v -0.04399991 -0.02000004 0.01000001
v -0.04399991 0.06 0.01000001
v -0.04399991 0.06 -0.01000001
v -0.06399989 -0.02000004 -0.01000001
v -0.06399989 0.06 -0.01000001
v -0.06399989 0.06 0.01000001
v -0.06399989 -0.02000004 0.01000001
v -0.003999949 -0.08000001 -0.01000001
v -0.003999949 -0.08000001 0.01000001
v -0.003999949 -0.06000003 0.01000001
v -0.003999949 -0.06000003 -0.01000001
v -0.02399993 -0.08000001 -0.01000001
v -0.02399993 -0.06000003 -0.01000001
v -0.02399993 -0.06000003 0.01000001
v -0.02399993 -0.08000001 0.01000001
v 0.03600013 0.07999998 -0.009999976
v 0.03600013 0.07999998 0.01000002
v 0.03600013 0.09999996 0.01000002
v 0.03600013 0.09999996 -0.009999976
v -0.02399981 0.07999998 -0.00999999
v -0.02399981 0.09999996 -0.00999999
v -0.02399981 0.09999996 0.01000001
v -0.02399981 0.07999998 0.01000001
v 0.05600011 -0.04000002 -0.01000001
v 0.05600011 -0.04000002 0.01000001
v 0.05600011 -0.02000004 0.01000001
v 0.05600011 -0.02000004 -0.01000001
v 0.03600013 -0.04000002 -0.01000001
v 0.03600013 -0.02000004 -0.01000001
v 0.03600013 -0.02000004 0.01000001
v 0.03600013 -0.04000002 0.01000001
v -0.02399993 -0.1 -0.01000001
v -0.02399993 -0.1 0.01000001
v -0.02399993 -0.08000004 0.01000001
v -0.02399993 -0.08000004 -0.01000001
v -0.04399991 -0.1 -0.01000001
v -0.04399991 -0.08000004 -0.01000001
v -0.04399991 -0.08000004 0.01000001
v -0.04399991 -0.1 0.01000001
v 0.05600011 0.06 -0.00999999
v 0.05600011 0.06 0.01000002
v 0.05600011 0.07999998 0.01000002
v 0.05600011 0.07999998 -0.00999999
v 0.03600013 0.06 -0.00999999
v 0.03600013 0.07999998 -0.00999999
v 0.03600013 0.07999998 0.01000002
v 0.03600013 0.06 0.01000002
v -0.02399993 -0.04000002 -0.01000001
v -0.02399993 -0.04000002 0.01000001
v -0.02399993 -0.02000004 0.01000001
v -0.02399993 -0.02000004 -0.01000001
v -0.04399991 -0.04000002 -0.01000001
v -0.04399991 -0.02000004 -0.01000001
v -0.04399991 -0.02000004 0.01000001
v -0.04399991 -0.04000002 0.01000001
v -0.02399993 0.05999994 -0.00999999
v -0.02399993 0.05999994 0.01000002
v -0.02399993 0.07999992 0.01000002
v -0.02399993 0.07999992 -0.00999999
v -0.04399991 0.05999994 -0.00999999
v -0.04399991 0.07999992 -0.00999999
v -0.04399991 0.07999992 0.01000002
v -0.04399991 0.05999994 0.01000002
vn 1 0 0
vn -1 0 0
vn 0 -1 0
vn 0 1 0
vn 0 0 -1
vn 0 0 1
vn 1 0 0
vn -1 0 0
vn 0 -1 0
vn 0 1 0
vn 0 0 -1
vn 0 0 1
vn 1 0 0
vn -1 0 0
vn 0 -1 0
vn 0 1 0
vn 0 0 -1
vn 0 0 1
vn 1 0 0
vn -1 0 0
vn 0 -1 0
vn 0 1 0
vn 0 0 -1
vn 0 0 1
vn 1 0 1.748456E-07
vn -1 0 -1.748456E-07
vn 3.057097E-14 -1 -1.748456E-07
vn -3.057097E-14 1 1.748456E-07
vn 1.748456E-07 1.748456E-07 -1
vn -1.748456E-07 -1.748456E-07 1
vn 1 0 0
vn -1 0 0
vn 0 -1 0
vn 0 1 0
vn 0 0 -1
vn 0 0 1
vn 1 0 0
vn -1 0 0
vn 0 -1 0
vn 0 1 0
vn 0 0 -1
vn 0 0 1
vn 1 0 0
vn -1 0 0
vn 0 -1 0
vn 0 1 0
vn 0 0 -1
vn 0 0 1
vn 1 0 0
vn -1 0 0
vn 0 -1 0
vn 0 1 0
vn 0 0 -1
vn 0 0 1
vn 1 0 0
vn -1 0 0
vn 0 -1 0
vn 0 1 0
vn 0 0 -1
vn 0 0 1
vt 0.04080292 0.03475804
vt 0.04243039 0.03359556
vt 0.0470803 0.04010544
vt 0.04545283 0.04126791
vt -0.04080292 0.03475804
vt -0.04545283 0.04126791
vt -0.0470803 0.04010544
vt -0.04243039 0.03359556
vt -0.03888049 -0.1475171
vt -0.03955316 -0.1494006
vt -0.03766968 -0.1500733
vt -0.03699701 -0.1481898
vt 0.03888049 -0.1475171
vt 0.03699701 -0.1481898
vt 0.03766968 -0.1500733
vt 0.03955316 -0.1494006
vt -0.1144867 -0.1126978
vt -0.1216421 -0.1091201
vt -0.1225365 -0.110909
vt -0.1153811 -0.1144867
vt 0.1144867 -0.1126978
vt 0.1153811 -0.1144867
vt 0.1225365 -0.110909
vt 0.1216421 -0.1091201
vt 0.03847797 0.03150311
vt 0.04010544 0.03034064
vt 0.04126791 0.0319681
vt 0.03964045 0.03313058
vt -0.03847797 0.03150311
vt -0.03964045 0.03313058
vt -0.04126791 0.0319681
vt -0.04010544 0.03034064
vt -0.04022584 -0.1512841
vt -0.04224385 -0.1569346
vt -0.04036037 -0.1576072
vt -0.03834235 -0.1519568
vt 0.04022584 -0.1512841
vt 0.03834235 -0.1519568
vt 0.04036037 -0.1576072
vt 0.04224385 -0.1569346
vt -0.1126978 -0.1180644
vt -0.1144867 -0.11717
vt -0.11717 -0.1225365
vt -0.1153811 -0.123431
vt 0.1126978 -0.1180644
vt 0.1153811 -0.123431
vt 0.11717 -0.1225365
vt 0.1144867 -0.11717
vt 0.04080292 0.03475805
vt 0.04243039 0.03359557
vt 0.0470803 0.04010544
vt 0.04545283 0.04126792
vt -0.04080292 0.03475805
vt -0.04545283 0.04126792
vt -0.0470803 0.04010544
vt -0.04243039 0.03359557
vt -0.04291653 -0.1588181
vt -0.0435892 -0.1607015
vt -0.04170571 -0.1613742
vt -0.04103304 -0.1594907
vt 0.04291653 -0.1588181
vt 0.04103304 -0.1594907
vt 0.04170571 -0.1613742
vt 0.0435892 -0.1607015
vt -0.1198532 -0.123431
vt -0.1270087 -0.1198532
vt -0.1279031 -0.1216421
vt -0.1207477 -0.1252198
vt 0.1198532 -0.123431
vt 0.1207477 -0.1252198
vt 0.1279031 -0.1216421
vt 0.1270087 -0.1198532
vt 0.0373155 0.02987565
vt 0.03894296 0.02871317
vt 0.04010544 0.03034064
vt 0.03847797 0.03150311
vt -0.0373155 0.02987565
vt -0.03847797 0.03150311
vt -0.04010544 0.03034064
vt -0.03894296 0.02871317
vt -0.04157118 -0.1550511
vt -0.04224385 -0.1569346
vt -0.04036037 -0.1576072
vt -0.0396877 -0.1557238
vt 0.04157118 -0.1550511
vt 0.0396877 -0.1557238
vt 0.04036037 -0.1576072
vt 0.04224385 -0.1569346
vt -0.1126978 -0.1225365
vt -0.1144867 -0.1216421
vt -0.1153811 -0.123431
vt -0.1135923 -0.1243254
vt 0.1126978 -0.1225365
vt 0.1135923 -0.1243254
vt 0.1153811 -0.123431
vt 0.1144867 -0.1216421
vt 0.04661534 0.04289535
vt 0.0482428 0.04173287
vt 0.04940528 0.04336034
vt 0.04777781 0.04452281
vt -0.04661534 0.04289535
vt -0.04777781 0.04452281
vt -0.04940528 0.04336034
vt -0.0482428 0.04173287
vt -0.04022585 -0.1512841
vt -0.04224387 -0.1569345
vt -0.04036038 -0.1576072
vt -0.03834237 -0.1519568
vt 0.04022585 -0.1512841
vt 0.03834237 -0.1519568
vt 0.04036038 -0.1576072
vt 0.04224387 -0.1569345
vt -0.1252198 -0.1118034
vt -0.1270087 -0.110909
vt -0.1296919 -0.1162755
vt -0.1279031 -0.11717
vt 0.1252198 -0.1118034
vt 0.1279031 -0.11717
vt 0.1296919 -0.1162755
vt 0.1270087 -0.110909
vt 0.03964045 0.03313058
vt 0.04126792 0.0319681
vt 0.04243039 0.03359557
vt 0.04080292 0.03475805
vt -0.03964045 0.03313058
vt -0.04080292 0.03475805
vt -0.04243039 0.03359557
vt -0.04126792 0.0319681
vt -0.03955316 -0.1494006
vt -0.04022583 -0.1512841
vt -0.03834235 -0.1519568
vt -0.03766968 -0.1500733
vt 0.03955316 -0.1494006
vt 0.03766968 -0.1500733
vt 0.03834235 -0.1519568
vt 0.04022583 -0.1512841
vt -0.1135923 -0.1153811
vt -0.1153811 -0.1144867
vt -0.1162755 -0.1162755
vt -0.1144867 -0.11717
vt 0.1135923 -0.1153811
vt 0.1144867 -0.11717
vt 0.1162755 -0.1162755
vt 0.1153811 -0.1144867
vt 0.03615302 0.02824818
vt 0.03778049 0.0270857
vt 0.03894296 0.02871317
vt 0.0373155 0.02987565
vt -0.03615302 0.02824818
vt -0.0373155 0.02987565
vt -0.03894296 0.02871317
vt -0.03778049 0.0270857
vt -0.04224385 -0.1569346
vt -0.04291653 -0.1588181
vt -0.04103304 -0.1594907
vt -0.04036037 -0.1576072
vt 0.04224385 -0.1569346
vt 0.04036037 -0.1576072
vt 0.04103304 -0.1594907
vt 0.04291653 -0.1588181
vt -0.1118034 -0.1252198
vt -0.1135923 -0.1243254
vt -0.1144867 -0.1261142
vt -0.1126978 -0.1270087
vt 0.1118034 -0.1252198
vt 0.1126978 -0.1270087
vt 0.1144867 -0.1261142
vt 0.1135923 -0.1243254
vt 0.04545283 0.04126792
vt 0.0470803 0.04010544
vt 0.04824278 0.0417329
vt 0.04661531 0.04289538
vt -0.04545283 0.04126792
vt -0.04661531 0.04289538
vt -0.04824278 0.0417329
vt -0.0470803 0.04010544
vt -0.03955316 -0.1494006
vt -0.04022583 -0.1512841
vt -0.03834235 -0.1519568
vt -0.03766968 -0.1500733
vt 0.03955316 -0.1494006
vt 0.03766968 -0.1500733
vt 0.03834235 -0.1519568
vt 0.04022583 -0.1512841
vt -0.1225365 -0.110909
vt -0.1243254 -0.1100145
vt -0.1252198 -0.1118034
vt -0.123431 -0.1126978
vt 0.1225365 -0.110909
vt 0.123431 -0.1126978
vt 0.1252198 -0.1118034
vt 0.1243254 -0.1100145
vt 0.03964045 0.03313058
vt 0.04126792 0.0319681
vt 0.04243039 0.03359557
vt 0.04080292 0.03475805
vt -0.03964045 0.03313058
vt -0.04080292 0.03475805
vt -0.04243039 0.03359557
vt -0.04126792 0.0319681
vt -0.04224385 -0.1569346
vt -0.04291653 -0.1588181
vt -0.04103304 -0.1594907
vt -0.04036037 -0.1576072
vt 0.04224385 -0.1569346
vt 0.04036037 -0.1576072
vt 0.04103304 -0.1594907
vt 0.04291653 -0.1588181
vt -0.11717 -0.1225365
vt -0.1189588 -0.1216421
vt -0.1198532 -0.123431
vt -0.1180644 -0.1243254
vt 0.11717 -0.1225365
vt 0.1180644 -0.1243254
vt 0.1198532 -0.123431
vt 0.1189588 -0.1216421
vt 0.04545283 0.04126791
vt 0.0470803 0.04010544
vt 0.04824277 0.0417329
vt 0.04661531 0.04289538
vt -0.04545283 0.04126791
vt -0.04661531 0.04289538
vt -0.04824277 0.0417329
vt -0.0470803 0.04010544
vt -0.04224385 -0.1569346
vt -0.04291653 -0.1588181
vt -0.04103304 -0.1594907
vt -0.04036037 -0.1576072
vt 0.04224385 -0.1569346
vt 0.04036037 -0.1576072
vt 0.04103304 -0.1594907
vt 0.04291653 -0.1588181
vt -0.1261142 -0.1180644
vt -0.1279031 -0.11717
vt -0.1287975 -0.1189588
vt -0.1270087 -0.1198532
vt 0.1261142 -0.1180644
vt 0.1270087 -0.1198532
vt 0.1287975 -0.1189588
vt 0.1279031 -0.11717
o group672547922
g mesh672547922
usemtl mat21
f 4/4/1 3/3/1 2/2/1 1/1/1
f 8/8/2 7/7/2 6/6/2 5/5/2
f 2/12/3 8/11/3 5/10/3 1/9/3
f 6/16/4 7/15/4 3/14/4 4/13/4
f 5/20/5 6/19/5 4/18/5 1/17/5
f 3/24/6 7/23/6 8/22/6 2/21/6
o group1839032568
g mesh1839032568
usemtl mat21
f 12/28/7 11/27/7 10/26/7 9/25/7
f 16/32/8 15/31/8 14/30/8 13/29/8
f 10/36/9 16/35/9 13/34/9 9/33/9
f 14/40/10 15/39/10 11/38/10 12/37/10
f 13/44/11 14/43/11 12/42/11 9/41/11
f 11/48/12 15/47/12 16/46/12 10/45/12
o group1800751502
g mesh1800751502
usemtl mat21
f 20/52/13 19/51/13 18/50/13 17/49/13
f 24/56/14 23/55/14 22/54/14 21/53/14
f 18/60/15 24/59/15 21/58/15 17/57/15
f 22/64/16 23/63/16 19/62/16 20/61/16
f 21/68/17 22/67/17 20/66/17 17/65/17
f 19/72/18 23/71/18 24/70/18 18/69/18
o group533055966
g mesh533055966
usemtl mat21
f 28/76/19 27/75/19 26/74/19 25/73/19
f 32/80/20 31/79/20 30/78/20 29/77/20
f 26/84/21 32/83/21 29/82/21 25/81/21
f 30/88/22 31/87/22 27/86/22 28/85/22
f 29/92/23 30/91/23 28/90/23 25/89/23
f 27/96/24 31/95/24 32/94/24 26/93/24
o group1801099540
g mesh1801099540
usemtl mat21
f 36/100/25 35/99/25 34/98/25 33/97/25
f 40/104/26 39/103/26 38/102/26 37/101/26
f 34/108/27 40/107/27 37/106/27 33/105/27
f 38/112/28 39/111/28 35/110/28 36/109/28
f 37/116/29 38/115/29 36/114/29 33/113/29
f 35/120/30 39/119/30 40/118/30 34/117/30
o group2033077561
g mesh2033077561
usemtl mat21
f 44/124/31 43/123/31 42/122/31 41/121/31
f 48/128/32 47/127/32 46/126/32 45/125/32
f 42/132/33 48/131/33 45/130/33 41/129/33
f 46/136/34 47/135/34 43/134/34 44/133/34
f 45/140/35 46/139/35 44/138/35 41/137/35
f 43/144/36 47/143/36 48/142/36 42/141/36
o group1912274308
g mesh1912274308
usemtl mat21
f 52/148/37 51/147/37 50/146/37 49/145/37
f 56/152/38 55/151/38 54/150/38 53/149/38
f 50/156/39 56/155/39 53/154/39 49/153/39
f 54/160/40 55/159/40 51/158/40 52/157/40
f 53/164/41 54/163/41 52/162/41 49/161/41
f 51/168/42 55/167/42 56/166/42 50/165/42
o group2117123663
g mesh2117123663
usemtl mat21
f 60/172/43 59/171/43 58/170/43 57/169/43
f 64/176/44 63/175/44 62/174/44 61/173/44
f 58/180/45 64/179/45 61/178/45 57/177/45
f 62/184/46 63/183/46 59/182/46 60/181/46
f 61/188/47 62/187/47 60/186/47 57/185/47
f 59/192/48 63/191/48 64/190/48 58/189/48
o group747199854
g mesh747199854
usemtl mat21
f 68/196/49 67/195/49 66/194/49 65/193/49
f 72/200/50 71/199/50 70/198/50 69/197/50
f 66/204/51 72/203/51 69/202/51 65/201/51
f 70/208/52 71/207/52 67/206/52 68/205/52
f 69/212/53 70/211/53 68/210/53 65/209/53
f 67/216/54 71/215/54 72/214/54 66/213/54
o group1535971605
g mesh1535971605
usemtl mat21
f 76/220/55 75/219/55 74/218/55 73/217/55
f 80/224/56 79/223/56 78/222/56 77/221/56
f 74/228/57 80/227/57 77/226/57 73/225/57
f 78/232/58 79/231/58 75/230/58 76/229/58
f 77/236/59 78/235/59 76/234/59 73/233/59
f 75/240/60 79/239/60 80/238/60 74/237/60
