mtllib materials.mtl
v -0.02333331 -0.07999998 -0.01000002
v -0.02333331 -0.07999998 0.00999999
v -0.00333333 -0.07999998 0.00999999
v -0.00333333 -0.07999998 -0.01000002
v -0.02333331 0.07999998 -0.00999999
v -0.00333333 0.07999998 -0.00999999
v -0.00333333 0.07999998 0.01000002
v -0.02333331 0.07999998 0.01000002
v -0.02333307 0.07999992 -0.01000002
v -0.02333307 0.07999992 0.00999999
v 0.03666687 0.07999992 0.00999999
v 0.03666687 0.07999992 -0.00999999
v -0.02333307 0.0999999 -0.00999999
v 0.03666687 0.0999999 -0.00999999
v 0.03666687 0.0999999 0.01000002
v -0.02333307 0.0999999 0.00999999
v 0.03666663 -0.1000001 -0.00999999
v 0.03666663 -0.1000001 0.00999999
v 0.03666663 -0.0800001 0.00999999
v 0.03666663 -0.0800001 -0.00999999
v -0.02333331 -0.1000001 -0.00999999
v -0.02333331 -0.0800001 -0.00999999
v -0.02333331 -0.0800001 0.00999999
v -0.02333331 -0.1000001 0.00999999
vn -1.192093E-07 -1 -1.748456E-07
vn 1.192093E-07 1 1.748456E-07
vn -1 1.192093E-07 -1.748456E-07
vn 1 -1.192093E-07 1.748456E-07
vn 1.748456E-07 1.748456E-07 -1
vn -1.748456E-07 -1.748456E-07 1
vn -1.192093E-07 -1 -1.748456E-07
vn 1.192093E-07 1 1.748456E-07
vn -1 1.192093E-07 -1.748456E-07
vn 1 -1.192093E-07 1.748456E-07
vn 1.748456E-07 1.748456E-07 -1
vn -1.748456E-07 -1.748456E-07 1
vn 1 0 0
vn -1 0 0
vn 0 -1 0
vn 0 1 0
vn 0 0 -1
vn 0 0 1
vt -0.1084349 -0.3838944
vt -0.1065514 -0.384567
vt -0.1058787 -0.3826835
vt -0.1077622 -0.3820109
vt 0.1084349 -0.3838944
vt 0.1077622 -0.3820109
vt 0.1058787 -0.3826835
vt 0.1065514 -0.384567
vt 0.03731548 -0.09869431
vt 0.02801566 -0.08567458
vt 0.02638819 -0.08683705
vt 0.03568801 -0.09985678
vt -0.03731548 -0.09869431
vt -0.03568801 -0.09985678
vt -0.02638819 -0.08683705
vt -0.02801566 -0.08567458
vt -0.08675945 -0.4015978
vt -0.08586502 -0.3998089
vt -0.1001759 -0.3926535
vt -0.1010703 -0.3944424
vt 0.08675945 -0.4015978
vt 0.1010703 -0.3944424
vt 0.1001759 -0.3926535
vt 0.08586502 -0.3998089
vt -0.1084349 -0.3838943
vt -0.1065514 -0.384567
vt -0.1045334 -0.3789166
vt -0.1064169 -0.3782439
vt 0.1084349 -0.3838943
vt 0.1064169 -0.3782439
vt 0.1045334 -0.3789166
vt 0.1065514 -0.384567
vt 0.02801567 -0.08567458
vt 0.02685319 -0.08404712
vt 0.02522572 -0.08520959
vt 0.0263882 -0.08683706
vt -0.02801566 -0.08567458
vt -0.0263882 -0.08683705
vt -0.02522572 -0.08520959
vt -0.02685319 -0.08404712
vt -0.1010703 -0.3944424
vt -0.09838699 -0.3890758
vt -0.1001758 -0.3881814
vt -0.1028591 -0.393548
vt 0.1010703 -0.3944424
vt 0.1028591 -0.393548
vt 0.1001758 -0.3881814
vt 0.09838699 -0.3890758
vt -0.03847798 -0.1003217
vt -0.03685051 -0.1014842
vt -0.03568804 -0.09985672
vt -0.0373155 -0.09869425
vt 0.03847798 -0.1003217
vt 0.0373155 -0.09869425
vt 0.03568804 -0.09985672
vt 0.03685051 -0.1014842
vt -0.1064168 -0.3782439
vt -0.1084349 -0.3838944
vt -0.1065514 -0.3845671
vt -0.1045334 -0.3789166
vt 0.1064168 -0.3782439
vt 0.1045334 -0.3789166
vt 0.1065514 -0.3845671
vt 0.1084349 -0.3838944
vt -0.08228731 -0.3971257
vt -0.08407617 -0.3962313
vt -0.08675944 -0.4015978
vt -0.08497059 -0.4024922
vt 0.08228731 -0.3971257
vt 0.08497059 -0.4024922
vt 0.08675944 -0.4015978
vt 0.08407617 -0.3962313
o group442122515
g mesh442122515
usemtl mat21
f 4/4/1 3/3/1 2/2/1 1/1/1
f 8/8/2 7/7/2 6/6/2 5/5/2
f 2/12/3 8/11/3 5/10/3 1/9/3
f 6/16/4 7/15/4 3/14/4 4/13/4
f 5/20/5 6/19/5 4/18/5 1/17/5
f 3/24/6 7/23/6 8/22/6 2/21/6
o group1976160477
g mesh1976160477
usemtl mat21
f 12/28/7 11/27/7 10/26/7 9/25/7
f 16/32/8 15/31/8 14/30/8 13/29/8
f 10/36/9 16/35/9 13/34/9 9/33/9
f 14/40/10 15/39/10 11/38/10 12/37/10
f 13/44/11 14/43/11 12/42/11 9/41/11
f 11/48/12 15/47/12 16/46/12 10/45/12
o group852606746
g mesh852606746
usemtl mat21
f 20/52/13 19/51/13 18/50/13 17/49/13
f 24/56/14 23/55/14 22/54/14 21/53/14
f 18/60/15 24/59/15 21/58/15 17/57/15
f 22/64/16 23/63/16 19/62/16 20/61/16
f 21/68/17 22/67/17 20/66/17 17/65/17
f 19/72/18 23/71/18 24/70/18 18/69/18
