mtllib materials.mtl
v 0.02600002 0.08000004 0.00999999
v 0.02600002 0.1 0.00999999
v 0.02600002 0.1 -0.00999999
v 0.02600002 0.08000004 -0.00999999
v 0.006000042 0.08000004 0.00999999
v 0.006000042 0.08000004 -0.00999999
v 0.006000042 0.1 -0.00999999
v 0.006000042 0.1 0.00999999
v 0.006000042 0.01000011 -0.00999999
v 0.006000042 0.01000011 0.00999999
v 0.006000042 0.0800001 0.00999999
v 0.006000042 0.0800001 -0.00999999
v -0.01399994 0.01000011 -0.00999999
v -0.01399994 0.0800001 -0.00999999
v -0.01399994 0.0800001 0.00999999
v -0.01399994 0.01000011 0.00999999
v -0.01399994 -0.00999999 -0.00999999
v -0.01399994 -0.00999999 0.00999999
v -0.01399994 0.00999999 0.00999999
v -0.01399994 0.00999999 -0.00999999
v -0.03399992 -0.00999999 -0.00999999
v -0.03399992 0.00999999 -0.00999999
v -0.03399992 0.00999999 0.00999999
v -0.03399992 -0.00999999 0.00999999
v 0.02600002 -0.0999999 -0.00999999
v 0.02600002 -0.0999999 0.00999999
v 0.02600002 -0.07999992 0.00999999
v 0.02600002 -0.07999992 -0.00999999
v 0.006000042 -0.0999999 -0.00999999
v 0.006000042 -0.07999992 -0.00999999
v 0.006000042 -0.07999992 0.00999999
v 0.006000042 -0.0999999 0.00999999
v 0.006000042 -0.07999992 -0.00999999
v 0.006000042 -0.07999992 0.00999999
v 0.006000042 -0.00999999 0.00999999
v 0.006000042 -0.00999999 -0.00999999
v -0.01399994 -0.07999992 -0.00999999
v -0.01399994 -0.00999999 -0.00999999
v -0.01399994 -0.00999999 0.00999999
v -0.01399994 -0.07999992 0.00999999
vn 1 0 1.748456E-07
vn -1 0 -1.748456E-07
vn -1.748456E-07 1.192093E-07 1
vn 1.748456E-07 -1.192093E-07 -1
vn 0 -1 1.192093E-07
vn 0 1 -1.192093E-07
vn 1 0 0
vn -1 0 0
vn 0 -1 0
vn 0 1 0
vn 0 0 -1
vn 0 0 1
vn 1 0 0
vn -1 0 0
vn 0 -1 0
vn 0 1 0
vn 0 0 -1
vn 0 0 1
vn 1 0 0
vn -1 0 0
vn 0 -1 0
vn 0 1 0
vn 0 0 -1
vn 0 0 1
vn 1 0 0
vn -1 0 0
vn 0 -1 0
vn 0 1 0
vn 0 0 -1
vn 0 0 1
vt 0.1111327 -0.2022709
vt 0.1122952 -0.2006435
vt 0.1106677 -0.199481
vt 0.1095053 -0.2011085
vt -0.1111327 -0.2022709
vt -0.1095053 -0.2011085
vt -0.1106677 -0.199481
vt -0.1122952 -0.2006435
vt -0.02057186 -0.1824631
vt -0.01967743 -0.184252
vt -0.01788858 -0.1833576
vt -0.018783 -0.1815687
vt 0.02057186 -0.1824631
vt 0.018783 -0.1815687
vt 0.01788858 -0.1833576
vt 0.01967743 -0.184252
vt 0.1440865 -0.2149862
vt 0.142203 -0.2143135
vt 0.1415304 -0.216197
vt 0.1434138 -0.2168697
vt -0.1440865 -0.2149862
vt -0.1434138 -0.2168697
vt -0.1415304 -0.216197
vt -0.142203 -0.2143135
vt 0.1054366 -0.2068046
vt 0.1070641 -0.207967
vt 0.1111327 -0.2022709
vt 0.1095053 -0.2011084
vt -0.1054366 -0.2068046
vt -0.1095053 -0.2011084
vt -0.1111327 -0.2022709
vt -0.1070641 -0.207967
vt 0.1415304 -0.216197
vt 0.1408577 -0.2180805
vt 0.1427412 -0.2187532
vt 0.1434138 -0.2168697
vt -0.1415304 -0.216197
vt -0.1434138 -0.2168697
vt -0.1427412 -0.2187532
vt -0.1408577 -0.2180805
vt 0.02593839 -0.1873825
vt 0.0196774 -0.184252
vt 0.01878297 -0.1860408
vt 0.02504396 -0.1891713
vt -0.02593839 -0.1873825
vt -0.02504396 -0.1891713
vt -0.01878297 -0.1860408
vt -0.0196774 -0.184252
vt 0.1042741 -0.208432
vt 0.1059016 -0.2095945
vt 0.1070641 -0.207967
vt 0.1054366 -0.2068046
vt -0.1042741 -0.208432
vt -0.1054366 -0.2068046
vt -0.1070641 -0.207967
vt -0.1059016 -0.2095945
vt 0.1408577 -0.2180805
vt 0.140185 -0.219964
vt 0.1420685 -0.2206367
vt 0.1427412 -0.2187532
vt -0.1408577 -0.2180805
vt -0.1427412 -0.2187532
vt -0.1420685 -0.2206367
vt -0.140185 -0.219964
vt 0.02683282 -0.1900658
vt 0.02504397 -0.1891714
vt 0.02414954 -0.1909602
vt 0.0259384 -0.1918546
vt -0.02683282 -0.1900658
vt -0.0259384 -0.1918546
vt -0.02414954 -0.1909602
vt -0.02504397 -0.1891714
vt 0.09904299 -0.2157556
vt 0.1006705 -0.2169181
vt 0.1018329 -0.2152906
vt 0.1002055 -0.2141282
vt -0.09904299 -0.2157556
vt -0.1002055 -0.2141282
vt -0.1018329 -0.2152906
vt -0.1006705 -0.2169181
vt 0.142203 -0.2143136
vt 0.1415304 -0.216197
vt 0.1434138 -0.2168697
vt 0.1440865 -0.2149862
vt -0.142203 -0.2143136
vt -0.1440865 -0.2149862
vt -0.1434138 -0.2168697
vt -0.1415304 -0.216197
vt 0.03667151 -0.190513
vt 0.03488266 -0.1896186
vt 0.03398823 -0.1914074
vt 0.03577708 -0.1923018
vt -0.03667151 -0.190513
vt -0.03577708 -0.1923018
vt -0.03398823 -0.1914074
vt -0.03488266 -0.1896186
vt 0.1002055 -0.2141282
vt 0.1018329 -0.2152906
vt 0.1059016 -0.2095945
vt 0.1042741 -0.208432
vt -0.1002055 -0.2141282
vt -0.1042741 -0.208432
vt -0.1059016 -0.2095945
vt -0.1018329 -0.2152906
vt 0.1415304 -0.216197
vt 0.1408577 -0.2180805
vt 0.1427412 -0.2187532
vt 0.1434138 -0.2168697
vt -0.1415304 -0.216197
vt -0.1434138 -0.2168697
vt -0.1427412 -0.2187532
vt -0.1408577 -0.2180805
vt 0.03398823 -0.1914074
vt 0.02772725 -0.1882769
vt 0.02683282 -0.1900658
vt 0.03309381 -0.1931963
vt -0.03398823 -0.1914074
vt -0.03309381 -0.1931963
vt -0.02683282 -0.1900658
vt -0.02772725 -0.1882769
o group1066474532
g mesh1066474532
usemtl mat21
f 4/4/1 3/3/1 2/2/1 1/1/1
f 8/8/2 7/7/2 6/6/2 5/5/2
f 2/12/3 8/11/3 5/10/3 1/9/3
f 6/16/4 7/15/4 3/14/4 4/13/4
f 5/20/5 6/19/5 4/18/5 1/17/5
f 3/24/6 7/23/6 8/22/6 2/21/6
o group1521876954
g mesh1521876954
usemtl mat21
f 12/28/7 11/27/7 10/26/7 9/25/7
f 16/32/8 15/31/8 14/30/8 13/29/8
f 10/36/9 16/35/9 13/34/9 9/33/9
f 14/40/10 15/39/10 11/38/10 12/37/10
f 13/44/11 14/43/11 12/42/11 9/41/11
f 11/48/12 15/47/12 16/46/12 10/45/12
o group798583978
g mesh798583978
usemtl mat21
f 20/52/13 19/51/13 18/50/13 17/49/13
f 24/56/14 23/55/14 22/54/14 21/53/14
f 18/60/15 24/59/15 21/58/15 17/57/15
f 22/64/16 23/63/16 19/62/16 20/61/16
f 21/68/17 22/67/17 20/66/17 17/65/17
f 19/72/18 23/71/18 24/70/18 18/69/18
o group279713697
g mesh279713697
usemtl mat21
f 28/76/19 27/75/19 26/74/19 25/73/19
f 32/80/20 31/79/20 30/78/20 29/77/20
f 26/84/21 32/83/21 29/82/21 25/81/21
f 30/88/22 31/87/22 27/86/22 28/85/22
f 29/92/23 30/91/23 28/90/23 25/89/23
f 27/96/24 31/95/24 32/94/24 26/93/24
o group1379854007
g mesh1379854007
usemtl mat21
f 36/100/25 35/99/25 34/98/25 33/97/25
f 40/104/26 39/103/26 38/102/26 37/101/26
f 34/108/27 40/107/27 37/106/27 33/105/27
f 38/112/28 39/111/28 35/110/28 36/109/28
f 37/116/29 38/115/29 36/114/29 33/113/29
f 35/120/30 39/119/30 40/118/30 34/117/30
