mtllib materials.mtl
v 0.02333333 0.04166667 -0.009999871
v 0.02333333 0.04166667 0.01000011
v 0.02333333 0.06166667 0.01000011
v 0.02333333 0.06166667 -0.009999871
v -0.03666668 0.04166667 -0.009999871
v -0.03666668 0.06166667 -0.009999871
v -0.03666668 0.06166667 0.01000011
v -0.03666668 0.04166667 0.01000011
v 0.02333334 0.001666665 -0.009999871
v 0.02333334 0.001666665 0.01000011
v 0.02333334 0.02166668 0.01000011
v 0.02333334 0.02166668 -0.009999871
v -0.03666666 0.001666665 -0.009999871
v -0.03666666 0.02166668 -0.009999871
v -0.03666666 0.02166668 0.01000011
v -0.03666666 0.001666665 0.01000011
v 0.04333334 0.02166668 -0.009999871
v 0.04333334 0.02166668 0.01000011
v 0.04333334 0.04166667 0.01000011
v 0.04333334 0.04166667 -0.009999871
v 0.02333333 0.02166668 -0.009999871
v 0.02333333 0.04166667 -0.009999871
v 0.02333333 0.04166667 0.01000011
v 0.02333333 0.02166668 0.01000011
v -0.03666665 -0.03833333 -0.009999871
v -0.03666665 -0.03833333 0.01000011
v -0.03666665 0.001666665 0.01000011
v -0.03666665 0.001666665 -0.009999871
v -0.05666666 -0.03833333 -0.009999871
v -0.05666666 0.001666665 -0.009999871
v -0.05666666 0.001666665 0.01000011
v -0.05666666 -0.03833333 0.01000011
v 0.02333333 -0.05833332 -0.009999871
v 0.02333333 -0.05833332 0.01000011
v 0.02333333 -0.03833331 0.01000011
v 0.02333333 -0.03833331 -0.009999871
v -0.03666668 -0.05833332 -0.009999871
v -0.03666668 -0.03833331 -0.009999871
v -0.03666668 -0.03833331 0.01000011
v -0.03666668 -0.05833332 0.01000011
v 0.04333334 -0.03833333 -0.009999871
v 0.04333334 -0.03833333 0.01000011
v 0.04333334 -0.01833332 0.01000011
v 0.04333334 -0.01833332 -0.009999871
v 0.02333333 -0.03833333 -0.009999871
v 0.02333333 -0.01833332 -0.009999871
v 0.02333333 -0.01833332 0.01000011
v 0.02333333 -0.03833333 0.01000011
vn 1 0 1.748456E-07
vn -1 0 -1.748456E-07
vn 3.057097E-14 -1 -1.748456E-07
vn -3.057097E-14 1 1.748456E-07
vn 1.748456E-07 1.748456E-07 -1
vn -1.748456E-07 -1.748456E-07 1
vn 1 0 0
vn -1 0 0
vn 0 -1 0
vn 0 1 0
vn 0 0 -1
vn 0 0 1
vn 1 0 0
vn -1 0 0
vn 0 -1 0
vn 0 1 0
vn 0 0 -1
vn 0 0 1
vn 1 0 0
vn -1 0 0
vn 0 -1 0
vn 0 1 0
vn 0 0 -1
vn 0 0 1
vn 1 0 0
vn -1 0 0
vn 0 -1 0
vn 0 1 0
vn 0 0 -1
vn 0 0 1
vn 1 0 0
vn -1 0 0
vn 0 -1 0
vn 0 1 0
vn 0 0 -1
vn 0 0 1
vt 0.1205488 -0.09962425
vt 0.1221762 -0.1007867
vt 0.1233387 -0.09915926
vt 0.1217112 -0.09799679
vt -0.1205488 -0.09962425
vt -0.1217112 -0.09799679
vt -0.1233387 -0.09915926
vt -0.1221762 -0.1007867
vt 0.1549838 -0.02986668
vt 0.1529658 -0.03551713
vt 0.1548493 -0.03618981
vt 0.1568673 -0.03053935
vt -0.1549838 -0.02986668
vt -0.1568673 -0.03053935
vt -0.1548493 -0.03618981
vt -0.1529658 -0.03551713
vt 0.02057181 0.01654694
vt 0.01878296 0.01744137
vt 0.01609968 0.0120748
vt 0.01788853 0.01118038
vt -0.02057181 0.01654694
vt -0.01788853 0.01118038
vt -0.01609968 0.0120748
vt -0.01878296 0.01744137
vt 0.1182238 -0.1028792
vt 0.1198513 -0.1040417
vt 0.1210138 -0.1024142
vt 0.1193863 -0.1012517
vt -0.1182238 -0.1028792
vt -0.1193863 -0.1012517
vt -0.1210138 -0.1024142
vt -0.1198513 -0.1040417
vt 0.1549838 -0.02986667
vt 0.1529658 -0.03551712
vt 0.1548493 -0.03618979
vt 0.1568673 -0.03053934
vt -0.1549838 -0.02986667
vt -0.1568673 -0.03053934
vt -0.1548493 -0.03618979
vt -0.1529658 -0.03551712
vt 0.02414954 0.01475805
vt 0.02236068 0.01565248
vt 0.0196774 0.01028591
vt 0.02146625 0.009391485
vt -0.02414954 0.01475805
vt -0.02146625 0.009391485
vt -0.0196774 0.01028591
vt -0.02236068 0.01565248
vt 0.1193863 -0.1012517
vt 0.1210138 -0.1024142
vt 0.1221763 -0.1007867
vt 0.1205488 -0.09962423
vt -0.1193863 -0.1012517
vt -0.1205488 -0.09962423
vt -0.1221763 -0.1007867
vt -0.1210138 -0.1024142
vt 0.1556565 -0.02798319
vt 0.1549838 -0.02986667
vt 0.1568673 -0.03053934
vt 0.15754 -0.02865586
vt -0.1556565 -0.02798319
vt -0.15754 -0.02865586
vt -0.1568673 -0.03053934
vt -0.1549838 -0.02986667
vt 0.02325511 0.01744133
vt 0.02146625 0.01833576
vt 0.02057182 0.0165469
vt 0.02236068 0.01565247
vt -0.02325511 0.01744133
vt -0.02236068 0.01565247
vt -0.02057182 0.0165469
vt -0.02146625 0.01833576
vt 0.1158989 -0.1061341
vt 0.1175264 -0.1072966
vt 0.1198513 -0.1040417
vt 0.1182238 -0.1028792
vt -0.1158989 -0.1061341
vt -0.1182238 -0.1028792
vt -0.1198513 -0.1040417
vt -0.1175264 -0.1072966
vt 0.1529658 -0.03551712
vt 0.1522931 -0.03740061
vt 0.1541766 -0.03807328
vt 0.1548493 -0.03618979
vt -0.1529658 -0.03551712
vt -0.1548493 -0.03618979
vt -0.1541766 -0.03807328
vt -0.1522931 -0.03740061
vt 0.02504396 0.007602632
vt 0.02146626 0.009391487
vt 0.02057183 0.007602631
vt 0.02414954 0.005813777
vt -0.02504396 0.007602632
vt -0.02414954 0.005813777
vt -0.02057183 0.007602631
vt -0.02146626 0.009391487
vt 0.1147364 -0.1077616
vt 0.1163639 -0.108924
vt 0.1175264 -0.1072966
vt 0.1158989 -0.1061341
vt -0.1147364 -0.1077616
vt -0.1158989 -0.1061341
vt -0.1175264 -0.1072966
vt -0.1163639 -0.108924
vt 0.1549838 -0.02986667
vt 0.1529658 -0.03551712
vt 0.1548493 -0.0361898
vt 0.1568673 -0.03053934
vt -0.1549838 -0.02986667
vt -0.1568673 -0.03053934
vt -0.1548493 -0.0361898
vt -0.1529658 -0.03551712
vt 0.0295161 0.01207477
vt 0.02772724 0.01296919
vt 0.02504396 0.007602631
vt 0.02683282 0.006708202
vt -0.0295161 0.01207477
vt -0.02683282 0.006708202
vt -0.02504396 0.007602631
vt -0.02772724 0.01296919
vt 0.1158989 -0.1061341
vt 0.1175264 -0.1072966
vt 0.1186888 -0.1056691
vt 0.1170614 -0.1045066
vt -0.1158989 -0.1061341
vt -0.1170614 -0.1045066
vt -0.1186888 -0.1056691
vt -0.1175264 -0.1072966
vt 0.1556565 -0.02798319
vt 0.1549838 -0.02986667
vt 0.1568673 -0.03053934
vt 0.15754 -0.02865586
vt -0.1556565 -0.02798319
vt -0.15754 -0.02865586
vt -0.1568673 -0.03053934
vt -0.1549838 -0.02986667
vt 0.02862167 0.01475805
vt 0.02683282 0.01565248
vt 0.02593839 0.01386362
vt 0.02772724 0.01296919
vt -0.02862167 0.01475805
vt -0.02772724 0.01296919
vt -0.02593839 0.01386362
vt -0.02683282 0.01565248
o group1249226553
g mesh1249226553
usemtl mat21
f 4/4/1 3/3/1 2/2/1 1/1/1
f 8/8/2 7/7/2 6/6/2 5/5/2
f 2/12/3 8/11/3 5/10/3 1/9/3
f 6/16/4 7/15/4 3/14/4 4/13/4
f 5/20/5 6/19/5 4/18/5 1/17/5
f 3/24/6 7/23/6 8/22/6 2/21/6
o group32131127
g mesh32131127
usemtl mat21
f 12/28/7 11/27/7 10/26/7 9/25/7
f 16/32/8 15/31/8 14/30/8 13/29/8
f 10/36/9 16/35/9 13/34/9 9/33/9
f 14/40/10 15/39/10 11/38/10 12/37/10
f 13/44/11 14/43/11 12/42/11 9/41/11
f 11/48/12 15/47/12 16/46/12 10/45/12
o group462029367
g mesh462029367
usemtl mat21
f 20/52/13 19/51/13 18/50/13 17/49/13
f 24/56/14 23/55/14 22/54/14 21/53/14
f 18/60/15 24/59/15 21/58/15 17/57/15
f 22/64/16 23/63/16 19/62/16 20/61/16
f 21/68/17 22/67/17 20/66/17 17/65/17
f 19/72/18 23/71/18 24/70/18 18/69/18
o group332610364
g mesh332610364
usemtl mat21
f 28/76/19 27/75/19 26/74/19 25/73/19
f 32/80/20 31/79/20 30/78/20 29/77/20
f 26/84/21 32/83/21 29/82/21 25/81/21
f 30/88/22 31/87/22 27/86/22 28/85/22
f 29/92/23 30/91/23 28/90/23 25/89/23
f 27/96/24 31/95/24 32/94/24 26/93/24
o group906721937
g mesh906721937
usemtl mat21
f 36/100/25 35/99/25 34/98/25 33/97/25
f 40/104/26 39/103/26 38/102/26 37/101/26
f 34/108/27 40/107/27 37/106/27 33/105/27
f 38/112/28 39/111/28 35/110/28 36/109/28
f 37/116/29 38/115/29 36/114/29 33/113/29
f 35/120/30 39/119/30 40/118/30 34/117/30
o group1491769076
g mesh1491769076
usemtl mat21
f 44/124/31 43/123/31 42/122/31 41/121/31
f 48/128/32 47/127/32 46/126/32 45/125/32
f 42/132/33 48/131/33 45/130/33 41/129/33
f 46/136/34 47/135/34 43/134/34 44/133/34
f 45/140/35 46/139/35 44/138/35 41/137/35
f 43/144/36 47/143/36 48/142/36 42/141/36
