mtllib materials.mtl
v -0.02875006 0.04000002 -0.00999999
v -0.02875006 0.04000002 0.00999999
v -0.02875006 0.06 0.00999999
v -0.02875006 0.06 -0.00999999
v -0.04875004 0.04000002 -0.00999999
v -0.04875004 0.06 -0.00999999
v -0.04875004 0.06 0.00999999
v -0.04875004 0.04000002 0.00999999
v 0.05124998 -0.05999994 -0.00999999
v 0.05124998 -0.05999994 0.00999999
v 0.05124998 -0.03999996 0.00999999
v 0.05124998 -0.03999996 -0.00999999
v 0.03125 -0.05999994 -0.00999999
v 0.03125 -0.03999996 -0.00999999
v 0.03125 -0.03999996 0.00999999
v 0.03125 -0.05999994 0.00999999
v 0.03124988 -0.07999998 -0.00999999
v 0.03124988 -0.07999998 0.00999999
v 0.03124988 -0.06 0.00999999
v 0.03124988 -0.06 -0.00999999
v -0.02875006 -0.07999998 -0.00999999
v -0.02875006 -0.06 -0.00999999
v -0.02875006 -0.06 0.00999999
v -0.02875006 -0.07999998 0.00999999
v 0.05124998 0.0200001 -0.00999999
v 0.05124998 0.0200001 0.00999999
v 0.05124998 0.06000006 0.00999999
v 0.05124998 0.06000006 -0.00999999
v 0.03125 0.0200001 -0.00999999
v 0.03125 0.06000006 -0.00999999
v 0.03125 0.06000006 0.00999999
v 0.03125 0.0200001 0.00999999
v -0.008750081 -0.01999992 -0.00999999
v -0.008750081 -0.01999992 0.00999999
v -0.008750081 5.960464E-08 0.00999999
v -0.008750081 5.960464E-08 -0.00999999
v -0.02875006 -0.01999992 -0.00999999
v -0.02875006 5.960464E-08 -0.00999999
v -0.02875006 5.960464E-08 0.00999999
v -0.02875006 -0.01999992 0.00999999
v -0.02875006 -0.05999994 -0.00999999
v -0.02875006 -0.05999994 0.00999999
v -0.02875006 -0.01999998 0.00999999
v -0.02875006 -0.01999998 -0.00999999
v -0.04875004 -0.05999994 -0.00999999
v -0.04875004 -0.01999998 -0.00999999
v -0.04875004 -0.01999998 0.00999999
v -0.04875004 -0.05999994 0.00999999
v 0.03124988 0.06000006 -0.00999999
v 0.03124988 0.06000006 0.00999999
v 0.03124988 0.08000004 0.00999999
v 0.03124988 0.08000004 -0.00999999
v -0.02875006 0.06000006 -0.00999999
v -0.02875006 0.08000004 -0.00999999
v -0.02875006 0.08000004 0.00999999
v -0.02875006 0.06000006 0.00999999
v 0.03125 5.960464E-08 -0.00999999
v 0.03125 5.960464E-08 0.00999999
v 0.03125 0.02000004 0.00999999
v 0.03125 0.02000004 -0.00999999
v -0.008749962 5.960464E-08 -0.00999999
v -0.008749962 0.02000004 -0.00999999
v -0.008749962 0.02000004 0.00999999
v -0.008749962 5.960464E-08 0.00999999
vn 1 0 0
vn -1 0 0
vn 0 -1 0
vn 0 1 0
vn 0 0 -1
vn 0 0 1
vn 1 0 0
vn -1 0 0
vn 0 -1 0
vn 0 1 0
vn 0 0 -1
vn 0 0 1
vn 1 0 0
vn -1 0 0
vn 0 -1 0
vn 0 1 0
vn 0 0 -1
vn 0 0 1
vn 1 0 0
vn -1 0 0
vn 0 -1 0
vn 0 1 0
vn 0 0 -1
vn 0 0 1
vn 1 0 0
vn -1 0 0
vn 0 -1 0
vn 0 1 0
vn 0 0 -1
vn 0 0 1
vn 1 0 0
vn -1 0 0
vn 0 -1 0
vn 0 1 0
vn 0 0 -1
vn 0 0 1
vn 1 0 0
vn -1 0 0
vn 0 -1 0
vn 0 1 0
vn 0 0 -1
vn 0 0 1
vn 1 0 0
vn -1 0 0
vn 0 -1 0
vn 0 1 0
vn 0 0 -1
vn 0 0 1
vt -0.009764805 -0.06184375
vt -0.00813734 -0.06300622
vt -0.006974864 -0.06137876
vt -0.00860233 -0.06021629
vt 0.009764805 -0.06184375
vt 0.00860233 -0.06021629
vt 0.006974864 -0.06137876
vt 0.00813734 -0.06300622
vt -0.0334991 -0.1770475
vt -0.03417178 -0.178931
vt -0.03228829 -0.1796036
vt -0.03161562 -0.1777202
vt 0.0334991 -0.1770475
vt 0.03161562 -0.1777202
vt 0.03228829 -0.1796036
vt 0.03417178 -0.178931
vt -0.0295161 -0.184252
vt -0.03130495 -0.1833576
vt -0.03219938 -0.1851464
vt -0.03041052 -0.1860409
vt 0.0295161 -0.184252
vt 0.03041052 -0.1860409
vt 0.03219938 -0.1851464
vt 0.03130495 -0.1833576
vt -0.01557718 -0.06998108
vt -0.01394972 -0.07114355
vt -0.01278724 -0.06951609
vt -0.01441471 -0.06835362
vt 0.01557718 -0.06998108
vt 0.01441471 -0.06835362
vt 0.01278724 -0.06951609
vt 0.01394972 -0.07114355
vt -0.03080841 -0.1695136
vt -0.03148108 -0.171397
vt -0.0295976 -0.1720697
vt -0.02892493 -0.1701862
vt 0.03080841 -0.1695136
vt 0.02892493 -0.1701862
vt 0.0295976 -0.1720697
vt 0.03148108 -0.171397
vt -0.01699412 -0.1815687
vt -0.01878297 -0.1806743
vt -0.0196774 -0.1824631
vt -0.01788854 -0.1833576
vt 0.01699412 -0.1815687
vt 0.01788854 -0.1833576
vt 0.0196774 -0.1824631
vt 0.01878297 -0.1806743
vt -0.01673966 -0.07160855
vt -0.0151122 -0.07277103
vt -0.01394972 -0.07114356
vt -0.01557719 -0.06998108
vt 0.01673966 -0.07160855
vt 0.01557719 -0.06998108
vt 0.01394972 -0.07114356
vt 0.0151122 -0.07277103
vt -0.03148109 -0.171397
vt -0.0334991 -0.1770475
vt -0.03161562 -0.1777202
vt -0.02959761 -0.1720697
vt 0.03148109 -0.171397
vt 0.02959761 -0.1720697
vt 0.03161562 -0.1777202
vt 0.0334991 -0.1770475
vt -0.01609969 -0.184252
vt -0.01788854 -0.1833576
vt -0.02057182 -0.1887241
vt -0.01878297 -0.1896186
vt 0.01609969 -0.184252
vt 0.01878297 -0.1896186
vt 0.02057182 -0.1887241
vt 0.01788854 -0.1833576
vt -0.01092728 -0.06347121
vt -0.009299811 -0.06463368
vt -0.00697486 -0.06137875
vt -0.008602326 -0.06021628
vt 0.01092728 -0.06347121
vt 0.008602326 -0.06021628
vt 0.00697486 -0.06137875
vt 0.009299811 -0.06463368
vt -0.03080841 -0.1695136
vt -0.03148108 -0.171397
vt -0.0295976 -0.1720697
vt -0.02892493 -0.1701862
vt 0.03080841 -0.1695136
vt 0.02892493 -0.1701862
vt 0.0295976 -0.1720697
vt 0.03148108 -0.171397
vt -0.02414954 -0.177991
vt -0.02772724 -0.1762021
vt -0.02862167 -0.177991
vt -0.02504396 -0.1797799
vt 0.02414954 -0.177991
vt 0.02504396 -0.1797799
vt 0.02862167 -0.177991
vt 0.02772724 -0.1762021
vt -0.01325223 -0.06672615
vt -0.01162477 -0.06788862
vt -0.01046229 -0.06626116
vt -0.01208976 -0.06509868
vt 0.01325223 -0.06672615
vt 0.01208976 -0.06509868
vt 0.01046229 -0.06626116
vt 0.01162477 -0.06788862
vt -0.03282643 -0.175164
vt -0.0334991 -0.1770475
vt -0.03161562 -0.1777202
vt -0.03094295 -0.1758367
vt 0.03282643 -0.175164
vt 0.03094295 -0.1758367
vt 0.03161562 -0.1777202
vt 0.0334991 -0.1770475
vt -0.02325511 -0.1851464
vt -0.02504396 -0.184252
vt -0.02593839 -0.1860409
vt -0.02414954 -0.1869353
vt 0.02325511 -0.1851464
vt 0.02414954 -0.1869353
vt 0.02593839 -0.1860409
vt 0.02504396 -0.184252
vt -0.01557718 -0.06998108
vt -0.01394972 -0.07114355
vt -0.01162477 -0.06788862
vt -0.01325223 -0.06672615
vt 0.01557718 -0.06998108
vt 0.01325223 -0.06672615
vt 0.01162477 -0.06788862
vt 0.01394972 -0.07114355
vt -0.0334991 -0.1770475
vt -0.03417178 -0.178931
vt -0.03228829 -0.1796036
vt -0.03161562 -0.1777202
vt 0.0334991 -0.1770475
vt 0.03161562 -0.1777202
vt 0.03228829 -0.1796036
vt 0.03417178 -0.178931
vt -0.02057183 -0.1887241
vt -0.02414953 -0.1869353
vt -0.02504396 -0.1887241
vt -0.02146626 -0.190513
vt 0.02057183 -0.1887241
vt 0.02146626 -0.190513
vt 0.02504396 -0.1887241
vt 0.02414953 -0.1869353
vt -0.008602326 -0.06021628
vt -0.00697486 -0.06137875
vt -0.005812385 -0.05975129
vt -0.00743985 -0.05858881
vt 0.008602326 -0.06021628
vt 0.00743985 -0.05858881
vt 0.005812385 -0.05975129
vt 0.00697486 -0.06137875
vt -0.03148109 -0.171397
vt -0.0334991 -0.1770475
vt -0.03161562 -0.1777202
vt -0.02959761 -0.1720697
vt 0.03148109 -0.171397
vt 0.02959761 -0.1720697
vt 0.03161562 -0.1777202
vt 0.0334991 -0.1770475
vt -0.02862168 -0.177991
vt -0.03041053 -0.1770966
vt -0.03309381 -0.1824632
vt -0.03130496 -0.1833576
vt 0.02862168 -0.177991
vt 0.03130496 -0.1833576
vt 0.03309381 -0.1824632
vt 0.03041053 -0.1770966
vt -0.01208976 -0.06509868
vt -0.01046229 -0.06626116
vt -0.009299815 -0.06463369
vt -0.01092728 -0.06347121
vt 0.01208976 -0.06509868
vt 0.01092728 -0.06347121
vt 0.009299815 -0.06463369
vt 0.01046229 -0.06626116
vt -0.03148108 -0.171397
vt -0.03282643 -0.175164
vt -0.03094295 -0.1758367
vt -0.0295976 -0.1720697
vt 0.03148108 -0.171397
vt 0.0295976 -0.1720697
vt 0.03094295 -0.1758367
vt 0.03282643 -0.175164
vt -0.02325511 -0.1806743
vt -0.02504396 -0.1797799
vt -0.02683281 -0.1833576
vt -0.02504396 -0.184252
vt 0.02325511 -0.1806743
vt 0.02504396 -0.184252
vt 0.02683281 -0.1833576
vt 0.02504396 -0.1797799
o group1084650490
g mesh1084650490
usemtl mat21
f 4/4/1 3/3/1 2/2/1 1/1/1
f 8/8/2 7/7/2 6/6/2 5/5/2
f 2/12/3 8/11/3 5/10/3 1/9/3
f 6/16/4 7/15/4 3/14/4 4/13/4
f 5/20/5 6/19/5 4/18/5 1/17/5
f 3/24/6 7/23/6 8/22/6 2/21/6
o group251746796
g mesh251746796
usemtl mat21
f 12/28/7 11/27/7 10/26/7 9/25/7
f 16/32/8 15/31/8 14/30/8 13/29/8
f 10/36/9 16/35/9 13/34/9 9/33/9
f 14/40/10 15/39/10 11/38/10 12/37/10
f 13/44/11 14/43/11 12/42/11 9/41/11
f 11/48/12 15/47/12 16/46/12 10/45/12
o group1793729970
g mesh1793729970
usemtl mat21
f 20/52/13 19/51/13 18/50/13 17/49/13
f 24/56/14 23/55/14 22/54/14 21/53/14
f 18/60/15 24/59/15 21/58/15 17/57/15
f 22/64/16 23/63/16 19/62/16 20/61/16
f 21/68/17 22/67/17 20/66/17 17/65/17
f 19/72/18 23/71/18 24/70/18 18/69/18
o group150292447
g mesh150292447
usemtl mat21
f 28/76/19 27/75/19 26/74/19 25/73/19
f 32/80/20 31/79/20 30/78/20 29/77/20
f 26/84/21 32/83/21 29/82/21 25/81/21
f 30/88/22 31/87/22 27/86/22 28/85/22
f 29/92/23 30/91/23 28/90/23 25/89/23
f 27/96/24 31/95/24 32/94/24 26/93/24
o group1792268298
g mesh1792268298
usemtl mat21
f 36/100/25 35/99/25 34/98/25 33/97/25
f 40/104/26 39/103/26 38/102/26 37/101/26
f 34/108/27 40/107/27 37/106/27 33/105/27
f 38/112/28 39/111/28 35/110/28 36/109/28
f 37/116/29 38/115/29 36/114/29 33/113/29
f 35/120/30 39/119/30 40/118/30 34/117/30
o group877704480
g mesh877704480
usemtl mat21
f 44/124/31 43/123/31 42/122/31 41/121/31
f 48/128/32 47/127/32 46/126/32 45/125/32
f 42/132/33 48/131/33 45/130/33 41/129/33
f 46/136/34 47/135/34 43/134/34 44/133/34
f 45/140/35 46/139/35 44/138/35 41/137/35
f 43/144/36 47/143/36 48/142/36 42/141/36
o group1487988212
g mesh1487988212
usemtl mat21
f 52/148/37 51/147/37 50/146/37 49/145/37
f 56/152/38 55/151/38 54/150/38 53/149/38
f 50/156/39 56/155/39 53/154/39 49/153/39
f 54/160/40 55/159/40 51/158/40 52/157/40
f 53/164/41 54/163/41 52/162/41 49/161/41
f 51/168/42 55/167/42 56/166/42 50/165/42
o group1169556509
g mesh1169556509
usemtl mat21
f 60/172/43 59/171/43 58/170/43 57/169/43
f 64/176/44 63/175/44 62/174/44 61/173/44
f 58/180/45 64/179/45 61/178/45 57/177/45
f 62/184/46 63/183/46 59/182/46 60/181/46
f 61/188/47 62/187/47 60/186/47 57/185/47
f 59/192/48 63/191/48 64/190/48 58/189/48
