mtllib materials.mtl
v 0.00666678 -0.03666651 -0.00999999
v 0.00666678 -0.03666651 0.00999999
v 0.00666678 -0.01666653 0.00999999
v 0.00666678 -0.01666653 -0.00999999
v -0.0133332 -0.03666651 -0.00999999
v -0.0133332 -0.01666653 -0.00999999
v -0.0133332 -0.01666653 0.00999999
v -0.0133332 -0.03666651 0.00999999
v 0.00666678 0.06333339 -0.00999999
v 0.00666678 0.06333339 0.00999999
v 0.00666678 0.08333337 0.00999999
v 0.00666678 0.08333337 -0.00999999
v -0.0133332 0.06333339 -0.00999999
v -0.0133332 0.08333337 -0.00999999
v -0.0133332 0.08333337 0.00999999
v -0.0133332 0.06333339 0.00999999
v 0.01666677 -0.05666661 -0.00999999
v 0.01666677 -0.05666661 0.00999999
v 0.01666677 -0.03666663 0.00999999
v 0.01666677 -0.03666663 -0.00999999
v -0.003333211 -0.05666661 -0.00999999
v -0.003333211 -0.03666663 -0.00999999
v -0.003333211 -0.03666663 0.00999999
v -0.003333211 -0.05666661 0.00999999
vn 1 0 0
vn -1 0 0
vn 0 -1 0
vn 0 1 0
vn 0 0 -1
vn 0 0 1
vn 1 0 0
vn -1 0 0
vn 0 -1 0
vn 0 1 0
vn 0 0 -1
vn 0 0 1
vn 1 0 0
vn -1 0 0
vn 0 -1 0
vn 0 1 0
vn 0 0 -1
vn 0 0 1
vt 0.0988105 -0.2057583
vt 0.100438 -0.2069208
vt 0.1016004 -0.2052933
vt 0.09997298 -0.2041309
vt -0.0988105 -0.2057583
vt -0.09997298 -0.2041309
vt -0.1016004 -0.2052933
vt -0.100438 -0.2069208
vt 0.1291532 -0.2330139
vt 0.1284805 -0.2348973
vt 0.130364 -0.23557
vt 0.1310367 -0.2336865
vt -0.1291532 -0.2330139
vt -0.1310367 -0.2336865
vt -0.130364 -0.23557
vt -0.1284805 -0.2348973
vt 0.01967739 -0.2066127
vt 0.01788854 -0.2057182
vt 0.01699411 -0.2075071
vt 0.01878296 -0.2084015
vt -0.01967739 -0.2066127
vt -0.01878296 -0.2084015
vt -0.01699411 -0.2075071
vt -0.01788854 -0.2057182
vt 0.1046229 -0.197621
vt 0.1062503 -0.1987835
vt 0.1074128 -0.197156
vt 0.1057854 -0.1959935
vt -0.1046229 -0.197621
vt -0.1057854 -0.1959935
vt -0.1074128 -0.197156
vt -0.1062503 -0.1987835
vt 0.1291532 -0.2330139
vt 0.1284805 -0.2348973
vt 0.130364 -0.23557
vt 0.1310367 -0.2336865
vt -0.1291532 -0.2330139
vt -0.1310367 -0.2336865
vt -0.130364 -0.23557
vt -0.1284805 -0.2348973
vt 0.01073313 -0.2021405
vt 0.008944275 -0.2012461
vt 0.008049848 -0.203035
vt 0.009838701 -0.2039294
vt -0.01073313 -0.2021405
vt -0.009838701 -0.2039294
vt -0.008049848 -0.203035
vt -0.008944275 -0.2012461
vt 0.09764802 -0.2073858
vt 0.09927548 -0.2085483
vt 0.100438 -0.2069208
vt 0.09881049 -0.2057583
vt -0.09764802 -0.2073858
vt -0.09881049 -0.2057583
vt -0.100438 -0.2069208
vt -0.09927548 -0.2085483
vt 0.1294895 -0.2320721
vt 0.1288168 -0.2339556
vt 0.1307003 -0.2346283
vt 0.131373 -0.2327448
vt -0.1294895 -0.2320721
vt -0.131373 -0.2327448
vt -0.1307003 -0.2346283
vt -0.1288168 -0.2339556
vt 0.02191347 -0.2066127
vt 0.02012462 -0.2057182
vt 0.01923019 -0.2075071
vt 0.02101904 -0.2084015
vt -0.02191347 -0.2066127
vt -0.02101904 -0.2084015
vt -0.01923019 -0.2075071
vt -0.02012462 -0.2057182
o group1959309968
g mesh1959309968
usemtl mat21
f 4/4/1 3/3/1 2/2/1 1/1/1
f 8/8/2 7/7/2 6/6/2 5/5/2
f 2/12/3 8/11/3 5/10/3 1/9/3
f 6/16/4 7/15/4 3/14/4 4/13/4
f 5/20/5 6/19/5 4/18/5 1/17/5
f 3/24/6 7/23/6 8/22/6 2/21/6
o group308069220
g mesh308069220
usemtl mat21
f 12/28/7 11/27/7 10/26/7 9/25/7
f 16/32/8 15/31/8 14/30/8 13/29/8
f 10/36/9 16/35/9 13/34/9 9/33/9
f 14/40/10 15/39/10 11/38/10 12/37/10
f 13/44/11 14/43/11 12/42/11 9/41/11
f 11/48/12 15/47/12 16/46/12 10/45/12
o group1684229205
g mesh1684229205
usemtl mat21
f 20/52/13 19/51/13 18/50/13 17/49/13
f 24/56/14 23/55/14 22/54/14 21/53/14
f 18/60/15 24/59/15 21/58/15 17/57/15
f 22/64/16 23/63/16 19/62/16 20/61/16
f 21/68/17 22/67/17 20/66/17 17/65/17
f 19/72/18 23/71/18 24/70/18 18/69/18
