mtllib materials.mtl
v 0.01499999 -0.01999998 -0.00999999
v 0.01499999 -0.01999998 0.00999999
v 0.01499999 0 0.00999999
v 0.01499999 0 -0.00999999
v -0.004999995 -0.01999998 -0.00999999
v -0.004999995 0 -0.00999999
v -0.004999995 0 0.00999999
v -0.004999995 -0.01999998 0.00999999
v 0.004999995 5.960464E-08 -0.00999999
v 0.004999995 5.960464E-08 0.00999999
v 0.004999995 0.02000004 0.00999999
v 0.004999995 0.02000004 -0.00999999
v -0.01499999 5.960464E-08 -0.00999999
v -0.01499999 0.02000004 -0.00999999
v -0.01499999 0.02000004 0.00999999
v -0.01499999 5.960464E-08 0.00999999
vn 1 0 0
vn -1 0 0
vn 0 -1 0
vn 0 1 0
vn 0 0 -1
vn 0 0 1
vn 1 0 0
vn -1 0 0
vn 0 -1 0
vn 0 1 0
vn 0 0 -1
vn 0 0 1
vt 0.1095053 -0.2011084
vt 0.1111327 -0.2022709
vt 0.1122952 -0.2006435
vt 0.1106678 -0.199481
vt -0.1095053 -0.2011084
vt -0.1106678 -0.199481
vt -0.1122952 -0.2006435
vt -0.1111327 -0.2022709
vt 0.1385033 -0.2246727
vt 0.1378307 -0.2265562
vt 0.1397141 -0.2272289
vt 0.1403868 -0.2253454
vt -0.1385033 -0.2246727
vt -0.1403868 -0.2253454
vt -0.1397141 -0.2272289
vt -0.1378307 -0.2265562
vt 0.01565248 -0.1923019
vt 0.01386363 -0.1914074
vt 0.0129692 -0.1931963
vt 0.01475805 -0.1940907
vt -0.01565248 -0.1923019
vt -0.01475805 -0.1940907
vt -0.0129692 -0.1931963
vt -0.01386363 -0.1914074
vt 0.1106678 -0.199481
vt 0.1122952 -0.2006435
vt 0.1134577 -0.199016
vt 0.1118302 -0.1978535
vt -0.1106678 -0.199481
vt -0.1118302 -0.1978535
vt -0.1134577 -0.199016
vt -0.1122952 -0.2006435
vt 0.138167 -0.2256145
vt 0.1374943 -0.2274979
vt 0.1393778 -0.2281706
vt 0.1400505 -0.2262871
vt -0.138167 -0.2256145
vt -0.1400505 -0.2262871
vt -0.1393778 -0.2281706
vt -0.1374943 -0.2274979
vt 0.01341641 -0.1923019
vt 0.01162755 -0.1914074
vt 0.01073313 -0.1931963
vt 0.01252198 -0.1940907
vt -0.01341641 -0.1923019
vt -0.01252198 -0.1940907
vt -0.01073313 -0.1931963
vt -0.01162755 -0.1914074
o group1904674403
g mesh1904674403
usemtl mat21
f 4/4/1 3/3/1 2/2/1 1/1/1
f 8/8/2 7/7/2 6/6/2 5/5/2
f 2/12/3 8/11/3 5/10/3 1/9/3
f 6/16/4 7/15/4 3/14/4 4/13/4
f 5/20/5 6/19/5 4/18/5 1/17/5
f 3/24/6 7/23/6 8/22/6 2/21/6
o group439976397
g mesh439976397
usemtl mat21
f 12/28/7 11/27/7 10/26/7 9/25/7
f 16/32/8 15/31/8 14/30/8 13/29/8
f 10/36/9 16/35/9 13/34/9 9/33/9
f 14/40/10 15/39/10 11/38/10 12/37/10
f 13/44/11 14/43/11 12/42/11 9/41/11
f 11/48/12 15/47/12 16/46/12 10/45/12
