mtllib materials.mtl
v 0.04999995 0.02499998 -0.00999999
v 0.04999995 0.02499998 0.00999999
v 0.04999995 0.04499996 0.00999999
v 0.04999995 0.04499996 -0.00999999
v -0.04999995 0.02499998 -0.00999999
v -0.04999995 0.04499996 -0.00999999
v -0.04999995 0.04499996 0.00999999
v -0.04999995 0.02499998 0.00999999
v 0.00999999 -0.115 -0.00999999
v 0.00999999 -0.115 0.00999999
v 0.00999999 0.04499996 0.00999999
v 0.00999999 0.04499996 -0.00999999
v -0.00999999 -0.115 -0.00999999
v -0.00999999 0.04499996 -0.00999999
v -0.00999999 0.04499996 0.00999999
v -0.00999999 -0.115 0.00999999
vn 1 0 0
vn -1 0 0
vn 0 -1 0
vn 0 1 0
vn 0 0 -1
vn 0 0 1
vn 1 0 0
vn -1 0 0
vn 0 -1 0
vn 0 1 0
vn 0 0 -1
vn 0 0 1
vt -0.009416061 -0.05963504
vt -0.007788596 -0.06079751
vt -0.00662612 -0.05917005
vt -0.008253586 -0.05800758
vt 0.009416061 -0.05963504
vt 0.008253586 -0.05800758
vt 0.00662612 -0.05917005
vt 0.007788596 -0.06079751
vt -0.03645887 -0.1823616
vt -0.03982223 -0.191779
vt -0.03793875 -0.1924517
vt -0.03457539 -0.1830343
vt 0.03645887 -0.1823616
vt 0.03457539 -0.1830343
vt 0.03793875 -0.1924517
vt 0.03982223 -0.191779
vt -0.03398824 -0.1887241
vt -0.03577709 -0.1878297
vt -0.04024922 -0.196774
vt -0.03846037 -0.1976684
vt 0.03398824 -0.1887241
vt 0.03846037 -0.1976684
vt 0.04024922 -0.196774
vt 0.03577709 -0.1878297
vt -0.0175534 -0.07102731
vt -0.01592593 -0.07218979
vt -0.00662612 -0.05917005
vt -0.008253586 -0.05800758
vt 0.0175534 -0.07102731
vt 0.008253586 -0.05800758
vt 0.00662612 -0.05917005
vt 0.01592593 -0.07218979
vt -0.03780421 -0.1861286
vt -0.03847688 -0.188012
vt -0.0365934 -0.1886847
vt -0.03592073 -0.1868012
vt 0.03780421 -0.1861286
vt 0.03592073 -0.1868012
vt 0.0365934 -0.1886847
vt 0.03847688 -0.188012
vt -0.02325511 -0.1985628
vt -0.03756595 -0.1914074
vt -0.03846037 -0.1931963
vt -0.02414954 -0.2003517
vt 0.02325511 -0.1985628
vt 0.02414954 -0.2003517
vt 0.03846037 -0.1931963
vt 0.03756595 -0.1914074
o group885805437
g mesh885805437
usemtl mat21
f 4/4/1 3/3/1 2/2/1 1/1/1
f 8/8/2 7/7/2 6/6/2 5/5/2
f 2/12/3 8/11/3 5/10/3 1/9/3
f 6/16/4 7/15/4 3/14/4 4/13/4
f 5/20/5 6/19/5 4/18/5 1/17/5
f 3/24/6 7/23/6 8/22/6 2/21/6
o group340061934
g mesh340061934
usemtl mat21
f 12/28/7 11/27/7 10/26/7 9/25/7
f 16/32/8 15/31/8 14/30/8 13/29/8
f 10/36/9 16/35/9 13/34/9 9/33/9
f 14/40/10 15/39/10 11/38/10 12/37/10
f 13/44/11 14/43/11 12/42/11 9/41/11
f 11/48/12 15/47/12 16/46/12 10/45/12
