mtllib materials.mtl
v 0.05000007 0.00999999 -0.01000011
v 0.05000007 0.00999999 0.009999871
v 0.05000007 0.02999997 0.009999871
v 0.05000007 0.02999997 -0.01000011
v 0.01000011 0.00999999 -0.01000011
v 0.01000011 0.02999997 -0.01000011
v 0.01000011 0.02999997 0.009999871
v 0.01000011 0.00999999 0.009999871
v 0.07000005 -0.00999999 -0.01000011
v 0.07000005 -0.00999999 0.009999871
v 0.07000005 0.00999999 0.009999871
v 0.07000005 0.00999999 -0.01000011
v 0.05000007 -0.00999999 -0.01000011
v 0.05000007 0.00999999 -0.01000011
v 0.05000007 0.00999999 0.009999871
v 0.05000007 -0.00999999 0.009999871
v 0.01000011 -0.00999999 -0.01000011
v 0.01000011 -0.00999999 0.009999871
v 0.01000011 0.00999999 0.009999871
v 0.01000011 0.00999999 -0.01000011
v -0.009999871 -0.00999999 -0.01000011
v -0.009999871 0.00999999 -0.01000011
v -0.009999871 0.00999999 0.009999871
v -0.009999871 -0.00999999 0.009999871
v -0.009999871 -0.02999997 -0.01000011
v -0.009999871 -0.02999997 0.009999871
v -0.009999871 -0.00999999 0.009999871
v -0.009999871 -0.00999999 -0.01000011
v -0.04999983 -0.02999997 -0.01000011
v -0.04999983 -0.00999999 -0.01000011
v -0.04999983 -0.00999999 0.009999871
v -0.04999983 -0.02999997 0.009999871
v -0.04999995 -0.00999999 -0.01000011
v -0.04999995 -0.00999999 0.009999871
v -0.04999995 0.00999999 0.009999871
v -0.04999995 0.00999999 -0.01000011
v -0.06999993 -0.00999999 -0.01000011
v -0.06999993 0.00999999 -0.01000011
v -0.06999993 0.00999999 0.009999871
v -0.06999993 -0.00999999 0.009999871
vn 1 0 0
vn -1 0 0
vn 0 -1 0
vn 0 1 0
vn 0 0 -1
vn 0 0 1
vn 1 0 0
vn -1 0 0
vn 0 -1 0
vn 0 1 0
vn 0 0 -1
vn 0 0 1
vn 1 0 0
vn -1 0 0
vn 0 -1 0
vn 0 1 0
vn 0 0 -1
vn 0 0 1
vn 1 0 0
vn -1 0 0
vn 0 -1 0
vn 0 1 0
vn 0 0 -1
vn 0 0 1
vn 1 0 0
vn -1 0 0
vn 0 -1 0
vn 0 1 0
vn 0 0 -1
vn 0 0 1
vt 0.1018329 -0.198086
vt 0.1034604 -0.1992485
vt 0.1046229 -0.197621
vt 0.1029954 -0.1964585
vt -0.1018329 -0.198086
vt -0.1029954 -0.1964585
vt -0.1046229 -0.197621
vt -0.1034604 -0.1992485
vt 0.1272697 -0.2323412
vt 0.1259243 -0.2361082
vt 0.1278078 -0.2367808
vt 0.1291532 -0.2330139
vt -0.1272697 -0.2323412
vt -0.1291532 -0.2330139
vt -0.1278078 -0.2367808
vt -0.1259243 -0.2361082
vt 0.01252198 -0.203035
vt 0.01073313 -0.2021405
vt 0.008944275 -0.2057182
vt 0.01073313 -0.2066127
vt -0.01252198 -0.203035
vt -0.01073313 -0.2066127
vt -0.008944275 -0.2057182
vt -0.01073313 -0.2021405
vt 0.1006704 -0.1997135
vt 0.1022979 -0.2008759
vt 0.1034604 -0.1992485
vt 0.1018329 -0.198086
vt -0.1006704 -0.1997135
vt -0.1018329 -0.198086
vt -0.1034604 -0.1992485
vt -0.1022979 -0.2008759
vt 0.1279424 -0.2304577
vt 0.1272697 -0.2323412
vt 0.1291532 -0.2330139
vt 0.1298258 -0.2311304
vt -0.1279424 -0.2304577
vt -0.1298258 -0.2311304
vt -0.1291532 -0.2330139
vt -0.1272697 -0.2323412
vt 0.01520526 -0.2021405
vt 0.01341641 -0.2012461
vt 0.01252198 -0.203035
vt 0.01431083 -0.2039294
vt -0.01520526 -0.2021405
vt -0.01431083 -0.2039294
vt -0.01252198 -0.203035
vt -0.01341641 -0.2012461
vt 0.1006704 -0.1997135
vt 0.1022979 -0.2008759
vt 0.1034604 -0.1992485
vt 0.1018329 -0.198086
vt -0.1006704 -0.1997135
vt -0.1018329 -0.198086
vt -0.1034604 -0.1992485
vt -0.1022979 -0.2008759
vt 0.1259243 -0.2361082
vt 0.1252517 -0.2379916
vt 0.1271352 -0.2386643
vt 0.1278078 -0.2367808
vt -0.1259243 -0.2361082
vt -0.1278078 -0.2367808
vt -0.1271352 -0.2386643
vt -0.1252517 -0.2379916
vt 0.01252198 -0.2075071
vt 0.01073313 -0.2066127
vt 0.009838701 -0.2084015
vt 0.01162755 -0.209296
vt -0.01252198 -0.2075071
vt -0.01162755 -0.209296
vt -0.009838701 -0.2084015
vt -0.01073313 -0.2066127
vt 0.09950797 -0.2013409
vt 0.1011354 -0.2025034
vt 0.1022979 -0.2008759
vt 0.1006704 -0.1997135
vt -0.09950797 -0.2013409
vt -0.1006704 -0.1997135
vt -0.1022979 -0.2008759
vt -0.1011354 -0.2025034
vt 0.1252517 -0.2379916
vt 0.1239063 -0.2417586
vt 0.1257898 -0.2424313
vt 0.1271352 -0.2386643
vt -0.1252517 -0.2379916
vt -0.1271352 -0.2386643
vt -0.1257898 -0.2424313
vt -0.1239063 -0.2417586
vt 0.01341641 -0.2101904
vt 0.01162755 -0.209296
vt 0.009838701 -0.2128737
vt 0.01162755 -0.2137681
vt -0.01341641 -0.2101904
vt -0.01162755 -0.2137681
vt -0.009838701 -0.2128737
vt -0.01162755 -0.209296
vt 0.1006704 -0.1997135
vt 0.1022979 -0.2008759
vt 0.1034604 -0.1992485
vt 0.1018329 -0.198086
vt -0.1006704 -0.1997135
vt -0.1018329 -0.198086
vt -0.1034604 -0.1992485
vt -0.1022979 -0.2008759
vt 0.1239063 -0.2417586
vt 0.1232337 -0.2436421
vt 0.1251171 -0.2443148
vt 0.1257898 -0.2424313
vt -0.1239063 -0.2417586
vt -0.1257898 -0.2424313
vt -0.1251171 -0.2443148
vt -0.1232337 -0.2436421
vt 0.009838696 -0.2128737
vt 0.008049843 -0.2119792
vt 0.007155416 -0.2137681
vt 0.008944269 -0.2146625
vt -0.009838696 -0.2128737
vt -0.008944269 -0.2146625
vt -0.007155416 -0.2137681
vt -0.008049843 -0.2119792
o group1093126917
g mesh1093126917
usemtl mat21
f 4/4/1 3/3/1 2/2/1 1/1/1
f 8/8/2 7/7/2 6/6/2 5/5/2
f 2/12/3 8/11/3 5/10/3 1/9/3
f 6/16/4 7/15/4 3/14/4 4/13/4
f 5/20/5 6/19/5 4/18/5 1/17/5
f 3/24/6 7/23/6 8/22/6 2/21/6
o group712309633
g mesh712309633
usemtl mat21
f 12/28/7 11/27/7 10/26/7 9/25/7
f 16/32/8 15/31/8 14/30/8 13/29/8
f 10/36/9 16/35/9 13/34/9 9/33/9
f 14/40/10 15/39/10 11/38/10 12/37/10
f 13/44/11 14/43/11 12/42/11 9/41/11
f 11/48/12 15/47/12 16/46/12 10/45/12
o group1059187340
g mesh1059187340
usemtl mat21
f 20/52/13 19/51/13 18/50/13 17/49/13
f 24/56/14 23/55/14 22/54/14 21/53/14
f 18/60/15 24/59/15 21/58/15 17/57/15
f 22/64/16 23/63/16 19/62/16 20/61/16
f 21/68/17 22/67/17 20/66/17 17/65/17
f 19/72/18 23/71/18 24/70/18 18/69/18
o group149052802
g mesh149052802
usemtl mat21
f 28/76/19 27/75/19 26/74/19 25/73/19
f 32/80/20 31/79/20 30/78/20 29/77/20
f 26/84/21 32/83/21 29/82/21 25/81/21
f 30/88/22 31/87/22 27/86/22 28/85/22
f 29/92/23 30/91/23 28/90/23 25/89/23
f 27/96/24 31/95/24 32/94/24 26/93/24
o group792005224
g mesh792005224
usemtl mat21
f 36/100/25 35/99/25 34/98/25 33/97/25
f 40/104/26 39/103/26 38/102/26 37/101/26
f 34/108/27 40/107/27 37/106/27 33/105/27
f 38/112/28 39/111/28 35/110/28 36/109/28
f 37/116/29 38/115/29 36/114/29 33/113/29
f 35/120/30 39/119/30 40/118/30 34/117/30
