mtllib materials.mtl
v 0.03999996 -0.03399998 -0.00999999
v 0.03999996 -0.03399998 0.00999999
v 0.03999996 -0.014 0.00999999
v 0.03999996 -0.014 -0.00999999
v 0.01999998 -0.03399998 -0.00999999
v 0.01999998 -0.014 -0.00999999
v 0.01999998 -0.014 0.00999999
v 0.01999998 -0.03399998 0.00999999
v 0.06000006 -0.014 -0.00999999
v 0.06000006 -0.014 0.00999999
v 0.06000006 0.106 0.00999999
v 0.06000006 0.106 -0.00999999
v 0.04000008 -0.014 -0.00999999
v 0.04000008 0.106 -0.00999999
v 0.04000008 0.106 0.00999999
v 0.04000008 -0.014 0.00999999
v -0.01999998 -0.03399998 -0.00999999
v -0.01999998 -0.03399998 0.00999999
v -0.01999998 -0.014 0.00999999
v -0.01999998 -0.014 -0.00999999
v -0.03999996 -0.03399998 -0.00999999
v -0.03999996 -0.014 -0.00999999
v -0.03999996 -0.014 0.00999999
v -0.03999996 -0.03399998 0.00999999
v 0.01999998 -0.05399996 -0.00999999
v 0.01999998 -0.05399996 0.00999999
v 0.01999998 -0.03399998 0.00999999
v 0.01999998 -0.03399998 -0.00999999
v -0.01999998 -0.05399996 -0.00999999
v -0.01999998 -0.03399998 -0.00999999
v -0.01999998 -0.03399998 0.00999999
v -0.01999998 -0.05399996 0.00999999
v -0.03999996 -0.014 -0.00999999
v -0.03999996 -0.014 0.00999999
v -0.03999996 0.106 0.00999999
v -0.03999996 0.106 -0.00999999
v -0.05999994 -0.014 -0.00999999
v -0.05999994 0.106 -0.00999999
v -0.05999994 0.106 0.00999999
v -0.05999994 -0.014 0.00999999
vn 1 0 0
vn -1 0 0
vn 0 -1 0
vn 0 1 0
vn 0 0 -1
vn 0 0 1
vn 1 0 0
vn -1 0 0
vn 0 -1 0
vn 0 1 0
vn 0 0 -1
vn 0 0 1
vn 1 0 0
vn -1 0 0
vn 0 -1 0
vn 0 1 0
vn 0 0 -1
vn 0 0 1
vn 1 0 0
vn -1 0 0
vn 0 -1 0
vn 0 1 0
vn 0 0 -1
vn 0 0 1
vn 1 0 0
vn -1 0 0
vn 0 -1 0
vn 0 1 0
vn 0 0 -1
vn 0 0 1
vt -0.01639092 -0.06939984
vt -0.01476345 -0.07056232
vt -0.01360098 -0.06893485
vt -0.01522844 -0.06777237
vt 0.01639092 -0.06939984
vt 0.01522844 -0.06777237
vt 0.01360098 -0.06893485
vt 0.01476345 -0.07056232
vt -0.04184025 -0.1974295
vt -0.04251292 -0.199313
vt -0.04062944 -0.1999856
vt -0.03995677 -0.1981021
vt 0.04184025 -0.1974295
vt 0.03995677 -0.1981021
vt 0.04062944 -0.1999856
vt 0.04251292 -0.199313
vt -0.03041053 -0.2084015
vt -0.03219938 -0.2075071
vt -0.03309381 -0.209296
vt -0.03130496 -0.2101904
vt 0.03041053 -0.2084015
vt 0.03130496 -0.2101904
vt 0.03309381 -0.209296
vt 0.03219938 -0.2075071
vt -0.01522844 -0.06777237
vt -0.01360098 -0.06893485
vt -0.00662612 -0.05917005
vt -0.008253586 -0.05800758
vt 0.01522844 -0.06777237
vt 0.008253586 -0.05800758
vt 0.00662612 -0.05917005
vt 0.01360098 -0.06893485
vt -0.04116758 -0.195546
vt -0.04184025 -0.1974294
vt -0.03995676 -0.1981021
vt -0.03928409 -0.1962186
vt 0.04116758 -0.195546
vt 0.03928409 -0.1962186
vt 0.03995676 -0.1981021
vt 0.04184025 -0.1974294
vt -0.03130495 -0.2057182
vt -0.04203808 -0.2003517
vt -0.0429325 -0.2021405
vt -0.03219938 -0.2075071
vt 0.03130495 -0.2057182
vt 0.03219938 -0.2075071
vt 0.0429325 -0.2021405
vt 0.04203808 -0.2003517
vt -0.01639092 -0.06939984
vt -0.01476345 -0.07056232
vt -0.01360098 -0.06893485
vt -0.01522844 -0.06777237
vt 0.01639092 -0.06939984
vt 0.01522844 -0.06777237
vt 0.01360098 -0.06893485
vt 0.01476345 -0.07056232
vt -0.04385827 -0.2030799
vt -0.04453094 -0.2049634
vt -0.04264746 -0.2056361
vt -0.04197479 -0.2037526
vt 0.04385827 -0.2030799
vt 0.04197479 -0.2037526
vt 0.04264746 -0.2056361
vt 0.04453094 -0.2049634
vt -0.03309381 -0.2137681
vt -0.03488266 -0.2128737
vt -0.03577708 -0.2146625
vt -0.03398823 -0.2155569
vt 0.03309381 -0.2137681
vt 0.03398823 -0.2155569
vt 0.03577708 -0.2146625
vt 0.03488266 -0.2128737
vt -0.0175534 -0.07102731
vt -0.01592593 -0.07218979
vt -0.01476345 -0.07056232
vt -0.01639092 -0.06939984
vt 0.0175534 -0.07102731
vt 0.01639092 -0.06939984
vt 0.01476345 -0.07056232
vt 0.01592593 -0.07218979
vt -0.04251292 -0.199313
vt -0.04385827 -0.2030799
vt -0.04197479 -0.2037526
vt -0.04062944 -0.1999856
vt 0.04251292 -0.199313
vt 0.04062944 -0.1999856
vt 0.04197479 -0.2037526
vt 0.04385827 -0.2030799
vt -0.0295161 -0.2110848
vt -0.03130496 -0.2101904
vt -0.03309381 -0.2137681
vt -0.03130496 -0.2146625
vt 0.0295161 -0.2110848
vt 0.03130496 -0.2146625
vt 0.03309381 -0.2137681
vt 0.03130496 -0.2101904
vt -0.01522844 -0.06777237
vt -0.01360098 -0.06893485
vt -0.00662612 -0.05917005
vt -0.008253586 -0.05800758
vt 0.01522844 -0.06777237
vt 0.008253586 -0.05800758
vt 0.00662612 -0.05917005
vt 0.01360098 -0.06893485
vt -0.04453094 -0.2049634
vt -0.04520361 -0.2068469
vt -0.04332013 -0.2075196
vt -0.04264746 -0.2056361
vt 0.04453094 -0.2049634
vt 0.04264746 -0.2056361
vt 0.04332013 -0.2075196
vt 0.04520361 -0.2068469
vt -0.03577708 -0.2146625
vt -0.04651021 -0.209296
vt -0.04740464 -0.2110848
vt -0.03667151 -0.2164514
vt 0.03577708 -0.2146625
vt 0.03667151 -0.2164514
vt 0.04740464 -0.2110848
vt 0.04651021 -0.209296
o group1089902485
g mesh1089902485
usemtl mat21
f 4/4/1 3/3/1 2/2/1 1/1/1
f 8/8/2 7/7/2 6/6/2 5/5/2
f 2/12/3 8/11/3 5/10/3 1/9/3
f 6/16/4 7/15/4 3/14/4 4/13/4
f 5/20/5 6/19/5 4/18/5 1/17/5
f 3/24/6 7/23/6 8/22/6 2/21/6
o group780079119
g mesh780079119
usemtl mat21
f 12/28/7 11/27/7 10/26/7 9/25/7
f 16/32/8 15/31/8 14/30/8 13/29/8
f 10/36/9 16/35/9 13/34/9 9/33/9
f 14/40/10 15/39/10 11/38/10 12/37/10
f 13/44/11 14/43/11 12/42/11 9/41/11
f 11/48/12 15/47/12 16/46/12 10/45/12
o group836437358
g mesh836437358
usemtl mat21
f 20/52/13 19/51/13 18/50/13 17/49/13
f 24/56/14 23/55/14 22/54/14 21/53/14
f 18/60/15 24/59/15 21/58/15 17/57/15
f 22/64/16 23/63/16 19/62/16 20/61/16
f 21/68/17 22/67/17 20/66/17 17/65/17
f 19/72/18 23/71/18 24/70/18 18/69/18
o group912858570
g mesh912858570
usemtl mat21
f 28/76/19 27/75/19 26/74/19 25/73/19
f 32/80/20 31/79/20 30/78/20 29/77/20
f 26/84/21 32/83/21 29/82/21 25/81/21
f 30/88/22 31/87/22 27/86/22 28/85/22
f 29/92/23 30/91/23 28/90/23 25/89/23
f 27/96/24 31/95/24 32/94/24 26/93/24
o group2067636759
g mesh2067636759
usemtl mat21
f 36/100/25 35/99/25 34/98/25 33/97/25
f 40/104/26 39/103/26 38/102/26 37/101/26
f 34/108/27 40/107/27 37/106/27 33/105/27
f 38/112/28 39/111/28 35/110/28 36/109/28
f 37/116/29 38/115/29 36/114/29 33/113/29
f 35/120/30 39/119/30 40/118/30 34/117/30
