mtllib materials.mtl
v 0.04999971 -0.008571506 -0.00999999
v 0.04999971 -0.008571506 0.00999999
v 0.04999971 0.03142846 0.00999999
v 0.04999971 0.03142846 -0.00999999
v 0.02999973 -0.008571506 -0.00999999
v 0.02999973 0.03142846 -0.00999999
v 0.02999973 0.03142846 0.00999999
v 0.02999973 -0.008571506 0.00999999
v 0.06999993 0.03142852 -0.00999999
v 0.06999993 0.03142852 0.00999999
v 0.06999993 0.07142848 0.01000002
v 0.06999993 0.07142848 -0.00999999
v 0.04999995 0.03142852 -0.01000002
v 0.04999995 0.07142848 -0.00999999
v 0.04999995 0.07142848 0.00999999
v 0.04999995 0.03142852 0.00999999
v -0.03000021 -0.008571506 -0.00999999
v -0.03000021 -0.008571506 0.00999999
v -0.03000021 0.03142846 0.00999999
v -0.03000021 0.03142846 -0.00999999
v -0.05000019 -0.008571506 -0.00999999
v -0.05000019 0.03142846 -0.00999999
v -0.05000019 0.03142846 0.00999999
v -0.05000019 -0.008571506 0.00999999
v 0.009999752 -0.08857149 -0.00999999
v 0.009999752 -0.08857149 0.00999999
v 0.009999752 -0.04857153 0.00999999
v 0.009999752 -0.04857153 -0.00999999
v -0.01000023 -0.08857149 -0.00999999
v -0.01000023 -0.04857153 -0.00999999
v -0.01000023 -0.04857153 0.00999999
v -0.01000023 -0.08857149 0.00999999
v 0.02999973 -0.04857147 -0.00999999
v 0.02999973 -0.04857147 0.00999999
v 0.02999973 -0.008571506 0.00999999
v 0.02999973 -0.008571506 -0.00999999
v 0.009999752 -0.04857147 -0.00999999
v 0.009999752 -0.008571506 -0.00999999
v 0.009999752 -0.008571506 0.00999999
v 0.009999752 -0.04857147 0.00999999
v -0.05000019 0.03142846 -0.00999999
v -0.05000019 0.03142846 0.00999999
v -0.05000019 0.07142842 0.00999999
v -0.05000019 0.07142842 -0.00999999
v -0.07000017 0.03142846 -0.00999999
v -0.07000017 0.07142842 -0.00999999
v -0.07000017 0.07142842 0.00999999
v -0.07000017 0.03142846 0.00999999
v -0.01000023 -0.04857153 -0.00999999
v -0.01000023 -0.04857153 0.00999999
v -0.01000023 -0.008571565 0.00999999
v -0.01000023 -0.008571565 -0.00999999
v -0.03000021 -0.04857153 -0.00999999
v -0.03000021 -0.008571565 -0.00999999
v -0.03000021 -0.008571565 0.00999999
v -0.03000021 -0.04857153 0.00999999
vn 1 0 0
vn -1 0 0
vn 0 -1 0
vn 0 1 0
vn 0 0 -1
vn 0 0 1
vn 1 0 1.748456E-07
vn -1 0 -1.748456E-07
vn 3.057097E-14 -1 -1.748456E-07
vn -3.057097E-14 1 1.748456E-07
vn 1.748456E-07 1.748456E-07 -1
vn -1.748456E-07 -1.748456E-07 1
vn 1 0 0
vn -1 0 0
vn 0 -1 0
vn 0 1 0
vn 0 0 -1
vn 0 0 1
vn 1 0 0
vn -1 0 0
vn 0 -1 0
vn 0 1 0
vn 0 0 -1
vn 0 0 1
vn 1 0 0
vn -1 0 0
vn 0 -1 0
vn 0 1 0
vn 0 0 -1
vn 0 0 1
vn 1 0 0
vn -1 0 0
vn 0 -1 0
vn 0 1 0
vn 0 0 -1
vn 0 0 1
vn 1 0 0
vn -1 0 0
vn 0 -1 0
vn 0 1 0
vn 0 0 -1
vn 0 0 1
vt -0.01208976 -0.06509868
vt -0.01046229 -0.06626116
vt -0.00813734 -0.06300622
vt -0.009764805 -0.06184375
vt 0.01208976 -0.06509868
vt 0.009764805 -0.06184375
vt 0.00813734 -0.06300622
vt 0.01046229 -0.06626116
vt -0.04627989 -0.2128337
vt -0.04695256 -0.2147172
vt -0.04506908 -0.2153898
vt -0.04439641 -0.2135064
vt 0.04627989 -0.2128337
vt 0.04439641 -0.2135064
vt 0.04506908 -0.2153898
vt 0.04695256 -0.2147172
vt -0.04293251 -0.2200291
vt -0.04651022 -0.2182403
vt -0.04740465 -0.2200291
vt -0.04382694 -0.221818
vt 0.04293251 -0.2200291
vt 0.04382694 -0.221818
vt 0.04740465 -0.2200291
vt 0.04651022 -0.2182403
vt -0.009764782 -0.06184376
vt -0.008137317 -0.06300624
vt -0.005812364 -0.05975131
vt -0.007439831 -0.05858883
vt 0.009764785 -0.06184376
vt 0.007439831 -0.05858883
vt 0.005812366 -0.0597513
vt 0.008137317 -0.06300624
vt -0.04560722 -0.2109502
vt -0.04627989 -0.2128337
vt -0.04439641 -0.2135063
vt -0.04372374 -0.2116229
vt 0.04560722 -0.2109502
vt 0.04372373 -0.2116229
vt 0.04439641 -0.2135063
vt 0.04627989 -0.2128337
vt -0.04561578 -0.2164514
vt -0.04919349 -0.2146625
vt -0.05008792 -0.2164514
vt -0.04651021 -0.2182402
vt 0.04561578 -0.2164514
vt 0.04651021 -0.2182402
vt 0.05008792 -0.2164514
vt 0.04919349 -0.2146625
vt -0.01208976 -0.06509868
vt -0.01046229 -0.06626116
vt -0.00813734 -0.06300622
vt -0.009764805 -0.06184375
vt 0.01208976 -0.06509868
vt 0.009764805 -0.06184375
vt 0.00813734 -0.06300622
vt 0.01046229 -0.06626116
vt -0.04897058 -0.2203676
vt -0.04964325 -0.2222511
vt -0.04775977 -0.2229238
vt -0.0470871 -0.2210403
vt 0.04897058 -0.2203676
vt 0.0470871 -0.2210403
vt 0.04775977 -0.2229238
vt 0.04964325 -0.2222511
vt -0.04651022 -0.2271845
vt -0.05008792 -0.2253956
vt -0.05098235 -0.2271845
vt -0.04740465 -0.2289734
vt 0.04651022 -0.2271845
vt 0.04740465 -0.2289734
vt 0.05098235 -0.2271845
vt 0.05008792 -0.2253956
vt -0.01673966 -0.07160855
vt -0.0151122 -0.07277103
vt -0.01278724 -0.06951609
vt -0.01441471 -0.06835362
vt 0.01673966 -0.07160855
vt 0.01441471 -0.06835362
vt 0.01278724 -0.06951609
vt 0.0151122 -0.07277103
vt -0.04762524 -0.2166007
vt -0.04829791 -0.2184841
vt -0.04641443 -0.2191568
vt -0.04574176 -0.2172733
vt 0.04762524 -0.2166007
vt 0.04574176 -0.2172733
vt 0.04641443 -0.2191568
vt 0.04829791 -0.2184841
vt -0.03756595 -0.2271845
vt -0.04114366 -0.2253957
vt -0.04203808 -0.2271845
vt -0.03846038 -0.2289734
vt 0.03756595 -0.2271845
vt 0.03846038 -0.2289734
vt 0.04203808 -0.2271845
vt 0.04114366 -0.2253957
vt -0.01441471 -0.06835361
vt -0.01278724 -0.06951609
vt -0.01046229 -0.06626116
vt -0.01208976 -0.06509868
vt 0.01441471 -0.06835361
vt 0.01208976 -0.06509868
vt 0.01046229 -0.06626116
vt 0.01278724 -0.06951609
vt -0.04695256 -0.2147172
vt -0.04762524 -0.2166007
vt -0.04574176 -0.2172733
vt -0.04506908 -0.2153898
vt 0.04695256 -0.2147172
vt 0.04506908 -0.2153898
vt 0.04574176 -0.2172733
vt 0.04762524 -0.2166007
vt -0.04024924 -0.2236068
vt -0.04382694 -0.221818
vt -0.04472137 -0.2236068
vt -0.04114366 -0.2253956
vt 0.04024924 -0.2236068
vt 0.04114366 -0.2253956
vt 0.04472137 -0.2236068
vt 0.04382694 -0.221818
vt -0.009764805 -0.06184375
vt -0.00813734 -0.06300622
vt -0.005812388 -0.05975129
vt -0.007439854 -0.05858882
vt 0.009764805 -0.06184375
vt 0.007439854 -0.05858882
vt 0.005812388 -0.05975129
vt 0.00813734 -0.06300622
vt -0.04964325 -0.2222511
vt -0.05031592 -0.2241346
vt -0.04843244 -0.2248073
vt -0.04775977 -0.2229238
vt 0.04964325 -0.2222511
vt 0.04775977 -0.2229238
vt 0.04843244 -0.2248073
vt 0.05031592 -0.2241346
vt -0.05098235 -0.2271845
vt -0.05456006 -0.2253956
vt -0.05545449 -0.2271845
vt -0.05187678 -0.2289734
vt 0.05098235 -0.2271845
vt 0.05187678 -0.2289734
vt 0.05545449 -0.2271845
vt 0.05456006 -0.2253956
vt -0.01441471 -0.06835362
vt -0.01278724 -0.06951609
vt -0.01046229 -0.06626116
vt -0.01208976 -0.06509869
vt 0.01441471 -0.06835362
vt 0.01208976 -0.06509869
vt 0.01046229 -0.06626116
vt 0.01278724 -0.06951609
vt -0.04829791 -0.2184841
vt -0.04897058 -0.2203676
vt -0.0470871 -0.2210403
vt -0.04641443 -0.2191568
vt 0.04829791 -0.2184841
vt 0.04641443 -0.2191568
vt 0.0470871 -0.2210403
vt 0.04897058 -0.2203676
vt -0.04203808 -0.2271845
vt -0.04561579 -0.2253957
vt -0.04651021 -0.2271845
vt -0.04293251 -0.2289734
vt 0.04203808 -0.2271845
vt 0.04293251 -0.2289734
vt 0.04651021 -0.2271845
vt 0.04561579 -0.2253957
o group423676693
g mesh423676693
usemtl mat21
f 4/4/1 3/3/1 2/2/1 1/1/1
f 8/8/2 7/7/2 6/6/2 5/5/2
f 2/12/3 8/11/3 5/10/3 1/9/3
f 6/16/4 7/15/4 3/14/4 4/13/4
f 5/20/5 6/19/5 4/18/5 1/17/5
f 3/24/6 7/23/6 8/22/6 2/21/6
o group1582913607
g mesh1582913607
usemtl mat21
f 12/28/7 11/27/7 10/26/7 9/25/7
f 16/32/8 15/31/8 14/30/8 13/29/8
f 10/36/9 16/35/9 13/34/9 9/33/9
f 14/40/10 15/39/10 11/38/10 12/37/10
f 13/44/11 14/43/11 12/42/11 9/41/11
f 11/48/12 15/47/12 16/46/12 10/45/12
o group929091406
g mesh929091406
usemtl mat21
f 20/52/13 19/51/13 18/50/13 17/49/13
f 24/56/14 23/55/14 22/54/14 21/53/14
f 18/60/15 24/59/15 21/58/15 17/57/15
f 22/64/16 23/63/16 19/62/16 20/61/16
f 21/68/17 22/67/17 20/66/17 17/65/17
f 19/72/18 23/71/18 24/70/18 18/69/18
o group1102151509
g mesh1102151509
usemtl mat21
f 28/76/19 27/75/19 26/74/19 25/73/19
f 32/80/20 31/79/20 30/78/20 29/77/20
f 26/84/21 32/83/21 29/82/21 25/81/21
f 30/88/22 31/87/22 27/86/22 28/85/22
f 29/92/23 30/91/23 28/90/23 25/89/23
f 27/96/24 31/95/24 32/94/24 26/93/24
o group1743614923
g mesh1743614923
usemtl mat21
f 36/100/25 35/99/25 34/98/25 33/97/25
f 40/104/26 39/103/26 38/102/26 37/101/26
f 34/108/27 40/107/27 37/106/27 33/105/27
f 38/112/28 39/111/28 35/110/28 36/109/28
f 37/116/29 38/115/29 36/114/29 33/113/29
f 35/120/30 39/119/30 40/118/30 34/117/30
o group122348157
g mesh122348157
usemtl mat21
f 44/124/31 43/123/31 42/122/31 41/121/31
f 48/128/32 47/127/32 46/126/32 45/125/32
f 42/132/33 48/131/33 45/130/33 41/129/33
f 46/136/34 47/135/34 43/134/34 44/133/34
f 45/140/35 46/139/35 44/138/35 41/137/35
f 43/144/36 47/143/36 48/142/36 42/141/36
o group34586847
g mesh34586847
usemtl mat21
f 52/148/37 51/147/37 50/146/37 49/145/37
f 56/152/38 55/151/38 54/150/38 53/149/38
f 50/156/39 56/155/39 53/154/39 49/153/39
f 54/160/40 55/159/40 51/158/40 52/157/40
f 53/164/41 54/163/41 52/162/41 49/161/41
f 51/168/42 55/167/42 56/166/42 50/165/42
