mtllib materials.mtl
v 0.07000002 -0.005714178 -0.009999871
v 0.07000002 -0.005714178 0.01000011
v 0.07000002 0.05428576 0.01000011
v 0.07000002 0.05428576 -0.009999871
v 0.05000001 -0.005714178 -0.009999871
v 0.05000001 0.05428576 -0.009999871
v 0.05000001 0.05428576 0.01000011
v 0.05000001 -0.005714178 0.01000011
v 0.05000003 -0.06571424 -0.009999871
v 0.05000003 -0.06571424 0.01000011
v 0.05000003 -0.005714297 0.01000011
v 0.05000003 -0.005714297 -0.009999871
v 0.03000002 -0.06571424 -0.009999871
v 0.03000002 -0.005714297 -0.009999871
v 0.03000002 -0.005714297 0.01000011
v 0.03000002 -0.06571424 0.01000011
v 0.03000002 -0.02571428 -0.009999871
v 0.03000002 -0.02571428 0.01000011
v 0.03000002 0.01428568 0.01000011
v 0.03000002 0.01428568 -0.009999871
v 0.01000001 -0.02571428 -0.009999871
v 0.01000001 0.01428568 -0.009999871
v 0.01000001 0.01428568 0.01000011
v 0.01000001 -0.02571428 0.01000011
v 0.01000002 0.0142858 -0.009999871
v 0.01000002 0.0142858 0.01000011
v 0.01000002 0.05428576 0.01000011
v 0.01000002 0.05428576 -0.009999871
v -0.00999999 0.0142858 -0.009999871
v -0.00999999 0.05428576 -0.009999871
v -0.00999999 0.05428576 0.01000011
v -0.00999999 0.0142858 0.01000011
v -0.009999976 -0.02571428 -0.009999871
v -0.009999976 -0.02571428 0.01000011
v -0.009999976 0.01428568 0.01000011
v -0.009999976 0.01428568 -0.009999871
v -0.02999997 -0.02571428 -0.009999871
v -0.02999997 0.01428568 -0.009999871
v -0.02999997 0.01428568 0.01000011
v -0.02999997 -0.02571428 0.01000011
v -0.03 -0.06571424 -0.009999871
v -0.03 -0.06571424 0.01000011
v -0.03 -0.005714297 0.01000011
v -0.03 -0.005714297 -0.009999871
v -0.04999998 -0.06571424 -0.009999871
v -0.04999998 -0.005714297 -0.009999871
v -0.04999998 -0.005714297 0.01000011
v -0.04999998 -0.06571424 0.01000011
v -0.05000001 -0.005714297 -0.009999871
v -0.05000001 -0.005714297 0.01000011
v -0.05000001 0.05428565 0.01000011
v -0.05000001 0.05428565 -0.009999871
v -0.06999999 -0.005714297 -0.009999871
v -0.06999999 0.05428565 -0.009999871
v -0.06999999 0.05428565 0.01000011
v -0.06999999 -0.005714297 0.01000011
vn 1 0 0
vn -1 0 0
vn 0 -1 0
vn 0 1 0
vn 0 0 -1
vn 0 0 1
vn 1 0 0
vn -1 0 0
vn 0 -1 0
vn 0 1 0
vn 0 0 -1
vn 0 0 1
vn 1 0 0
vn -1 0 0
vn 0 -1 0
vn 0 1 0
vn 0 0 -1
vn 0 0 1
vn 1 0 0
vn -1 0 0
vn 0 -1 0
vn 0 1 0
vn 0 0 -1
vn 0 0 1
vn 1 0 0
vn -1 0 0
vn 0 -1 0
vn 0 1 0
vn 0 0 -1
vn 0 0 1
vn 1 0 0
vn -1 0 0
vn 0 -1 0
vn 0 1 0
vn 0 0 -1
vn 0 0 1
vn 1 0 0
vn -1 0 0
vn 0 -1 0
vn 0 1 0
vn 0 0 -1
vn 0 0 1
vt 0.1692566 0.02534198
vt 0.170884 0.02417951
vt 0.1743715 0.02906191
vt 0.172744 0.03022438
vt -0.1692566 0.02534198
vt -0.172744 0.03022438
vt -0.1743715 0.02906191
vt -0.170884 0.02417951
vt 0.1101165 -0.05737899
vt 0.1094439 -0.05926247
vt 0.1113274 -0.05993515
vt 0.112 -0.05805166
vt -0.1101165 -0.05737899
vt -0.112 -0.05805166
vt -0.1113274 -0.05993515
vt -0.1094439 -0.05926247
vt -0.1140395 0.03801316
vt -0.119406 0.04069644
vt -0.1203005 0.03890758
vt -0.1149339 0.03622431
vt 0.1140395 0.03801316
vt 0.1149339 0.03622431
vt 0.1203005 0.03890758
vt 0.119406 0.04069644
vt 0.1657691 0.02045958
vt 0.1673966 0.0192971
vt 0.170884 0.0241795
vt 0.1692566 0.02534198
vt -0.1657691 0.02045958
vt -0.1692566 0.02534198
vt -0.170884 0.0241795
vt -0.1673966 0.0192971
vt 0.1094439 -0.05926247
vt 0.1087712 -0.06114596
vt 0.1106547 -0.06181863
vt 0.1113274 -0.05993515
vt -0.1094439 -0.05926247
vt -0.1113274 -0.05993515
vt -0.1106547 -0.06181863
vt -0.1087712 -0.06114596
vt -0.1095673 0.03354102
vt -0.1149339 0.0362243
vt -0.1158283 0.03443544
vt -0.1104618 0.03175217
vt 0.1095673 0.03354102
vt 0.1104618 0.03175217
vt 0.1158283 0.03443544
vt 0.1149339 0.0362243
vt 0.1680941 0.02371451
vt 0.1697216 0.02255203
vt 0.1720465 0.02580697
vt 0.1704191 0.02696944
vt -0.1680941 0.02371451
vt -0.1704191 0.02696944
vt -0.1720465 0.02580697
vt -0.1697216 0.02255203
vt 0.1087712 -0.06114596
vt 0.1080985 -0.06302945
vt 0.109982 -0.06370212
vt 0.1106547 -0.06181863
vt -0.1087712 -0.06114596
vt -0.1106547 -0.06181863
vt -0.109982 -0.06370212
vt -0.1080985 -0.06302945
vt -0.1140395 0.03354102
vt -0.1176172 0.03532987
vt -0.1185116 0.03354102
vt -0.1149339 0.03175217
vt 0.1140395 0.03354102
vt 0.1149339 0.03175217
vt 0.1185116 0.03354102
vt 0.1176172 0.03532987
vt 0.1704191 0.02696945
vt 0.1720465 0.02580697
vt 0.1743715 0.02906191
vt 0.172744 0.03022438
vt -0.1704191 0.02696945
vt -0.172744 0.03022438
vt -0.1743715 0.02906191
vt -0.1720465 0.02580697
vt 0.1080985 -0.06302945
vt 0.1074259 -0.06491293
vt 0.1093093 -0.0655856
vt 0.109982 -0.06370211
vt -0.1080985 -0.06302945
vt -0.109982 -0.06370211
vt -0.1093093 -0.0655856
vt -0.1074259 -0.06491293
vt -0.1185116 0.03354102
vt -0.1220893 0.03532988
vt -0.1229837 0.03354102
vt -0.119406 0.03175217
vt 0.1185116 0.03354102
vt 0.119406 0.03175217
vt 0.1229837 0.03354102
vt 0.1220893 0.03532988
vt 0.1680941 0.02371451
vt 0.1697216 0.02255203
vt 0.1720465 0.02580697
vt 0.1704191 0.02696944
vt -0.1680941 0.02371451
vt -0.1704191 0.02696944
vt -0.1720465 0.02580697
vt -0.1697216 0.02255203
vt 0.1074259 -0.06491293
vt 0.1067532 -0.06679641
vt 0.1086367 -0.06746908
vt 0.1093093 -0.0655856
vt -0.1074259 -0.06491293
vt -0.1093093 -0.0655856
vt -0.1086367 -0.06746908
vt -0.1067532 -0.06679641
vt -0.1158283 0.02996331
vt -0.119406 0.03175217
vt -0.1203005 0.02996331
vt -0.1167227 0.02817446
vt 0.1158283 0.02996331
vt 0.1167227 0.02817446
vt 0.1203005 0.02996331
vt 0.119406 0.03175217
vt 0.1657691 0.02045958
vt 0.1673966 0.0192971
vt 0.170884 0.0241795
vt 0.1692566 0.02534198
vt -0.1657691 0.02045958
vt -0.1692566 0.02534198
vt -0.170884 0.0241795
vt -0.1673966 0.0192971
vt 0.1067532 -0.06679641
vt 0.1060805 -0.06867989
vt 0.107964 -0.06935257
vt 0.1086367 -0.06746908
vt -0.1067532 -0.06679641
vt -0.1086367 -0.06746908
vt -0.107964 -0.06935257
vt -0.1060805 -0.06867989
vt -0.113145 0.0263856
vt -0.1185116 0.02906888
vt -0.119406 0.02728003
vt -0.1140395 0.02459675
vt 0.113145 0.0263856
vt 0.1140395 0.02459675
vt 0.119406 0.02728003
vt 0.1185116 0.02906888
vt 0.1692566 0.02534198
vt 0.170884 0.0241795
vt 0.1743715 0.02906189
vt 0.172744 0.03022437
vt -0.1692566 0.02534198
vt -0.172744 0.03022437
vt -0.1743715 0.02906189
vt -0.170884 0.0241795
vt 0.1060805 -0.0686799
vt 0.1054078 -0.07056338
vt 0.1072913 -0.07123605
vt 0.107964 -0.06935257
vt -0.1060805 -0.0686799
vt -0.107964 -0.06935257
vt -0.1072913 -0.07123605
vt -0.1054078 -0.07056338
vt -0.119406 0.02728003
vt -0.1247726 0.02996331
vt -0.125667 0.02817445
vt -0.1203005 0.02549117
vt 0.119406 0.02728003
vt 0.1203005 0.02549117
vt 0.125667 0.02817445
vt 0.1247726 0.02996331
o group249827792
g mesh249827792
usemtl mat21
f 4/4/1 3/3/1 2/2/1 1/1/1
f 8/8/2 7/7/2 6/6/2 5/5/2
f 2/12/3 8/11/3 5/10/3 1/9/3
f 6/16/4 7/15/4 3/14/4 4/13/4
f 5/20/5 6/19/5 4/18/5 1/17/5
f 3/24/6 7/23/6 8/22/6 2/21/6
o group506626884
g mesh506626884
usemtl mat21
f 12/28/7 11/27/7 10/26/7 9/25/7
f 16/32/8 15/31/8 14/30/8 13/29/8
f 10/36/9 16/35/9 13/34/9 9/33/9
f 14/40/10 15/39/10 11/38/10 12/37/10
f 13/44/11 14/43/11 12/42/11 9/41/11
f 11/48/12 15/47/12 16/46/12 10/45/12
o group2007711920
g mesh2007711920
usemtl mat21
f 20/52/13 19/51/13 18/50/13 17/49/13
f 24/56/14 23/55/14 22/54/14 21/53/14
f 18/60/15 24/59/15 21/58/15 17/57/15
f 22/64/16 23/63/16 19/62/16 20/61/16
f 21/68/17 22/67/17 20/66/17 17/65/17
f 19/72/18 23/71/18 24/70/18 18/69/18
o group1452478445
g mesh1452478445
usemtl mat21
f 28/76/19 27/75/19 26/74/19 25/73/19
f 32/80/20 31/79/20 30/78/20 29/77/20
f 26/84/21 32/83/21 29/82/21 25/81/21
f 30/88/22 31/87/22 27/86/22 28/85/22
f 29/92/23 30/91/23 28/90/23 25/89/23
f 27/96/24 31/95/24 32/94/24 26/93/24
o group647981562
g mesh647981562
usemtl mat21
f 36/100/25 35/99/25 34/98/25 33/97/25
f 40/104/26 39/103/26 38/102/26 37/101/26
f 34/108/27 40/107/27 37/106/27 33/105/27
f 38/112/28 39/111/28 35/110/28 36/109/28
f 37/116/29 38/115/29 36/114/29 33/113/29
f 35/120/30 39/119/30 40/118/30 34/117/30
o group2000259751
g mesh2000259751
usemtl mat21
f 44/124/31 43/123/31 42/122/31 41/121/31
f 48/128/32 47/127/32 46/126/32 45/125/32
f 42/132/33 48/131/33 45/130/33 41/129/33
f 46/136/34 47/135/34 43/134/34 44/133/34
f 45/140/35 46/139/35 44/138/35 41/137/35
f 43/144/36 47/143/36 48/142/36 42/141/36
o group893654663
g mesh893654663
usemtl mat21
f 52/148/37 51/147/37 50/146/37 49/145/37
f 56/152/38 55/151/38 54/150/38 53/149/38
f 50/156/39 56/155/39 53/154/39 49/153/39
f 54/160/40 55/159/40 51/158/40 52/157/40
f 53/164/41 54/163/41 52/162/41 49/161/41
f 51/168/42 55/167/42 56/166/42 50/165/42
