mtllib materials.mtl
v 0.02999997 0.02000004 -0.00999999
v 0.02999997 0.02000004 0.00999999
v 0.02999997 0.04000002 0.00999999
v 0.02999997 0.04000002 -0.00999999
v 0.00999999 0.02000004 -0.00999999
v 0.00999999 0.04000002 -0.00999999
v 0.00999999 0.04000002 0.00999999
v 0.00999999 0.02000004 0.00999999
v -0.00999999 -0.03999996 -0.00999999
v -0.00999999 -0.03999996 0.00999999
v -0.00999999 -0.01999998 0.00999999
v -0.00999999 -0.01999998 -0.00999999
v -0.02999997 -0.03999996 -0.00999999
v -0.02999997 -0.01999998 -0.00999999
v -0.02999997 -0.01999998 0.00999999
v -0.02999997 -0.03999996 0.00999999
v -0.02999997 -0.07999992 -0.009999961
v -0.02999997 -0.07999992 0.01000002
v -0.02999997 -0.03999996 0.01000002
v -0.02999997 -0.03999996 -0.009999961
v -0.04999995 -0.07999992 -0.009999961
v -0.04999995 -0.03999996 -0.009999961
v -0.04999995 -0.03999996 0.01000002
v -0.04999995 -0.07999992 0.01000002
v -0.02999997 0.04000002 -0.00999999
v -0.02999997 0.04000002 0.00999999
v -0.02999997 0.07999998 0.00999999
v -0.02999997 0.07999998 -0.00999999
v -0.04999995 0.04000002 -0.00999999
v -0.04999995 0.07999998 -0.00999999
v -0.04999995 0.07999998 0.00999999
v -0.04999995 0.04000002 0.00999999
v 0.02999997 -0.03999996 -0.00999999
v 0.02999997 -0.03999996 0.00999999
v 0.02999997 -0.01999998 0.00999999
v 0.02999997 -0.01999998 -0.00999999
v 0.00999999 -0.03999996 -0.00999999
v 0.00999999 -0.01999998 -0.00999999
v 0.00999999 -0.01999998 0.00999999
v 0.00999999 -0.03999996 0.00999999
v 0.04999995 -0.07999992 -0.00999999
v 0.04999995 -0.07999992 0.00999999
v 0.04999995 -0.03999996 0.00999999
v 0.04999995 -0.03999996 -0.00999999
v 0.02999997 -0.07999992 -0.00999999
v 0.02999997 -0.03999996 -0.00999999
v 0.02999997 -0.03999996 0.00999999
v 0.02999997 -0.07999992 0.00999999
v -0.00999999 0.02000004 -0.009999961
v -0.00999999 0.02000004 0.01000002
v -0.00999999 0.04000002 0.01000002
v -0.00999999 0.04000002 -0.009999961
v -0.02999997 0.02000004 -0.009999961
v -0.02999997 0.04000002 -0.009999961
v -0.02999997 0.04000002 0.01000002
v -0.02999997 0.02000004 0.01000002
v 0.04999995 0.04000008 -0.00999999
v 0.04999995 0.04000008 0.00999999
v 0.04999995 0.08000004 0.00999999
v 0.04999995 0.08000004 -0.00999999
v 0.02999997 0.04000008 -0.00999999
v 0.02999997 0.08000004 -0.00999999
v 0.02999997 0.08000004 0.00999999
v 0.02999997 0.04000008 0.00999999
v 0.00999999 -0.01999992 -0.00999999
v 0.00999999 -0.01999992 0.00999999
v 0.00999999 0.02000004 0.00999999
v 0.00999999 0.02000004 -0.00999999
v -0.00999999 -0.01999992 -0.00999999
v -0.00999999 0.02000004 -0.00999999
v -0.00999999 0.02000004 0.00999999
v -0.00999999 -0.01999992 0.00999999
vn 1 0 0
vn -1 0 0
vn 0 -1 0
vn 0 1 0
vn 0 0 -1
vn 0 0 1
vn 1 0 0
vn -1 0 0
vn 0 -1 0
vn 0 1 0
vn 0 0 -1
vn 0 0 1
vn 1 0 0
vn -1 0 0
vn 0 -1 0
vn 0 1 0
vn 0 0 -1
vn 0 0 1
vn 1 0 0
vn -1 0 0
vn 0 -1 0
vn 0 1 0
vn 0 0 -1
vn 0 0 1
vn 1 0 0
vn -1 0 0
vn 0 -1 0
vn 0 1 0
vn 0 0 -1
vn 0 0 1
vn 1 0 0
vn -1 0 0
vn 0 -1 0
vn 0 1 0
vn 0 0 -1
vn 0 0 1
vn 1 0 0
vn -1 0 0
vn 0 -1 0
vn 0 1 0
vn 0 0 -1
vn 0 0 1
vn 1 0 0
vn -1 0 0
vn 0 -1 0
vn 0 1 0
vn 0 0 -1
vn 0 0 1
vn 1 0 0
vn -1 0 0
vn 0 -1 0
vn 0 1 0
vn 0 0 -1
vn 0 0 1
vt -0.009299815 -0.06463369
vt -0.007672349 -0.06579617
vt -0.006509874 -0.0641687
vt -0.00813734 -0.06300622
vt 0.009299815 -0.06463369
vt 0.00813734 -0.06300622
vt 0.006509874 -0.0641687
vt 0.007672349 -0.06579617
vt -0.05784986 -0.251176
vt -0.05852253 -0.2530595
vt -0.05663905 -0.2537322
vt -0.05596638 -0.2518487
vt 0.05784986 -0.251176
vt 0.05596638 -0.2518487
vt 0.05663905 -0.2537322
vt 0.05852253 -0.2530595
vt -0.0626099 -0.2549118
vt -0.06439876 -0.2540173
vt -0.06529319 -0.2558062
vt -0.06350433 -0.2567006
vt 0.0626099 -0.2549118
vt 0.06350433 -0.2567006
vt 0.06529319 -0.2558062
vt 0.06439876 -0.2540173
vt -0.01278724 -0.06951609
vt -0.01115978 -0.07067857
vt -0.009997304 -0.0690511
vt -0.01162477 -0.06788862
vt 0.01278724 -0.06951609
vt 0.01162477 -0.06788862
vt 0.009997304 -0.0690511
vt 0.01115978 -0.07067857
vt -0.0591952 -0.254943
vt -0.05986788 -0.2568265
vt -0.05798439 -0.2574992
vt -0.05731172 -0.2556157
vt 0.0591952 -0.254943
vt 0.05731172 -0.2556157
vt 0.05798439 -0.2574992
vt 0.05986788 -0.2568265
vt -0.05903219 -0.2611727
vt -0.06082105 -0.2602783
vt -0.06171547 -0.2620672
vt -0.05992662 -0.2629616
vt 0.05903219 -0.2611727
vt 0.05992662 -0.2629616
vt 0.06171547 -0.2620672
vt 0.06082105 -0.2602783
vt -0.01511219 -0.07277103
vt -0.01348473 -0.0739335
vt -0.01115978 -0.07067857
vt -0.01278724 -0.06951609
vt 0.01511219 -0.07277103
vt 0.01278724 -0.06951609
vt 0.01115978 -0.07067857
vt 0.01348473 -0.0739335
vt -0.05986788 -0.2568265
vt -0.06054055 -0.25871
vt -0.05865706 -0.2593826
vt -0.05798439 -0.2574992
vt 0.05986788 -0.2568265
vt 0.05798439 -0.2574992
vt 0.05865706 -0.2593826
vt 0.06054055 -0.25871
vt -0.05634891 -0.2647505
vt -0.05992662 -0.2629616
vt -0.06082105 -0.2647505
vt -0.05724334 -0.2665393
vt 0.05634891 -0.2647505
vt 0.05724334 -0.2665393
vt 0.06082105 -0.2647505
vt 0.05992662 -0.2629616
vt -0.00813734 -0.06300622
vt -0.006509874 -0.0641687
vt -0.004184923 -0.06091377
vt -0.005812388 -0.05975129
vt 0.00813734 -0.06300622
vt 0.005812388 -0.05975129
vt 0.004184923 -0.06091377
vt 0.006509874 -0.0641687
vt -0.05986788 -0.2568265
vt -0.06054055 -0.25871
vt -0.05865707 -0.2593826
vt -0.05798439 -0.2574992
vt 0.05986788 -0.2568265
vt 0.05798439 -0.2574992
vt 0.05865707 -0.2593826
vt 0.06054055 -0.25871
vt -0.06708203 -0.2593839
vt -0.07065974 -0.257595
vt -0.07155417 -0.2593839
vt -0.06797646 -0.2611727
vt 0.06708203 -0.2593839
vt 0.06797646 -0.2611727
vt 0.07155417 -0.2593839
vt 0.07065974 -0.257595
vt -0.01278724 -0.06951609
vt -0.01115978 -0.07067857
vt -0.009997304 -0.0690511
vt -0.01162477 -0.06788862
vt 0.01278724 -0.06951609
vt 0.01162477 -0.06788862
vt 0.009997304 -0.0690511
vt 0.01115978 -0.07067857
vt -0.05784986 -0.251176
vt -0.05852253 -0.2530595
vt -0.05663905 -0.2537322
vt -0.05596638 -0.2518487
vt 0.05784986 -0.251176
vt 0.05596638 -0.2518487
vt 0.05663905 -0.2537322
vt 0.05852253 -0.2530595
vt -0.05724334 -0.257595
vt -0.05903219 -0.2567006
vt -0.05992662 -0.2584895
vt -0.05813777 -0.2593839
vt 0.05724334 -0.257595
vt 0.05813777 -0.2593839
vt 0.05992662 -0.2584895
vt 0.05903219 -0.2567006
vt -0.0151122 -0.07277103
vt -0.01348473 -0.0739335
vt -0.01115978 -0.07067857
vt -0.01278724 -0.06951609
vt 0.0151122 -0.07277103
vt 0.01278724 -0.06951609
vt 0.01115978 -0.07067857
vt 0.01348473 -0.0739335
vt -0.05717719 -0.2492925
vt -0.05784986 -0.251176
vt -0.05596638 -0.2518487
vt -0.05529371 -0.2499652
vt 0.05717719 -0.2492925
vt 0.05529371 -0.2499652
vt 0.05596638 -0.2518487
vt 0.05784986 -0.251176
vt -0.05277121 -0.257595
vt -0.05634891 -0.2558062
vt -0.05724334 -0.257595
vt -0.05366564 -0.2593839
vt 0.05277121 -0.257595
vt 0.05366564 -0.2593839
vt 0.05724334 -0.257595
vt 0.05634891 -0.2558062
vt -0.009299813 -0.06463369
vt -0.007672346 -0.06579617
vt -0.006509871 -0.06416871
vt -0.008137336 -0.06300623
vt 0.009299813 -0.06463369
vt 0.008137336 -0.06300623
vt 0.006509871 -0.06416871
vt 0.007672346 -0.06579617
vt -0.0591952 -0.254943
vt -0.05986788 -0.2568265
vt -0.05798439 -0.2574992
vt -0.05731172 -0.2556157
vt 0.0591952 -0.254943
vt 0.05731172 -0.2556157
vt 0.05798439 -0.2574992
vt 0.05986788 -0.2568265
vt -0.06439876 -0.2584895
vt -0.06618761 -0.257595
vt -0.06708203 -0.2593839
vt -0.06529319 -0.2602783
vt 0.06439876 -0.2584895
vt 0.06529319 -0.2602783
vt 0.06708203 -0.2593839
vt 0.06618761 -0.257595
vt -0.008137336 -0.06300622
vt -0.00650987 -0.0641687
vt -0.004184919 -0.06091376
vt -0.005812385 -0.05975129
vt 0.008137336 -0.06300622
vt 0.005812385 -0.05975129
vt 0.004184919 -0.06091376
vt 0.00650987 -0.0641687
vt -0.05717719 -0.2492925
vt -0.05784986 -0.251176
vt -0.05596638 -0.2518487
vt -0.05529371 -0.2499652
vt 0.05717719 -0.2492925
vt 0.05529371 -0.2499652
vt 0.05596638 -0.2518487
vt 0.05784986 -0.251176
vt -0.06350434 -0.2522285
vt -0.06708204 -0.2504396
vt -0.06797647 -0.2522285
vt -0.06439877 -0.2540173
vt 0.06350434 -0.2522285
vt 0.06439877 -0.2540173
vt 0.06797647 -0.2522285
vt 0.06708204 -0.2504396
vt -0.01162477 -0.06788862
vt -0.0099973 -0.0690511
vt -0.007672349 -0.06579617
vt -0.009299815 -0.06463369
vt 0.01162477 -0.06788862
vt 0.009299815 -0.06463369
vt 0.007672349 -0.06579617
vt 0.0099973 -0.0690511
vt -0.05852253 -0.2530595
vt -0.0591952 -0.254943
vt -0.05731172 -0.2556157
vt -0.05663905 -0.2537322
vt 0.05852253 -0.2530595
vt 0.05663905 -0.2537322
vt 0.05731172 -0.2556157
vt 0.0591952 -0.254943
vt -0.05992663 -0.2584895
vt -0.06350433 -0.2567006
vt -0.06439876 -0.2584895
vt -0.06082105 -0.2602783
vt 0.05992663 -0.2584895
vt 0.06082105 -0.2602783
vt 0.06439876 -0.2584895
vt 0.06350433 -0.2567006
o group705288952
g mesh705288952
usemtl mat21
f 4/4/1 3/3/1 2/2/1 1/1/1
f 8/8/2 7/7/2 6/6/2 5/5/2
f 2/12/3 8/11/3 5/10/3 1/9/3
f 6/16/4 7/15/4 3/14/4 4/13/4
f 5/20/5 6/19/5 4/18/5 1/17/5
f 3/24/6 7/23/6 8/22/6 2/21/6
o group110089874
g mesh110089874
usemtl mat21
f 12/28/7 11/27/7 10/26/7 9/25/7
f 16/32/8 15/31/8 14/30/8 13/29/8
f 10/36/9 16/35/9 13/34/9 9/33/9
f 14/40/10 15/39/10 11/38/10 12/37/10
f 13/44/11 14/43/11 12/42/11 9/41/11
f 11/48/12 15/47/12 16/46/12 10/45/12
o group647136638
g mesh647136638
usemtl mat21
f 20/52/13 19/51/13 18/50/13 17/49/13
f 24/56/14 23/55/14 22/54/14 21/53/14
f 18/60/15 24/59/15 21/58/15 17/57/15
f 22/64/16 23/63/16 19/62/16 20/61/16
f 21/68/17 22/67/17 20/66/17 17/65/17
f 19/72/18 23/71/18 24/70/18 18/69/18
o group175463561
g mesh175463561
usemtl mat21
f 28/76/19 27/75/19 26/74/19 25/73/19
f 32/80/20 31/79/20 30/78/20 29/77/20
f 26/84/21 32/83/21 29/82/21 25/81/21
f 30/88/22 31/87/22 27/86/22 28/85/22
f 29/92/23 30/91/23 28/90/23 25/89/23
f 27/96/24 31/95/24 32/94/24 26/93/24
o group383229552
g mesh383229552
usemtl mat21
f 36/100/25 35/99/25 34/98/25 33/97/25
f 40/104/26 39/103/26 38/102/26 37/101/26
f 34/108/27 40/107/27 37/106/27 33/105/27
f 38/112/28 39/111/28 35/110/28 36/109/28
f 37/116/29 38/115/29 36/114/29 33/113/29
f 35/120/30 39/119/30 40/118/30 34/117/30
o group869419275
g mesh869419275
usemtl mat21
f 44/124/31 43/123/31 42/122/31 41/121/31
f 48/128/32 47/127/32 46/126/32 45/125/32
f 42/132/33 48/131/33 45/130/33 41/129/33
f 46/136/34 47/135/34 43/134/34 44/133/34
f 45/140/35 46/139/35 44/138/35 41/137/35
f 43/144/36 47/143/36 48/142/36 42/141/36
o group1326215668
g mesh1326215668
usemtl mat21
f 52/148/37 51/147/37 50/146/37 49/145/37
f 56/152/38 55/151/38 54/150/38 53/149/38
f 50/156/39 56/155/39 53/154/39 49/153/39
f 54/160/40 55/159/40 51/158/40 52/157/40
f 53/164/41 54/163/41 52/162/41 49/161/41
f 51/168/42 55/167/42 56/166/42 50/165/42
o group1470139037
g mesh1470139037
usemtl mat21
f 60/172/43 59/171/43 58/170/43 57/169/43
f 64/176/44 63/175/44 62/174/44 61/173/44
f 58/180/45 64/179/45 61/178/45 57/177/45
f 62/184/46 63/183/46 59/182/46 60/181/46
f 61/188/47 62/187/47 60/186/47 57/185/47
f 59/192/48 63/191/48 64/190/48 58/189/48
o group1333264911
g mesh1333264911
usemtl mat21
f 68/196/49 67/195/49 66/194/49 65/193/49
f 72/200/50 71/199/50 70/198/50 69/197/50
f 66/204/51 72/203/51 69/202/51 65/201/51
f 70/208/52 71/207/52 67/206/52 68/205/52
f 69/212/53 70/211/53 68/210/53 65/209/53
f 67/216/54 71/215/54 72/214/54 66/213/54
