mtllib materials.mtl
v 0.02999997 -0.02400005 -0.01000002
v 0.02999997 -0.02400005 0.009999961
v 0.02999997 0.01599991 0.009999961
v 0.02999997 0.01599991 -0.01000002
v 0.00999999 -0.02400005 -0.01000002
v 0.00999999 0.01599991 -0.01000002
v 0.00999999 0.01599991 0.009999961
v 0.00999999 -0.02400005 0.009999961
v -0.00999999 -0.02400005 -0.00999999
v -0.00999999 -0.02400005 0.00999999
v -0.00999999 0.01599991 0.00999999
v -0.00999999 0.01599991 -0.00999999
v -0.02999997 -0.02400005 -0.00999999
v -0.02999997 0.01599991 -0.00999999
v -0.02999997 0.01599991 0.00999999
v -0.02999997 -0.02400005 0.00999999
v -0.02999997 0.01599997 -0.01000002
v -0.02999997 0.01599997 0.009999961
v -0.02999997 0.05599993 0.009999961
v -0.02999997 0.05599993 -0.01000002
v -0.04999995 0.01599997 -0.01000002
v -0.04999995 0.05599993 -0.01000002
v -0.04999995 0.05599993 0.009999961
v -0.04999995 0.01599997 0.009999961
v 0.05000019 0.01599997 -0.00999999
v 0.05000019 0.01599997 0.00999999
v 0.05000019 0.05599993 0.00999999
v 0.05000019 0.05599993 -0.00999999
v 0.03000021 0.01599997 -0.00999999
v 0.03000021 0.05599993 -0.00999999
v 0.03000021 0.05599993 0.00999999
v 0.03000021 0.01599997 0.00999999
v 0.00999999 -0.104 -0.01000002
v 0.00999999 -0.104 0.009999961
v 0.00999999 -0.02399999 0.009999961
v 0.00999999 -0.02399999 -0.01000002
v -0.00999999 -0.104 -0.01000002
v -0.00999999 -0.02399999 -0.01000002
v -0.00999999 -0.02399999 0.009999961
v -0.00999999 -0.104 0.009999961
vn 1 0 0
vn -1 0 0
vn 0 -1 0
vn 0 1 0
vn 0 0 -1
vn 0 0 1
vn 1 0 0
vn -1 0 0
vn 0 -1 0
vn 0 1 0
vn 0 0 -1
vn 0 0 1
vn 1 0 0
vn -1 0 0
vn 0 -1 0
vn 0 1 0
vn 0 0 -1
vn 0 0 1
vn 1 0 0
vn -1 0 0
vn 0 -1 0
vn 0 1 0
vn 0 0 -1
vn 0 0 1
vn 1 0 0
vn -1 0 0
vn 0 -1 0
vn 0 1 0
vn 0 0 -1
vn 0 0 1
vt -0.01046229 -0.06626116
vt -0.008834825 -0.06742363
vt -0.006509874 -0.0641687
vt -0.00813734 -0.06300622
vt 0.01046229 -0.06626116
vt 0.00813734 -0.06300622
vt 0.006509874 -0.0641687
vt 0.008834825 -0.06742363
vt -0.06255858 -0.2643604
vt -0.06323124 -0.2662439
vt -0.06134776 -0.2669166
vt -0.06067509 -0.2650331
vt 0.06255858 -0.2643604
vt 0.06067509 -0.2650331
vt 0.06134776 -0.2669166
vt 0.06323124 -0.2662439
vt -0.06708205 -0.2683282
vt -0.07065976 -0.2665393
vt -0.07155418 -0.2683282
vt -0.06797647 -0.270117
vt 0.06708205 -0.2683282
vt 0.06797647 -0.270117
vt 0.07155418 -0.2683282
vt 0.07065976 -0.2665393
vt -0.01046229 -0.06626116
vt -0.008834822 -0.06742363
vt -0.006509871 -0.06416871
vt -0.008137336 -0.06300623
vt 0.01046229 -0.06626116
vt 0.008137336 -0.06300623
vt 0.006509871 -0.06416871
vt 0.008834822 -0.06742363
vt -0.06390391 -0.2681274
vt -0.06457659 -0.2700109
vt -0.0626931 -0.2706836
vt -0.06202043 -0.2688001
vt 0.06390391 -0.2681274
vt 0.06202043 -0.2688001
vt 0.0626931 -0.2706836
vt 0.06457659 -0.2700109
vt -0.0688709 -0.2719059
vt -0.0724486 -0.270117
vt -0.07334303 -0.2719059
vt -0.06976533 -0.2736947
vt 0.0688709 -0.2719059
vt 0.06976533 -0.2736947
vt 0.07334303 -0.2719059
vt 0.0724486 -0.270117
vt -0.008137336 -0.06300622
vt -0.00650987 -0.0641687
vt -0.004184919 -0.06091376
vt -0.005812385 -0.05975129
vt 0.008137336 -0.06300622
vt 0.005812385 -0.05975129
vt 0.004184919 -0.06091376
vt 0.00650987 -0.0641687
vt -0.06457659 -0.2700109
vt -0.06524926 -0.2718944
vt -0.06336578 -0.272567
vt -0.0626931 -0.2706836
vt 0.06457659 -0.2700109
vt 0.0626931 -0.2706836
vt 0.06336578 -0.272567
vt 0.06524926 -0.2718944
vt -0.07334304 -0.2719059
vt -0.07692074 -0.270117
vt -0.07781517 -0.2719059
vt -0.07423747 -0.2736947
vt 0.07334304 -0.2719059
vt 0.07423747 -0.2736947
vt 0.07781517 -0.2719059
vt 0.07692074 -0.270117
vt -0.008137333 -0.06300622
vt -0.006509868 -0.0641687
vt -0.004184917 -0.06091376
vt -0.005812382 -0.05975129
vt 0.008137333 -0.06300622
vt 0.005812382 -0.05975129
vt 0.004184917 -0.06091376
vt 0.006509868 -0.0641687
vt -0.06188589 -0.2624769
vt -0.06255856 -0.2643604
vt -0.06067508 -0.2650331
vt -0.06000241 -0.2631496
vt 0.06188589 -0.2624769
vt 0.06000241 -0.2631496
vt 0.06067508 -0.2650331
vt 0.06255856 -0.2643604
vt -0.06976532 -0.2647505
vt -0.07334302 -0.2629616
vt -0.07423745 -0.2647505
vt -0.07065975 -0.2665393
vt 0.06976532 -0.2647505
vt 0.07065975 -0.2665393
vt 0.07423745 -0.2647505
vt 0.07334302 -0.2629616
vt -0.0151122 -0.07277103
vt -0.01348473 -0.0739335
vt -0.008834821 -0.06742363
vt -0.01046229 -0.06626115
vt 0.0151122 -0.07277103
vt 0.01046229 -0.06626115
vt 0.008834821 -0.06742363
vt 0.01348473 -0.0739335
vt -0.06323124 -0.2662439
vt -0.06390391 -0.2681274
vt -0.06202044 -0.2688001
vt -0.06134776 -0.2669166
vt 0.06323124 -0.2662439
vt 0.06134776 -0.2669166
vt 0.06202044 -0.2688001
vt 0.06390391 -0.2681274
vt -0.06082106 -0.2736947
vt -0.06797648 -0.270117
vt -0.06887091 -0.2719059
vt -0.06171548 -0.2754836
vt 0.06082106 -0.2736947
vt 0.06171548 -0.2754836
vt 0.06887091 -0.2719059
vt 0.06797648 -0.270117
o group1955300640
g mesh1955300640
usemtl mat21
f 4/4/1 3/3/1 2/2/1 1/1/1
f 8/8/2 7/7/2 6/6/2 5/5/2
f 2/12/3 8/11/3 5/10/3 1/9/3
f 6/16/4 7/15/4 3/14/4 4/13/4
f 5/20/5 6/19/5 4/18/5 1/17/5
f 3/24/6 7/23/6 8/22/6 2/21/6
o group874906053
g mesh874906053
usemtl mat21
f 12/28/7 11/27/7 10/26/7 9/25/7
f 16/32/8 15/31/8 14/30/8 13/29/8
f 10/36/9 16/35/9 13/34/9 9/33/9
f 14/40/10 15/39/10 11/38/10 12/37/10
f 13/44/11 14/43/11 12/42/11 9/41/11
f 11/48/12 15/47/12 16/46/12 10/45/12
o group129887668
g mesh129887668
usemtl mat21
f 20/52/13 19/51/13 18/50/13 17/49/13
f 24/56/14 23/55/14 22/54/14 21/53/14
f 18/60/15 24/59/15 21/58/15 17/57/15
f 22/64/16 23/63/16 19/62/16 20/61/16
f 21/68/17 22/67/17 20/66/17 17/65/17
f 19/72/18 23/71/18 24/70/18 18/69/18
o group2018983384
g mesh2018983384
usemtl mat21
f 28/76/19 27/75/19 26/74/19 25/73/19
f 32/80/20 31/79/20 30/78/20 29/77/20
f 26/84/21 32/83/21 29/82/21 25/81/21
f 30/88/22 31/87/22 27/86/22 28/85/22
f 29/92/23 30/91/23 28/90/23 25/89/23
f 27/96/24 31/95/24 32/94/24 26/93/24
o group343474911
g mesh343474911
usemtl mat21
f 36/100/25 35/99/25 34/98/25 33/97/25
f 40/104/26 39/103/26 38/102/26 37/101/26
f 34/108/27 40/107/27 37/106/27 33/105/27
f 38/112/28 39/111/28 35/110/28 36/109/28
f 37/116/29 38/115/29 36/114/29 33/113/29
f 35/120/30 39/119/30 40/118/30 34/117/30
