mtllib materials.mtl
v -0.01999998 0.01999998 -0.00999999
v -0.01999998 0.01999998 0.00999999
v -0.01999998 0.03999996 0.00999999
v -0.01999998 0.03999996 -0.00999999
v -0.03999996 0.01999998 -0.00999999
v -0.03999996 0.03999996 -0.00999999
v -0.03999996 0.03999996 0.00999999
v -0.03999996 0.01999998 0.00999999
v 0.0400002 -0.05999994 -0.01000002
v 0.0400002 -0.05999994 0.009999961
v 0.0400002 -0.03999996 0.009999961
v 0.0400002 -0.03999996 -0.01000002
v -0.03999972 -0.05999994 -0.01000002
v -0.03999972 -0.03999996 -0.01000002
v -0.03999972 -0.03999996 0.009999961
v -0.03999972 -0.05999994 0.009999961
v 0.02000022 -0.01999998 -0.00999999
v 0.02000022 -0.01999998 0.00999999
v 0.02000022 0 0.00999999
v 0.02000022 0 -0.00999999
v 2.384186E-07 -0.01999998 -0.00999999
v 2.384186E-07 0 -0.00999999
v 2.384186E-07 0 0.00999999
v 2.384186E-07 -0.01999998 0.00999999
v 0.0400002 -0.03999996 -0.00999999
v 0.0400002 -0.03999996 0.00999999
v 0.0400002 -0.01999998 0.00999999
v 0.0400002 -0.01999998 -0.00999999
v 0.02000022 -0.03999996 -0.00999999
v 0.02000022 -0.01999998 -0.00999999
v 0.02000022 -0.01999998 0.00999999
v 0.02000022 -0.03999996 0.00999999
v 0.0400002 0.0400002 -0.00999999
v 0.0400002 0.0400002 0.00999999
v 0.0400002 0.06000018 0.00999999
v 0.0400002 0.06000018 -0.00999999
v -0.03999972 0.0400002 -0.00999999
v -0.03999972 0.06000018 -0.00999999
v -0.03999972 0.06000018 0.00999999
v -0.03999972 0.0400002 0.00999999
v 2.384186E-07 0 -0.00999999
v 2.384186E-07 0 0.00999999
v 2.384186E-07 0.01999998 0.00999999
v 2.384186E-07 0.01999998 -0.00999999
v -0.01999974 0 -0.00999999
v -0.01999974 0.01999998 -0.00999999
v -0.01999974 0.01999998 0.00999999
v -0.01999974 0 0.00999999
vn 1 0 0
vn -1 0 0
vn 0 -1 0
vn 0 1 0
vn 0 0 -1
vn 0 0 1
vn 1 0 0
vn -1 0 0
vn 0 -1 0
vn 0 1 0
vn 0 0 -1
vn 0 0 1
vn 1 0 0
vn -1 0 0
vn 0 -1 0
vn 0 1 0
vn 0 0 -1
vn 0 0 1
vn 1 0 0
vn -1 0 0
vn 0 -1 0
vn 0 1 0
vn 0 0 -1
vn 0 0 1
vn 1 0 0
vn -1 0 0
vn 0 -1 0
vn 0 1 0
vn 0 0 -1
vn 0 0 1
vn 1 0 0
vn -1 0 0
vn 0 -1 0
vn 0 1 0
vn 0 0 -1
vn 0 0 1
vt -0.1049716 -0.2261017
vt -0.1033442 -0.2272641
vt -0.1021817 -0.2256367
vt -0.1038092 -0.2244742
vt 0.1049716 -0.2261017
vt 0.1038092 -0.2244742
vt 0.1021817 -0.2256367
vt 0.1033442 -0.2272641
vt -0.07271593 -0.3403724
vt -0.0733886 -0.3422559
vt -0.07150512 -0.3429286
vt -0.07083245 -0.3410451
vt 0.07271593 -0.3403724
vt 0.07083245 -0.3410451
vt 0.07150512 -0.3429286
vt 0.0733886 -0.3422559
vt 0.06484598 -0.4181448
vt 0.06305712 -0.4172503
vt 0.0621627 -0.4190392
vt 0.06395155 -0.4199336
vt -0.06484598 -0.4181448
vt -0.06395155 -0.4199336
vt -0.0621627 -0.4190392
vt -0.06305712 -0.4172503
vt -0.1096215 -0.2326115
vt -0.1079941 -0.233774
vt -0.1068316 -0.2321465
vt -0.1084591 -0.2309841
vt 0.1096215 -0.2326115
vt 0.1084591 -0.2309841
vt 0.1068316 -0.2321465
vt 0.1079941 -0.233774
vt -0.07069791 -0.334722
vt -0.0733886 -0.3422559
vt -0.07150511 -0.3429286
vt -0.06881443 -0.3353947
vt 0.07069791 -0.334722
vt 0.06881443 -0.3353947
vt 0.07150511 -0.3429286
vt 0.0733886 -0.3422559
vt 0.07468468 -0.4163558
vt 0.07289582 -0.4154615
vt 0.06931812 -0.4226169
vt 0.07110697 -0.4235113
vt -0.07468468 -0.4163558
vt -0.07110697 -0.4235113
vt -0.06931812 -0.4226169
vt -0.07289582 -0.4154615
vt -0.1072966 -0.2293566
vt -0.1056691 -0.2305191
vt -0.1045066 -0.2288916
vt -0.1061341 -0.2277292
vt 0.1072966 -0.2293566
vt 0.1061341 -0.2277292
vt 0.1045066 -0.2288916
vt 0.1056691 -0.2305191
vt -0.07137058 -0.3366055
vt -0.07204325 -0.3384889
vt -0.07015977 -0.3391616
vt -0.06948709 -0.3372781
vt 0.07137058 -0.3366055
vt 0.06948709 -0.3372781
vt 0.07015977 -0.3391616
vt 0.07204325 -0.3384889
vt 0.07021255 -0.4163558
vt 0.0684237 -0.4154615
vt 0.06752927 -0.4172503
vt 0.06931812 -0.4181447
vt -0.07021255 -0.4163558
vt -0.06931812 -0.4181447
vt -0.06752927 -0.4172503
vt -0.0684237 -0.4154615
vt -0.1084591 -0.2309841
vt -0.1068316 -0.2321465
vt -0.1056691 -0.2305191
vt -0.1072966 -0.2293566
vt 0.1084591 -0.2309841
vt 0.1072966 -0.2293566
vt 0.1056691 -0.2305191
vt 0.1068316 -0.2321465
vt -0.0706979 -0.334722
vt -0.07137058 -0.3366055
vt -0.06948709 -0.3372781
vt -0.06881443 -0.3353947
vt 0.0706979 -0.334722
vt 0.06881443 -0.3353947
vt 0.06948709 -0.3372781
vt 0.07137058 -0.3366055
vt 0.07289582 -0.4154615
vt 0.07110697 -0.414567
vt 0.07021255 -0.4163558
vt 0.0720014 -0.4172503
vt -0.07289582 -0.4154615
vt -0.0720014 -0.4172503
vt -0.07021255 -0.4163558
vt -0.07110697 -0.414567
vt -0.1038091 -0.2244742
vt -0.1021817 -0.2256367
vt -0.1010192 -0.2240092
vt -0.1026467 -0.2228467
vt 0.1038091 -0.2244742
vt 0.1026467 -0.2228467
vt 0.1010192 -0.2240092
vt 0.1021817 -0.2256367
vt -0.0706979 -0.334722
vt -0.07338859 -0.3422559
vt -0.07150511 -0.3429286
vt -0.06881443 -0.3353947
vt 0.0706979 -0.334722
vt 0.06881443 -0.3353947
vt 0.07150511 -0.3429286
vt 0.07338859 -0.3422559
vt 0.06574039 -0.4118837
vt 0.06395154 -0.4109893
vt 0.06037384 -0.4181447
vt 0.06216269 -0.4190392
vt -0.06574039 -0.4118837
vt -0.06216269 -0.4190392
vt -0.06037384 -0.4181447
vt -0.06395154 -0.4109893
vt -0.1061341 -0.2277292
vt -0.1045066 -0.2288916
vt -0.1033442 -0.2272641
vt -0.1049716 -0.2261017
vt 0.1061341 -0.2277292
vt 0.1049716 -0.2261017
vt 0.1033442 -0.2272641
vt 0.1045066 -0.2288916
vt -0.07204325 -0.3384889
vt -0.07271592 -0.3403724
vt -0.07083245 -0.3410451
vt -0.07015977 -0.3391616
vt 0.07204325 -0.3384889
vt 0.07015977 -0.3391616
vt 0.07083245 -0.3410451
vt 0.07271592 -0.3403724
vt 0.06752927 -0.4172503
vt 0.06574041 -0.4163558
vt 0.06484599 -0.4181447
vt 0.06663484 -0.4190392
vt -0.06752927 -0.4172503
vt -0.06663484 -0.4190392
vt -0.06484599 -0.4181447
vt -0.06574041 -0.4163558
o group790599722
g mesh790599722
usemtl mat21
f 4/4/1 3/3/1 2/2/1 1/1/1
f 8/8/2 7/7/2 6/6/2 5/5/2
f 2/12/3 8/11/3 5/10/3 1/9/3
f 6/16/4 7/15/4 3/14/4 4/13/4
f 5/20/5 6/19/5 4/18/5 1/17/5
f 3/24/6 7/23/6 8/22/6 2/21/6
o group1813742152
g mesh1813742152
usemtl mat21
f 12/28/7 11/27/7 10/26/7 9/25/7
f 16/32/8 15/31/8 14/30/8 13/29/8
f 10/36/9 16/35/9 13/34/9 9/33/9
f 14/40/10 15/39/10 11/38/10 12/37/10
f 13/44/11 14/43/11 12/42/11 9/41/11
f 11/48/12 15/47/12 16/46/12 10/45/12
o group800270740
g mesh800270740
usemtl mat21
f 20/52/13 19/51/13 18/50/13 17/49/13
f 24/56/14 23/55/14 22/54/14 21/53/14
f 18/60/15 24/59/15 21/58/15 17/57/15
f 22/64/16 23/63/16 19/62/16 20/61/16
f 21/68/17 22/67/17 20/66/17 17/65/17
f 19/72/18 23/71/18 24/70/18 18/69/18
o group945943025
g mesh945943025
usemtl mat21
f 28/76/19 27/75/19 26/74/19 25/73/19
f 32/80/20 31/79/20 30/78/20 29/77/20
f 26/84/21 32/83/21 29/82/21 25/81/21
f 30/88/22 31/87/22 27/86/22 28/85/22
f 29/92/23 30/91/23 28/90/23 25/89/23
f 27/96/24 31/95/24 32/94/24 26/93/24
o group96941733
g mesh96941733
usemtl mat21
f 36/100/25 35/99/25 34/98/25 33/97/25
f 40/104/26 39/103/26 38/102/26 37/101/26
f 34/108/27 40/107/27 37/106/27 33/105/27
f 38/112/28 39/111/28 35/110/28 36/109/28
f 37/116/29 38/115/29 36/114/29 33/113/29
f 35/120/30 39/119/30 40/118/30 34/117/30
o group1060962367
g mesh1060962367
usemtl mat21
f 44/124/31 43/123/31 42/122/31 41/121/31
f 48/128/32 47/127/32 46/126/32 45/125/32
f 42/132/33 48/131/33 45/130/33 41/129/33
f 46/136/34 47/135/34 43/134/34 44/133/34
f 45/140/35 46/139/35 44/138/35 41/137/35
f 43/144/36 47/143/36 48/142/36 42/141/36
