mtllib materials.mtl
v -0.02857161 0.04142857 -0.00999999
v -0.02857161 0.04142857 0.00999999
v -0.02857161 0.06142855 0.00999999
v -0.02857161 0.06142855 -0.00999999
v -0.04857159 0.04142857 -0.00999999
v -0.04857159 0.06142855 -0.00999999
v -0.04857159 0.06142855 0.00999999
v -0.04857159 0.04142857 0.00999999
v 0.05142832 -0.07857144 -0.009999961
v 0.05142832 -0.07857144 0.01000002
v 0.05142832 -0.03857148 0.01000002
v 0.05142832 -0.03857148 -0.009999961
v 0.03142834 -0.07857144 -0.009999961
v 0.03142834 -0.03857148 -0.009999961
v 0.03142834 -0.03857148 0.01000002
v 0.03142834 -0.07857144 0.01000002
v 0.03142834 -0.0785715 -0.00999999
v 0.03142834 -0.0785715 0.00999999
v 0.03142834 -0.05857152 0.00999999
v 0.03142834 -0.05857152 -0.00999999
v -0.04857159 -0.0785715 -0.00999999
v -0.04857159 -0.05857152 -0.00999999
v -0.04857159 -0.05857152 0.00999999
v -0.04857159 -0.0785715 0.00999999
v 0.01142836 -0.01857144 -0.00999999
v 0.01142836 -0.01857144 0.00999999
v 0.01142836 0.02142853 0.00999999
v 0.01142836 0.02142853 -0.00999999
v -0.008571625 -0.01857144 -0.00999999
v -0.008571625 0.02142853 -0.00999999
v -0.008571625 0.02142853 0.00999999
v -0.008571625 -0.01857144 0.00999999
v 0.03142834 -0.03857148 -0.00999999
v 0.03142834 -0.03857148 0.00999999
v 0.03142834 -0.0185715 0.00999999
v 0.03142834 -0.0185715 -0.00999999
v 0.01142836 -0.03857148 -0.00999999
v 0.01142836 -0.0185715 -0.00999999
v 0.01142836 -0.0185715 0.00999999
v 0.01142836 -0.03857148 0.00999999
v 0.05142832 0.06142855 -0.00999999
v 0.05142832 0.06142855 0.00999999
v 0.05142832 0.08142853 0.00999999
v 0.05142832 0.08142853 -0.00999999
v -0.04857159 0.06142855 -0.00999999
v -0.04857159 0.08142853 -0.00999999
v -0.04857159 0.08142853 0.00999999
v -0.04857159 0.06142855 0.00999999
v -0.008571625 0.02142853 -0.00999999
v -0.008571625 0.02142853 0.00999999
v -0.008571625 0.04142851 0.00999999
v -0.008571625 0.04142851 -0.00999999
v -0.02857161 0.02142853 -0.00999999
v -0.02857161 0.04142851 -0.00999999
v -0.02857161 0.04142851 0.00999999
v -0.02857161 0.02142853 0.00999999
vn 1 0 0
vn -1 0 0
vn 0 -1 0
vn 0 1 0
vn 0 0 -1
vn 0 0 1
vn 1 0 0
vn -1 0 0
vn 0 -1 0
vn 0 1 0
vn 0 0 -1
vn 0 0 1
vn 1 0 0
vn -1 0 0
vn 0 -1 0
vn 0 1 0
vn 0 0 -1
vn 0 0 1
vn 1 0 0
vn -1 0 0
vn 0 -1 0
vn 0 1 0
vn 0 0 -1
vn 0 0 1
vn 1 0 0
vn -1 0 0
vn 0 -1 0
vn 0 1 0
vn 0 0 -1
vn 0 0 1
vn 1 0 0
vn -1 0 0
vn 0 -1 0
vn 0 1 0
vn 0 0 -1
vn 0 0 1
vn 1 0 0
vn -1 0 0
vn 0 -1 0
vn 0 1 0
vn 0 0 -1
vn 0 0 1
vt -0.008137336 -0.06300622
vt -0.00650987 -0.0641687
vt -0.005347395 -0.06254123
vt -0.00697486 -0.06137875
vt 0.008137336 -0.06300622
vt 0.00697486 -0.06137875
vt 0.005347395 -0.06254123
vt 0.00650987 -0.0641687
vt -0.0692853 -0.2831952
vt -0.06995796 -0.2850787
vt -0.06807449 -0.2857514
vt -0.06740181 -0.2838679
vt 0.0692853 -0.2831952
vt 0.06740181 -0.2838679
vt 0.06807449 -0.2857514
vt 0.06995796 -0.2850787
vt -0.07960402 -0.2844279
vt -0.08139288 -0.2835334
vt -0.0822873 -0.2853223
vt -0.08049845 -0.2862167
vt 0.07960402 -0.2844279
vt 0.08049845 -0.2862167
vt 0.0822873 -0.2853223
vt 0.08139288 -0.2835334
vt -0.01511219 -0.07277103
vt -0.01348473 -0.0739335
vt -0.01115978 -0.07067857
vt -0.01278724 -0.06951609
vt 0.01511219 -0.07277103
vt 0.01278724 -0.06951609
vt 0.01115978 -0.07067857
vt 0.01348473 -0.0739335
vt -0.06659461 -0.2756613
vt -0.06726728 -0.2775448
vt -0.06538379 -0.2782175
vt -0.06471112 -0.276334
vt 0.06659461 -0.2756613
vt 0.06471112 -0.276334
vt 0.06538379 -0.2782175
vt 0.06726728 -0.2775448
vt -0.06529319 -0.282639
vt -0.06887089 -0.2808501
vt -0.06976532 -0.282639
vt -0.06618761 -0.2844279
vt 0.06529319 -0.282639
vt 0.06618761 -0.2844279
vt 0.06976532 -0.282639
vt 0.06887089 -0.2808501
vt -0.0151122 -0.07277103
vt -0.01348473 -0.0739335
vt -0.01232226 -0.07230604
vt -0.01394972 -0.07114356
vt 0.0151122 -0.07277103
vt 0.01394972 -0.07114356
vt 0.01232226 -0.07230604
vt 0.01348473 -0.0739335
vt -0.06726728 -0.2775448
vt -0.06995796 -0.2850787
vt -0.06807449 -0.2857514
vt -0.0653838 -0.2782175
vt 0.06726728 -0.2775448
vt 0.0653838 -0.2782175
vt 0.06807449 -0.2857514
vt 0.06995796 -0.2850787
vt -0.06618761 -0.2844279
vt -0.06797646 -0.2835334
vt -0.07155417 -0.2906888
vt -0.06976531 -0.2915833
vt 0.06618761 -0.2844279
vt 0.06976531 -0.2915833
vt 0.07155417 -0.2906888
vt 0.06797646 -0.2835334
vt -0.01162477 -0.06788862
vt -0.0099973 -0.0690511
vt -0.007672349 -0.06579617
vt -0.009299815 -0.06463369
vt 0.01162477 -0.06788862
vt 0.009299815 -0.06463369
vt 0.007672349 -0.06579617
vt 0.0099973 -0.0690511
vt -0.06793995 -0.2794283
vt -0.06861262 -0.2813118
vt -0.06672914 -0.2819844
vt -0.06605648 -0.2801009
vt 0.06793995 -0.2794283
vt 0.06605648 -0.2801009
vt 0.06672914 -0.2819844
vt 0.06861262 -0.2813118
vt -0.0724486 -0.2835334
vt -0.07602631 -0.2817446
vt -0.07692073 -0.2835334
vt -0.07334303 -0.2853223
vt 0.0724486 -0.2835334
vt 0.07334303 -0.2853223
vt 0.07692073 -0.2835334
vt 0.07602631 -0.2817446
vt -0.01278724 -0.06951609
vt -0.01115978 -0.07067857
vt -0.009997304 -0.0690511
vt -0.01162477 -0.06788862
vt 0.01278724 -0.06951609
vt 0.01162477 -0.06788862
vt 0.009997304 -0.0690511
vt 0.01115978 -0.07067857
vt -0.06726728 -0.2775448
vt -0.06793995 -0.2794283
vt -0.06605648 -0.2801009
vt -0.0653838 -0.2782175
vt 0.06726728 -0.2775448
vt 0.0653838 -0.2782175
vt 0.06605648 -0.2801009
vt 0.06793995 -0.2794283
vt -0.06976532 -0.282639
vt -0.07155417 -0.2817446
vt -0.0724486 -0.2835334
vt -0.07065975 -0.2844279
vt 0.06976532 -0.282639
vt 0.07065975 -0.2844279
vt 0.0724486 -0.2835334
vt 0.07155417 -0.2817446
vt -0.00697486 -0.06137875
vt -0.005347395 -0.06254123
vt -0.004184919 -0.06091376
vt -0.005812385 -0.05975129
vt 0.00697486 -0.06137875
vt 0.005812385 -0.05975129
vt 0.004184919 -0.06091376
vt 0.005347395 -0.06254123
vt -0.06659461 -0.2756613
vt -0.06995796 -0.2850787
vt -0.06807449 -0.2857514
vt -0.06471112 -0.276334
vt 0.06659461 -0.2756613
vt 0.06471112 -0.276334
vt 0.06807449 -0.2857514
vt 0.06995796 -0.2850787
vt -0.07781517 -0.276378
vt -0.07960402 -0.2754836
vt -0.08407615 -0.2844279
vt -0.0822873 -0.2853223
vt 0.07781517 -0.276378
vt 0.0822873 -0.2853223
vt 0.08407615 -0.2844279
vt 0.07960402 -0.2754836
vt -0.009299815 -0.06463369
vt -0.007672349 -0.06579617
vt -0.006509874 -0.0641687
vt -0.00813734 -0.06300622
vt 0.009299815 -0.06463369
vt 0.00813734 -0.06300622
vt 0.006509874 -0.0641687
vt 0.007672349 -0.06579617
vt -0.06861262 -0.2813118
vt -0.0692853 -0.2831952
vt -0.06740181 -0.2838679
vt -0.06672914 -0.2819844
vt 0.06861262 -0.2813118
vt 0.06672914 -0.2819844
vt 0.06740181 -0.2838679
vt 0.0692853 -0.2831952
vt -0.07692073 -0.2835334
vt -0.07870959 -0.282639
vt -0.07960401 -0.2844279
vt -0.07781516 -0.2853223
vt 0.07692073 -0.2835334
vt 0.07781516 -0.2853223
vt 0.07960401 -0.2844279
vt 0.07870959 -0.282639
o group780802873
g mesh780802873
usemtl mat21
f 4/4/1 3/3/1 2/2/1 1/1/1
f 8/8/2 7/7/2 6/6/2 5/5/2
f 2/12/3 8/11/3 5/10/3 1/9/3
f 6/16/4 7/15/4 3/14/4 4/13/4
f 5/20/5 6/19/5 4/18/5 1/17/5
f 3/24/6 7/23/6 8/22/6 2/21/6
o group558575577
g mesh558575577
usemtl mat21
f 12/28/7 11/27/7 10/26/7 9/25/7
f 16/32/8 15/31/8 14/30/8 13/29/8
f 10/36/9 16/35/9 13/34/9 9/33/9
f 14/40/10 15/39/10 11/38/10 12/37/10
f 13/44/11 14/43/11 12/42/11 9/41/11
f 11/48/12 15/47/12 16/46/12 10/45/12
o group1263918203
g mesh1263918203
usemtl mat21
f 20/52/13 19/51/13 18/50/13 17/49/13
f 24/56/14 23/55/14 22/54/14 21/53/14
f 18/60/15 24/59/15 21/58/15 17/57/15
f 22/64/16 23/63/16 19/62/16 20/61/16
f 21/68/17 22/67/17 20/66/17 17/65/17
f 19/72/18 23/71/18 24/70/18 18/69/18
o group1735562201
g mesh1735562201
usemtl mat21
f 28/76/19 27/75/19 26/74/19 25/73/19
f 32/80/20 31/79/20 30/78/20 29/77/20
f 26/84/21 32/83/21 29/82/21 25/81/21
f 30/88/22 31/87/22 27/86/22 28/85/22
f 29/92/23 30/91/23 28/90/23 25/89/23
f 27/96/24 31/95/24 32/94/24 26/93/24
o group453089378
g mesh453089378
usemtl mat21
f 36/100/25 35/99/25 34/98/25 33/97/25
f 40/104/26 39/103/26 38/102/26 37/101/26
f 34/108/27 40/107/27 37/106/27 33/105/27
f 38/112/28 39/111/28 35/110/28 36/109/28
f 37/116/29 38/115/29 36/114/29 33/113/29
f 35/120/30 39/119/30 40/118/30 34/117/30
o group1807814692
g mesh1807814692
usemtl mat21
f 44/124/31 43/123/31 42/122/31 41/121/31
f 48/128/32 47/127/32 46/126/32 45/125/32
f 42/132/33 48/131/33 45/130/33 41/129/33
f 46/136/34 47/135/34 43/134/34 44/133/34
f 45/140/35 46/139/35 44/138/35 41/137/35
f 43/144/36 47/143/36 48/142/36 42/141/36
o group124223540
g mesh124223540
usemtl mat21
f 52/148/37 51/147/37 50/146/37 49/145/37
f 56/152/38 55/151/38 54/150/38 53/149/38
f 50/156/39 56/155/39 53/154/39 49/153/39
f 54/160/40 55/159/40 51/158/40 52/157/40
f 53/164/41 54/163/41 52/162/41 49/161/41
f 51/168/42 55/167/42 56/166/42 50/165/42
